<?xml version="1.0" encoding="UTF-8" standalone="no"?>
<svg width="32px" height="32px" viewBox="0 0 32 32" version="1.1" xmlns="http://www.w3.org/2000/svg" xmlns:xlink="http://www.w3.org/1999/xlink" xmlns:sketch="http://www.bohemiancoding.com/sketch/ns">
    <title>32.checkmark.green</title>
    <description>Created with Sketch (http://www.bohemiancoding.com/sketch)</description>
    <defs></defs>
    <g id="Page-1" stroke="none" stroke-width="1" fill="none" fill-rule="evenodd" sketch:type="MSPage">
        <g id="32.checkmark.green" sketch:type="MSArtboardGroup" fill="#7AC077">
            <path d="M16,29 C23.179702,29 29,23.179702 29,16 C29,8.82029795 23.179702,3 16,3 C8.82029795,3 3,8.82029795 3,16 C3,23.179702 8.82029795,29 16,29 Z M16,27 C22.0751325,27 27,22.0751325 27,16 C27,9.92486745 22.0751325,5 16,5 C9.92486745,5 5,9.92486745 5,16 C5,22.0751325 9.92486745,27 16,27 Z M10.0588681,16.5588681 L15,21.5 L21.9376618,14.5623382 C22.524375,13.975625 22.5260279,13.0260279 21.9414361,12.4414361 L22.0585639,12.558564 C21.4739352,11.9739352 20.5291901,11.9708099 19.9411319,12.5588681 L15,17.5 L12.0614249,14.5614249 C11.4752161,13.9752161 10.5260279,13.9739721 9.94143605,14.558564 L10.0585639,14.4414361 C9.47393522,15.0260648 9.47080994,15.9708099 10.0588681,16.5588681 Z" id="checkmark" sketch:type="MSShapeGroup"></path>
        </g>
    </g>
</svg>