<?xml version="1.0" standalone="no"?>
<!DOCTYPE svg PUBLIC "-//W3C//DTD SVG 1.1//EN" "http://www.w3.org/Graphics/SVG/1.1/DTD/svg11.dtd" >
<svg>
<metadata>
Created by FontForge 20110222 at Tue Aug  5 04:13:46 2014
 By Orthosie Webhosting
Copyright (c) 2008 ParaType Inc., ParaType Ltd. All rights reserved.
</metadata>
<defs>
<font id="TextbookNewBold" horiz-adv-x="600" >
  <font-face 
    font-family="TextbookNewBold"
    font-weight="700"
    font-stretch="normal"
    units-per-em="1000"
    panose-1="2 11 7 3 2 5 3 2 2 4"
    ascent="776"
    descent="-224"
    x-height="467"
    cap-height="700"
    bbox="-407 -267 1309 968"
    underline-thickness="50"
    underline-position="-50"
    unicode-range="U+0020-FB02"
  />
<missing-glyph horiz-adv-x="233" 
 />
    <glyph glyph-name="afii10017.var.accented" unicode="&#x410;`" horiz-adv-x="732" 
d="M434 700l294 -700h-156l-65 165h-282l-65 -165h-156l294 700h136zM271 285h189l-95 241zM327 910h138l-109 -141h-94z" />
    <glyph glyph-name="afii10022.var.accented" unicode="&#x415;`" horiz-adv-x="584" 
d="M538 576h-302v-144h242v-124h-242v-184h310v-124h-460v700h452v-124zM253 910h138l-109 -141h-94z" />
    <glyph glyph-name="afii10026.var.accented" unicode="&#x418;`" horiz-adv-x="738" 
d="M236 271l266 357v72h150v-700h-150v433l-266 -357v-76h-150v700h150v-429zM330 910h138l-109 -141h-94z" />
    <glyph glyph-name="afii10032.var.accented" unicode="&#x41e;`" horiz-adv-x="778" 
d="M389 594q-65 0 -104 -39q-65 -65 -65 -205t65 -205q39 -39 104 -39t104 39q65 65 65 205t-65 205q-39 39 -104 39zM728 350q0 -185 -97 -282q-85 -84 -242 -84t-242 84q-97 97 -97 282t97 282q85 84 242 84t242 -84q97 -97 97 -282zM350 910h138l-109 -141h-94z" />
    <glyph glyph-name="afii10037.var.accented" unicode="&#x423;`" horiz-adv-x="637" 
d="M337 374l134 326h152l-223 -532q-42 -102 -93 -144q-53 -42 -137 -42q-51 0 -86 13l-14 120q35 -11 67 -11q46 0 71 18q25 17 41 55l13 31l-252 492h160zM280 910h138l-109 -141h-94z" />
    <glyph glyph-name="afii10045.var.accented" unicode="&#x42b;`" horiz-adv-x="946" 
d="M710 700h150v-700h-150v700zM236 442h98q173 0 241 -74q51 -56 51 -147q0 -98 -57 -154q-68 -67 -209 -67h-274v700h150v-258zM236 320v-198h68q97 0 130 29q28 25 28 73q0 41 -25 65q-32 31 -135 31h-66zM434 910h138l-109 -141h-94z" />
    <glyph glyph-name="afii10047.var.accented" unicode="&#x42d;`" horiz-adv-x="681" 
d="M117 534l-68 100q99 82 250 82q158 0 244 -91q88 -92 88 -268q0 -196 -98 -292q-82 -81 -244 -81q-72 0 -133 17t-116 70l80 96q72 -61 159 -61q80 0 123 42q26 25 41 66t15 82h-250v120h250q-3 83 -51 132q-44 46 -124 46q-89 0 -166 -60zM302 910h138l-109 -141h-94z
" />
    <glyph glyph-name="afii10048.var.accented" unicode="&#x42e;`" horiz-adv-x="1065" 
d="M676 594q-62 0 -102 -39q-64 -64 -64 -208q0 -65 16.5 -120t46.5 -84q38 -37 100 -37t102 39q65 65 65 205q0 141 -65 205q-40 39 -99 39zM236 424h114q11 125 91 207q49 51 105.5 68t127.5 17q160 0 244 -84q97 -97 97 -282t-97 -282q-50 -50 -110 -67t-135 -17
q-70 0 -127.5 16t-105.5 66q-40 41 -64 103t-28 131h-112v-300h-150v700h150v-276zM494 910h138l-109 -141h-94z" />
    <glyph glyph-name="afii10049.var.accented" unicode="&#x42f;`" horiz-adv-x="700" 
d="M614 700v-700h-150v282h-37q-55 0 -86 -29q-22 -22 -44 -77l-28 -70q-27 -68 -75 -97q-51 -31 -132 -24l-22 122h5q29 0 52 14q19 12 37 52l27 60q17 39 37 59q28 28 67 35v7q-79 -2 -131 45q-45 41 -45 117q0 87 50 139q62 65 219 65h256zM464 404v174h-85
q-72 0 -100 -23q-30 -24 -30 -66q0 -48 41 -70q28 -15 95 -15h79zM311 910h138l-109 -141h-94z" />
    <glyph glyph-name="afii10023.var.accented" unicode="&#x401;`" horiz-adv-x="584" 
d="M538 576h-302v-144h242v-124h-242v-184h310v-124h-460v700h452v-124zM288 922h122l-118 -153h-78zM406 856q0 27 19.5 46.5t46.5 19.5t46.5 -19.5t19.5 -46.5t-19.5 -46.5t-46.5 -19.5t-46.5 19.5t-19.5 46.5zM86 856q0 27 19.5 46.5t46.5 19.5t46.5 -19.5t19.5 -46.5
t-19.5 -46.5t-46.5 -19.5t-46.5 19.5t-19.5 46.5z" />
    <glyph glyph-name="afii10065.var.accented" unicode="&#x430;`" horiz-adv-x="546" 
d="M109 340l-52 82q85 58 213 58q109 0 156 -50q42 -44 42 -132v-146q0 -37 10 -49q13 -15 40 -10l-16 -105q-77 -14 -117 16q-26 20 -37 57q-36 -38 -65 -53q-41 -21 -91 -21q-74 0 -117 40t-43 102q0 59 41 100q40 42 123 56q64 11 139 11v10q0 36 -17 53q-20 21 -65 21
q-70 0 -144 -40zM335 148v70q-53 -2 -87 -9q-47 -9 -67 -30q-15 -15 -15 -38q0 -24 16 -38q15 -14 44 -14q35 0 64 18q23 14 45 41zM286 700h126l-116 -163h-82z" />
    <glyph glyph-name="afii10070.var.accented" unicode="&#x435;`" horiz-adv-x="559" 
d="M191 295h196q-4 42 -32 68q-24 23 -64 23q-38 0 -66 -24q-27 -26 -34 -67zM428 134l78 -70q-69 -77 -214 -77q-119 0 -181 60q-71 68 -71 179q0 114 75 189q66 65 172 65q107 0 165 -62q67 -69 67 -200v-13h-333q0 -50 30 -84q30 -32 87 -32q71 0 125 45zM292 700h126
l-116 -163h-82z" />
    <glyph glyph-name="afii10074.var.accented" unicode="&#x438;`" horiz-adv-x="594" 
d="M208 200l178 219v48h134v-467h-134v267l-178 -219v-48h-134v467h134v-267zM310 700h126l-116 -163h-82z" />
    <glyph glyph-name="afii10080.var.accented" unicode="&#x43e;`" horiz-adv-x="588" 
d="M294 378q-39 0 -65 -25q-39 -38 -39 -120q0 -80 39 -119q26 -25 65 -25t65 25q39 39 39 119q0 82 -39 120q-26 25 -65 25zM548 234q0 -139 -94 -206q-59 -41 -160 -41t-160 41q-94 67 -94 206t94 205q59 41 160 41t160 -41q94 -66 94 -205zM307 700h126l-116 -163h-82z
" />
    <glyph glyph-name="afii10085.var.accented" unicode="&#x443;`" horiz-adv-x="522" 
d="M272 166l91 301h143l-174 -493q-32 -91 -68 -129q-49 -50 -145 -50q-33 0 -60 7l-12 104q23 -7 46 -7q38 0 61 17q25 20 40 64l13 38l-191 449h145zM274 700h126l-116 -163h-82z" />
    <glyph glyph-name="afii10093.var.accented" unicode="&#x44b;`" horiz-adv-x="760" 
d="M550 0v467h136v-467h-136zM74 0v467h136v-153h65q66 0 107 -10t69 -41q37 -40 37 -108q0 -69 -39 -108q-21 -21 -53 -32t-58 -13t-70 -2h-194zM210 94h44q47 0 70 13q28 16 28 52q0 34 -25 50q-17 11 -65 11h-52v-126zM393 700h126l-116 -163h-82z" />
    <glyph glyph-name="afii10095.var.accented" unicode="&#x44d;`" horiz-adv-x="519" 
d="M24 68l76 72q54 -51 119 -51q54 0 81 27q26 25 30 70h-157v104h157q-3 41 -34 67q-26 21 -74 21q-41 0 -74 -14q-27 -12 -51 -30l-61 81q75 65 194 65q36 0 62.5 -3t62 -18.5t63.5 -43.5q61 -63 61 -174q0 -130 -67 -195q-62 -59 -181 -59q-79 0 -126 20q-44 18 -81 61z
M272 700h126l-116 -163h-82z" />
    <glyph glyph-name="afii10096.var.accented" unicode="&#x44e;`" horiz-adv-x="820" 
d="M202 303h84q10 54 37.5 92t65 55t70.5 23.5t69 6.5q94 0 157 -44q95 -66 95 -202t-95 -203q-63 -44 -163 -44q-28 0 -55 4t-60.5 17t-58 34.5t-43.5 61t-22 91.5h-81v-195h-134v467h134v-164zM526 378q-52 0 -76.5 -45t-24.5 -99q0 -15 2.5 -32.5t11 -46.5t31 -47.5
t56.5 -18.5q39 0 63.5 25t32.5 55.5t8 64.5q0 14 -2.5 31t-11.5 46t-32 48t-58 19zM423 700h126l-116 -163h-82z" />
    <glyph glyph-name="afii10097.var.accented" unicode="&#x44f;`" horiz-adv-x="565" 
d="M355 171h-29q-42 0 -63 -20q-13 -12 -29 -45l-18 -38q-21 -44 -53 -63q-33 -20 -111 -18l-18 106q24 -2 39 7q14 8 28 35l13 25q13 25 29 37q21 16 46 20v4q-54 0 -86 29q-30 28 -30 80q0 58 34 93q25 26 62 35t96 9h226v-467h-136v171zM355 379h-68q-42 0 -60 -18
q-16 -16 -16 -42q0 -31 23 -46q19 -12 53 -12h68v118zM295 700h126l-116 -163h-82z" />
    <glyph glyph-name="afii10071.var.accented" unicode="&#x451;`" horiz-adv-x="559" 
d="M191 295h196q-5 46 -32.5 68.5t-63.5 22.5q-44 0 -69 -26t-31 -65zM428 134l78 -70q-69 -77 -214 -77q-119 0 -181 60q-71 68 -71 179q0 114 75 189q66 65 172 65q105 0 165 -62q67 -69 67 -200v-13h-333q0 -61 34.5 -88.5t82.5 -27.5q71 0 125 45zM269 714h104
l-118 -177h-68zM64 648q0 28 20 48t48 20t48 -20t20 -48t-20 -48t-48 -20t-48 20t-20 48zM376 648q0 28 20 48t48 20t48 -20t20 -48t-20 -48t-48 -20t-48 20t-20 48z" />
    <glyph glyph-name="fi" unicode="fi" horiz-adv-x="640" 
d="M96 467v68q0 101 66 146q43 29 116 29q74 0 126 -26l-46 -96q-29 16 -57 16q-32 0 -50 -18q-19 -18 -19 -61v-58h114v-108h-114v-359h-136v359h-80v108h80zM432 0v467h136v-467h-136zM420 630q0 33 23.5 56.5t56.5 23.5t56.5 -23.5t23.5 -56.5t-23.5 -56.5t-56.5 -23.5
t-56.5 23.5t-23.5 56.5z" />
    <glyph glyph-name="fl" unicode="fl" horiz-adv-x="647" 
d="M437 0v700h136v-700h-136zM96 467v68q0 101 66 146q43 29 116 29q74 0 126 -26l-46 -96q-29 16 -57 16q-32 0 -50 -18q-19 -18 -19 -61v-58h114v-108h-114v-359h-136v359h-80v108h80z" />
    <glyph glyph-name=".notdef" horiz-adv-x="233" 
 />
    <glyph glyph-name=".null" horiz-adv-x="0" 
 />
    <glyph glyph-name="nonmarkingreturn" horiz-adv-x="333" 
 />
    <glyph glyph-name="space" unicode=" " horiz-adv-x="233" 
 />
    <glyph glyph-name="exclam" unicode="!" horiz-adv-x="300" 
d="M225 222h-150v478h150v-478zM66 68q0 35 24.5 59.5t59.5 24.5t59.5 -24.5t24.5 -59.5t-24.5 -59.5t-59.5 -24.5t-59.5 24.5t-24.5 59.5z" />
    <glyph glyph-name="quotedbl" unicode="&#x22;" horiz-adv-x="437" 
d="M192 700l-27 -231h-70l-27 231h124zM369 700l-27 -231h-70l-27 231h124z" />
    <glyph glyph-name="numbersign" unicode="#" horiz-adv-x="930" 
d="M626 0h-134l29 154h-186l-29 -154h-134l29 154h-146l22 114h146l30 165h-146l22 114h146l29 153h134l-29 -153h186l28 153h134l-28 -153h146l-22 -114h-146l-30 -165h146l-22 -114h-146zM357 268h186l30 165h-186z" />
    <glyph glyph-name="dollar" unicode="$" 
d="M544 633l-75 -97q-56 43 -116 53v-181q123 -35 169 -81q50 -49 50 -131q0 -92 -58 -146q-61 -58 -161 -64v-76h-98v75q-64 3 -123 28q-60 25 -104 70l81 98q26 -26 66 -47q40 -20 80 -25v179q-71 23 -107.5 39.5t-61.5 41.5q-47 47 -47 124q0 97 65 160q61 59 151 61v76
h98v-77q53 -5 103 -28q44 -20 88 -52zM353 266v-159q35 0 57 20q24 23 24 62q0 34 -21 52q-23 21 -60 25zM255 432v156q-32 -1 -54 -21q-24 -21 -24 -59q0 -36 25 -55q22 -15 53 -21z" />
    <glyph glyph-name="percent" unicode="%" horiz-adv-x="924" 
d="M269 -77l-67 39l452 815l70 -40zM714 298q-24 0 -39 -16q-29 -30 -29 -101t29 -101q15 -16 39 -16t39 16q29 30 29 101t-29 101q-15 16 -39 16zM884 181q0 -100 -51 -153q-43 -44 -119 -44t-119 44q-51 53 -51 153q0 101 51 152q44 45 119 45t119 -45q51 -51 51 -152z
M210 636q-24 0 -39 -16q-29 -30 -29 -101t29 -101q15 -16 39 -16t39 16q29 30 29 101t-29 101q-15 16 -39 16zM380 519q0 -100 -51 -153q-43 -44 -119 -44t-119 44q-51 53 -51 153q0 101 51 152q44 45 119 45t119 -45q51 -51 51 -152z" />
    <glyph glyph-name="ampersand" unicode="&#x26;" horiz-adv-x="666" 
d="M547 322l83 -65q-35 -62 -93 -117l90 -140h-141l-35 57q-35 -33 -82 -52q-48 -19 -109 -19q-96 0 -152 51q-63 56 -63 165q0 85 57 151q44 51 115 77q-41 56 -41 116q0 67 42 114q50 56 144 56q56 0 103 -20q39 -17 68 -44l-67 -84q-48 40 -92 40q-29 0 -46 -13
q-22 -17 -22 -50q0 -24 18 -56q17 -30 40 -67l119 -192q34 30 64 92zM394 147l-121 196q-45 -20 -66 -43q-36 -36 -36 -90q0 -56 33 -89q27 -27 75 -27q73 0 115 53z" />
    <glyph glyph-name="quotesingle" unicode="'" horiz-adv-x="264" 
d="M196 700l-27 -231h-74l-27 231h128z" />
    <glyph glyph-name="parenleft" unicode="(" horiz-adv-x="341" 
d="M220 716l80 -47q-55 -91 -82 -192q-26 -95 -26 -218q0 -111 30 -211t79 -193l-81 -46q-69 88 -111 209q-41 120 -41 238q0 144 46 269q38 105 106 191z" />
    <glyph glyph-name="parenright" unicode=")" horiz-adv-x="341" 
d="M41 669l80 47q68 -86 106 -191q46 -125 46 -269q0 -118 -41 -238q-39 -116 -111 -210l-81 47q49 93 79 193t30 211q0 123 -26 218q-27 101 -82 192z" />
    <glyph glyph-name="asterisk" unicode="*" horiz-adv-x="420" 
d="M213 512h-9l-49 -95l-86 60l82 75l-3 9l-108 16l31 104l98 -53l6 6l-18 110h107l-17 -111l6 -5l98 53l29 -104l-108 -17l-1 -9l81 -75l-86 -59z" />
    <glyph glyph-name="plus" unicode="+" horiz-adv-x="726" 
d="M301 288h-253v124h253v253h124v-253h253v-124h-253v-253h-124v253z" />
    <glyph glyph-name="comma" unicode="," horiz-adv-x="296" 
d="M101 -195l-57 49q34 29 55 57q27 37 31 78q-26 3 -43 23t-17 50q0 36 22 61q23 25 60 25q36 0 57 -22q27 -27 27 -83q0 -90 -53 -161q-34 -45 -82 -77z" />
    <glyph glyph-name="hyphen" unicode="-" horiz-adv-x="372" 
d="M50 216v114h272v-114h-272z" />
    <glyph glyph-name="period" unicode="." horiz-adv-x="288" 
d="M60 68q0 35 24.5 59.5t59.5 24.5t59.5 -24.5t24.5 -59.5t-24.5 -59.5t-59.5 -24.5t-59.5 24.5t-24.5 59.5z" />
    <glyph glyph-name="slash" unicode="/" horiz-adv-x="666" 
d="M92 -198l-72 43l522 871l74 -46z" />
    <glyph glyph-name="zero" unicode="0" 
d="M300 594q-29 0 -47 -18q-45 -45 -45 -226t45 -226q18 -18 47 -18t47 18q45 45 45 226t-45 226q-18 18 -47 18zM558 350q0 -216 -88 -305q-60 -61 -170 -61t-170 61q-88 89 -88 305t88 305q60 61 170 61t170 -61q88 -89 88 -305z" />
    <glyph glyph-name="one" unicode="1" 
d="M254 0v510q-39 -37 -92 -62l-53 77q61 39 101 77q43 42 70 98h120v-700h-146z" />
    <glyph glyph-name="two" unicode="2" 
d="M301 124h249v-124h-464v101q80 70 121 111q76 74 125 140q54 74 54 140q0 48 -28 76q-26 26 -66 26q-44 0 -72 -30q-21 -22 -39 -69l-133 57q30 84 98 127q58 37 150 37q124 0 190 -63t66 -164q0 -71 -34 -132t-101 -129q-53 -53 -116 -104z" />
    <glyph glyph-name="three" unicode="3" 
d="M183 500l-124 47q21 66 63 108q61 61 181 61q108 0 169 -46q67 -50 67 -142q0 -68 -35 -109q-33 -39 -84 -50v-3q58 -12 95 -48q45 -45 45 -121q0 -89 -58 -147q-66 -66 -219 -66q-55 0 -92.5 8.5t-73.5 36.5q-51 39 -77 102l123 67q18 -41 38 -61q30 -31 81 -31
q53 0 81 28q27 27 27 68q0 43 -28 69t-88 26h-39v124h21q59 0 89 22q33 24 33 70q0 35 -23 58q-24 23 -64 23q-45 0 -71 -27q-22 -23 -37 -67z" />
    <glyph glyph-name="four" unicode="4" 
d="M351 134h-281v95l255 471h172v-452h63v-114h-63v-134h-146v134zM351 531l-149 -283h149v283z" />
    <glyph glyph-name="five" unicode="5" 
d="M114 700h358v-124h-237l-12 -145q45 32 109 32q97 0 153 -60q59 -62 59 -169q0 -119 -68 -187q-39 -39 -85 -51t-107 -12q-97 0 -148 35q-55 38 -80 107l133 59q12 -43 33 -64q24 -25 63 -25q42 0 66 31q27 36 27 106q0 74 -35 106q-24 22 -61 22q-53 0 -85 -43h-113z
" />
    <glyph glyph-name="six" unicode="6" 
d="M520 600l-121 -61q-11 32 -31 48q-21 17 -54 17q-40 0 -65 -23q-26 -24 -38.5 -80t-13.5 -108q42 69 137 69q86 0 136 -49q68 -66 68 -181q0 -123 -68 -189q-61 -59 -171 -59q-103 0 -161 59q-76 80 -76 268q0 97 20 187q24 110 76 161q58 57 167 57q75 0 122 -28
q51 -31 73 -88zM300 348q-29 0 -49 -19q-30 -29 -30 -106t30 -106q20 -19 49 -19q31 0 50 19q30 29 30 106t-30 106q-19 19 -50 19z" />
    <glyph glyph-name="seven" unicode="7" 
d="M370 576h-276v124h412v-98q-69 -123 -121 -280q-55 -167 -65 -322h-148q17 155 76 309q45 119 122 267z" />
    <glyph glyph-name="eight" unicode="8" 
d="M300 608q-35 0 -56 -21q-26 -26 -26 -74t26 -74q21 -21 56 -21t56 21q26 26 26 74t-26 74q-21 21 -56 21zM300 310q-35 0 -61 -24q-29 -28 -29 -81t29 -81q24 -24 62 -24q36 0 60 24q29 29 29 81q0 53 -29 81q-24 24 -61 24zM300 -16q-137 0 -198 59q-58 56 -58 158
q0 82 50 130q31 30 75 41q-51 13 -78 54t-27 103q0 80 49 128q60 59 187 59t187 -59q49 -48 49 -128q0 -62 -27 -103t-78 -54q44 -11 75 -41q50 -48 50 -130q0 -102 -58 -158q-61 -59 -198 -59z" />
    <glyph glyph-name="nine" unicode="9" 
d="M86 101l110 62q13 -30 30 -47q21 -20 56 -20q39 0 63 23q24 21 39 85q11 49 14 99q-43 -61 -131 -61q-86 0 -139 49q-66 61 -66 172q0 126 74 195q61 58 163 58q105 0 164 -59q75 -75 75 -267q0 -100 -19 -187q-24 -111 -76 -163q-56 -56 -162 -56q-78 0 -120 27
q-47 29 -75 90zM298 352q32 0 51 19q30 29 30 106t-30 106q-19 19 -51 19q-30 0 -50 -19q-30 -29 -30 -106t30 -106q20 -19 50 -19z" />
    <glyph glyph-name="colon" unicode=":" horiz-adv-x="268" 
d="M50 68q0 35 24.5 59.5t59.5 24.5t59.5 -24.5t24.5 -59.5t-24.5 -59.5t-59.5 -24.5t-59.5 24.5t-24.5 59.5zM50 395q0 35 24.5 59.5t59.5 24.5t59.5 -24.5t24.5 -59.5t-24.5 -59.5t-59.5 -24.5t-59.5 24.5t-24.5 59.5z" />
    <glyph glyph-name="semicolon" unicode=";" horiz-adv-x="286" 
d="M68 395q0 35 24.5 59.5t59.5 24.5t59.5 -24.5t24.5 -59.5t-24.5 -59.5t-59.5 -24.5t-59.5 24.5t-24.5 59.5zM101 -195l-57 49q34 29 55 57q27 37 31 78q-26 3 -43 23t-17 50q0 36 22 61q23 25 60 25q36 0 57 -22q27 -27 27 -83q0 -90 -53 -161q-34 -45 -82 -77z" />
    <glyph glyph-name="semicolon" unicode="&#x37e;" horiz-adv-x="286" 
d="M68 395q0 35 24.5 59.5t59.5 24.5t59.5 -24.5t24.5 -59.5t-24.5 -59.5t-59.5 -24.5t-59.5 24.5t-24.5 59.5zM101 -195l-57 49q34 29 55 57q27 37 31 78q-26 3 -43 23t-17 50q0 36 22 61q23 25 60 25q36 0 57 -22q27 -27 27 -83q0 -90 -53 -161q-34 -45 -82 -77z" />
    <glyph glyph-name="less" unicode="&#x3c;" horiz-adv-x="706" 
d="M620 657l26 -80l-516 -226l516 -227l-26 -80l-560 249v116z" />
    <glyph glyph-name="equal" unicode="=" horiz-adv-x="710" 
d="M40 178v124h630v-124h-630zM40 398v124h630v-124h-630z" />
    <glyph glyph-name="greater" unicode="&#x3e;" horiz-adv-x="706" 
d="M86 657l560 -248v-116l-560 -249l-26 80l516 227l-516 226z" />
    <glyph glyph-name="question" unicode="?" horiz-adv-x="553" 
d="M343 222h-137v16q0 44 20 81q11 21 54 68l32 34q39 41 39 92q0 38 -24 62q-20 19 -53 19q-42 0 -70 -28q-23 -23 -37 -61l-127 50q28 78 93 122q59 39 148 39q120 0 180 -60q52 -52 52 -133q0 -80 -64 -140l-43 -40q-36 -33 -48 -54q-15 -28 -15 -55v-12zM194 66
q0 34 24 58t58 24t58 -24t24 -58t-24 -58t-58 -24t-58 24t-24 58z" />
    <glyph glyph-name="at" unicode="@" horiz-adv-x="802" 
d="M593 501l-59 -202q-7 -24 -7 -38q0 -18 11 -26q10 -7 27 -7q37 0 63 23q46 41 46 141q0 94 -59 155q-71 73 -199 73q-129 0 -205 -76q-83 -81 -83 -219q0 -123 74 -195q68 -66 191 -66q114 0 188 42l45 -60q-46 -33 -105 -47q-59 -15 -136 -15q-158 0 -252 95
q-93 98 -93 254q0 172 109 274q100 93 268 93q166 0 261 -95q84 -84 84 -211q0 -121 -66 -185q-53 -52 -144 -52q-75 0 -98 46q-47 -44 -108 -44q-53 0 -85 31q-38 38 -38 106q0 42 16 88.5t48 79.5q47 50 119 50q61 0 96 -48l11 35h80zM444 266l41 139q-30 43 -71 43
q-34 0 -60 -27q-19 -20 -32.5 -58t-13.5 -71q0 -32 13 -50q13 -19 42 -19q40 0 81 43z" />
    <glyph glyph-name="A" unicode="A" horiz-adv-x="732" 
d="M434 700l294 -700h-156l-65 165h-282l-65 -165h-156l294 700h136zM271 285h189l-95 241z" />
    <glyph glyph-name="B" unicode="B" horiz-adv-x="687" 
d="M86 0v700h253q79 0 133 -10t88 -44q45 -44 45 -127q0 -60 -30 -95q-28 -33 -74 -44v-8q55 -9 97 -48q49 -49 49 -127q0 -86 -56 -140q-27 -25 -68 -38.5t-73.5 -16t-82.5 -2.5h-281zM236 584v-162h87q57 0 84 14q38 20 38 70q0 42 -27 62q-23 16 -84 16h-98zM236 306
v-190h89q75 0 108 16q48 24 48 81q0 39 -24 63q-30 30 -126 30h-95z" />
    <glyph glyph-name="C" unicode="C" horiz-adv-x="680" 
d="M637 641l-75 -105q-43 29 -66 39q-41 19 -87 19q-73 0 -119 -46q-70 -70 -70 -212q0 -126 63 -186q46 -44 117 -44q86 0 164 63l76 -106q-92 -79 -256 -79q-74 0 -131.5 17.5t-105.5 65.5q-97 97 -97 267q0 187 103 291q91 91 246 91q80 0 137 -19q56 -20 101 -56z" />
    <glyph glyph-name="D" unicode="D" horiz-adv-x="726" 
d="M86 700h201q115 0 186 -16.5t123 -73.5q80 -89 80 -257q0 -185 -88 -269t-290 -84h-212v700zM236 576v-452h33q45 0 70 1.5t57.5 12t54.5 30.5q57 52 57 183q0 121 -51 176q-47 49 -155 49h-66z" />
    <glyph glyph-name="E" unicode="E" horiz-adv-x="584" 
d="M538 576h-302v-144h242v-124h-242v-184h310v-124h-460v700h452v-124z" />
    <glyph glyph-name="F" unicode="F" horiz-adv-x="568" 
d="M530 576h-294v-152h238v-124h-238v-300h-150v700h444v-124z" />
    <glyph glyph-name="G" unicode="G" horiz-adv-x="767" 
d="M390 364h327q-4 -205 -94 -299q-80 -83 -237 -83q-137 0 -218 66q-54 45 -86 118.5t-32 163.5q0 74 24.5 154.5t84.5 138.5q56 56 118.5 73.5t136.5 17.5q96 0 159 -25q60 -25 104 -69l-88 -102q-40 34 -73 51q-45 25 -99 25q-77 0 -127 -50q-70 -68 -70 -210
q0 -128 60 -187q43 -43 112 -43q59 0 97 29q52 41 63 123h-162v108z" />
    <glyph glyph-name="H" unicode="H" horiz-adv-x="743" 
d="M236 300v-300h-150v700h150v-276h271v276h150v-700h-150v300h-271z" />
    <glyph glyph-name="I" unicode="I" horiz-adv-x="322" 
d="M86 700h150v-700h-150v700z" />
    <glyph glyph-name="J" unicode="J" horiz-adv-x="443" 
d="M207 700h150v-450q0 -48 -2.5 -80.5t-15.5 -74t-38 -65.5q-47 -46 -147 -46q-96 0 -154 44l53 107q34 -25 75 -25q37 0 55 20q24 25 24 125v445z" />
    <glyph glyph-name="K" unicode="K" horiz-adv-x="696" 
d="M236 404l270 296h174l-267 -293l279 -407h-172l-205 299l-79 -85v-214h-150v700h150v-296z" />
    <glyph glyph-name="L" unicode="L" horiz-adv-x="576" 
d="M236 124h316v-124h-466v700h150v-576z" />
    <glyph glyph-name="M" unicode="M" horiz-adv-x="858" 
d="M592 700h180v-700h-148v474l-151 -359h-88l-151 359v-474h-148v700h180l163 -394z" />
    <glyph glyph-name="N" unicode="N" horiz-adv-x="735" 
d="M232 462v-462h-146v700h144l273 -462v462h146v-700h-144z" />
    <glyph glyph-name="O" unicode="O" horiz-adv-x="778" 
d="M389 594q-65 0 -104 -39q-65 -65 -65 -205t65 -205q39 -39 104 -39t104 39q65 65 65 205t-65 205q-39 39 -104 39zM728 350q0 -185 -97 -282q-85 -84 -242 -84t-242 84q-97 97 -97 282t97 282q85 84 242 84t242 -84q97 -97 97 -282z" />
    <glyph glyph-name="P" unicode="P" horiz-adv-x="665" 
d="M236 244v-244h-150v700h235q86 0 141 -12.5t96 -52.5q61 -59 61 -162q0 -105 -59 -163q-67 -66 -233 -66h-91zM236 366h61q83 0 121 26q41 27 41 85q0 55 -37 80q-29 21 -102 21h-84v-212z" />
    <glyph glyph-name="Q" unicode="Q" horiz-adv-x="778" 
d="M463 252l65 -63q32 67 32 153q0 150 -65 213q-39 39 -104 39q-67 0 -106 -39q-65 -64 -65 -205q0 -140 65 -205q39 -39 104 -39q35 0 62 11l-62 59zM635 -54l-79 73q-67 -35 -165 -35q-73 0 -133.5 16.5t-110.5 67.5q-97 97 -97 282t97 282q85 84 242 84t242 -84
q97 -97 97 -285q0 -162 -90 -262l71 -66z" />
    <glyph glyph-name="R" unicode="R" horiz-adv-x="666" 
d="M236 263v-263h-150v700h250q161 0 225 -64q56 -54 56 -154q0 -84 -42 -134q-39 -47 -101 -62l144 -286h-161l-127 263h-94zM236 381h70q95 0 127 33q24 26 24 69q0 51 -34 74q-30 21 -103 21h-84v-197z" />
    <glyph glyph-name="S" unicode="S" horiz-adv-x="635" 
d="M567 633l-75 -97q-38 25 -78 41q-43 17 -86 17q-50 0 -77 -22q-29 -24 -29 -60t35 -58q16 -10 87 -35l77 -26q88 -30 124 -66q50 -49 50 -131q0 -90 -58 -146q-69 -66 -222 -66q-94 0 -159 25q-64 27 -116 74l82 98q33 -27 83 -50t104 -23q55 0 83 17q35 22 35 61
q0 28 -21 49q-16 17 -72 35l-93 31q-93 30 -132 68q-47 46 -47 123q0 100 65 161q67 63 194 63q77 0 139 -22q57 -20 107 -61z" />
    <glyph glyph-name="T" unicode="T" horiz-adv-x="568" 
d="M359 576v-576h-150v576h-195v124h540v-124h-195z" />
    <glyph glyph-name="U" unicode="U" horiz-adv-x="744" 
d="M658 700v-392q0 -60 -2.5 -96.5t-18 -83.5t-45.5 -77q-67 -67 -220 -67t-220 67q-30 30 -45.5 77t-18 83.5t-2.5 96.5v392h150v-390v-13q0 -43 1 -64.5t10 -49.5t27 -44q32 -29 98 -29t98 29q18 16 27 44t10 49.5t1 64.5v13v390h150z" />
    <glyph glyph-name="V" unicode="V" horiz-adv-x="674" 
d="M337 228l161 472h156l-253 -700h-128l-253 700h158z" />
    <glyph glyph-name="W" unicode="W" horiz-adv-x="978" 
d="M489 506l-147 -506h-128l-184 700h156l105 -462l130 462h136l130 -462l105 462h156l-184 -700h-128z" />
    <glyph glyph-name="X" unicode="X" horiz-adv-x="681" 
d="M639 700l-213 -325l249 -375h-174l-160 245l-161 -245h-174l249 375l-213 325h167l132 -198l131 198h167z" />
    <glyph glyph-name="Y" unicode="Y" horiz-adv-x="668" 
d="M334 413l156 287h164l-245 -434v-266h-150v266l-245 434h164z" />
    <glyph glyph-name="Z" unicode="Z" horiz-adv-x="584" 
d="M355 576h-297v124h487v-86l-339 -490h342v-124h-522v90z" />
    <glyph glyph-name="bracketleft" unicode="[" horiz-adv-x="363" 
d="M198 -90h139v-102h-255v908h255v-102h-139v-704z" />
    <glyph glyph-name="backslash" unicode="\" horiz-adv-x="636" 
d="M544 -198l-524 868l74 46l522 -871z" />
    <glyph glyph-name="bracketright" unicode="]" horiz-adv-x="363" 
d="M165 -90v704h-139v102h255v-908h-255v102h139z" />
    <glyph glyph-name="asciicircum" unicode="^" horiz-adv-x="519" 
d="M259 604l-95 -139h-114l167 235h84l168 -235h-114z" />
    <glyph glyph-name="underscore" unicode="_" horiz-adv-x="587" 
d="M0 -232v106h587v-106h-587z" />
    <glyph glyph-name="grave" unicode="`" horiz-adv-x="394" 
d="M184 700l72 -163h-82l-116 163h126z" />
    <glyph glyph-name="a" unicode="a" horiz-adv-x="546" 
d="M109 340l-52 82q85 58 213 58q109 0 156 -50q42 -44 42 -132v-146q0 -37 10 -49q13 -15 40 -10l-16 -105q-77 -14 -117 16q-26 20 -37 57q-36 -38 -65 -53q-41 -21 -91 -21q-74 0 -117 40t-43 102q0 59 41 100q40 42 123 56q64 11 139 11v10q0 36 -17 53q-20 21 -65 21
q-70 0 -144 -40zM335 148v70q-53 -2 -87 -9q-47 -9 -67 -30q-15 -15 -15 -38q0 -24 16 -38q15 -14 44 -14q35 0 64 18q23 14 45 41z" />
    <glyph glyph-name="b" unicode="b" horiz-adv-x="601" 
d="M210 310v-160q40 -61 103 -61q35 0 57 21q41 37 41 130q0 65 -28 103q-24 33 -64 33q-30 0 -59.5 -18.5t-49.5 -47.5zM74 0v700h136v-282q55 60 145 60t143 -53q63 -63 63 -183q0 -125 -68 -196q-33 -35 -66.5 -45.5t-78.5 -10.5q-89 0 -138 58v-48h-136z" />
    <glyph glyph-name="c" unicode="c" horiz-adv-x="525" 
d="M413 139l82 -72q-35 -43 -84 -61.5t-124 -18.5q-122 0 -182 58q-65 63 -65 177q0 120 69 189t192 69q112 0 177 -56l-65 -85q-47 35 -96 35q-54 0 -86 -30q-41 -38 -41 -119q0 -69 35 -104q28 -28 84 -28q60 0 104 46z" />
    <glyph glyph-name="d" unicode="d" horiz-adv-x="601" 
d="M391 154v162q-37 60 -95 60q-39 0 -65 -25q-41 -39 -41 -125q0 -64 25 -100q26 -37 72 -37q66 0 104 65zM527 0h-136v50q-48 -60 -142 -60q-91 0 -141 50q-68 68 -68 190q0 123 69 192q57 56 150 56q88 0 132 -56v278h136v-700z" />
    <glyph glyph-name="e" unicode="e" horiz-adv-x="559" 
d="M191 295h196q-4 42 -32 68q-24 23 -64 23q-38 0 -66 -24q-27 -26 -34 -67zM428 134l78 -70q-69 -77 -214 -77q-119 0 -181 60q-71 68 -71 179q0 114 75 189q66 65 172 65q107 0 165 -62q67 -69 67 -200v-13h-333q0 -50 30 -84q30 -32 87 -32q71 0 125 45z" />
    <glyph glyph-name="f" unicode="f" horiz-adv-x="358" 
d="M96 467v58q0 109 64 153q46 32 126 32q79 0 128 -30l-46 -93q-34 17 -68 17t-51 -19t-17 -73v-45h114v-108h-114v-359h-136v359h-80v108h80z" />
    <glyph glyph-name="g" unicode="g" horiz-adv-x="601" 
d="M391 153v160q-39 63 -96 63q-47 0 -74 -36q-31 -41 -31 -112q0 -73 34 -109q24 -25 62 -25q62 0 105 59zM391 467h136v-416q0 -73 -11 -120.5t-43 -80.5q-32 -32 -76 -43.5t-112 -11.5q-113 0 -190 47l56 89q58 -32 127 -32q58 0 85 26q28 27 28 100v30q-56 -56 -147 -56
q-89 0 -142 53q-62 62 -62 178q0 122 69 191q57 57 155 57q86 0 127 -61v50z" />
    <glyph glyph-name="h" unicode="h" horiz-adv-x="598" 
d="M74 700h136v-287q24 30 59 47q37 18 83 18q83 0 124 -39q48 -46 48 -154v-285h-136v259q0 70 -21 92q-17 17 -46 17q-31 0 -64 -25q-28 -21 -47 -50v-293h-136v700z" />
    <glyph glyph-name="i" unicode="i" horiz-adv-x="284" 
d="M74 0v467h136v-467h-136zM60 648q0 34 24 58t58 24t58 -24t24 -58t-24 -58t-58 -24t-58 24t-24 58z" />
    <glyph glyph-name="j" unicode="j" horiz-adv-x="318" 
d="M244 467v-461q0 -43 -1 -64t-11 -54t-29 -52q-41 -41 -138 -41q-70 0 -120 28l45 99q24 -13 56 -13q34 0 49 19q13 17 13 70v469h136zM94 648q0 34 24 58t58 24t58 -24t24 -58t-24 -58t-58 -24t-58 24t-24 58z" />
    <glyph glyph-name="k" unicode="k" horiz-adv-x="573" 
d="M210 301l173 166h168l-189 -181l195 -286h-159l-131 193l-57 -53v-140h-136v700h136v-399z" />
    <glyph glyph-name="l" unicode="l" horiz-adv-x="284" 
d="M74 0v700h136v-700h-136z" />
    <glyph glyph-name="m" unicode="m" horiz-adv-x="856" 
d="M208 467v-52q20 27 53 46q35 19 81 19q48 0 79 -18q33 -18 51 -54q26 31 56 48q39 22 90 22q76 0 117 -39q30 -28 38.5 -67.5t8.5 -99.5v-272h-134v261q0 73 -22 94q-14 13 -35 13q-30 0 -58 -23q-23 -18 -39 -44v-301h-132v267q0 65 -23 87q-15 14 -36 14q-28 0 -57 -23
q-20 -17 -38 -44v-301h-134v467h134z" />
    <glyph glyph-name="n" unicode="n" horiz-adv-x="598" 
d="M74 467h136v-54q24 30 59 47q37 18 83 18q83 0 124 -39q48 -46 48 -154v-285h-136v259q0 70 -21 92q-17 17 -46 17q-31 0 -64 -25q-28 -21 -47 -50v-293h-136v467z" />
    <glyph glyph-name="o" unicode="o" horiz-adv-x="588" 
d="M294 378q-39 0 -65 -25q-39 -38 -39 -120q0 -80 39 -119q26 -25 65 -25t65 25q39 39 39 119q0 82 -39 120q-26 25 -65 25zM548 234q0 -139 -94 -206q-59 -41 -160 -41t-160 41q-94 67 -94 206t94 205q59 41 160 41t160 -41q94 -66 94 -205z" />
    <glyph glyph-name="p" unicode="p" horiz-adv-x="601" 
d="M210 307v-167q40 -51 99 -51q39 0 65 27q37 38 37 127q0 67 -27 103q-23 32 -64 32q-31 0 -66 -26q-26 -20 -44 -45zM74 -192v659h136v-54q53 67 147 67q84 0 134 -45q70 -62 70 -191q0 -131 -70 -201q-55 -55 -149 -55q-83 0 -132 50v-230h-136z" />
    <glyph glyph-name="q" unicode="q" horiz-adv-x="601" 
d="M391 148v163q-16 27 -42 46t-57 19q-39 0 -65 -27q-37 -39 -37 -124q0 -79 37 -114q23 -22 60 -22q66 0 104 59zM527 -192h-136v238q-52 -56 -143 -56q-82 0 -132 43q-76 65 -76 190q0 128 74 200q33 33 67.5 44t81.5 11q84 0 128 -61v50h136v-659z" />
    <glyph glyph-name="r" unicode="r" horiz-adv-x="430" 
d="M210 467v-63q26 33 53 51q36 25 88 25q42 0 75 -16l-36 -117q-22 11 -49 11q-39 0 -76 -26q-32 -23 -55 -56v-276h-136v467h136z" />
    <glyph glyph-name="s" unicode="s" horiz-adv-x="498" 
d="M40 59l67 82q28 -21 55 -33q35 -15 71 -15q39 0 57 11q20 12 20 34q0 23 -26 38q-15 8 -60 18l-45 11q-55 13 -85 40q-32 28 -32 80q0 74 56 117q50 38 150 38q54 0 98 -12t82 -41l-57 -85q-62 38 -124 38q-37 0 -52 -11t-15 -27q0 -22 28 -33q9 -3 32.5 -8.5t40.5 -10.5
l36 -10q60 -18 87 -45q34 -34 34 -89q0 -68 -41 -108q-52 -51 -172 -51q-70 0 -123 20q-43 16 -82 52z" />
    <glyph glyph-name="t" unicode="t" horiz-adv-x="391" 
d="M96 467v134h136v-134h118v-104h-118v-181q0 -59 19 -76q14 -13 40 -13q28 0 57 16l41 -96q-48 -26 -126 -26q-85 0 -125 38q-26 26 -34 62.5t-8 90.5v185h-86v104h86z" />
    <glyph glyph-name="u" unicode="u" horiz-adv-x="598" 
d="M524 0h-132v53h-5q-23 -29 -58 -46q-36 -18 -84 -18q-80 0 -121 38q-23 21 -34.5 54t-13.5 56.5t-2 61.5v268h136v-256q0 -63 12 -84q16 -28 56 -28q34 0 62 18t48 49v301h136v-467z" />
    <glyph glyph-name="v" unicode="v" horiz-adv-x="536" 
d="M268 154l104 313h144l-176 -467h-144l-176 467h144z" />
    <glyph glyph-name="w" unicode="w" horiz-adv-x="776" 
d="M388 303l-80 -303h-134l-154 467h136l92 -313l74 313h132l74 -313l92 313h136l-154 -467h-134z" />
    <glyph glyph-name="x" unicode="x" horiz-adv-x="558" 
d="M390 467h160l-184 -224l178 -243h-160l-102 139l-114 -139h-160l198 243l-164 224h160l89 -121z" />
    <glyph glyph-name="y" unicode="y" horiz-adv-x="522" 
d="M272 166l91 301h143l-174 -493q-32 -91 -68 -129q-49 -50 -145 -50q-33 0 -60 7l-12 104q23 -7 46 -7q38 0 61 17q25 20 40 64l13 38l-191 449h145z" />
    <glyph glyph-name="z" unicode="z" horiz-adv-x="497" 
d="M281 357h-230v110h410v-84l-249 -273h244v-110h-420v84z" />
    <glyph glyph-name="braceleft" unicode="{" horiz-adv-x="496" 
d="M406 716l10 -100h-15q-55 0 -77 -23q-20 -21 -20 -76v-108q0 -77 -33 -111q-25 -25 -64 -34v-4q45 -8 64 -33q33 -34 33 -125v-102q0 -52 22 -73q20 -19 72 -19h18l-10 -100h-34q-110 0 -152 42q-38 38 -38 124v133q0 56 -25 81q-24 24 -73 24h-14v100h14q49 0 73 24
q25 25 25 81v127q0 85 38 125q44 47 158 47h28z" />
    <glyph glyph-name="bar" unicode="|" horiz-adv-x="290" 
d="M70 -30v760h150v-760h-150z" />
    <glyph glyph-name="braceright" unicode="}" horiz-adv-x="496" 
d="M90 716h28q114 0 158 -47q38 -40 38 -125v-127q0 -56 25 -81q24 -24 73 -24h14v-100h-14q-49 0 -73 -24q-25 -25 -25 -81v-133q0 -86 -38 -124q-42 -42 -152 -42h-34l-10 100h18q52 0 72 19q22 21 22 73v102q0 91 33 125q19 25 64 33v4q-39 9 -64 34q-33 34 -33 111v108
q0 55 -20 76q-22 23 -77 23h-15z" />
    <glyph glyph-name="asciitilde" unicode="~" horiz-adv-x="644" 
d="M520 721l64 -35q-24 -46 -52 -74q-45 -46 -112 -46q-43 0 -96 25l-37 18q-43 21 -75 21q-25 0 -47 -13q-23 -15 -41 -39l-64 35q28 44 54 69q48 46 109 46q38 0 93 -25l35 -16q52 -24 82 -24q34 0 56 19q16 13 31 39z" />
    <glyph glyph-name="uni00A0" unicode="&#xa0;" horiz-adv-x="233" 
 />
    <glyph glyph-name="exclamdown" unicode="&#xa1;" horiz-adv-x="300" 
d="M225 462v-478h-150v478h150zM66 616q0 35 24.5 59.5t59.5 24.5t59.5 -24.5t24.5 -59.5t-24.5 -59.5t-59.5 -24.5t-59.5 24.5t-24.5 59.5z" />
    <glyph glyph-name="cent" unicode="&#xa2;" 
d="M457 134l76 -72q-57 -65 -143 -68v-84h-98v77q-108 -1 -171 77q-51 62 -51 158q0 117 70 189q61 61 152 67v79h98v-80q81 -3 142 -56l-68 -81q-34 26 -78 31v-274q43 6 71 37zM296 95v272q-44 -12 -66 -49q-22 -35 -22 -93q0 -60 24 -92q23 -32 64 -38z" />
    <glyph glyph-name="sterling" unicode="&#xa3;" 
d="M117 -7l-62 93q86 48 86 125q0 42 -10 73h-91v106h66q-22 66 -22 118q0 54 20 94.5t47 61.5t64.5 33.5t63.5 15.5t52 3q71 0 124 -24q49 -22 87 -66l-85 -85q-51 59 -119 59q-59 0 -86.5 -30t-27.5 -77q0 -32 22 -103h140v-106h-116q6 -24 6 -47q0 -60 -47 -103l2 -3
q26 12 57 12q24 0 61 -15l22 -9q30 -13 58 -13q43 0 69 39l81 -77q-62 -82 -152 -82q-47 0 -95 17l-29 10q-54 18 -78 18q-56 0 -108 -38z" />
    <glyph glyph-name="currency" unicode="&#xa4;" horiz-adv-x="700" 
d="M101 671l95 -96q65 45 154 45q88 0 154 -46l96 97l82 -76l-100 -99q47 -67 47 -153q0 -88 -45 -155l98 -99l-81 -78l-97 96q-63 -45 -151 -45q-91 0 -159 45l-95 -96l-81 78l99 99q-46 65 -46 155q0 87 47 152l-100 99zM178 341q0 -70 50 -120q52 -52 122 -52
q71 0 122 51q50 50 50 121q0 67 -45 116q-51 56 -127 56q-71 0 -121 -50q-51 -51 -51 -122z" />
    <glyph glyph-name="yen" unicode="&#xa5;" 
d="M299 409l131 291h160l-216 -418h144v-80h-144v-45h144v-80h-144v-77h-150v77h-144v80h144v45h-144v80h144l-214 418h160z" />
    <glyph glyph-name="brokenbar" unicode="&#xa6;" horiz-adv-x="290" 
d="M70 444v286h150v-286h-150zM70 -30v286h150v-286h-150z" />
    <glyph glyph-name="section" unicode="&#xa7;" horiz-adv-x="589" 
d="M357 442l75 -48q55 -36 78 -68q29 -40 29 -89q0 -57 -30 -101q-28 -43 -80 -64q53 -41 53 -116q0 -77 -57 -122q-51 -39 -148 -39q-34 0 -58 3t-63.5 20.5t-69.5 51.5l75 89q50 -52 105 -52q29 0 47 12q23 15 23 45q0 36 -33 61q-8 6 -23 15.5t-31 19t-19 11.5l-62 36
q-52 32 -76 58q-42 44 -42 106q0 53 34 102q31 44 81 70q-44 42 -44 106q0 74 54 120q56 47 155 47q115 0 184 -63l-67 -96q-52 47 -113 47q-32 0 -52 -18q-17 -15 -17 -43q0 -30 21 -51q13 -13 71 -50zM338 321l-84 53q-28 -19 -43 -40q-19 -27 -19 -54q0 -32 22 -56
q18 -19 56 -44l61 -38q25 14 43 38q23 30 23 64q0 24 -22 48q-11 12 -37 29z" />
    <glyph glyph-name="dieresis" unicode="&#xa8;" horiz-adv-x="441" 
d="M255 654q0 32 22.5 54t53.5 22t53.5 -22t22.5 -54t-22.5 -54t-53.5 -22t-53.5 22t-22.5 54zM34 654q0 32 22 54t54 22t54 -22t22 -54t-22 -54t-54 -22t-54 22t-22 54z" />
    <glyph glyph-name="copyright" unicode="&#xa9;" horiz-adv-x="812" 
d="M515 260l51 -51q-60 -62 -161 -62q-86 0 -136 51q-54 56 -54 149q0 96 57 155q53 56 146 56q85 0 142 -50l-46 -60q-43 37 -91 37q-43 0 -73 -29q-39 -37 -39 -107q0 -66 38 -102q29 -27 71 -27q47 0 95 40zM406 638q-119 0 -203 -84q-39 -39 -62 -93.5t-23 -110.5
t23 -110.5t62 -93.5q84 -84 203 -84t203 84q39 39 62 93.5t23 110.5t-23 110.5t-62 93.5q-84 84 -203 84zM772 350q0 -69 -27 -137.5t-79 -120.5q-51 -51 -120 -79.5t-140 -28.5t-140 28.5t-120 79.5q-52 52 -79 120.5t-27 137.5t27 137.5t79 120.5q51 51 120 79.5t140 28.5
t140 -28.5t120 -79.5q52 -52 79 -120.5t27 -137.5z" />
    <glyph glyph-name="ordfeminine" unicode="&#xaa;" horiz-adv-x="434" 
d="M92 609l-40 63q32 24 68 33q41 11 94 11q86 0 122 -39q32 -34 32 -101v-117q0 -25 8 -33q11 -12 30 -7l-13 -82q-57 -12 -90 14q-19 16 -28 42q-25 -29 -54 -42q-29 -14 -67 -14q-59 0 -89 30q-33 31 -33 83q0 42 28 71q32 35 95 45q50 8 111 8v9q0 24 -14 40
q-16 17 -51 17q-49 0 -109 -31zM266 464v45q-43 0 -75 -7q-29 -6 -42 -18q-13 -13 -13 -29q0 -20 14 -30q11 -9 31 -9q26 0 48 14q24 15 37 34z" />
    <glyph glyph-name="guillemotleft" unicode="&#xab;" horiz-adv-x="567" 
d="M496 71l-60 -48l-159 204l159 193l61 -46l-108 -147zM353 30l-65 -52l-218 249l218 244l66 -55l-155 -189z" />
    <glyph glyph-name="logicalnot" unicode="&#xac;" horiz-adv-x="742" 
d="M50 296v106h642v-244h-106v138h-536z" />
    <glyph glyph-name="uni00AD" unicode="&#xad;" horiz-adv-x="372" 
d="M50 216v114h272v-114h-272z" />
    <glyph glyph-name="registered" unicode="&#xae;" horiz-adv-x="812" 
d="M348 316v-153h-92v385h156q78 0 112 -34q31 -31 31 -87q0 -43 -22 -71q-22 -27 -58 -34l85 -159h-100l-74 153h-38zM348 478v-96h46q36 0 51 13q14 12 14 36q0 23 -12 33q-15 14 -51 14h-48zM406 638q-119 0 -203 -84q-39 -39 -62 -93.5t-23 -110.5t23 -110.5t62 -93.5
q84 -84 203 -84t203 84q39 39 62 93.5t23 110.5t-23 110.5t-62 93.5q-84 84 -203 84zM772 350q0 -69 -27 -137.5t-79 -120.5q-51 -51 -120 -79.5t-140 -28.5t-140 28.5t-120 79.5q-52 52 -79 120.5t-27 137.5t27 137.5t79 120.5q51 51 120 79.5t140 28.5t140 -28.5
t120 -79.5q52 -52 79 -120.5t27 -137.5z" />
    <glyph glyph-name="macron" unicode="&#xaf;" horiz-adv-x="460" 
d="M82 578v86h296v-86h-296z" />
    <glyph glyph-name="macron" unicode="&#x2c9;" horiz-adv-x="460" 
d="M82 578v86h296v-86h-296z" />
    <glyph glyph-name="degree" unicode="&#xb0;" horiz-adv-x="354" 
d="M60 600q0 49 34 83t83 34t83 -34t34 -83t-34 -83t-83 -34t-83 34t-34 83zM119 600q0 -24 17 -41t41 -17t41 17t17 41t-17 41t-41 17t-41 -17t-17 -41z" />
    <glyph glyph-name="plusminus" unicode="&#xb1;" horiz-adv-x="726" 
d="M48 483h253v197h124v-197h253v-124h-253v-157h-124v157h-253v124zM48 147h630v-124h-630v124z" />
    <glyph glyph-name="twosuperior" unicode="&#xb2;" horiz-adv-x="400" 
d="M198 360h143v-80h-283v60q47 42 78 73q45 43 72 81q32 45 32 84q0 27 -16 43q-15 15 -40 15q-27 0 -46 -19q-10 -10 -22 -32l-78 41q24 42 57 64q39 26 101 26q71 0 111 -40q35 -35 35 -91q0 -48 -28 -94q-16 -26 -53 -69q-37 -41 -63 -62z" />
    <glyph glyph-name="threesuperior" unicode="&#xb3;" horiz-adv-x="400" 
d="M125 588l-80 37q20 43 54 66q37 25 103 25q78 0 115 -37q31 -30 31 -80t-30 -78q-15 -14 -40 -21v-4q34 -7 56 -29q26 -26 26 -70q0 -57 -38 -92q-40 -37 -123 -37q-62 0 -101 23q-39 24 -58 62l77 45q11 -22 27 -35q18 -15 48 -15q31 0 49 16q17 15 17 41q0 27 -21 40
q-17 10 -50 10h-27v76h17q37 0 54 13q19 14 19 43q0 21 -14 35t-43 14t-45 -15q-15 -13 -23 -33z" />
    <glyph glyph-name="acute" unicode="&#xb4;" horiz-adv-x="394" 
d="M210 700h126l-116 -163h-82z" />
    <glyph glyph-name="mu" unicode="&#xb5;" horiz-adv-x="610" 
d="M536 0h-136v60q-13 -31 -36 -50q-25 -20 -59 -20t-59 20q-23 19 -36 50v-252h-136v659h136v-277q8 -50 38 -77q24 -22 57 -22t57 22q30 27 38 77v277h136v-467z" />
    <glyph glyph-name="mu" unicode="&#x3bc;" horiz-adv-x="610" 
d="M536 0h-136v60q-13 -31 -36 -50q-25 -20 -59 -20t-59 20q-23 19 -36 50v-252h-136v659h136v-277q8 -50 38 -77q24 -22 57 -22t57 22q30 27 38 77v277h136v-467z" />
    <glyph glyph-name="paragraph" unicode="&#xb6;" horiz-adv-x="631" 
d="M577 700v-100h-74v-792h-100v792h-99v-792h-98v534q-78 -4 -129 45q-47 45 -47 121q0 87 51 136q57 56 200 56h296z" />
    <glyph glyph-name="periodcentered" unicode="&#xb7;" horiz-adv-x="268" 
d="M50 253q0 35 24.5 59.5t59.5 24.5t59.5 -24.5t24.5 -59.5t-24.5 -59.5t-59.5 -24.5t-59.5 24.5t-24.5 59.5z" />
    <glyph glyph-name="cedilla" unicode="&#xb8;" horiz-adv-x="430" 
d="M164 -97l21 88h57l-8 -37q52 1 76 -26q20 -22 20 -53q0 -49 -35 -74q-28 -21 -83 -21q-36 0 -64 8q-28 9 -48 23l32 52q34 -23 71 -23q23 0 36 8q14 9 14 24q0 19 -18 27q-25 11 -71 4z" />
    <glyph glyph-name="onesuperior" unicode="&#xb9;" horiz-adv-x="400" 
d="M172 280v301q-16 -15 -54 -36l-38 53q32 18 61 44q28 25 46 58h73v-420h-88z" />
    <glyph glyph-name="ordmasculine" unicode="&#xba;" horiz-adv-x="454" 
d="M227 636q-29 0 -49 -19q-31 -30 -31 -90q0 -61 31 -91q20 -19 49 -19t49 19q31 30 31 91q0 60 -31 90q-20 19 -49 19zM422 527q0 -108 -72 -158q-45 -32 -123 -32t-123 32q-72 50 -72 158q0 106 72 156q48 33 123 33t123 -33q72 -50 72 -156z" />
    <glyph glyph-name="guillemotright" unicode="&#xbb;" horiz-adv-x="567" 
d="M71 71l107 156l-108 147l61 46l159 -193l-159 -204zM214 30l154 197l-155 189l66 55l218 -244l-218 -249z" />
    <glyph glyph-name="onequarter" unicode="&#xbc;" horiz-adv-x="874" 
d="M682 80h-179v61l174 279h93v-264h46v-76h-46v-80h-88v80zM682 156v146l-91 -146h91zM150 280v301q-16 -15 -54 -36l-38 53q32 18 61 44q28 25 46 58h73v-420h-88zM236 -77l-67 39l452 815l70 -40z" />
    <glyph glyph-name="onehalf" unicode="&#xbd;" horiz-adv-x="874" 
d="M134 280v301q-16 -15 -54 -36l-38 53q32 18 61 44q28 25 46 58h73v-420h-88zM672 80h143v-80h-283v60q47 42 78 73q45 43 72 81q32 45 32 84q0 27 -16 43q-15 15 -40 15q-27 0 -46 -19q-10 -10 -22 -32l-78 41q24 42 57 64q39 26 101 26q71 0 111 -40q35 -35 35 -91
q0 -48 -28 -94q-16 -26 -53 -69q-37 -41 -63 -62zM185 -77l-67 39l452 815l70 -40z" />
    <glyph glyph-name="threequarters" unicode="&#xbe;" horiz-adv-x="874" 
d="M115 588l-80 37q20 43 54 66q37 25 103 25q78 0 115 -37q31 -30 31 -80t-30 -78q-15 -14 -40 -21v-4q34 -7 56 -29q26 -26 26 -70q0 -57 -38 -92q-40 -37 -123 -37q-62 0 -101 23q-39 24 -58 62l77 45q11 -22 27 -35q18 -15 48 -15q31 0 49 16q17 15 17 41q0 27 -21 40
q-17 10 -50 10h-27v76h17q37 0 54 13q19 14 19 43q0 21 -14 35t-43 14t-45 -15q-15 -13 -23 -33zM710 80h-179v61l174 279h93v-264h46v-76h-46v-80h-88v80zM710 156v146l-91 -146h91zM287 -77l-67 39l452 815l70 -40z" />
    <glyph glyph-name="questiondown" unicode="&#xbf;" horiz-adv-x="553" 
d="M210 462h137v-15q0 -39 -17 -74q-15 -32 -57 -76l-32 -34q-39 -41 -39 -92q0 -40 24 -62q21 -19 53 -19q42 0 70 28q23 23 37 61l127 -50q-28 -78 -93 -122q-58 -39 -150 -39q-118 0 -178 60q-52 52 -52 133q0 80 64 140l43 40q42 39 51 58q12 20 12 49v14zM359 618
q0 -34 -24 -58t-58 -24t-58 24t-24 58t24 58t58 24t58 -24t24 -58z" />
    <glyph glyph-name="Agrave" unicode="&#xc0;" horiz-adv-x="732" 
d="M434 700l294 -700h-156l-65 165h-282l-65 -165h-156l294 700h136zM271 285h189l-95 241zM358 910l65 -141h-94l-109 141h138z" />
    <glyph glyph-name="Aacute" unicode="&#xc1;" horiz-adv-x="732" 
d="M434 700l294 -700h-156l-65 165h-282l-65 -165h-156l294 700h136zM271 285h189l-95 241zM371 910h138l-109 -141h-94z" />
    <glyph glyph-name="Acircumflex" unicode="&#xc2;" horiz-adv-x="732" 
d="M434 700l294 -700h-156l-65 165h-282l-65 -165h-156l294 700h136zM271 285h189l-95 241zM364 844l-62 -75h-88l91 141h118l94 -141h-88z" />
    <glyph glyph-name="Atilde" unicode="&#xc3;" horiz-adv-x="732" 
d="M434 700l294 -700h-156l-65 165h-282l-65 -165h-156l294 700h136zM271 285h189l-95 241zM245 784l-57 43q21 34 40 50q26 23 70 23q34 0 68 -17l21 -10q27 -13 44 -13q21 0 32 9q8 5 23 26l57 -43q-20 -37 -42 -54q-24 -20 -66 -20q-35 0 -69 16l-21 10q-31 14 -46 14
q-18 0 -32 -11q-12 -10 -22 -23z" />
    <glyph glyph-name="Adieresis" unicode="&#xc4;" horiz-adv-x="732" 
d="M434 700l294 -700h-156l-65 165h-282l-65 -165h-156l294 700h136zM271 285h189l-95 241zM164 852q0 33 23.5 56.5t56.5 23.5t56.5 -23.5t23.5 -56.5t-23.5 -56.5t-56.5 -23.5t-56.5 23.5t-23.5 56.5zM404 852q0 33 23.5 56.5t56.5 23.5t56.5 -23.5t23.5 -56.5
t-23.5 -56.5t-56.5 -23.5t-56.5 23.5t-23.5 56.5z" />
    <glyph glyph-name="Aring" unicode="&#xc5;" horiz-adv-x="732" 
d="M434 700l294 -700h-156l-65 165h-282l-65 -165h-156l294 700h136zM271 285h189l-95 241zM321 863q0 -19 13 -32t32 -13t32 13t13 32t-13 32t-32 13t-32 -13t-13 -32zM261 863q0 44 30.5 74.5t74.5 30.5t74.5 -30.5t30.5 -74.5t-30.5 -74.5t-74.5 -30.5t-74.5 30.5
t-30.5 74.5z" />
    <glyph glyph-name="AE" unicode="&#xc6;" horiz-adv-x="1015" 
d="M969 576h-302v-144h242v-124h-242v-184h310v-124h-460v172h-258l-101 -172h-156l414 700h553v-124zM517 292v284h-30l-156 -284h186z" />
    <glyph glyph-name="Ccedilla" unicode="&#xc7;" horiz-adv-x="680" 
d="M637 641l-75 -105q-43 29 -66 39q-41 19 -87 19q-73 0 -119 -46q-70 -70 -70 -212q0 -126 63 -186q46 -44 117 -44q86 0 164 63l76 -106q-42 -38 -98 -56q-53 -18 -119 -23l-5 -35q53 -3 77 -27q23 -23 23 -57q0 -37 -26 -63q-30 -30 -100 -30q-36 0 -64 7q-24 6 -43 16
l31 56q14 -9 29 -12q17 -5 39 -5q29 0 42 11q11 9 11 24q0 20 -18 28q-15 6 -39 6q-18 0 -32 -2l16 83q-131 -1 -217 83q-97 95 -97 268q0 186 103 290q91 91 246 91q80 0 137 -19q56 -20 101 -56z" />
    <glyph glyph-name="Egrave" unicode="&#xc8;" horiz-adv-x="584" 
d="M538 576h-302v-144h242v-124h-242v-184h310v-124h-460v700h452v-124zM310 910l65 -141h-94l-109 141h138z" />
    <glyph glyph-name="Eacute" unicode="&#xc9;" horiz-adv-x="584" 
d="M538 576h-302v-144h242v-124h-242v-184h310v-124h-460v700h452v-124zM321 910h138l-109 -141h-94z" />
    <glyph glyph-name="Ecircumflex" unicode="&#xca;" horiz-adv-x="584" 
d="M538 576h-302v-144h242v-124h-242v-184h310v-124h-460v700h452v-124zM310 844l-62 -75h-88l91 141h118l94 -141h-88z" />
    <glyph glyph-name="Edieresis" unicode="&#xcb;" horiz-adv-x="584" 
d="M538 576h-302v-144h242v-124h-242v-184h310v-124h-460v700h452v-124zM110 852q0 33 23.5 56.5t56.5 23.5t56.5 -23.5t23.5 -56.5t-23.5 -56.5t-56.5 -23.5t-56.5 23.5t-23.5 56.5zM350 852q0 33 23.5 56.5t56.5 23.5t56.5 -23.5t23.5 -56.5t-23.5 -56.5t-56.5 -23.5
t-56.5 23.5t-23.5 56.5z" />
    <glyph glyph-name="Igrave" unicode="&#xcc;" horiz-adv-x="322" 
d="M86 700h150v-700h-150v700zM168 910l65 -141h-94l-109 141h138z" />
    <glyph glyph-name="Iacute" unicode="&#xcd;" horiz-adv-x="322" 
d="M86 700h150v-700h-150v700zM161 910h138l-109 -141h-94z" />
    <glyph glyph-name="Icircumflex" unicode="&#xce;" horiz-adv-x="322" 
d="M86 700h150v-700h-150v700zM160 844l-62 -75h-88l91 141h118l94 -141h-88z" />
    <glyph glyph-name="Idieresis" unicode="&#xcf;" horiz-adv-x="322" 
d="M86 700h150v-700h-150v700zM-39 852q0 33 23.5 56.5t56.5 23.5t56.5 -23.5t23.5 -56.5t-23.5 -56.5t-56.5 -23.5t-56.5 23.5t-23.5 56.5zM201 852q0 33 23.5 56.5t56.5 23.5t56.5 -23.5t23.5 -56.5t-23.5 -56.5t-56.5 -23.5t-56.5 23.5t-23.5 56.5z" />
    <glyph glyph-name="Eth" unicode="&#xd0;" horiz-adv-x="734" 
d="M94 700h201q115 0 186 -16.5t123 -73.5q80 -89 80 -257q0 -185 -88 -269t-290 -84h-212v296h-84v126h84v278zM244 576v-154h138v-126h-138v-172h33q45 0 70 1.5t57.5 12t54.5 30.5q57 52 57 183q0 121 -51 176q-47 49 -155 49h-66z" />
    <glyph glyph-name="Ntilde" unicode="&#xd1;" horiz-adv-x="735" 
d="M232 462v-462h-146v700h144l273 -462v462h146v-700h-144zM247 784l-57 43q21 34 40 50q26 23 70 23q34 0 68 -17l21 -10q27 -13 44 -13q21 0 32 9q8 5 23 26l57 -43q-20 -37 -42 -54q-24 -20 -66 -20q-35 0 -69 16l-21 10q-31 14 -46 14q-18 0 -32 -11q-12 -10 -22 -23z
" />
    <glyph glyph-name="Ograve" unicode="&#xd2;" horiz-adv-x="778" 
d="M389 594q-65 0 -104 -39q-65 -65 -65 -205t65 -205q39 -39 104 -39t104 39q65 65 65 205t-65 205q-39 39 -104 39zM728 350q0 -185 -97 -282q-85 -84 -242 -84t-242 84q-97 97 -97 282t97 282q85 84 242 84t242 -84q97 -97 97 -282zM388 910l65 -141h-94l-109 141h138z
" />
    <glyph glyph-name="Oacute" unicode="&#xd3;" horiz-adv-x="778" 
d="M389 594q-65 0 -104 -39q-65 -65 -65 -205t65 -205q39 -39 104 -39t104 39q65 65 65 205t-65 205q-39 39 -104 39zM728 350q0 -185 -97 -282q-85 -84 -242 -84t-242 84q-97 97 -97 282t97 282q85 84 242 84t242 -84q97 -97 97 -282zM401 910h138l-109 -141h-94z" />
    <glyph glyph-name="Ocircumflex" unicode="&#xd4;" horiz-adv-x="778" 
d="M389 594q-65 0 -104 -39q-65 -65 -65 -205t65 -205q39 -39 104 -39t104 39q65 65 65 205t-65 205q-39 39 -104 39zM728 350q0 -185 -97 -282q-85 -84 -242 -84t-242 84q-97 97 -97 282t97 282q85 84 242 84t242 -84q97 -97 97 -282zM387 844l-62 -75h-88l91 141h118
l94 -141h-88z" />
    <glyph glyph-name="Otilde" unicode="&#xd5;" horiz-adv-x="778" 
d="M389 594q-65 0 -104 -39q-65 -65 -65 -205t65 -205q39 -39 104 -39t104 39q65 65 65 205t-65 205q-39 39 -104 39zM728 350q0 -185 -97 -282q-85 -84 -242 -84t-242 84q-97 97 -97 282t97 282q85 84 242 84t242 -84q97 -97 97 -282zM268 784l-57 43q21 34 40 50
q26 23 70 23q34 0 68 -17l21 -10q27 -13 44 -13q21 0 32 9q8 5 23 26l57 -43q-20 -37 -42 -54q-24 -20 -66 -20q-35 0 -69 16l-21 10q-31 14 -46 14q-18 0 -32 -11q-12 -10 -22 -23z" />
    <glyph glyph-name="Odieresis" unicode="&#xd6;" horiz-adv-x="778" 
d="M389 594q-65 0 -104 -39q-65 -65 -65 -205t65 -205q39 -39 104 -39t104 39q65 65 65 205t-65 205q-39 39 -104 39zM728 350q0 -185 -97 -282q-85 -84 -242 -84t-242 84q-97 97 -97 282t97 282q85 84 242 84t242 -84q97 -97 97 -282zM189 852q0 33 23.5 56.5t56.5 23.5
t56.5 -23.5t23.5 -56.5t-23.5 -56.5t-56.5 -23.5t-56.5 23.5t-23.5 56.5zM429 852q0 33 23.5 56.5t56.5 23.5t56.5 -23.5t23.5 -56.5t-23.5 -56.5t-56.5 -23.5t-56.5 23.5t-23.5 56.5z" />
    <glyph glyph-name="multiply" unicode="&#xd7;" horiz-adv-x="727" 
d="M451 355l176 -176l-87 -87l-176 176l-176 -176l-88 87l176 176l-176 176l88 88l176 -176l176 176l87 -88z" />
    <glyph glyph-name="Oslash" unicode="&#xd8;" horiz-adv-x="778" 
d="M239 224l217 357q-29 13 -67 13q-66 0 -104 -39q-65 -65 -65 -206q0 -67 19 -125zM535 487l-221 -364q33 -17 75 -17q65 0 104 39q65 64 65 205q0 80 -23 137zM669 708l-45 -75q104 -96 104 -280q0 -188 -97 -285q-49 -49 -110 -66.5t-139 -17.5q-77 0 -135 26l-52 -84
l-98 64l53 88q-100 95 -100 272q0 185 97 282q50 50 111 67t141 17q71 0 124 -22l48 78z" />
    <glyph glyph-name="Ugrave" unicode="&#xd9;" horiz-adv-x="744" 
d="M658 700v-392q0 -60 -2.5 -96.5t-18 -83.5t-45.5 -77q-67 -67 -220 -67t-220 67q-30 30 -45.5 77t-18 83.5t-2.5 96.5v392h150v-390v-13q0 -43 1 -64.5t10 -49.5t27 -44q32 -29 98 -29t98 29q18 16 27 44t10 49.5t1 64.5v13v390h150zM366 910l65 -141h-94l-109 141h138z
" />
    <glyph glyph-name="Uacute" unicode="&#xda;" horiz-adv-x="744" 
d="M658 700v-392q0 -60 -2.5 -96.5t-18 -83.5t-45.5 -77q-67 -67 -220 -67t-220 67q-30 30 -45.5 77t-18 83.5t-2.5 96.5v392h150v-390v-13q0 -43 1 -64.5t10 -49.5t27 -44q32 -29 98 -29t98 29q18 16 27 44t10 49.5t1 64.5v13v390h150zM381 910h138l-109 -141h-94z" />
    <glyph glyph-name="Ucircumflex" unicode="&#xdb;" horiz-adv-x="744" 
d="M658 700v-392q0 -60 -2.5 -96.5t-18 -83.5t-45.5 -77q-67 -67 -220 -67t-220 67q-30 30 -45.5 77t-18 83.5t-2.5 96.5v392h150v-390v-13q0 -43 1 -64.5t10 -49.5t27 -44q32 -29 98 -29t98 29q18 16 27 44t10 49.5t1 64.5v13v390h150zM370 844l-62 -75h-88l91 141h118
l94 -141h-88z" />
    <glyph glyph-name="Udieresis" unicode="&#xdc;" horiz-adv-x="744" 
d="M658 700v-392q0 -60 -2.5 -96.5t-18 -83.5t-45.5 -77q-67 -67 -220 -67t-220 67q-30 30 -45.5 77t-18 83.5t-2.5 96.5v392h150v-390v-13q0 -43 1 -64.5t10 -49.5t27 -44q32 -29 98 -29t98 29q18 16 27 44t10 49.5t1 64.5v13v390h150zM172 852q0 33 23.5 56.5t56.5 23.5
t56.5 -23.5t23.5 -56.5t-23.5 -56.5t-56.5 -23.5t-56.5 23.5t-23.5 56.5zM412 852q0 33 23.5 56.5t56.5 23.5t56.5 -23.5t23.5 -56.5t-23.5 -56.5t-56.5 -23.5t-56.5 23.5t-23.5 56.5z" />
    <glyph glyph-name="Yacute" unicode="&#xdd;" horiz-adv-x="668" 
d="M334 413l156 287h164l-245 -434v-266h-150v266l-245 434h164zM351 910h138l-109 -141h-94z" />
    <glyph glyph-name="Thorn" unicode="&#xde;" horiz-adv-x="659" 
d="M236 156v-156h-150v700h150v-88h85q86 0 141 -12.5t96 -52.5q61 -59 61 -162q0 -105 -59 -163q-67 -66 -233 -66h-91zM236 278h61q83 0 121 26q41 27 41 85q0 55 -37 80q-29 21 -102 21h-84v-212z" />
    <glyph glyph-name="germandbls" unicode="&#xdf;" horiz-adv-x="603" 
d="M74 0v437q0 80 15 135.5t63 93.5q55 44 156 44q34 0 57 -2.5t54 -15t55 -35.5q51 -49 51 -129q0 -66 -35 -105q-25 -27 -61 -36v-5q53 -6 88 -43q46 -47 46 -137q0 -116 -56 -170q-46 -46 -144 -46q-67 0 -113 21l32 98q26 -17 54 -17q38 0 57 29q20 29 20 89
q0 67 -33 95q-9 7 -18.5 12t-22.5 6.5t-18.5 2.5t-22.5 0h-16h-8v102h6q51 0 77 26q24 26 24 72q0 40 -22 64q-21 22 -57 22q-49 0 -72 -37q-20 -31 -20 -93v-478h-136z" />
    <glyph glyph-name="agrave" unicode="&#xe0;" horiz-adv-x="546" 
d="M109 340l-52 82q85 58 213 58q109 0 156 -50q42 -44 42 -132v-146q0 -37 10 -49q13 -15 40 -10l-16 -105q-77 -14 -117 16q-26 20 -37 57q-36 -38 -65 -53q-41 -21 -91 -21q-74 0 -117 40t-43 102q0 59 41 100q40 42 123 56q64 11 139 11v10q0 36 -17 53q-20 21 -65 21
q-70 0 -144 -40zM335 148v70q-53 -2 -87 -9q-47 -9 -67 -30q-15 -15 -15 -38q0 -24 16 -38q15 -14 44 -14q35 0 64 18q23 14 45 41zM246 700l72 -163h-82l-116 163h126z" />
    <glyph glyph-name="aacute" unicode="&#xe1;" horiz-adv-x="546" 
d="M109 340l-52 82q85 58 213 58q109 0 156 -50q42 -44 42 -132v-146q0 -37 10 -49q13 -15 40 -10l-16 -105q-77 -14 -117 16q-26 20 -37 57q-36 -38 -65 -53q-41 -21 -91 -21q-74 0 -117 40t-43 102q0 59 41 100q40 42 123 56q64 11 139 11v10q0 36 -17 53q-20 21 -65 21
q-70 0 -144 -40zM335 148v70q-53 -2 -87 -9q-47 -9 -67 -30q-15 -15 -15 -38q0 -24 16 -38q15 -14 44 -14q35 0 64 18q23 14 45 41zM280 700h126l-116 -163h-82z" />
    <glyph glyph-name="acircumflex" unicode="&#xe2;" horiz-adv-x="546" 
d="M109 340l-52 82q85 58 213 58q109 0 156 -50q42 -44 42 -132v-146q0 -37 10 -49q13 -15 40 -10l-16 -105q-77 -14 -117 16q-26 20 -37 57q-36 -38 -65 -53q-41 -21 -91 -21q-74 0 -117 40t-43 102q0 59 41 100q40 42 123 56q64 11 139 11v10q0 36 -17 53q-20 21 -65 21
q-70 0 -144 -40zM335 148v70q-53 -2 -87 -9q-47 -9 -67 -30q-15 -15 -15 -38q0 -24 16 -38q15 -14 44 -14q35 0 64 18q23 14 45 41zM263 630l-75 -93h-88l104 163h118l104 -163h-88z" />
    <glyph glyph-name="atilde" unicode="&#xe3;" horiz-adv-x="546" 
d="M109 340l-52 82q85 58 213 58q109 0 156 -50q42 -44 42 -132v-146q0 -37 10 -49q13 -15 40 -10l-16 -105q-77 -14 -117 16q-26 20 -37 57q-36 -38 -65 -53q-41 -21 -91 -21q-74 0 -117 40t-43 102q0 59 41 100q40 42 123 56q64 11 139 11v10q0 36 -17 53q-20 21 -65 21
q-70 0 -144 -40zM335 148v70q-53 -2 -87 -9q-47 -9 -67 -30q-15 -15 -15 -38q0 -24 16 -38q15 -14 44 -14q35 0 64 18q23 14 45 41zM157 561l-57 43q14 27 35 47q25 23 71 23q27 0 63 -17l21 -10q29 -13 44 -13q17 0 28 9q10 10 16 22l57 -43q-15 -33 -35 -50
q-23 -20 -65 -20q-31 0 -66 16l-21 10q-28 14 -44 14t-30 -11q-9 -8 -17 -20z" />
    <glyph glyph-name="adieresis" unicode="&#xe4;" horiz-adv-x="546" 
d="M109 340l-52 82q85 58 213 58q109 0 156 -50q42 -44 42 -132v-146q0 -37 10 -49q13 -15 40 -10l-16 -105q-77 -14 -117 16q-26 20 -37 57q-36 -38 -65 -53q-41 -21 -91 -21q-74 0 -117 40t-43 102q0 59 41 100q40 42 123 56q64 11 139 11v10q0 36 -17 53q-20 21 -65 21
q-70 0 -144 -40zM335 148v70q-53 -2 -87 -9q-47 -9 -67 -30q-15 -15 -15 -38q0 -24 16 -38q15 -14 44 -14q35 0 64 18q23 14 45 41zM303 654q0 32 22.5 54t53.5 22t53.5 -22t22.5 -54t-22.5 -54t-53.5 -22t-53.5 22t-22.5 54zM82 654q0 32 22 54t54 22t54 -22t22 -54
t-22 -54t-54 -22t-54 22t-22 54z" />
    <glyph glyph-name="aring" unicode="&#xe5;" horiz-adv-x="546" 
d="M109 340l-52 82q85 58 213 58q109 0 156 -50q42 -44 42 -132v-146q0 -37 10 -49q13 -15 40 -10l-16 -105q-77 -14 -117 16q-26 20 -37 57q-36 -38 -65 -53q-41 -21 -91 -21q-74 0 -117 40t-43 102q0 59 41 100q40 42 123 56q64 11 139 11v10q0 36 -17 53q-20 21 -65 21
q-70 0 -144 -40zM335 148v70q-53 -2 -87 -9q-47 -9 -67 -30q-15 -15 -15 -38q0 -24 16 -38q15 -14 44 -14q35 0 64 18q23 14 45 41zM222 630q0 -19 13 -32t32 -13t32 13t13 32t-13 32t-32 13t-32 -13t-13 -32zM164 630q0 43 30 73t73 30t73 -30t30 -73t-30 -73t-73 -30
t-73 30t-30 73z" />
    <glyph glyph-name="ae" unicode="&#xe6;" horiz-adv-x="835" 
d="M470 295h193q-9 91 -92 91q-78 0 -101 -91zM795 213h-329v-7q0 -59 35.5 -88t82.5 -29q67 0 118 45l78 -70q-70 -77 -206 -77q-126 0 -178 83q-72 -83 -194 -83q-82 0 -123 37q-47 43 -47 112q0 41 19 71.5t50 46.5t53 22.5t46 10.5q58 8 131 8v7q0 41 -19 59
q-21 19 -68 19q-68 0 -139 -40l-48 79q83 61 196 61q111 0 157 -65q58 65 159 65q110 0 168 -66t58 -194v-7zM331 139v74q-58 -2 -94 -8.5t-51.5 -18.5t-19.5 -22t-4 -26q0 -25 18 -38t43 -13q66 0 108 52z" />
    <glyph glyph-name="ccedilla" unicode="&#xe7;" horiz-adv-x="525" 
d="M413 139l82 -72q-65 -74 -170 -76l-9 -34q54 0 79 -26q19 -21 19 -46q0 -42 -37 -69q-29 -21 -80 -21q-35 0 -67 9q-28 8 -46 18l32 52q32 -23 71 -23q21 0 36 9q14 10 14 27t-19 25q-26 11 -70 4l20 74q-114 -3 -177 75q-51 61 -51 157q0 120 69 189t192 69
q112 0 177 -56l-65 -85q-47 35 -96 35q-54 0 -86 -30q-41 -38 -41 -119q0 -69 35 -104q28 -28 84 -28q60 0 104 46z" />
    <glyph glyph-name="egrave" unicode="&#xe8;" horiz-adv-x="559" 
d="M191 295h196q-4 42 -32 68q-24 23 -64 23q-38 0 -66 -24q-27 -26 -34 -67zM428 134l78 -70q-69 -77 -214 -77q-119 0 -181 60q-71 68 -71 179q0 114 75 189q66 65 172 65q107 0 165 -62q67 -69 67 -200v-13h-333q0 -50 30 -84q30 -32 87 -32q71 0 125 45zM270 700
l72 -163h-82l-116 163h126z" />
    <glyph glyph-name="eacute" unicode="&#xe9;" horiz-adv-x="559" 
d="M191 295h196q-4 42 -32 68q-24 23 -64 23q-38 0 -66 -24q-27 -26 -34 -67zM428 134l78 -70q-69 -77 -214 -77q-119 0 -181 60q-71 68 -71 179q0 114 75 189q66 65 172 65q107 0 165 -62q67 -69 67 -200v-13h-333q0 -50 30 -84q30 -32 87 -32q71 0 125 45zM310 700h126
l-116 -163h-82z" />
    <glyph glyph-name="ecircumflex" unicode="&#xea;" horiz-adv-x="559" 
d="M191 295h196q-4 42 -32 68q-24 23 -64 23q-38 0 -66 -24q-27 -26 -34 -67zM428 134l78 -70q-69 -77 -214 -77q-119 0 -181 60q-71 68 -71 179q0 114 75 189q66 65 172 65q107 0 165 -62q67 -69 67 -200v-13h-333q0 -50 30 -84q30 -32 87 -32q71 0 125 45zM291 630
l-75 -93h-88l104 163h118l104 -163h-88z" />
    <glyph glyph-name="edieresis" unicode="&#xeb;" horiz-adv-x="559" 
d="M191 295h196q-4 42 -32 68q-24 23 -64 23q-38 0 -66 -24q-27 -26 -34 -67zM428 134l78 -70q-69 -77 -214 -77q-119 0 -181 60q-71 68 -71 179q0 114 75 189q66 65 172 65q107 0 165 -62q67 -69 67 -200v-13h-333q0 -50 30 -84q30 -32 87 -32q71 0 125 45zM317 654
q0 32 22.5 54t53.5 22t53.5 -22t22.5 -54t-22.5 -54t-53.5 -22t-53.5 22t-22.5 54zM96 654q0 32 22 54t54 22t54 -22t22 -54t-22 -54t-54 -22t-54 22t-22 54z" />
    <glyph glyph-name="igrave" unicode="&#xec;" horiz-adv-x="284" 
d="M74 0v467h136v-467h-136zM129 700l72 -163h-82l-116 163h126z" />
    <glyph glyph-name="iacute" unicode="&#xed;" horiz-adv-x="284" 
d="M74 0v467h136v-467h-136zM155 700h126l-116 -163h-82z" />
    <glyph glyph-name="icircumflex" unicode="&#xee;" horiz-adv-x="284" 
d="M74 0v467h136v-467h-136zM142 630l-75 -93h-88l104 163h118l104 -163h-88z" />
    <glyph glyph-name="idieresis" unicode="&#xef;" horiz-adv-x="284" 
d="M74 0v467h136v-467h-136zM177 654q0 32 22.5 54t53.5 22t53.5 -22t22.5 -54t-22.5 -54t-53.5 -22t-53.5 22t-22.5 54zM-44 654q0 32 22 54t54 22t54 -22t22 -54t-22 -54t-54 -22t-54 22t-22 54z" />
    <glyph glyph-name="eth" unicode="&#xf0;" horiz-adv-x="599" 
d="M294 370q-39 0 -65 -25q-39 -39 -39 -116q0 -76 39 -115q26 -25 65 -25t65 25q39 39 39 115q0 77 -39 116q-26 25 -65 25zM177 692l83 58q55 -21 101 -53l102 58l36 -65l-77 -44q59 -61 93 -149q34 -90 34 -186q0 -72 -19 -145.5t-62 -116.5q-62 -62 -184 -62
q-99 0 -154 41q-41 30 -65.5 84t-24.5 115q0 103 65 168q64 64 180 64q86 0 139 -45q-21 106 -92 182l-115 -65l-35 64l89 51q-50 30 -94 46z" />
    <glyph glyph-name="ntilde" unicode="&#xf1;" horiz-adv-x="598" 
d="M74 467h136v-54q24 30 59 47q37 18 83 18q83 0 124 -39q48 -46 48 -154v-285h-136v259q0 70 -21 92q-17 17 -46 17q-31 0 -64 -25q-28 -21 -47 -50v-293h-136v467zM199 561l-57 43q14 27 35 47q25 23 71 23q27 0 63 -17l21 -10q29 -13 44 -13q17 0 28 9q10 10 16 22
l57 -43q-15 -33 -35 -50q-23 -20 -65 -20q-31 0 -66 16l-21 10q-28 14 -44 14t-30 -11q-9 -8 -17 -20z" />
    <glyph glyph-name="ograve" unicode="&#xf2;" horiz-adv-x="588" 
d="M294 378q-39 0 -65 -25q-39 -38 -39 -120q0 -80 39 -119q26 -25 65 -25t65 25q39 39 39 119q0 82 -39 120q-26 25 -65 25zM548 234q0 -139 -94 -206q-59 -41 -160 -41t-160 41q-94 67 -94 206t94 205q59 41 160 41t160 -41q94 -66 94 -205zM274 700l72 -163h-82l-116 163
h126z" />
    <glyph glyph-name="oacute" unicode="&#xf3;" horiz-adv-x="588" 
d="M294 378q-39 0 -65 -25q-39 -38 -39 -120q0 -80 39 -119q26 -25 65 -25t65 25q39 39 39 119q0 82 -39 120q-26 25 -65 25zM548 234q0 -139 -94 -206q-59 -41 -160 -41t-160 41q-94 67 -94 206t94 205q59 41 160 41t160 -41q94 -66 94 -205zM320 700h126l-116 -163h-82z
" />
    <glyph glyph-name="ocircumflex" unicode="&#xf4;" horiz-adv-x="588" 
d="M294 378q-39 0 -65 -25q-39 -38 -39 -120q0 -80 39 -119q26 -25 65 -25t65 25q39 39 39 119q0 82 -39 120q-26 25 -65 25zM548 234q0 -139 -94 -206q-59 -41 -160 -41t-160 41q-94 67 -94 206t94 205q59 41 160 41t160 -41q94 -66 94 -205zM297 630l-75 -93h-88l104 163
h118l104 -163h-88z" />
    <glyph glyph-name="otilde" unicode="&#xf5;" horiz-adv-x="588" 
d="M294 378q-39 0 -65 -25q-39 -38 -39 -120q0 -80 39 -119q26 -25 65 -25t65 25q39 39 39 119q0 82 -39 120q-26 25 -65 25zM548 234q0 -139 -94 -206q-59 -41 -160 -41t-160 41q-94 67 -94 206t94 205q59 41 160 41t160 -41q94 -66 94 -205zM187 561l-57 43q14 27 35 47
q25 23 71 23q27 0 63 -17l21 -10q29 -13 44 -13q17 0 28 9q10 10 16 22l57 -43q-15 -33 -35 -50q-23 -20 -65 -20q-31 0 -66 16l-21 10q-28 14 -44 14t-30 -11q-9 -8 -17 -20z" />
    <glyph glyph-name="odieresis" unicode="&#xf6;" horiz-adv-x="588" 
d="M294 378q-39 0 -65 -25q-39 -38 -39 -120q0 -80 39 -119q26 -25 65 -25t65 25q39 39 39 119q0 82 -39 120q-26 25 -65 25zM548 234q0 -139 -94 -206q-59 -41 -160 -41t-160 41q-94 67 -94 206t94 205q59 41 160 41t160 -41q94 -66 94 -205zM328 654q0 32 22 54t54 22
t54 -22t22 -54t-22 -54t-54 -22t-54 22t-22 54zM107 654q0 32 22.5 54t53.5 22t53.5 -22t22.5 -54t-22.5 -54t-53.5 -22t-53.5 22t-22.5 54z" />
    <glyph glyph-name="divide" unicode="&#xf7;" horiz-adv-x="726" 
d="M48 291v120h630v-120h-630zM291 145q0 29 21.5 50.5t50.5 21.5t50.5 -21.5t21.5 -50.5t-21.5 -50.5t-50.5 -21.5t-50.5 21.5t-21.5 50.5zM291 557q0 29 21.5 50.5t50.5 21.5t50.5 -21.5t21.5 -50.5t-21.5 -50.5t-50.5 -21.5t-50.5 21.5t-21.5 50.5z" />
    <glyph glyph-name="oslash" unicode="&#xf8;" horiz-adv-x="588" 
d="M194 148l148 229q-17 9 -44 9q-51 0 -79 -27q-39 -37 -39 -128q0 -47 14 -83zM397 309l-142 -222q20 -6 39 -6q47 0 75 27q40 38 40 123q0 46 -12 78zM504 476l-33 -51q77 -67 77 -191q0 -140 -94 -206q-59 -41 -156 -41q-53 0 -100 12l-37 -58l-71 46l32 50
q-82 69 -82 197q0 139 94 205q59 41 158 41q58 0 105 -16l36 55z" />
    <glyph glyph-name="ugrave" unicode="&#xf9;" horiz-adv-x="598" 
d="M524 0h-132v53h-5q-23 -29 -58 -46q-36 -18 -84 -18q-80 0 -121 38q-23 21 -34.5 54t-13.5 56.5t-2 61.5v268h136v-256q0 -63 12 -84q16 -28 56 -28q34 0 62 18t48 49v301h136v-467zM286 700l72 -163h-82l-116 163h126z" />
    <glyph glyph-name="uacute" unicode="&#xfa;" horiz-adv-x="598" 
d="M524 0h-132v53h-5q-23 -29 -58 -46q-36 -18 -84 -18q-80 0 -121 38q-23 21 -34.5 54t-13.5 56.5t-2 61.5v268h136v-256q0 -63 12 -84q16 -28 56 -28q34 0 62 18t48 49v301h136v-467zM312 700h126l-116 -163h-82z" />
    <glyph glyph-name="ucircumflex" unicode="&#xfb;" horiz-adv-x="598" 
d="M524 0h-132v53h-5q-23 -29 -58 -46q-36 -18 -84 -18q-80 0 -121 38q-23 21 -34.5 54t-13.5 56.5t-2 61.5v268h136v-256q0 -63 12 -84q16 -28 56 -28q34 0 62 18t48 49v301h136v-467zM299 630l-75 -93h-88l104 163h118l104 -163h-88z" />
    <glyph glyph-name="udieresis" unicode="&#xfc;" horiz-adv-x="598" 
d="M524 0h-132v53h-5q-23 -29 -58 -46q-36 -18 -84 -18q-80 0 -121 38q-23 21 -34.5 54t-13.5 56.5t-2 61.5v268h136v-256q0 -63 12 -84q16 -28 56 -28q34 0 62 18t48 49v301h136v-467zM333 654q0 32 22.5 54t53.5 22t53.5 -22t22.5 -54t-22.5 -54t-53.5 -22t-53.5 22
t-22.5 54zM112 654q0 32 22 54t54 22t54 -22t22 -54t-22 -54t-54 -22t-54 22t-22 54z" />
    <glyph glyph-name="yacute" unicode="&#xfd;" horiz-adv-x="522" 
d="M272 166l91 301h143l-174 -493q-32 -91 -68 -129q-49 -50 -145 -50q-33 0 -60 7l-12 104q23 -7 46 -7q38 0 61 17q25 20 40 64l13 38l-191 449h145zM294 700h126l-116 -163h-82z" />
    <glyph glyph-name="thorn" unicode="&#xfe;" horiz-adv-x="601" 
d="M210 307v-167q40 -51 99 -51q39 0 65 27q37 38 37 127q0 67 -27 103q-23 32 -64 32q-31 0 -66 -26q-26 -20 -44 -45zM74 -192v892h136v-287q53 67 147 67q84 0 134 -45q70 -62 70 -191q0 -131 -70 -201q-55 -55 -149 -55q-83 0 -132 50v-230h-136z" />
    <glyph glyph-name="ydieresis" unicode="&#xff;" horiz-adv-x="522" 
d="M272 166l91 301h143l-174 -493q-32 -91 -68 -129q-49 -50 -145 -50q-33 0 -60 7l-12 104q23 -7 46 -7q38 0 61 17q25 20 40 64l13 38l-191 449h145zM301 654q0 32 22.5 54t53.5 22t53.5 -22t22.5 -54t-22.5 -54t-53.5 -22t-53.5 22t-22.5 54zM80 654q0 32 22 54t54 22
t54 -22t22 -54t-22 -54t-54 -22t-54 22t-22 54z" />
    <glyph glyph-name="Amacron" unicode="&#x100;" horiz-adv-x="732" 
d="M434 700l294 -700h-156l-65 165h-282l-65 -165h-156l294 700h136zM271 285h189l-95 241zM515 784h-298v92h298v-92z" />
    <glyph glyph-name="amacron" unicode="&#x101;" horiz-adv-x="546" 
d="M109 340l-52 82q85 58 213 58q109 0 156 -50q42 -44 42 -132v-146q0 -37 10 -49q13 -15 40 -10l-16 -105q-77 -14 -117 16q-26 20 -37 57q-36 -38 -65 -53q-41 -21 -91 -21q-74 0 -117 40t-43 102q0 59 41 100q40 42 123 56q64 11 139 11v10q0 36 -17 53q-20 21 -65 21
q-70 0 -144 -40zM335 148v70q-53 -2 -87 -9q-47 -9 -67 -30q-15 -15 -15 -38q0 -24 16 -38q15 -14 44 -14q35 0 64 18q23 14 45 41zM118 578v86h296v-86h-296z" />
    <glyph glyph-name="Abreve" unicode="&#x102;" horiz-adv-x="732" 
d="M434 700l294 -700h-156l-65 165h-282l-65 -165h-156l294 700h136zM271 285h189l-95 241zM455 946l94 -20q-11 -87 -66 -127q-43 -30 -117 -30t-117 30q-55 40 -66 127l95 20q7 -52 36 -72q19 -13 52 -13q34 0 52 13q26 18 37 72z" />
    <glyph glyph-name="abreve" unicode="&#x103;" horiz-adv-x="546" 
d="M109 340l-52 82q85 58 213 58q109 0 156 -50q42 -44 42 -132v-146q0 -37 10 -49q13 -15 40 -10l-16 -105q-77 -14 -117 16q-26 20 -37 57q-36 -38 -65 -53q-41 -21 -91 -21q-74 0 -117 40t-43 102q0 59 41 100q40 42 123 56q64 11 139 11v10q0 36 -17 53q-20 21 -65 21
q-70 0 -144 -40zM335 148v70q-53 -2 -87 -9q-47 -9 -67 -30q-15 -15 -15 -38q0 -24 16 -38q15 -14 44 -14q35 0 64 18q23 14 45 41zM337 711l93 -20q-5 -86 -64 -122q-37 -22 -101 -22t-101 22q-59 36 -64 122l93 20q5 -51 26 -70q15 -14 46 -14t46 14q21 19 26 70z" />
    <glyph glyph-name="Aogonek" unicode="&#x104;" horiz-adv-x="732" 
d="M434 700l294 -700h-65q-55 -44 -66 -55q-30 -30 -30 -54q0 -17 12 -26q10 -8 28 -8q17 0 32 7q13 6 24 15l36 -64q-25 -16 -47 -23q-30 -10 -61 -10q-58 0 -87 30q-21 21 -21 55t32 76q23 29 57 57l-65 165h-282l-65 -165h-156l294 700h136zM271 285h189l-95 241z" />
    <glyph glyph-name="aogonek" unicode="&#x105;" horiz-adv-x="546" 
d="M109 340l-52 82q85 58 213 58q109 0 156 -50q42 -44 42 -132v-146q0 -37 10 -49q13 -15 40 -10l-16 -105q-52 -23 -81 -52q-22 -22 -22 -43q0 -16 10 -24q8 -8 24 -8q15 0 27 6q11 5 22 14l36 -53q-17 -14 -41 -23q-27 -10 -60 -10q-44 0 -68 22q-25 23 -25 61
q0 37 29 66q26 27 65 46q-28 7 -45 26q-18 20 -23 45q-36 -35 -67 -53q-41 -21 -91 -21q-74 0 -117 40t-43 102q0 59 41 100q40 42 123 56q64 11 139 11v10q0 36 -17 53q-20 21 -65 21q-70 0 -144 -40zM335 148v70q-53 -2 -87 -9q-47 -9 -67 -30q-15 -15 -15 -38
q0 -24 16 -38q15 -14 44 -14q35 0 64 18q23 14 45 41z" />
    <glyph glyph-name="Cacute" unicode="&#x106;" horiz-adv-x="680" 
d="M637 641l-75 -105q-43 29 -66 39q-41 19 -87 19q-73 0 -119 -46q-70 -70 -70 -212q0 -126 63 -186q46 -44 117 -44q86 0 164 63l76 -106q-92 -79 -256 -79q-74 0 -131.5 17.5t-105.5 65.5q-97 97 -97 267q0 187 103 291q91 91 246 91q80 0 137 -19q56 -20 101 -56z
M411 910h138l-109 -141h-94z" />
    <glyph glyph-name="cacute" unicode="&#x107;" horiz-adv-x="525" 
d="M413 139l82 -72q-35 -43 -84 -61.5t-124 -18.5q-122 0 -182 58q-65 63 -65 177q0 120 69 189t192 69q112 0 177 -56l-65 -85q-47 35 -96 35q-54 0 -86 -30q-41 -38 -41 -119q0 -69 35 -104q28 -28 84 -28q60 0 104 46zM325 700h126l-116 -163h-82z" />
    <glyph glyph-name="Ccircumflex" unicode="&#x108;" horiz-adv-x="680" 
d="M637 641l-75 -105q-43 29 -66 39q-41 19 -87 19q-73 0 -119 -46q-70 -70 -70 -212q0 -126 63 -186q46 -44 117 -44q86 0 164 63l76 -106q-92 -79 -256 -79q-74 0 -131.5 17.5t-105.5 65.5q-97 97 -97 267q0 187 103 291q91 91 246 91q80 0 137 -19q56 -20 101 -56z
M400 844l-62 -75h-88l91 141h118l94 -141h-88z" />
    <glyph glyph-name="ccircumflex" unicode="&#x109;" horiz-adv-x="525" 
d="M413 139l82 -72q-35 -43 -84 -61.5t-124 -18.5q-122 0 -182 58q-65 63 -65 177q0 120 69 189t192 69q112 0 177 -56l-65 -85q-47 35 -96 35q-54 0 -86 -30q-41 -38 -41 -119q0 -69 35 -104q28 -28 84 -28q60 0 104 46zM303 630l-75 -93h-88l104 163h118l104 -163h-88z
" />
    <glyph glyph-name="Cdotaccent" unicode="&#x10a;" horiz-adv-x="680" 
d="M637 641l-75 -105q-43 29 -66 39q-41 19 -87 19q-73 0 -119 -46q-70 -70 -70 -212q0 -126 63 -186q46 -44 117 -44q86 0 164 63l76 -106q-92 -79 -256 -79q-74 0 -131.5 17.5t-105.5 65.5q-97 97 -97 267q0 187 103 291q91 91 246 91q80 0 137 -19q56 -20 101 -56z
M317 854q0 34 24 58t58 24t58 -24t24 -58t-24 -58t-58 -24t-58 24t-24 58z" />
    <glyph glyph-name="cdotaccent" unicode="&#x10b;" horiz-adv-x="525" 
d="M413 139l82 -72q-35 -43 -84 -61.5t-124 -18.5q-122 0 -182 58q-65 63 -65 177q0 120 69 189t192 69q112 0 177 -56l-65 -85q-47 35 -96 35q-54 0 -86 -30q-41 -38 -41 -119q0 -69 35 -104q28 -28 84 -28q60 0 104 46zM219 648q0 34 24 58t58 24t58 -24t24 -58t-24 -58
t-58 -24t-58 24t-24 58z" />
    <glyph glyph-name="Ccaron" unicode="&#x10c;" horiz-adv-x="680" 
d="M637 641l-75 -105q-43 29 -66 39q-41 19 -87 19q-73 0 -119 -46q-70 -70 -70 -212q0 -126 63 -186q46 -44 117 -44q86 0 164 63l76 -106q-92 -79 -256 -79q-74 0 -131.5 17.5t-105.5 65.5q-97 97 -97 267q0 187 103 291q91 91 246 91q80 0 137 -19q56 -20 101 -56z
M400 835l65 75h88l-94 -141h-118l-91 141h88z" />
    <glyph glyph-name="ccaron" unicode="&#x10d;" horiz-adv-x="525" 
d="M413 139l82 -72q-35 -43 -84 -61.5t-124 -18.5q-122 0 -182 58q-65 63 -65 177q0 120 69 189t192 69q112 0 177 -56l-65 -85q-47 35 -96 35q-54 0 -86 -30q-41 -38 -41 -119q0 -69 35 -104q28 -28 84 -28q60 0 104 46zM303 607l75 93h88l-104 -163h-118l-104 163h88z" />
    <glyph glyph-name="Dcaron" unicode="&#x10e;" horiz-adv-x="726" 
d="M86 700h201q115 0 186 -16.5t123 -73.5q80 -89 80 -257q0 -185 -88 -269t-290 -84h-212v700zM236 576v-452h33q45 0 70 1.5t57.5 12t54.5 30.5q57 52 57 183q0 121 -51 176q-47 49 -155 49h-66zM361 835l65 75h88l-94 -141h-118l-91 141h88z" />
    <glyph glyph-name="dcaron" unicode="&#x10f;" horiz-adv-x="737" 
d="M391 154v162q-37 60 -95 60q-39 0 -65 -25q-41 -39 -41 -125q0 -64 25 -100q26 -37 72 -37q66 0 104 65zM527 0h-136v50q-48 -60 -142 -60q-91 0 -141 50q-68 68 -68 190q0 123 69 192q57 56 150 56q88 0 132 -56v278h136v-700zM632 700h115q0 -55 -17 -104
q-21 -63 -78 -112l-72 21q40 59 47 105q5 28 5 84v6z" />
    <glyph glyph-name="Dcroat" unicode="&#x110;" horiz-adv-x="734" 
d="M94 700h201q115 0 186 -16.5t123 -73.5q80 -89 80 -257q0 -185 -88 -269t-290 -84h-212v296h-84v126h84v278zM244 576v-154h138v-126h-138v-172h33q45 0 70 1.5t57.5 12t54.5 30.5q57 52 57 183q0 121 -51 176q-47 49 -155 49h-66z" />
    <glyph glyph-name="dcroat" unicode="&#x111;" horiz-adv-x="601" 
d="M391 154v154q-37 60 -95 60q-39 0 -65 -25q-41 -39 -41 -117q0 -64 25 -100q26 -37 72 -37q66 0 104 65zM527 0h-136v50q-48 -60 -142 -60q-91 0 -141 50q-68 68 -68 184q0 118 69 186q56 56 155 56q82 0 127 -56v125h-158v98h158v67h136v-67h74v-98h-74v-535z" />
    <glyph glyph-name="Emacron" unicode="&#x112;" horiz-adv-x="584" 
d="M538 576h-302v-144h242v-124h-242v-184h310v-124h-460v700h452v-124zM458 784h-298v92h298v-92z" />
    <glyph glyph-name="emacron" unicode="&#x113;" horiz-adv-x="559" 
d="M191 295h196q-4 42 -32 68q-24 23 -64 23q-38 0 -66 -24q-27 -26 -34 -67zM428 134l78 -70q-69 -77 -214 -77q-119 0 -181 60q-71 68 -71 179q0 114 75 189q66 65 172 65q107 0 165 -62q67 -69 67 -200v-13h-333q0 -50 30 -84q30 -32 87 -32q71 0 125 45zM142 578v86h296
v-86h-296z" />
    <glyph glyph-name="Edotaccent" unicode="&#x116;" horiz-adv-x="584" 
d="M538 576h-302v-144h242v-124h-242v-184h310v-124h-460v700h452v-124zM234 854q0 34 24 58t58 24t58 -24t24 -58t-24 -58t-58 -24t-58 24t-24 58z" />
    <glyph glyph-name="edotaccent" unicode="&#x117;" horiz-adv-x="559" 
d="M191 295h196q-4 42 -32 68q-24 23 -64 23q-38 0 -66 -24q-27 -26 -34 -67zM428 134l78 -70q-69 -77 -214 -77q-119 0 -181 60q-71 68 -71 179q0 114 75 189q66 65 172 65q107 0 165 -62q67 -69 67 -200v-13h-333q0 -50 30 -84q30 -32 87 -32q71 0 125 45zM204 648
q0 34 24 58t58 24t58 -24t24 -58t-24 -58t-58 -24t-58 24t-24 58z" />
    <glyph glyph-name="Eogonek" unicode="&#x118;" horiz-adv-x="584" 
d="M538 576h-302v-144h242v-124h-242v-184h310v-124h-36q-39 -28 -66 -55q-30 -30 -30 -54q0 -16 12 -26q10 -8 28 -8q15 0 32 7q13 6 24 15l36 -64q-25 -16 -47 -23q-27 -10 -60 -10q-59 0 -88 30q-21 23 -21 55q0 34 32 76q24 30 57 57h-333v700h452v-124z" />
    <glyph glyph-name="eogonek" unicode="&#x119;" horiz-adv-x="559" 
d="M191 295h196q-5 46 -32.5 68.5t-63.5 22.5q-44 0 -69 -26t-31 -65zM428 134l78 -70q-23 -24 -65.5 -57t-62.5 -56q-31 -34 -31 -58q0 -15 10.5 -23.5t23.5 -8.5q24 0 49 20l36 -53q-41 -33 -101 -33q-49 0 -71 23.5t-22 59.5q0 24 13 47.5t24.5 35t33.5 30.5
q-31 -4 -57 -4q-112 0 -175 60q-71 66 -71 179q0 114 75 189q66 65 172 65q105 0 165 -62q67 -69 67 -200v-13h-333q0 -61 34.5 -88.5t82.5 -27.5q71 0 125 45z" />
    <glyph glyph-name="Ecaron" unicode="&#x11a;" horiz-adv-x="584" 
d="M538 576h-302v-144h242v-124h-242v-184h310v-124h-460v700h452v-124zM320 835l65 75h88l-94 -141h-118l-91 141h88z" />
    <glyph glyph-name="ecaron" unicode="&#x11b;" horiz-adv-x="559" 
d="M191 295h196q-4 42 -32 68q-24 23 -64 23q-38 0 -66 -24q-27 -26 -34 -67zM428 134l78 -70q-69 -77 -214 -77q-119 0 -181 60q-71 68 -71 179q0 114 75 189q66 65 172 65q107 0 165 -62q67 -69 67 -200v-13h-333q0 -50 30 -84q30 -32 87 -32q71 0 125 45zM289 607l75 93
h88l-104 -163h-118l-104 163h88z" />
    <glyph glyph-name="Gcircumflex" unicode="&#x11c;" horiz-adv-x="767" 
d="M390 364h327q-4 -205 -94 -299q-80 -83 -237 -83q-137 0 -218 66q-54 45 -86 118.5t-32 163.5q0 74 24.5 154.5t84.5 138.5q56 56 118.5 73.5t136.5 17.5q96 0 159 -25q60 -25 104 -69l-88 -102q-40 34 -73 51q-45 25 -99 25q-77 0 -127 -50q-70 -68 -70 -210
q0 -128 60 -187q43 -43 112 -43q59 0 97 29q52 41 63 123h-162v108zM420 844l-62 -75h-88l91 141h118l94 -141h-88z" />
    <glyph glyph-name="gcircumflex" unicode="&#x11d;" horiz-adv-x="601" 
d="M391 153v160q-39 63 -96 63q-47 0 -74 -36q-31 -41 -31 -112q0 -73 34 -109q24 -25 62 -25q62 0 105 59zM391 467h136v-416q0 -73 -11 -120.5t-43 -80.5q-32 -32 -76 -43.5t-112 -11.5q-113 0 -190 47l56 89q58 -32 127 -32q58 0 85 26q28 27 28 100v30q-56 -56 -147 -56
q-89 0 -142 53q-62 62 -62 178q0 122 69 191q57 57 155 57q86 0 127 -61v50zM300 630l-75 -93h-88l104 163h118l104 -163h-88z" />
    <glyph glyph-name="Gbreve" unicode="&#x11e;" horiz-adv-x="767" 
d="M390 364h327q-4 -205 -94 -299q-80 -83 -237 -83q-137 0 -218 66q-54 45 -86 118.5t-32 163.5q0 74 24.5 154.5t84.5 138.5q56 56 118.5 73.5t136.5 17.5q96 0 159 -25q60 -25 104 -69l-88 -102q-40 34 -73 51q-45 25 -99 25q-77 0 -127 -50q-70 -68 -70 -210
q0 -128 60 -187q43 -43 112 -43q59 0 97 29q52 41 63 123h-162v108zM502 946l94 -20q-11 -87 -66 -127q-43 -30 -117 -30t-117 30q-55 40 -66 127l95 20q7 -52 36 -72q19 -13 52 -13q34 0 52 13q26 18 37 72z" />
    <glyph glyph-name="gbreve" unicode="&#x11f;" horiz-adv-x="601" 
d="M391 153v160q-39 63 -96 63q-47 0 -74 -36q-31 -41 -31 -112q0 -73 34 -109q24 -25 62 -25q62 0 105 59zM391 467h136v-416q0 -73 -11 -120.5t-43 -80.5q-32 -32 -76 -43.5t-112 -11.5q-113 0 -190 47l56 89q58 -32 127 -32q58 0 85 26q28 27 28 100v30q-56 -56 -147 -56
q-89 0 -142 53q-62 62 -62 178q0 122 69 191q57 57 155 57q86 0 127 -61v50zM372 711l93 -20q-5 -86 -64 -122q-37 -22 -101 -22t-101 22q-59 36 -64 122l93 20q5 -51 26 -70q15 -14 46 -14t46 14q21 19 26 70z" />
    <glyph glyph-name="Gdotaccent" unicode="&#x120;" horiz-adv-x="767" 
d="M390 364h327q-4 -205 -94 -299q-80 -83 -237 -83q-137 0 -218 66q-54 45 -86 118.5t-32 163.5q0 74 24.5 154.5t84.5 138.5q56 56 118.5 73.5t136.5 17.5q96 0 159 -25q60 -25 104 -69l-88 -102q-40 34 -73 51q-45 25 -99 25q-77 0 -127 -50q-70 -68 -70 -210
q0 -128 60 -187q43 -43 112 -43q59 0 97 29q52 41 63 123h-162v108zM332 854q0 34 24 58t58 24t58 -24t24 -58t-24 -58t-58 -24t-58 24t-24 58z" />
    <glyph glyph-name="gdotaccent" unicode="&#x121;" horiz-adv-x="601" 
d="M391 153v160q-39 63 -96 63q-47 0 -74 -36q-31 -41 -31 -112q0 -73 34 -109q24 -25 62 -25q62 0 105 59zM391 467h136v-416q0 -73 -11 -120.5t-43 -80.5q-32 -32 -76 -43.5t-112 -11.5q-113 0 -190 47l56 89q58 -32 127 -32q58 0 85 26q28 27 28 100v30q-56 -56 -147 -56
q-89 0 -142 53q-62 62 -62 178q0 122 69 191q57 57 155 57q86 0 127 -61v50zM182 648q0 34 24 58t58 24t58 -24t24 -58t-24 -58t-58 -24t-58 24t-24 58z" />
    <glyph glyph-name="Gcommaaccent" unicode="&#x122;" horiz-adv-x="767" 
d="M390 364h327q-4 -205 -94 -299q-80 -83 -237 -83q-137 0 -218 66q-54 45 -86 118.5t-32 163.5q0 74 24.5 154.5t84.5 138.5q56 56 118.5 73.5t136.5 17.5q96 0 159 -25q60 -25 104 -69l-88 -102q-40 34 -73 51q-45 25 -99 25q-77 0 -127 -50q-70 -68 -70 -210
q0 -128 60 -187q43 -43 112 -43q59 0 97 29q52 41 63 123h-162v108zM349 -61h113q2 -52 -13 -96q-20 -62 -80 -110l-66 26q32 45 41 86q5 26 5 74v20z" />
    <glyph glyph-name="gcommaaccent" unicode="&#x123;" horiz-adv-x="601" 
d="M391 153v160q-39 63 -96 63q-47 0 -74 -36q-31 -41 -31 -112q0 -73 34 -109q24 -25 62 -25q62 0 105 59zM391 467h136v-416q0 -73 -11 -120.5t-43 -80.5q-32 -32 -76 -43.5t-112 -11.5q-113 0 -190 47l56 89q58 -32 127 -32q58 0 85 26q28 27 28 100v30q-56 -56 -147 -56
q-89 0 -142 53q-62 62 -62 178q0 122 69 191q57 57 155 57q86 0 127 -61v50zM306 528h-113q0 48 13 87q20 62 80 110l66 -26q-32 -45 -41 -86q-5 -26 -5 -74v-11z" />
    <glyph glyph-name="Hcircumflex" unicode="&#x124;" horiz-adv-x="743" 
d="M236 300v-300h-150v700h150v-276h271v276h150v-700h-150v300h-271zM370 844l-62 -75h-88l91 141h118l94 -141h-88z" />
    <glyph glyph-name="hcircumflex" unicode="&#x125;" horiz-adv-x="598" 
d="M74 700h136v-287q24 30 59 47q37 18 83 18q83 0 124 -39q48 -46 48 -154v-285h-136v259q0 70 -21 92q-17 17 -46 17q-31 0 -64 -25q-28 -21 -47 -50v-293h-136v700zM143 840l-75 -93h-88l104 163h118l104 -163h-88z" />
    <glyph glyph-name="Hbar" unicode="&#x126;" horiz-adv-x="779" 
d="M254 300v-300h-150v526h-74v104h74v70h150v-70h271v70h150v-70h74v-104h-74v-526h-150v300h-271zM525 526h-271v-102h271v102z" />
    <glyph glyph-name="hbar" unicode="&#x127;" horiz-adv-x="598" 
d="M524 0h-136v247q0 70 -21 92q-17 17 -46 17q-31 0 -64 -25q-28 -21 -47 -50v-281h-136v535h-74v98h74v67h136v-67h158v-98h-158v-134q24 30 59 47q37 18 83 18q83 0 124 -39q48 -46 48 -154v-273z" />
    <glyph glyph-name="uni012A" unicode="&#x12a;" horiz-adv-x="322" 
d="M86 700h150v-700h-150v700zM310 784h-298v92h298v-92z" />
    <glyph glyph-name="imacron" unicode="&#x12b;" horiz-adv-x="284" 
d="M74 0v467h136v-467h-136zM-6 578v86h296v-86h-296z" />
    <glyph glyph-name="Iogonek" unicode="&#x12e;" horiz-adv-x="322" 
d="M84 700h150v-700h-59q-31 -26 -55 -53q-25 -29 -25 -52q0 -18 9 -27q9 -11 31 -11q15 0 32 7q13 6 24 15l36 -64q-29 -18 -47 -23q-29 -10 -63 -10q-47 0 -75 22q-31 25 -31 69q0 34 24 71q20 30 49 56v700z" />
    <glyph glyph-name="iogonek" unicode="&#x12f;" horiz-adv-x="284" 
d="M85 467h136v-467h-57q-44 -42 -63 -69q-15 -21 -15 -39q0 -15 10 -23t24 -8q15 0 27 6q11 5 22 14l36 -53q-17 -14 -41 -23q-26 -10 -56 -10q-48 0 -72 22q-25 23 -25 62q0 34 27 70q18 23 47 51v467zM71 648q0 34 24 58t58 24t58 -24t24 -58t-24 -58t-58 -24t-58 24
t-24 58z" />
    <glyph glyph-name="Idotaccent" unicode="&#x130;" horiz-adv-x="322" 
d="M86 700h150v-700h-150v700zM79 854q0 34 24 58t58 24t58 -24t24 -58t-24 -58t-58 -24t-58 24t-24 58z" />
    <glyph glyph-name="dotlessi" unicode="&#x131;" horiz-adv-x="284" 
d="M74 0v467h136v-467h-136z" />
    <glyph glyph-name="Jcircumflex" unicode="&#x134;" horiz-adv-x="443" 
d="M207 700h150v-450q0 -48 -2.5 -80.5t-15.5 -74t-38 -65.5q-47 -46 -147 -46q-96 0 -154 44l53 107q34 -25 75 -25q37 0 55 20q24 25 24 125v445zM280 844l-62 -75h-88l91 141h118l94 -141h-88z" />
    <glyph glyph-name="jcircumflex" unicode="&#x135;" horiz-adv-x="318" 
d="M244 467v-461q0 -43 -1 -64t-11 -54t-29 -52q-41 -41 -138 -41q-70 0 -120 28l45 99q24 -13 56 -13q34 0 49 19q13 17 13 70v469h136zM173 630l-75 -93h-88l104 163h118l104 -163h-88z" />
    <glyph glyph-name="Kcommaaccent" unicode="&#x136;" horiz-adv-x="696" 
d="M236 404l270 296h174l-267 -293l279 -407h-172l-205 299l-79 -85v-214h-150v700h150v-296zM322 -61h113q2 -52 -13 -96q-20 -62 -80 -110l-66 26q32 45 41 86q5 26 5 74v20z" />
    <glyph glyph-name="kcommaaccent" unicode="&#x137;" horiz-adv-x="573" 
d="M210 301l173 166h168l-189 -181l195 -286h-159l-131 193l-57 -53v-140h-136v700h136v-399zM252 -61h113q0 -48 -13 -87q-20 -62 -80 -110l-66 26q32 45 41 86q5 26 5 74v11z" />
    <glyph glyph-name="Lacute" unicode="&#x139;" horiz-adv-x="576" 
d="M236 124h316v-124h-466v700h150v-576zM181 910h138l-109 -141h-94z" />
    <glyph glyph-name="lacute" unicode="&#x13a;" horiz-adv-x="284" 
d="M74 0v700h136v-700h-136zM155 910h126l-116 -163h-82z" />
    <glyph glyph-name="Lcommaaccent" unicode="&#x13b;" horiz-adv-x="576" 
d="M236 124h316v-124h-466v700h150v-576zM272 -61h113q2 -52 -13 -96q-20 -62 -80 -110l-66 26q32 45 41 86q5 26 5 74v20z" />
    <glyph glyph-name="lcommaaccent" unicode="&#x13c;" horiz-adv-x="284" 
d="M74 0v700h136v-700h-136zM87 -61h113q0 -48 -13 -87q-20 -62 -80 -110l-66 26q32 45 41 86q5 26 5 74v11z" />
    <glyph glyph-name="Lcaron" unicode="&#x13d;" horiz-adv-x="576" 
d="M236 124h316v-124h-466v700h150v-576zM410 700h119q0 -51 -17 -102q-23 -68 -76 -118l-76 21q36 53 45 109q5 30 5 84v6z" />
    <glyph glyph-name="lcaron" unicode="&#x13e;" horiz-adv-x="420" 
d="M74 0v700h136v-700h-136zM315 700h115q0 -55 -17 -104q-21 -63 -78 -112l-72 21q40 59 47 105q5 28 5 84v6z" />
    <glyph glyph-name="Ldot" unicode="&#x13f;" horiz-adv-x="576" 
d="M236 124h316v-124h-466v700h150v-576zM367 350q0 34 24 58t58 24t58 -24t24 -58t-24 -58t-58 -24t-58 24t-24 58z" />
    <glyph glyph-name="ldot" unicode="&#x140;" horiz-adv-x="498" 
d="M74 0v700h136v-700h-136zM309 350q0 34 24 58t58 24t58 -24t24 -58t-24 -58t-58 -24t-58 24t-24 58z" />
    <glyph glyph-name="Lslash" unicode="&#x141;" horiz-adv-x="598" 
d="M258 124h316v-124h-466v223l-63 -50l-65 93l128 101v333h150v-215l125 98l65 -93l-190 -149v-217z" />
    <glyph glyph-name="lslash" unicode="&#x142;" horiz-adv-x="379" 
d="M121 0v226l-65 -56l-62 84l127 108v338h136v-221l66 56l62 -84l-128 -109v-342h-136z" />
    <glyph glyph-name="Nacute" unicode="&#x143;" horiz-adv-x="735" 
d="M232 462v-462h-146v700h144l273 -462v462h146v-700h-144zM381 910h138l-109 -141h-94z" />
    <glyph glyph-name="nacute" unicode="&#x144;" horiz-adv-x="598" 
d="M74 467h136v-54q24 30 59 47q37 18 83 18q83 0 124 -39q48 -46 48 -154v-285h-136v259q0 70 -21 92q-17 17 -46 17q-31 0 -64 -25q-28 -21 -47 -50v-293h-136v467zM366 700h126l-116 -163h-82z" />
    <glyph glyph-name="Ncommaaccent" unicode="&#x145;" horiz-adv-x="735" 
d="M232 462v-462h-146v700h144l273 -462v462h146v-700h-144zM312 -61h113q2 -52 -13 -96q-20 -62 -80 -110l-66 26q32 45 41 86q5 26 5 74v20z" />
    <glyph glyph-name="ncommaaccent" unicode="&#x146;" horiz-adv-x="598" 
d="M74 467h136v-54q24 30 59 47q37 18 83 18q83 0 124 -39q48 -46 48 -154v-285h-136v259q0 70 -21 92q-17 17 -46 17q-31 0 -64 -25q-28 -21 -47 -50v-293h-136v467zM244 -61h113q0 -48 -13 -87q-20 -62 -80 -110l-66 26q32 45 41 86q5 26 5 74v11z" />
    <glyph glyph-name="Ncaron" unicode="&#x147;" horiz-adv-x="735" 
d="M232 462v-462h-146v700h144l273 -462v462h146v-700h-144zM366 835l65 75h88l-94 -141h-118l-91 141h88z" />
    <glyph glyph-name="ncaron" unicode="&#x148;" horiz-adv-x="598" 
d="M74 467h136v-54q24 30 59 47q37 18 83 18q83 0 124 -39q48 -46 48 -154v-285h-136v259q0 70 -21 92q-17 17 -46 17q-31 0 -64 -25q-28 -21 -47 -50v-293h-136v467zM313 607l75 93h88l-104 -163h-118l-104 163h88z" />
    <glyph glyph-name="Omacron" unicode="&#x14c;" horiz-adv-x="778" 
d="M389 594q-65 0 -104 -39q-65 -65 -65 -205t65 -205q39 -39 104 -39t104 39q65 65 65 205t-65 205q-39 39 -104 39zM728 350q0 -185 -97 -282q-85 -84 -242 -84t-242 84q-97 97 -97 282t97 282q85 84 242 84t242 -84q97 -97 97 -282zM538 784h-298v92h298v-92z" />
    <glyph glyph-name="omacron" unicode="&#x14d;" horiz-adv-x="588" 
d="M294 378q-39 0 -65 -25q-39 -38 -39 -120q0 -80 39 -119q26 -25 65 -25t65 25q39 39 39 119q0 82 -39 120q-26 25 -65 25zM548 234q0 -139 -94 -206q-59 -41 -160 -41t-160 41q-94 67 -94 206t94 205q59 41 160 41t160 -41q94 -66 94 -205zM146 578v86h296v-86h-296z" />
    <glyph glyph-name="Obreve" unicode="&#x14e;" horiz-adv-x="778" 
d="M389 594q-65 0 -104 -39q-65 -65 -65 -205t65 -205q39 -39 104 -39t104 39q65 65 65 205t-65 205q-39 39 -104 39zM728 350q0 -185 -97 -282q-85 -84 -242 -84t-242 84q-97 97 -97 282t97 282q85 84 242 84t242 -84q97 -97 97 -282zM478 946l94 -20q-11 -87 -66 -127
q-43 -30 -117 -30t-117 30q-55 40 -66 127l95 20q7 -52 36 -72q19 -13 52 -13q34 0 52 13q26 18 37 72z" />
    <glyph glyph-name="obreve" unicode="&#x14f;" horiz-adv-x="588" 
d="M294 378q-39 0 -65 -25q-39 -38 -39 -120q0 -80 39 -119q26 -25 65 -25t65 25q39 39 39 119q0 82 -39 120q-26 25 -65 25zM548 234q0 -139 -94 -206q-59 -41 -160 -41t-160 41q-94 67 -94 206t94 205q59 41 160 41t160 -41q94 -66 94 -205zM366 711l93 -20
q-5 -86 -64 -122q-37 -22 -101 -22t-101 22q-59 36 -64 122l93 20q5 -51 26 -70q15 -14 46 -14t46 14q21 19 26 70z" />
    <glyph glyph-name="Ohungarumlaut" unicode="&#x150;" horiz-adv-x="778" 
d="M389 594q-65 0 -104 -39q-65 -65 -65 -205t65 -205q39 -39 104 -39t104 39q65 65 65 205t-65 205q-39 39 -104 39zM728 350q0 -185 -97 -282q-85 -84 -242 -84t-242 84q-97 97 -97 282t97 282q85 84 242 84t242 -84q97 -97 97 -282zM314 910h112l-101 -141h-75zM476 910
h112l-101 -141h-75z" />
    <glyph glyph-name="ohungarumlaut" unicode="&#x151;" horiz-adv-x="588" 
d="M294 378q-39 0 -65 -25q-39 -38 -39 -120q0 -80 39 -119q26 -25 65 -25t65 25q39 39 39 119q0 82 -39 120q-26 25 -65 25zM548 234q0 -139 -94 -206q-59 -41 -160 -41t-160 41q-94 67 -94 206t94 205q59 41 160 41t160 -41q94 -66 94 -205zM230 700h114l-112 -163h-79z
M392 700h114l-112 -163h-79z" />
    <glyph glyph-name="OE" unicode="&#x152;" horiz-adv-x="1064" 
d="M1018 576h-302v-144h242v-124h-242v-184h310v-124h-460v66q-80 -82 -201 -82q-138 0 -218 82q-97 101 -97 284q0 185 97 282q82 84 219 84q134 0 200 -82v66h452v-124zM389 594q-65 0 -104 -39q-65 -65 -65 -205t65 -205q39 -39 104 -39t104 39q65 65 65 205t-65 205
q-39 39 -104 39z" />
    <glyph glyph-name="oe" unicode="&#x153;" horiz-adv-x="907" 
d="M538 295h193q-3 37 -27.5 64t-63.5 27q-43 0 -68.5 -25.5t-33.5 -65.5zM867 205h-333q0 -58 35.5 -87t82.5 -29q72 0 125 45l78 -70q-69 -77 -211 -77q-129 0 -183 69q-60 -69 -184 -69q-97 0 -155 42q-90 65 -90 199q0 62 18 109.5t44.5 74t63.5 42.5t68 21t65 5
q118 0 174 -70q56 70 165 70q113 0 175 -67t62 -193v-15zM286 378q-35 0 -58 -19t-32 -48t-11.5 -46t-2.5 -31q0 -15 2.5 -31.5t11 -46t31.5 -48.5t58 -19q54 0 78.5 44.5t24.5 100.5q0 14 -2.5 30.5t-11 46t-31.5 48.5t-57 19z" />
    <glyph glyph-name="Racute" unicode="&#x154;" horiz-adv-x="666" 
d="M236 263v-263h-150v700h250q161 0 225 -64q56 -54 56 -154q0 -84 -42 -134q-39 -47 -101 -62l144 -286h-161l-127 263h-94zM236 381h70q95 0 127 33q24 26 24 69q0 51 -34 74q-30 21 -103 21h-84v-197zM321 910h138l-109 -141h-94z" />
    <glyph glyph-name="racute" unicode="&#x155;" horiz-adv-x="430" 
d="M210 467v-63q26 33 53 51q36 25 88 25q42 0 75 -16l-36 -117q-22 11 -49 11q-39 0 -76 -26q-32 -23 -55 -56v-276h-136v467h136zM278 700h126l-116 -163h-82z" />
    <glyph glyph-name="Rcommaaccent" unicode="&#x156;" horiz-adv-x="666" 
d="M236 263v-263h-150v700h250q161 0 225 -64q56 -54 56 -154q0 -84 -42 -134q-39 -47 -101 -62l144 -286h-161l-127 263h-94zM236 381h70q95 0 127 33q24 26 24 69q0 51 -34 74q-30 21 -103 21h-84v-197zM290 -61h113q2 -52 -13 -96q-20 -62 -80 -110l-66 26q32 45 41 86
q5 26 5 74v20z" />
    <glyph glyph-name="rcommaaccent" unicode="&#x157;" horiz-adv-x="430" 
d="M210 467v-63q26 33 53 51q36 25 88 25q42 0 75 -16l-36 -117q-22 11 -49 11q-39 0 -76 -26q-32 -23 -55 -56v-276h-136v467h136zM162 -61h113q0 -48 -13 -87q-20 -62 -80 -110l-66 26q32 45 41 86q5 26 5 74v11z" />
    <glyph glyph-name="Rcaron" unicode="&#x158;" horiz-adv-x="666" 
d="M236 263v-263h-150v700h250q161 0 225 -64q56 -54 56 -154q0 -84 -42 -134q-39 -47 -101 -62l144 -286h-161l-127 263h-94zM236 381h70q95 0 127 33q24 26 24 69q0 51 -34 74q-30 21 -103 21h-84v-197zM331 835l65 75h88l-94 -141h-118l-91 141h88z" />
    <glyph glyph-name="rcaron" unicode="&#x159;" horiz-adv-x="430" 
d="M210 467v-63q26 33 53 51q36 25 88 25q42 0 75 -16l-36 -117q-22 11 -49 11q-39 0 -76 -26q-32 -23 -55 -56v-276h-136v467h136zM259 607l75 93h88l-104 -163h-118l-104 163h88z" />
    <glyph glyph-name="Sacute" unicode="&#x15a;" horiz-adv-x="635" 
d="M567 633l-75 -97q-38 25 -78 41q-43 17 -86 17q-50 0 -77 -22q-29 -24 -29 -60t35 -58q16 -10 87 -35l77 -26q88 -30 124 -66q50 -49 50 -131q0 -90 -58 -146q-69 -66 -222 -66q-94 0 -159 25q-64 27 -116 74l82 98q33 -27 83 -50t104 -23q55 0 83 17q35 22 35 61
q0 28 -21 49q-16 17 -72 35l-93 31q-93 30 -132 68q-47 46 -47 123q0 100 65 161q67 63 194 63q77 0 139 -22q57 -20 107 -61zM331 910h138l-109 -141h-94z" />
    <glyph glyph-name="sacute" unicode="&#x15b;" horiz-adv-x="498" 
d="M40 59l67 82q28 -21 55 -33q35 -15 71 -15q39 0 57 11q20 12 20 34q0 23 -26 38q-15 8 -60 18l-45 11q-55 13 -85 40q-32 28 -32 80q0 74 56 117q50 38 150 38q54 0 98 -12t82 -41l-57 -85q-62 38 -124 38q-37 0 -52 -11t-15 -27q0 -22 28 -33q9 -3 32.5 -8.5t40.5 -10.5
l36 -10q60 -18 87 -45q34 -34 34 -89q0 -68 -41 -108q-52 -51 -172 -51q-70 0 -123 20q-43 16 -82 52zM286 700h126l-116 -163h-82z" />
    <glyph glyph-name="Scircumflex" unicode="&#x15c;" horiz-adv-x="635" 
d="M567 633l-75 -97q-38 25 -78 41q-43 17 -86 17q-50 0 -77 -22q-29 -24 -29 -60t35 -58q16 -10 87 -35l77 -26q88 -30 124 -66q50 -49 50 -131q0 -90 -58 -146q-69 -66 -222 -66q-94 0 -159 25q-64 27 -116 74l82 98q33 -27 83 -50t104 -23q55 0 83 17q35 22 35 61
q0 28 -21 49q-16 17 -72 35l-93 31q-93 30 -132 68q-47 46 -47 123q0 100 65 161q67 63 194 63q77 0 139 -22q57 -20 107 -61zM316 844l-62 -75h-88l91 141h118l94 -141h-88z" />
    <glyph glyph-name="scircumflex" unicode="&#x15d;" horiz-adv-x="498" 
d="M40 59l67 82q28 -21 55 -33q35 -15 71 -15q39 0 57 11q20 12 20 34q0 23 -26 38q-15 8 -60 18l-45 11q-55 13 -85 40q-32 28 -32 80q0 74 56 117q50 38 150 38q54 0 98 -12t82 -41l-57 -85q-62 38 -124 38q-37 0 -52 -11t-15 -27q0 -22 28 -33q9 -3 32.5 -8.5t40.5 -10.5
l36 -10q60 -18 87 -45q34 -34 34 -89q0 -68 -41 -108q-52 -51 -172 -51q-70 0 -123 20q-43 16 -82 52zM259 630l-75 -93h-88l104 163h118l104 -163h-88z" />
    <glyph glyph-name="Scedilla" unicode="&#x15e;" horiz-adv-x="635" 
d="M567 633l-75 -97q-38 25 -78 41q-43 17 -86 17q-50 0 -77 -22q-29 -24 -29 -60t35 -58q16 -10 87 -35l77 -26q88 -30 124 -66q50 -49 50 -130q0 -91 -58 -147q-33 -31 -82.5 -48t-97.5 -18l-5 -35q53 -3 77 -27q23 -23 23 -57q0 -37 -26 -63q-30 -30 -100 -30
q-36 0 -64 7q-24 6 -43 16l31 56q14 -9 29 -12q17 -5 39 -5q29 0 42 11q11 9 11 24q0 20 -18 28q-15 6 -39 6q-18 0 -32 -2l15 83q-77 2 -141 25q-62 24 -116 74l82 98q33 -27 83 -50t105 -23t82 17q35 21 35 61q0 30 -21 49q-20 18 -72 35l-93 31q-93 30 -132 68
q-47 46 -47 123q0 100 65 161q67 63 194 63q77 0 139 -22q57 -20 107 -61z" />
    <glyph glyph-name="Scedilla" unicode="&#xf6c1;" horiz-adv-x="635" 
d="M567 633l-75 -97q-38 25 -78 41q-43 17 -86 17q-50 0 -77 -22q-29 -24 -29 -60t35 -58q16 -10 87 -35l77 -26q88 -30 124 -66q50 -49 50 -130q0 -91 -58 -147q-33 -31 -82.5 -48t-97.5 -18l-5 -35q53 -3 77 -27q23 -23 23 -57q0 -37 -26 -63q-30 -30 -100 -30
q-36 0 -64 7q-24 6 -43 16l31 56q14 -9 29 -12q17 -5 39 -5q29 0 42 11q11 9 11 24q0 20 -18 28q-15 6 -39 6q-18 0 -32 -2l15 83q-77 2 -141 25q-62 24 -116 74l82 98q33 -27 83 -50t105 -23t82 17q35 21 35 61q0 30 -21 49q-20 18 -72 35l-93 31q-93 30 -132 68
q-47 46 -47 123q0 100 65 161q67 63 194 63q77 0 139 -22q57 -20 107 -61z" />
    <glyph glyph-name="scedilla" unicode="&#x15f;" horiz-adv-x="498" 
d="M40 59l67 82q28 -21 55 -33q35 -15 71 -15q39 0 57 11q20 12 20 34q0 23 -26 38q-15 8 -60 18l-45 11q-55 13 -85 40q-32 28 -32 80q0 74 56 117q50 38 149 38q55 0 99 -12t82 -41l-57 -85q-62 38 -124 38q-37 0 -52 -11t-15 -27q0 -22 28 -33q9 -3 32.5 -8.5t40.5 -10.5
l36 -10q60 -18 87 -45q34 -34 34 -90q0 -68 -41 -107q-24 -22 -61 -35t-72 -13l-9 -33q54 0 79 -26q19 -21 19 -46q0 -42 -37 -69q-29 -21 -80 -21q-36 0 -67 9q-28 8 -46 18l32 52q32 -23 71 -23q21 0 36 9q14 10 14 27t-19 25q-26 11 -70 4l20 73q-54 0 -105 19
q-45 17 -82 51z" />
    <glyph glyph-name="scedilla" unicode="&#xf6c2;" horiz-adv-x="498" 
d="M40 59l67 82q28 -21 55 -33q35 -15 71 -15q39 0 57 11q20 12 20 34q0 23 -26 38q-15 8 -60 18l-45 11q-55 13 -85 40q-32 28 -32 80q0 74 56 117q50 38 149 38q55 0 99 -12t82 -41l-57 -85q-62 38 -124 38q-37 0 -52 -11t-15 -27q0 -22 28 -33q9 -3 32.5 -8.5t40.5 -10.5
l36 -10q60 -18 87 -45q34 -34 34 -90q0 -68 -41 -107q-24 -22 -61 -35t-72 -13l-9 -33q54 0 79 -26q19 -21 19 -46q0 -42 -37 -69q-29 -21 -80 -21q-36 0 -67 9q-28 8 -46 18l32 52q32 -23 71 -23q21 0 36 9q14 10 14 27t-19 25q-26 11 -70 4l20 73q-54 0 -105 19
q-45 17 -82 51z" />
    <glyph glyph-name="Scaron" unicode="&#x160;" horiz-adv-x="635" 
d="M567 633l-75 -97q-38 25 -78 41q-43 17 -86 17q-50 0 -77 -22q-29 -24 -29 -60t35 -58q16 -10 87 -35l77 -26q88 -30 124 -66q50 -49 50 -131q0 -90 -58 -146q-69 -66 -222 -66q-94 0 -159 25q-64 27 -116 74l82 98q33 -27 83 -50t104 -23q55 0 83 17q35 22 35 61
q0 28 -21 49q-16 17 -72 35l-93 31q-93 30 -132 68q-47 46 -47 123q0 100 65 161q67 63 194 63q77 0 139 -22q57 -20 107 -61zM316 835l65 75h88l-94 -141h-118l-91 141h88z" />
    <glyph glyph-name="scaron" unicode="&#x161;" horiz-adv-x="498" 
d="M40 59l67 82q28 -21 55 -33q35 -15 71 -15q39 0 57 11q20 12 20 34q0 23 -26 38q-15 8 -60 18l-45 11q-55 13 -85 40q-32 28 -32 80q0 74 56 117q50 38 150 38q54 0 98 -12t82 -41l-57 -85q-62 38 -124 38q-37 0 -52 -11t-15 -27q0 -22 28 -33q9 -3 32.5 -8.5t40.5 -10.5
l36 -10q60 -18 87 -45q34 -34 34 -89q0 -68 -41 -108q-52 -51 -172 -51q-70 0 -123 20q-43 16 -82 52zM259 607l75 93h88l-104 -163h-118l-104 163h88z" />
    <glyph glyph-name="Tcedilla" unicode="&#x162;" horiz-adv-x="568" 
d="M359 576v-576h-46l-7 -51q53 -3 77 -27q23 -23 23 -57q0 -37 -26 -63q-30 -30 -100 -30q-36 0 -64 7q-24 6 -43 16l31 56q14 -9 29 -12q17 -5 39 -5q29 0 42 11q11 9 11 24q0 20 -18 28q-15 6 -39 6q-18 0 -32 -2l17 99h-44v576h-195v124h540v-124h-195z" />
    <glyph glyph-name="tcedilla" unicode="&#x163;" horiz-adv-x="391" 
d="M96 467v134h136v-134h118v-104h-118v-181q0 -59 19 -76q14 -13 40 -13q28 0 57 16l41 -96q-45 -25 -105 -25l-9 -31q54 0 79 -26q19 -21 19 -46q0 -42 -37 -69q-29 -21 -80 -21q-36 0 -67 9q-28 8 -46 18l32 52q32 -23 71 -23q21 0 36 9q14 10 14 27t-19 25q-26 11 -70 4
l20 73q-54 4 -89 36q-26 25 -34 62t-8 91v185h-86v104h86z" />
    <glyph glyph-name="Tcaron" unicode="&#x164;" horiz-adv-x="568" 
d="M359 576v-576h-150v576h-195v124h540v-124h-195zM282 835l65 75h88l-94 -141h-118l-91 141h88z" />
    <glyph glyph-name="tcaron" unicode="&#x165;" horiz-adv-x="427" 
d="M96 467v134h136v-134h118v-104h-118v-181q0 -59 19 -76q14 -13 40 -13q28 0 57 16l41 -96q-48 -26 -126 -26q-85 0 -125 38q-26 26 -34 62.5t-8 90.5v185h-86v104h86zM322 730h115q0 -55 -17 -104q-21 -63 -78 -112l-72 21q40 59 47 105q5 28 5 84v6z" />
    <glyph glyph-name="Umacron" unicode="&#x16a;" horiz-adv-x="744" 
d="M658 700v-392q0 -60 -2.5 -96.5t-18 -83.5t-45.5 -77q-67 -67 -220 -67t-220 67q-30 30 -45.5 77t-18 83.5t-2.5 96.5v392h150v-390v-13q0 -43 1 -64.5t10 -49.5t27 -44q32 -29 98 -29t98 29q18 16 27 44t10 49.5t1 64.5v13v390h150zM521 784h-298v92h298v-92z" />
    <glyph glyph-name="umacron" unicode="&#x16b;" horiz-adv-x="598" 
d="M524 0h-132v53h-5q-23 -29 -58 -46q-36 -18 -84 -18q-80 0 -121 38q-23 21 -34.5 54t-13.5 56.5t-2 61.5v268h136v-256q0 -63 12 -84q16 -28 56 -28q34 0 62 18t48 49v301h136v-467zM151 578v86h296v-86h-296z" />
    <glyph glyph-name="Ubreve" unicode="&#x16c;" horiz-adv-x="744" 
d="M658 700v-392q0 -60 -2.5 -96.5t-18 -83.5t-45.5 -77q-67 -67 -220 -67t-220 67q-30 30 -45.5 77t-18 83.5t-2.5 96.5v392h150v-390v-13q0 -43 1 -64.5t10 -49.5t27 -44q32 -29 98 -29t98 29q18 16 27 44t10 49.5t1 64.5v13v390h150zM461 946l94 -20q-11 -87 -66 -127
q-43 -30 -117 -30t-117 30q-55 40 -66 127l95 20q7 -52 36 -72q19 -13 52 -13q34 0 52 13q26 18 37 72z" />
    <glyph glyph-name="ubreve" unicode="&#x16d;" horiz-adv-x="598" 
d="M524 0h-132v53h-5q-23 -29 -58 -46q-36 -18 -84 -18q-80 0 -121 38q-23 21 -34.5 54t-13.5 56.5t-2 61.5v268h136v-256q0 -63 12 -84q16 -28 56 -28q34 0 62 18t48 49v301h136v-467zM371 711l93 -20q-5 -86 -64 -122q-37 -22 -101 -22t-101 22q-59 36 -64 122l93 20
q5 -51 26 -70q15 -14 46 -14t46 14q21 19 26 70z" />
    <glyph glyph-name="Uring" unicode="&#x16e;" horiz-adv-x="744" 
d="M658 700v-392q0 -60 -2.5 -96.5t-18 -83.5t-45.5 -77q-67 -67 -220 -67t-220 67q-30 30 -45.5 77t-18 83.5t-2.5 96.5v392h150v-390v-13q0 -43 1 -64.5t10 -49.5t27 -44q32 -29 98 -29t98 29q18 16 27 44t10 49.5t1 64.5v13v390h150zM322 863q0 -19 13 -32t32 -13t32 13
t13 32t-13 32t-32 13t-32 -13t-13 -32zM262 863q0 44 30.5 74.5t74.5 30.5t74.5 -30.5t30.5 -74.5t-30.5 -74.5t-74.5 -30.5t-74.5 30.5t-30.5 74.5z" />
    <glyph glyph-name="uring" unicode="&#x16f;" horiz-adv-x="598" 
d="M524 0h-132v53h-5q-23 -29 -58 -46q-36 -18 -84 -18q-80 0 -121 38q-23 21 -34.5 54t-13.5 56.5t-2 61.5v268h136v-256q0 -63 12 -84q16 -28 56 -28q34 0 62 18t48 49v301h136v-467zM254 630q0 -19 13 -32t32 -13t32 13t13 32t-13 32t-32 13t-32 -13t-13 -32zM196 630
q0 43 30 73t73 30t73 -30t30 -73t-30 -73t-73 -30t-73 30t-30 73z" />
    <glyph glyph-name="Uhungarumlaut" unicode="&#x170;" horiz-adv-x="744" 
d="M658 700v-392q0 -60 -2.5 -96.5t-18 -83.5t-45.5 -77q-67 -67 -220 -67t-220 67q-30 30 -45.5 77t-18 83.5t-2.5 96.5v392h150v-390v-13q0 -43 1 -64.5t10 -49.5t27 -44q32 -29 98 -29t98 29q18 16 27 44t10 49.5t1 64.5v13v390h150zM304 910h112l-101 -141h-75zM466 910
h112l-101 -141h-75z" />
    <glyph glyph-name="uhungarumlaut" unicode="&#x171;" horiz-adv-x="598" 
d="M524 0h-132v53h-5q-23 -29 -58 -46q-36 -18 -84 -18q-80 0 -121 38q-23 21 -34.5 54t-13.5 56.5t-2 61.5v268h136v-256q0 -63 12 -84q16 -28 56 -28q34 0 62 18t48 49v301h136v-467zM232 700h114l-112 -163h-79zM394 700h114l-112 -163h-79z" />
    <glyph glyph-name="Uogonek" unicode="&#x172;" horiz-adv-x="744" 
d="M658 700v-392q0 -59 -2.5 -95.5t-18 -84.5t-45.5 -77q-37 -36 -100 -54q-35 -28 -59 -52q-30 -30 -30 -54q0 -16 11 -25q10 -9 29 -9q17 0 32 7q13 6 24 15l36 -64q-25 -16 -47 -23q-27 -10 -63 -10q-56 0 -85 30q-21 21 -21 55q0 35 32 76q16 21 39 41q-169 -2 -238 67
q-30 30 -45.5 77t-18 83.5t-2.5 96.5v392h150v-390v-13q0 -43 1 -64.5t10 -49.5t27 -44q32 -29 98 -29t98 29q18 16 27 44t10 49.5t1 64.5v13v390h150z" />
    <glyph glyph-name="uogonek" unicode="&#x173;" horiz-adv-x="598" 
d="M74 467h136v-256q0 -63 12 -84q16 -28 56 -28q34 0 62 18t48 49v301h136v-467h-59q-32 -32 -49 -55q-24 -32 -24 -52q0 -16 10 -24q8 -8 24 -8q15 0 27 6q11 5 22 14l36 -53q-17 -14 -41 -23q-27 -10 -60 -10q-44 0 -68 22q-25 23 -25 56q0 36 28 74q22 30 47 53v59h-4
q-29 -29 -59 -46q-42 -24 -94 -24q-71 0 -111 38q-23 21 -34.5 54t-13.5 56.5t-2 61.5v268z" />
    <glyph glyph-name="Ydieresis" unicode="&#x178;" horiz-adv-x="668" 
d="M334 413l156 287h164l-245 -434v-266h-150v266l-245 434h164zM134 852q0 33 23.5 56.5t56.5 23.5t56.5 -23.5t23.5 -56.5t-23.5 -56.5t-56.5 -23.5t-56.5 23.5t-23.5 56.5zM374 852q0 33 23.5 56.5t56.5 23.5t56.5 -23.5t23.5 -56.5t-23.5 -56.5t-56.5 -23.5t-56.5 23.5
t-23.5 56.5z" />
    <glyph glyph-name="Zacute" unicode="&#x179;" horiz-adv-x="584" 
d="M355 576h-297v124h487v-86l-339 -490h342v-124h-522v90zM311 910h138l-109 -141h-94z" />
    <glyph glyph-name="zacute" unicode="&#x17a;" horiz-adv-x="497" 
d="M281 357h-230v110h410v-84l-249 -273h244v-110h-420v84zM280 700h126l-116 -163h-82z" />
    <glyph glyph-name="Zdotaccent" unicode="&#x17b;" horiz-adv-x="584" 
d="M355 576h-297v124h487v-86l-339 -490h342v-124h-522v90zM220 854q0 34 24 58t58 24t58 -24t24 -58t-24 -58t-58 -24t-58 24t-24 58z" />
    <glyph glyph-name="zdotaccent" unicode="&#x17c;" horiz-adv-x="497" 
d="M281 357h-230v110h410v-84l-249 -273h244v-110h-420v84zM176 648q0 34 24 58t58 24t58 -24t24 -58t-24 -58t-58 -24t-58 24t-24 58z" />
    <glyph glyph-name="Zcaron" unicode="&#x17d;" horiz-adv-x="584" 
d="M355 576h-297v124h487v-86l-339 -490h342v-124h-522v90zM310 835l65 75h88l-94 -141h-118l-91 141h88z" />
    <glyph glyph-name="zcaron" unicode="&#x17e;" horiz-adv-x="497" 
d="M281 357h-230v110h410v-84l-249 -273h244v-110h-420v84zM258 607l75 93h88l-104 -163h-118l-104 163h88z" />
    <glyph glyph-name="uni018F" unicode="&#x18f;" horiz-adv-x="767" 
d="M50 364h496q-5 121 -67 182q-48 48 -128 48q-53 0 -100 -25q-34 -19 -69 -54l-92 105q45 43 106 67q68 27 158 27q73 0 135.5 -17.5t118.5 -73.5q59 -59 84 -138t25 -152q0 -161 -101 -260q-92 -91 -244 -91q-67 0 -120.5 16.5t-100.5 64.5q-99 101 -101 301zM540 256
h-325q7 -69 48 -110q42 -42 112 -42q68 0 111 43q42 42 54 109z" />
    <glyph glyph-name="florin" unicode="&#x192;" 
d="M244 467l12 58q22 112 87 154q48 31 128 31q82 0 135 -28l-47 -96q-39 18 -76 18q-40 0 -63 -23q-20 -20 -29 -61l-11 -53h138l-23 -108h-138l-75 -355q-9 -43 -16 -68t-26.5 -58.5t-48.5 -52.5q-46 -30 -130 -30q-70 0 -125 31l51 99q31 -21 70 -21q36 0 54 19
q20 20 37 95l73 341h-90l23 108h90z" />
    <glyph glyph-name="uni01CF" unicode="&#x1cf;" horiz-adv-x="322" 
d="M86 700h150v-700h-150v700zM160 835l65 75h88l-94 -141h-118l-91 141h88z" />
    <glyph glyph-name="uni01D0" unicode="&#x1d0;" horiz-adv-x="284" 
d="M74 0v467h136v-467h-136zM142 607l75 93h88l-104 -163h-118l-104 163h88z" />
    <glyph glyph-name="uni01DD" unicode="&#x1dd;" horiz-adv-x="559" 
d="M368 172h-196q4 -42 32 -68q24 -23 64 -23q38 0 66 24q27 26 34 67zM131 327l-78 71q33 36 82 57q59 25 142 25q109 0 171 -60q71 -68 71 -178q0 -115 -75 -190q-66 -65 -172 -65q-107 0 -165 62q-67 69 -67 200v13h333q0 53 -30 84q-30 32 -87 32q-45 0 -77 -16
q-22 -11 -48 -35z" />
    <glyph glyph-name="Gcaron" unicode="&#x1e6;" horiz-adv-x="767" 
d="M390 364h327q-4 -205 -94 -299q-80 -83 -237 -83q-137 0 -218 66q-54 45 -86 118.5t-32 163.5q0 74 24.5 154.5t84.5 138.5q56 56 118.5 73.5t136.5 17.5q96 0 159 -25q60 -25 104 -69l-88 -102q-40 34 -73 51q-45 25 -99 25q-77 0 -127 -50q-70 -68 -70 -210
q0 -128 60 -187q43 -43 112 -43q59 0 97 29q52 41 63 123h-162v108zM416 835l65 75h88l-94 -141h-118l-91 141h88z" />
    <glyph glyph-name="gcaron" unicode="&#x1e7;" horiz-adv-x="601" 
d="M391 153v160q-39 63 -96 63q-47 0 -74 -36q-31 -41 -31 -112q0 -73 34 -109q24 -25 62 -25q62 0 105 59zM391 467h136v-416q0 -73 -11 -120.5t-43 -80.5q-32 -32 -76 -43.5t-112 -11.5q-113 0 -190 47l56 89q58 -32 127 -32q58 0 85 26q28 27 28 100v30q-56 -56 -147 -56
q-89 0 -142 53q-62 62 -62 178q0 122 69 191q57 57 155 57q86 0 127 -61v50zM283 607l75 93h88l-104 -163h-118l-104 163h88z" />
    <glyph glyph-name="AEacute" unicode="&#x1fc;" horiz-adv-x="1015" 
d="M969 576h-302v-144h242v-124h-242v-184h310v-124h-460v172h-258l-101 -172h-156l414 700h553v-124zM517 292v284h-30l-156 -284h186zM557 910h138l-109 -141h-94z" />
    <glyph glyph-name="aeacute" unicode="&#x1fd;" horiz-adv-x="835" 
d="M470 295h193q-9 91 -92 91q-78 0 -101 -91zM795 213h-329v-7q0 -59 35.5 -88t82.5 -29q67 0 118 45l78 -70q-70 -77 -206 -77q-126 0 -178 83q-72 -83 -194 -83q-82 0 -123 37q-47 43 -47 112q0 41 19 71.5t50 46.5t53 22.5t46 10.5q58 8 131 8v7q0 41 -19 59
q-21 19 -68 19q-68 0 -139 -40l-48 79q83 61 196 61q111 0 157 -65q58 65 159 65q110 0 168 -66t58 -194v-7zM331 139v74q-58 -2 -94 -8.5t-51.5 -18.5t-19.5 -22t-4 -26q0 -25 18 -38t43 -13q66 0 108 52zM430 700h126l-116 -163h-82z" />
    <glyph glyph-name="Scommaaccent" unicode="&#x218;" horiz-adv-x="635" 
d="M567 633l-75 -97q-38 25 -78 41q-43 17 -86 17q-50 0 -77 -22q-29 -24 -29 -60t35 -58q16 -10 87 -35l77 -26q88 -30 124 -66q50 -49 50 -131q0 -90 -58 -146q-69 -66 -222 -66q-94 0 -159 25q-64 27 -116 74l82 98q33 -27 83 -50t104 -23q55 0 83 17q35 22 35 61
q0 28 -21 49q-16 17 -72 35l-93 31q-93 30 -132 68q-47 46 -47 123q0 100 65 161q67 63 194 63q77 0 139 -22q57 -20 107 -61zM278 -61h113q2 -52 -13 -96q-20 -62 -80 -110l-66 26q32 45 41 86q5 26 5 74v20z" />
    <glyph glyph-name="scommaaccent" unicode="&#x219;" horiz-adv-x="498" 
d="M40 59l67 82q28 -21 55 -33q35 -15 71 -15q39 0 57 11q20 12 20 34q0 23 -26 38q-15 8 -60 18l-45 11q-55 13 -85 40q-32 28 -32 80q0 74 56 117q50 38 150 38q54 0 98 -12t82 -41l-57 -85q-62 38 -124 38q-37 0 -52 -11t-15 -27q0 -22 28 -33q9 -3 32.5 -8.5t40.5 -10.5
l36 -10q60 -18 87 -45q34 -34 34 -89q0 -68 -41 -108q-52 -51 -172 -51q-70 0 -123 20q-43 16 -82 52zM215 -61h113q0 -48 -13 -87q-20 -62 -80 -110l-66 26q32 45 41 86q5 26 5 74v11z" />
    <glyph glyph-name="Tcommaaccent" unicode="&#x21a;" horiz-adv-x="568" 
d="M359 576v-576h-150v576h-195v124h540v-124h-195zM232 -61h113q2 -52 -13 -96q-20 -62 -80 -110l-66 26q32 45 41 86q5 26 5 74v20z" />
    <glyph glyph-name="tcommaaccent" unicode="&#x21b;" horiz-adv-x="391" 
d="M96 467v134h136v-134h118v-104h-118v-181q0 -59 19 -76q14 -13 40 -13q28 0 57 16l41 -96q-48 -26 -126 -26q-85 0 -125 38q-26 26 -34 62.5t-8 90.5v185h-86v104h86zM212 -61h113q0 -48 -13 -87q-20 -62 -80 -110l-66 26q32 45 41 86q5 26 5 74v11z" />
    <glyph glyph-name="uni0228" unicode="&#x228;" horiz-adv-x="584" 
d="M538 576h-302v-144h242v-124h-242v-184h310v-124h-192l-8 -51q53 -3 77 -27q23 -23 23 -57q0 -37 -26 -63q-30 -30 -101 -30q-31 0 -63 7q-24 6 -43 16l31 56q10 -7 29 -12q20 -5 41 -5q27 0 40 11q11 11 11 24q0 20 -18 28q-15 6 -39 6q-18 0 -32 -2l21 99h-211v700h452
v-124z" />
    <glyph glyph-name="uni0229" unicode="&#x229;" horiz-adv-x="559" 
d="M191 295h196q-5 46 -32.5 68.5t-63.5 22.5q-44 0 -69 -26t-31 -65zM428 134l78 -70q-34 -39 -81 -56t-89 -17h-8l-9 -34q12 0 25.5 -2.5t31.5 -9t29.5 -22t11.5 -38.5q0 -46 -37.5 -68t-79.5 -22q-66 0 -113 27l32 52q32 -23 71 -23q19 0 34.5 9t15.5 27q0 31 -60 31
q-13 0 -29 -2l20 74q-98 0 -160 57q-34 31 -52.5 79.5t-18.5 99.5q0 114 75 189q66 65 172 65q105 0 165 -62q67 -69 67 -200v-13h-333q0 -61 34.5 -88.5t82.5 -27.5q71 0 125 45z" />
    <glyph glyph-name="uni0237" unicode="&#x237;" horiz-adv-x="318" 
d="M244 467v-461q0 -43 -1 -64t-11 -54t-29 -52q-41 -41 -138 -41q-70 0 -120 28l45 99q24 -13 56 -13q34 0 49 19q13 17 13 70v469h136z" />
    <glyph glyph-name="uni0259" unicode="&#x259;" horiz-adv-x="559" 
d="M368 172h-196q4 -42 32 -68q24 -23 64 -23q38 0 66 24q27 26 34 67zM131 327l-78 71q33 36 82 57q59 25 142 25q109 0 171 -60q71 -68 71 -178q0 -115 -75 -190q-66 -65 -172 -65q-107 0 -165 62q-67 69 -67 200v13h333q0 53 -30 84q-30 32 -87 32q-45 0 -77 -16
q-22 -11 -48 -35z" />
    <glyph glyph-name="afii57929" unicode="&#x2bc;" horiz-adv-x="247" 
d="M92 700h115q0 -55 -17 -104q-21 -63 -78 -112l-72 21q40 59 47 105q5 28 5 84v6z" />
    <glyph glyph-name="circumflex" unicode="&#x2c6;" horiz-adv-x="386" 
d="M193 630l-75 -93h-88l104 163h118l104 -163h-88z" />
    <glyph glyph-name="caron" unicode="&#x2c7;" horiz-adv-x="386" 
d="M193 607l75 93h88l-104 -163h-118l-104 163h88z" />
    <glyph glyph-name="breve" unicode="&#x2d8;" horiz-adv-x="530" 
d="M337 711l93 -20q-5 -86 -64 -122q-37 -22 -101 -22t-101 22q-59 36 -64 122l93 20q5 -51 26 -70q15 -14 46 -14t46 14q21 19 26 70z" />
    <glyph glyph-name="dotaccent" unicode="&#x2d9;" horiz-adv-x="364" 
d="M100 648q0 34 24 58t58 24t58 -24t24 -58t-24 -58t-58 -24t-58 24t-24 58z" />
    <glyph glyph-name="ring" unicode="&#x2da;" horiz-adv-x="386" 
d="M148 630q0 -19 13 -32t32 -13t32 13t13 32t-13 32t-32 13t-32 -13t-13 -32zM90 630q0 43 30 73t73 30t73 -30t30 -73t-30 -73t-73 -30t-73 30t-30 73z" />
    <glyph glyph-name="ogonek" unicode="&#x2db;" horiz-adv-x="438" 
d="M176 0h70q-26 -26 -46 -50q-22 -26 -22 -51q0 -19 12 -29q10 -10 30 -10q18 0 34 11q16 12 25 25l47 -40q-19 -27 -48 -45q-31 -17 -71 -17q-44 0 -74 23q-33 26 -33 67q0 31 26 65q22 27 50 51z" />
    <glyph glyph-name="tilde" unicode="&#x2dc;" horiz-adv-x="391" 
d="M85 561l-57 43q14 27 35 47q25 23 71 23q27 0 63 -17l21 -10q29 -13 44 -13q17 0 28 9q10 10 16 22l57 -43q-15 -33 -35 -50q-23 -20 -65 -20q-31 0 -66 16l-21 10q-28 14 -44 14t-30 -11q-9 -8 -17 -20z" />
    <glyph glyph-name="hungarumlaut" unicode="&#x2dd;" horiz-adv-x="446" 
d="M126 700h114l-112 -163h-79zM288 700h114l-112 -163h-79z" />
    <glyph glyph-name="acutecomb" unicode="&#x301;" horiz-adv-x="2" 
d="M-249 700h126l-116 -163h-82z" />
    <glyph glyph-name="uni0313" unicode="&#x313;" horiz-adv-x="247" 
d="M92 700h115q0 -55 -17 -104q-21 -63 -78 -112l-72 21q40 59 47 105q5 28 5 84v6z" />
    <glyph glyph-name="uni0315" unicode="&#x315;" horiz-adv-x="247" 
d="M92 700h115q0 -55 -17 -104q-21 -63 -78 -112l-72 21q40 59 47 105q5 28 5 84v6z" />
    <glyph glyph-name="uni0326" unicode="&#x326;" horiz-adv-x="291" 
d="M112 -61h113q0 -48 -13 -87q-20 -62 -80 -110l-66 26q32 45 41 86q5 26 5 74v11z" />
    <glyph glyph-name="anoteleia" unicode="&#x387;" horiz-adv-x="268" 
d="M50 253q0 35 24.5 59.5t59.5 24.5t59.5 -24.5t24.5 -59.5t-24.5 -59.5t-59.5 -24.5t-59.5 24.5t-24.5 59.5z" />
    <glyph glyph-name="Delta" unicode="&#x394;" horiz-adv-x="732" 
d="M434 700l294 -700h-724l294 700h136zM207 120h320l-162 406z" />
    <glyph glyph-name="Delta" unicode="&#x2206;" horiz-adv-x="732" 
d="M434 700l294 -700h-724l294 700h136zM207 120h320l-162 406z" />
    <glyph glyph-name="Omega" unicode="&#x3a9;" horiz-adv-x="766" 
d="M434 0v204q56 12 87 63q29 48 29 126q0 102 -56 158q-43 43 -110 43q-70 0 -114 -44q-54 -54 -54 -157q0 -78 29 -126q31 -51 87 -63v-204h-261v118h145v33q-60 19 -100 60q-66 68 -66 187q0 149 88 235q85 83 245 83t245 -83q88 -86 88 -235q0 -130 -73 -198
q-36 -36 -93 -49v-33h145v-118h-261z" />
    <glyph glyph-name="Omega" unicode="&#x2126;" horiz-adv-x="766" 
d="M434 0v204q56 12 87 63q29 48 29 126q0 102 -56 158q-43 43 -110 43q-70 0 -114 -44q-54 -54 -54 -157q0 -78 29 -126q31 -51 87 -63v-204h-261v118h145v33q-60 19 -100 60q-66 68 -66 187q0 149 88 235q85 83 245 83t245 -83q88 -86 88 -235q0 -130 -73 -198
q-36 -36 -93 -49v-33h145v-118h-261z" />
    <glyph glyph-name="pi" unicode="&#x3c0;" horiz-adv-x="684" 
d="M278 357v-357h-136v357h-3q-26 0 -46 -5q-15 -3 -40 -16l-49 92q22 17 53 26q41 13 105 13h502v-110h-86v-357h-136v357h-164z" />
    <glyph glyph-name="afii10023" unicode="&#x401;" horiz-adv-x="584" 
d="M538 576h-302v-144h242v-124h-242v-184h310v-124h-460v700h452v-124zM117 842q0 33 23.5 56.5t56.5 23.5t56.5 -23.5t23.5 -56.5t-23.5 -56.5t-56.5 -23.5t-56.5 23.5t-23.5 56.5zM347 842q0 33 23.5 56.5t56.5 23.5t56.5 -23.5t23.5 -56.5t-23.5 -56.5t-56.5 -23.5
t-56.5 23.5t-23.5 56.5z" />
    <glyph glyph-name="afii10051" unicode="&#x402;" horiz-adv-x="828" 
d="M352 273v-273h-150v576h-188v124h555v-124h-217v-175q78 39 183 39q117 0 178 -60t61 -170q0 -117 -63 -180q-51 -51 -149 -51q-95 0 -151 36l53 115q30 -25 67 -25q45 0 65 34q16 27 16 70q0 50 -29 77q-28 28 -85 28q-69 0 -146 -41z" />
    <glyph glyph-name="afii10052" unicode="&#x403;" horiz-adv-x="558" 
d="M236 576v-576h-150v700h442v-124h-292zM321 910h138l-109 -141h-94z" />
    <glyph glyph-name="afii10053" unicode="&#x404;" horiz-adv-x="680" 
d="M637 641l-75 -105q-43 29 -66 39q-42 19 -92 19q-70 0 -116 -46q-51 -51 -62 -132h249v-120h-251q2 -38 16.5 -79t41.5 -67q44 -44 117 -44q90 0 165 63l76 -106q-92 -79 -256 -79q-74 0 -131.5 17.5t-105.5 65.5q-97 97 -97 267q0 187 103 291q91 91 246 91
q80 0 137 -19q56 -20 101 -56z" />
    <glyph glyph-name="afii10054" unicode="&#x405;" horiz-adv-x="635" 
d="M567 633l-75 -97q-38 25 -78 41q-43 17 -86 17q-50 0 -77 -22q-29 -24 -29 -60t35 -58q16 -10 87 -35l77 -26q88 -30 124 -66q50 -49 50 -131q0 -90 -58 -146q-69 -66 -222 -66q-94 0 -159 25q-64 27 -116 74l82 98q33 -27 83 -50t104 -23q55 0 83 17q35 22 35 61
q0 28 -21 49q-16 17 -72 35l-93 31q-93 30 -132 68q-47 46 -47 123q0 100 65 161q67 63 194 63q77 0 139 -22q57 -20 107 -61z" />
    <glyph glyph-name="afii10055" unicode="&#x406;" horiz-adv-x="322" 
d="M86 700h150v-700h-150v700z" />
    <glyph glyph-name="afii10056" unicode="&#x407;" horiz-adv-x="322" 
d="M86 700h150v-700h-150v700zM18 852q0 36 19 58t41 22t41 -22t19 -58t-19 -58t-41 -22t-41 22t-19 58zM184 852q0 36 19 58t41 22t41 -22t19 -58t-19 -58t-41 -22t-41 22t-19 58z" />
    <glyph glyph-name="afii10057" unicode="&#x408;" horiz-adv-x="443" 
d="M207 700h150v-450q0 -48 -2.5 -80.5t-15.5 -74t-38 -65.5q-47 -46 -147 -46q-96 0 -154 44l53 107q34 -25 75 -25q37 0 55 20q24 25 24 125v445z" />
    <glyph glyph-name="afii10058" unicode="&#x409;" horiz-adv-x="1075" 
d="M634 442h103q173 0 241 -74q51 -56 51 -147q0 -98 -57 -154q-68 -67 -209 -67h-279v576h-175v-22q0 -58 -9 -188q-9 -119 -28 -196t-65 -122q-65 -63 -175 -63h-5l-23 122q56 4 92 35q31 28 45 91t20 186q5 107 5 214v67h468v-258zM634 320v-198h71q97 0 130 29
q28 25 28 73q0 41 -25 65q-32 31 -135 31h-69z" />
    <glyph glyph-name="afii10059" unicode="&#x40a;" horiz-adv-x="1093" 
d="M781 0h-279v320h-266v-320h-150v700h150v-258h266v258h150v-258h103q173 0 241 -74q51 -56 51 -147q0 -98 -57 -154q-68 -67 -209 -67zM652 320v-198h71q97 0 130 29q28 25 28 73q0 41 -25 65q-32 31 -135 31h-69z" />
    <glyph glyph-name="afii10060" unicode="&#x40b;" horiz-adv-x="824" 
d="M352 293v-293h-150v576h-188v124h555v-124h-217v-163q79 27 180 27q122 0 178 -55q23 -22 34.5 -52.5t13.5 -50t2 -50.5v-232h-148v196q0 63 -26 89q-29 29 -98 29q-74 0 -136 -21z" />
    <glyph glyph-name="afii10061" unicode="&#x40c;" horiz-adv-x="666" 
d="M236 700v-264h25q50 0 78 22q22 17 46 70l33 73q32 71 78 95q44 20 115 20h3l18 -118q-29 -2 -48 -12q-22 -12 -36 -41l-33 -69q-22 -47 -44 -65q-28 -24 -70 -28v-6q52 -9 85 -42q24 -24 43 -75l34 -91q12 -36 33 -50q18 -12 47 -12h3l-20 -122q-84 -6 -128 25
q-40 28 -64 98l-42 117q-17 49 -46 69q-27 18 -89 18h-21v-312h-150v700h150zM351 910h138l-109 -141h-94z" />
    <glyph glyph-name="afii10062" unicode="&#x40e;" horiz-adv-x="637" 
d="M337 374l134 326h152l-223 -532q-42 -102 -93 -144q-53 -42 -137 -42q-51 0 -86 13l-14 120q35 -11 67 -11q46 0 71 18q25 17 41 55l13 31l-252 492h160zM405 952l95 -20q-7 -88 -61 -130q-42 -33 -121 -33t-121 33q-54 42 -61 130l95 20q9 -58 36 -78q18 -13 51 -13
t51 13q27 20 36 78z" />
    <glyph glyph-name="afii10145" unicode="&#x40f;" horiz-adv-x="732" 
d="M236 124h260v576h150v-700h-210v-159h-140v159h-210v700h150v-576z" />
    <glyph glyph-name="afii10017" unicode="&#x410;" horiz-adv-x="732" 
d="M434 700l294 -700h-156l-65 165h-282l-65 -165h-156l294 700h136zM271 285h189l-95 241z" />
    <glyph glyph-name="afii10018" unicode="&#x411;" horiz-adv-x="667" 
d="M236 576v-152h110q164 0 227 -62q54 -53 54 -145q0 -101 -60 -157q-65 -60 -208 -60h-273v700h472v-124h-322zM236 304v-184h69q75 0 108 16q48 23 48 79q0 37 -24 61q-31 28 -120 28h-81z" />
    <glyph glyph-name="afii10019" unicode="&#x412;" horiz-adv-x="687" 
d="M86 0v700h253q79 0 133 -10t88 -44q45 -44 45 -127q0 -60 -30 -95q-28 -33 -74 -44v-8q55 -9 97 -48q49 -49 49 -127q0 -86 -56 -140q-27 -25 -68 -38.5t-73.5 -16t-82.5 -2.5h-281zM236 584v-162h87q57 0 84 14q38 20 38 70q0 42 -27 62q-23 16 -84 16h-98zM236 306
v-190h89q75 0 108 16q48 24 48 81q0 39 -24 63q-30 30 -126 30h-95z" />
    <glyph glyph-name="afii10020" unicode="&#x413;" horiz-adv-x="558" 
d="M236 576v-576h-150v700h442v-124h-292z" />
    <glyph glyph-name="afii10021" unicode="&#x414;" horiz-adv-x="739" 
d="M2 124h74q48 81 71 167q24 96 24 297v112h470v-576h88v-283h-138v159h-451v-159h-138v283zM491 576h-180v-23q0 -162 -25 -267q-20 -87 -66 -164h271v454z" />
    <glyph glyph-name="afii10022" unicode="&#x415;" horiz-adv-x="584" 
d="M538 576h-302v-144h242v-124h-242v-184h310v-124h-460v700h452v-124z" />
    <glyph glyph-name="afii10024" unicode="&#x416;" horiz-adv-x="970" 
d="M557 700v-264h22q40 0 65 18q21 15 46 74l31 73q28 66 74 92q40 23 116 23h3l16 -118q-29 -2 -47 -11q-23 -11 -39 -47l-29 -64q-21 -45 -46 -66q-26 -22 -66 -27v-6q47 -7 84 -42q27 -27 46 -75l34 -91q13 -37 33 -50q18 -12 47 -12h3l-20 -122q-78 -8 -127 25
q-38 26 -64 98l-40 110q-18 51 -45 72q-28 22 -75 22h-22v-312h-144v312h-22q-48 0 -75 -22q-27 -21 -45 -72l-40 -110q-26 -72 -64 -98q-49 -33 -127 -25l-20 122h3q29 0 47 12q20 13 33 50l34 91q19 48 46 75q37 35 84 42v6q-40 5 -66 27q-25 21 -46 66l-29 64
q-16 36 -39 47q-18 9 -47 11l16 118h3q76 0 116 -23q46 -26 74 -92l31 -73q25 -59 46 -74q25 -18 65 -18h22v264h144z" />
    <glyph glyph-name="afii10025" unicode="&#x417;" horiz-adv-x="636" 
d="M117 535l-60 100q96 81 255 81q135 0 201 -53q62 -50 62 -138q0 -69 -43 -112q-32 -32 -76 -42v-8q61 -11 97 -47q43 -42 43 -113q0 -105 -76 -164q-71 -55 -221 -55q-95 0 -159 22q-57 20 -104 61l68 102q81 -63 190 -63q61 0 94 23q38 26 38 78q0 47 -40 71
q-37 22 -141 22h-23v120h26q101 0 138 33q25 23 25 55q0 44 -35 67q-30 19 -79 19q-52 0 -102 -18q-43 -15 -78 -41z" />
    <glyph glyph-name="afii10026" unicode="&#x418;" horiz-adv-x="738" 
d="M236 271l266 357v72h150v-700h-150v433l-266 -357v-76h-150v700h150v-429z" />
    <glyph glyph-name="afii10027" unicode="&#x419;" horiz-adv-x="738" 
d="M236 271l266 357v72h150v-700h-150v433l-266 -357v-76h-150v700h150v-429zM456 930l95 -20q-7 -88 -61 -130q-42 -33 -121 -33t-121 33q-54 42 -61 130l95 20q9 -58 36 -78q18 -13 51 -13t51 13q27 20 36 78z" />
    <glyph glyph-name="afii10028" unicode="&#x41a;" horiz-adv-x="666" 
d="M236 700v-264h25q50 0 78 22q22 17 46 70l33 73q32 71 78 95q44 20 115 20h3l18 -118q-29 -2 -48 -12q-22 -12 -36 -41l-33 -69q-22 -47 -44 -65q-28 -24 -70 -28v-6q52 -9 85 -42q24 -24 43 -75l34 -91q12 -36 33 -50q18 -12 47 -12h3l-20 -122q-84 -6 -128 25
q-40 28 -64 98l-42 117q-17 49 -46 69q-27 18 -89 18h-21v-312h-150v700h150z" />
    <glyph glyph-name="afii10029" unicode="&#x41b;" horiz-adv-x="728" 
d="M492 576h-180v-22q0 -58 -9 -188q-9 -119 -28 -196t-65 -122q-64 -63 -178 -63h-5l-23 122q56 4 92 35q31 28 45 91t20 186q5 107 5 214v67h476v-700h-150v576z" />
    <glyph glyph-name="afii10030" unicode="&#x41c;" horiz-adv-x="858" 
d="M592 700h180v-700h-148v474l-151 -359h-88l-151 359v-474h-148v700h180l163 -394z" />
    <glyph glyph-name="afii10031" unicode="&#x41d;" horiz-adv-x="743" 
d="M236 300v-300h-150v700h150v-276h271v276h150v-700h-150v300h-271z" />
    <glyph glyph-name="afii10032" unicode="&#x41e;" horiz-adv-x="778" 
d="M389 594q-65 0 -104 -39q-65 -65 -65 -205t65 -205q39 -39 104 -39t104 39q65 65 65 205t-65 205q-39 39 -104 39zM728 350q0 -185 -97 -282q-85 -84 -242 -84t-242 84q-97 97 -97 282t97 282q85 84 242 84t242 -84q97 -97 97 -282z" />
    <glyph glyph-name="afii10033" unicode="&#x41f;" horiz-adv-x="732" 
d="M236 576v-576h-150v700h560v-700h-150v576h-260z" />
    <glyph glyph-name="afii10034" unicode="&#x420;" horiz-adv-x="665" 
d="M236 244v-244h-150v700h235q86 0 141 -12.5t96 -52.5q61 -59 61 -162q0 -105 -59 -163q-67 -66 -233 -66h-91zM236 366h61q83 0 121 26q41 27 41 85q0 55 -37 80q-29 21 -102 21h-84v-212z" />
    <glyph glyph-name="afii10035" unicode="&#x421;" horiz-adv-x="680" 
d="M637 641l-75 -105q-43 29 -66 39q-41 19 -87 19q-73 0 -119 -46q-70 -70 -70 -212q0 -126 63 -186q46 -44 117 -44q86 0 164 63l76 -106q-92 -79 -256 -79q-74 0 -131.5 17.5t-105.5 65.5q-97 97 -97 267q0 187 103 291q91 91 246 91q80 0 137 -19q56 -20 101 -56z" />
    <glyph glyph-name="afii10036" unicode="&#x422;" horiz-adv-x="568" 
d="M359 576v-576h-150v576h-195v124h540v-124h-195z" />
    <glyph glyph-name="afii10037" unicode="&#x423;" horiz-adv-x="637" 
d="M337 374l134 326h152l-223 -532q-42 -102 -93 -144q-53 -42 -137 -42q-51 0 -86 13l-14 120q35 -11 67 -11q46 0 71 18q25 17 41 55l13 31l-252 492h160z" />
    <glyph glyph-name="afii10038" unicode="&#x424;" horiz-adv-x="900" 
d="M525 52v-77h-150v77h-8q-166 0 -245 81q-72 72 -72 210q0 140 77 216q76 76 239 76h9v81h150v-81h9q163 0 239 -76q77 -76 77 -216q0 -138 -72 -210q-79 -81 -245 -81h-8zM521 519v-351h12q79 0 117 38q44 43 44 145q0 94 -44 133q-38 35 -117 35h-12zM379 519h-12
q-79 0 -117 -35q-44 -39 -44 -133q0 -102 44 -145q38 -38 117 -38h12v351z" />
    <glyph glyph-name="afii10039" unicode="&#x425;" horiz-adv-x="681" 
d="M639 700l-213 -325l249 -375h-174l-160 245l-161 -245h-174l249 375l-213 325h167l132 -198l131 198h167z" />
    <glyph glyph-name="afii10040" unicode="&#x426;" horiz-adv-x="768" 
d="M236 124h260v576h150v-576h96v-283h-140v159h-516v700h150v-576z" />
    <glyph glyph-name="afii10041" unicode="&#x427;" horiz-adv-x="687" 
d="M451 413v287h150v-700h-150v295q-77 -27 -161 -27q-120 0 -172 53q-48 49 -48 153v226h148v-192q0 -64 25 -89q26 -27 91 -27q66 0 117 21z" />
    <glyph glyph-name="afii10042" unicode="&#x428;" horiz-adv-x="1068" 
d="M236 124h223v576h150v-576h223v576h150v-700h-896v700h150v-576z" />
    <glyph glyph-name="afii10043" unicode="&#x429;" horiz-adv-x="1104" 
d="M236 124h223v576h150v-576h223v576h150v-576h96v-283h-140v159h-852v700h150v-576z" />
    <glyph glyph-name="afii10044" unicode="&#x42a;" horiz-adv-x="827" 
d="M382 442h107q173 0 241 -74q51 -56 51 -147q0 -98 -57 -154q-68 -67 -209 -67h-283v576h-194v124h344v-258zM382 320v-198h75q97 0 130 29q28 25 28 73q0 41 -25 65q-32 31 -135 31h-73z" />
    <glyph glyph-name="afii10045" unicode="&#x42b;" horiz-adv-x="946" 
d="M710 700h150v-700h-150v700zM236 442h98q173 0 241 -74q51 -56 51 -147q0 -98 -57 -154q-68 -67 -209 -67h-274v700h150v-258zM236 320v-198h68q97 0 130 29q28 25 28 73q0 41 -25 65q-32 31 -135 31h-66z" />
    <glyph glyph-name="afii10046" unicode="&#x42c;" horiz-adv-x="681" 
d="M236 442h107q173 0 241 -74q51 -56 51 -147q0 -98 -57 -154q-68 -67 -209 -67h-283v700h150v-258zM236 320v-198h75q97 0 130 29q28 25 28 73q0 41 -25 65q-32 31 -135 31h-73z" />
    <glyph glyph-name="afii10047" unicode="&#x42d;" horiz-adv-x="681" 
d="M117 534l-68 100q99 82 250 82q158 0 244 -91q88 -92 88 -268q0 -196 -98 -292q-82 -81 -244 -81q-72 0 -133 17t-116 70l80 96q72 -61 159 -61q80 0 123 42q26 25 41 66t15 82h-250v120h250q-3 83 -51 132q-44 46 -124 46q-89 0 -166 -60z" />
    <glyph glyph-name="afii10048" unicode="&#x42e;" horiz-adv-x="1065" 
d="M676 594q-62 0 -102 -39q-64 -64 -64 -208q0 -65 16.5 -120t46.5 -84q38 -37 100 -37t102 39q65 65 65 205q0 141 -65 205q-40 39 -99 39zM236 424h114q11 125 91 207q49 51 105.5 68t127.5 17q160 0 244 -84q97 -97 97 -282t-97 -282q-50 -50 -110 -67t-135 -17
q-70 0 -127.5 16t-105.5 66q-40 41 -64 103t-28 131h-112v-300h-150v700h150v-276z" />
    <glyph glyph-name="afii10049" unicode="&#x42f;" horiz-adv-x="700" 
d="M614 700v-700h-150v282h-37q-55 0 -86 -29q-22 -22 -44 -77l-28 -70q-27 -68 -75 -97q-51 -31 -132 -24l-22 122h5q29 0 52 14q19 12 37 52l27 60q17 39 37 59q28 28 67 35v7q-79 -2 -131 45q-45 41 -45 117q0 87 50 139q62 65 219 65h256zM464 404v174h-85
q-72 0 -100 -23q-30 -24 -30 -66q0 -48 41 -70q28 -15 95 -15h79z" />
    <glyph glyph-name="afii10065" unicode="&#x430;" horiz-adv-x="546" 
d="M109 340l-52 82q85 58 213 58q109 0 156 -50q42 -44 42 -132v-146q0 -37 10 -49q13 -15 40 -10l-16 -105q-77 -14 -117 16q-26 20 -37 57q-36 -38 -65 -53q-41 -21 -91 -21q-74 0 -117 40t-43 102q0 59 41 100q40 42 123 56q64 11 139 11v10q0 36 -17 53q-20 21 -65 21
q-70 0 -144 -40zM335 148v70q-53 -2 -87 -9q-47 -9 -67 -30q-15 -15 -15 -38q0 -24 16 -38q15 -14 44 -14q35 0 64 18q23 14 45 41z" />
    <glyph glyph-name="afii10066" unicode="&#x431;" horiz-adv-x="592" 
d="M150 390h6q57 82 167 82t168 -63q61 -66 61 -175q0 -140 -94 -205q-61 -42 -161 -42q-107 0 -167 59q-82 82 -82 240q0 93 25 176q28 93 82 145q52 51 129 69l44 11q54 13 68 22q21 13 26 41h116q-17 -87 -72 -127q-39 -28 -96 -44l-63 -18q-74 -21 -108 -57
q-41 -45 -49 -114zM300 372q-41 0 -69 -32q-33 -40 -33 -112q0 -76 39 -114q25 -25 61 -25q40 0 65 25q39 39 39 120q0 76 -37 113q-25 25 -65 25z" />
    <glyph glyph-name="afii10067" unicode="&#x432;" horiz-adv-x="547" 
d="M74 0v467h237q33 0 52.5 -1.5t45.5 -10.5t43 -26q32 -32 32 -85q0 -47 -27 -74q-22 -22 -56 -26v-5q50 -6 79 -36q27 -28 27 -74q0 -57 -34 -89q-41 -40 -137 -40h-262zM210 279h65q36 0 49 10q22 13 22 42q0 27 -18 39q-13 9 -49 9h-69v-100zM210 88h74q48 0 67 18
q14 13 14 36t-14 37q-17 16 -67 16h-74v-107z" />
    <glyph glyph-name="afii10068" unicode="&#x433;" horiz-adv-x="444" 
d="M210 353v-353h-136v467h350v-114h-214z" />
    <glyph glyph-name="afii10069" unicode="&#x434;" horiz-adv-x="613" 
d="M124 0v-123h-120v233h57q43 58 56 124q9 44 9 152v81h391v-357h80v-233h-120v123h-353zM381 106v253h-125v-24q0 -57 -9 -107q-13 -67 -52 -122h186z" />
    <glyph glyph-name="afii10070" unicode="&#x435;" horiz-adv-x="559" 
d="M191 295h196q-4 42 -32 68q-24 23 -64 23q-38 0 -66 -24q-27 -26 -34 -67zM428 134l78 -70q-69 -77 -214 -77q-119 0 -181 60q-71 68 -71 179q0 114 75 189q66 65 172 65q107 0 165 -62q67 -69 67 -200v-13h-333q0 -50 30 -84q30 -32 87 -32q71 0 125 45z" />
    <glyph glyph-name="afii10072" unicode="&#x436;" horiz-adv-x="752" 
d="M440 467v-166h17q35 0 54 14q16 11 35 52l15 31q23 47 54 63q29 16 85 16h16l12 -100q-25 2 -43 -10q-12 -7 -27 -35l-13 -25q-14 -27 -36 -40q-18 -11 -45 -14v-4q33 -3 53 -20t33 -47l15 -34q14 -33 24 -41q16 -14 43 -14h6l-16 -106q-74 -6 -112 21q-27 19 -47 70
l-19 50q-13 35 -28 50q-19 19 -54 19h-22v-197h-128v197h-22q-35 0 -54 -19q-15 -15 -28 -50l-19 -50q-20 -51 -47 -70q-38 -27 -112 -21l-16 106h6q27 0 43 14q10 8 24 41l15 34q13 30 33 47t53 20v4q-27 3 -45 14q-22 13 -36 40l-13 25q-15 28 -27 35q-18 12 -43 10
l12 100h16q56 0 85 -16q31 -16 54 -63l15 -31q19 -41 35 -52q19 -14 54 -14h17v166h128z" />
    <glyph glyph-name="afii10073" unicode="&#x437;" horiz-adv-x="474" 
d="M18 52l64 76q21 -18 52 -31q31 -12 71 -12q39 0 59 13q24 15 24 43q0 29 -26 41q-18 9 -60 9h-44v92h25q42 0 63 9q31 13 31 44q0 23 -21 36q-18 10 -51 10q-32 0 -68 -12q-30 -10 -57 -28l-50 76q39 30 83 45q49 17 117 17q87 0 133 -30q56 -36 56 -105q0 -43 -27 -70
q-25 -25 -60 -30v-5q45 -5 76 -36q26 -27 26 -67q0 -78 -61 -117q-52 -33 -159 -33q-70 0 -116 16q-44 16 -80 49z" />
    <glyph glyph-name="afii10074" unicode="&#x438;" horiz-adv-x="594" 
d="M208 200l178 219v48h134v-467h-134v267l-178 -219v-48h-134v467h134v-267z" />
    <glyph glyph-name="afii10075" unicode="&#x439;" horiz-adv-x="594" 
d="M208 200l178 219v48h134v-467h-134v267l-178 -219v-48h-134v467h134v-267zM369 711l93 -20q-5 -86 -64 -122q-37 -22 -101 -22t-101 22q-59 36 -64 122l93 20q5 -51 26 -70q15 -14 46 -14t46 14q21 19 26 70z" />
    <glyph glyph-name="afii10076" unicode="&#x43a;" horiz-adv-x="538" 
d="M210 467v-164h24q35 0 57 14q18 13 37 50l16 31q24 45 57 63q31 16 89 16h17l12 -100q-25 0 -42 -9q-16 -9 -29 -34l-15 -27q-14 -26 -34 -40q-23 -15 -49 -16v-4q30 -1 51 -18q19 -14 35 -47l22 -46q11 -22 20 -30q16 -13 42 -13h4l-16 -106q-75 -6 -114 22
q-29 21 -48 69l-20 48q-19 43 -35 55q-19 14 -63 14h-18v-195h-136v467h136z" />
    <glyph glyph-name="afii10077" unicode="&#x43b;" horiz-adv-x="601" 
d="M391 357h-135l-3 -59q-3 -74 -16 -135q-18 -86 -62 -128q-50 -46 -155 -48l-18 106q52 3 78 31q29 30 37 125q5 60 9 140l4 78h397v-467h-136v357z" />
    <glyph glyph-name="afii10078" unicode="&#x43c;" horiz-adv-x="686" 
d="M612 467v-467h-132v322l-102 -251h-70l-102 251v-322h-132v467h167l102 -249l102 249h167z" />
    <glyph glyph-name="afii10079" unicode="&#x43d;" horiz-adv-x="602" 
d="M210 197v-197h-136v467h136v-160h182v160h136v-467h-136v197h-182z" />
    <glyph glyph-name="afii10080" unicode="&#x43e;" horiz-adv-x="588" 
d="M294 378q-39 0 -65 -25q-39 -38 -39 -120q0 -80 39 -119q26 -25 65 -25t65 25q39 39 39 119q0 82 -39 120q-26 25 -65 25zM548 234q0 -139 -94 -206q-59 -41 -160 -41t-160 41q-94 67 -94 206t94 205q59 41 160 41t160 -41q94 -66 94 -205z" />
    <glyph glyph-name="afii10081" unicode="&#x43f;" horiz-adv-x="592" 
d="M210 357v-357h-136v467h444v-467h-136v357h-172z" />
    <glyph glyph-name="afii10082" unicode="&#x440;" horiz-adv-x="601" 
d="M210 307v-167q40 -51 99 -51q39 0 65 27q37 38 37 127q0 67 -27 103q-23 32 -64 32q-31 0 -66 -26q-26 -20 -44 -45zM74 -192v659h136v-54q53 67 147 67q84 0 134 -45q70 -62 70 -191q0 -131 -70 -201q-55 -55 -149 -55q-83 0 -132 50v-230h-136z" />
    <glyph glyph-name="afii10083" unicode="&#x441;" horiz-adv-x="525" 
d="M413 139l82 -72q-35 -43 -84 -61.5t-124 -18.5q-122 0 -182 58q-65 63 -65 177q0 120 69 189t192 69q112 0 177 -56l-65 -85q-47 35 -96 35q-54 0 -86 -30q-41 -38 -41 -119q0 -69 35 -104q28 -28 84 -28q60 0 104 46z" />
    <glyph glyph-name="afii10084" unicode="&#x442;" horiz-adv-x="452" 
d="M158 0v353h-146v114h428v-114h-146v-353h-136z" />
    <glyph glyph-name="afii10085" unicode="&#x443;" horiz-adv-x="522" 
d="M272 166l91 301h143l-174 -493q-32 -91 -68 -129q-49 -50 -145 -50q-33 0 -60 7l-12 104q23 -7 46 -7q38 0 61 17q25 20 40 64l13 38l-191 449h145z" />
    <glyph glyph-name="afii10086" unicode="&#x444;" horiz-adv-x="754" 
d="M443 700v-262q48 37 103 37q65 0 107 -44q61 -64 61 -194q0 -131 -59 -198q-42 -47 -112 -47q-61 0 -100 30v-214h-132v214q-39 -30 -100 -30q-70 0 -112 47q-59 67 -59 198q0 130 61 194q42 44 107 44q55 0 103 -37v262h132zM438 350v-240q32 -18 58 -18q31 0 49 18
q31 32 31 122q0 93 -31 125q-18 18 -43 18q-28 0 -64 -25zM316 110v240q-36 25 -64 25q-25 0 -43 -18q-31 -32 -31 -125q0 -90 31 -122q18 -18 49 -18q26 0 58 18z" />
    <glyph glyph-name="afii10087" unicode="&#x445;" horiz-adv-x="558" 
d="M390 467h160l-184 -224l178 -243h-160l-102 139l-114 -139h-160l198 243l-164 224h160l89 -121z" />
    <glyph glyph-name="afii10088" unicode="&#x446;" horiz-adv-x="611" 
d="M210 110h168v357h136v-357h83v-233h-126v123h-397v467h136v-357z" />
    <glyph glyph-name="afii10089" unicode="&#x447;" horiz-adv-x="566" 
d="M356 276v191h136v-467h-136v170q-61 -18 -126 -18q-83 0 -126 30q-54 39 -54 135v150h136v-127q0 -46 21 -64q20 -16 63 -16q44 0 86 16z" />
    <glyph glyph-name="afii10090" unicode="&#x448;" horiz-adv-x="824" 
d="M210 110h134v357h136v-357h134v357h136v-467h-676v467h136v-357z" />
    <glyph glyph-name="afii10091" unicode="&#x449;" horiz-adv-x="847" 
d="M210 110h134v357h136v-357h134v357h136v-357h83v-233h-126v123h-633v467h136v-357z" />
    <glyph glyph-name="afii10092" unicode="&#x44a;" horiz-adv-x="599" 
d="M284 314h72q65 0 106 -10t69 -40q38 -42 38 -108q0 -73 -42 -112q-47 -44 -167 -44h-212v357h-132v110h268v-153zM284 94h44q46 0 69 12q30 17 30 54q0 33 -25 49q-17 11 -65 11h-53v-126z" />
    <glyph glyph-name="afii10093" unicode="&#x44b;" horiz-adv-x="760" 
d="M550 0v467h136v-467h-136zM74 0v467h136v-153h65q66 0 107 -10t69 -41q37 -40 37 -108q0 -69 -39 -108q-21 -21 -53 -32t-58 -13t-70 -2h-194zM210 94h44q47 0 70 13q28 16 28 52q0 34 -25 50q-17 11 -65 11h-52v-126z" />
    <glyph glyph-name="afii10094" unicode="&#x44c;" horiz-adv-x="525" 
d="M210 314h72q65 0 106 -10t69 -40q38 -42 38 -108q0 -73 -42 -112q-47 -44 -167 -44h-212v467h136v-153zM210 94h44q46 0 69 12q30 17 30 54q0 33 -25 49q-17 11 -65 11h-53v-126z" />
    <glyph glyph-name="afii10095" unicode="&#x44d;" horiz-adv-x="519" 
d="M24 68l76 72q54 -51 119 -51q54 0 81 27q26 25 30 70h-157v104h157q-3 41 -34 67q-26 21 -74 21q-41 0 -74 -14q-27 -12 -51 -30l-61 81q75 65 194 65q36 0 62.5 -3t62 -18.5t63.5 -43.5q61 -63 61 -174q0 -130 -67 -195q-62 -59 -181 -59q-79 0 -126 20q-44 18 -81 61z
" />
    <glyph glyph-name="afii10096" unicode="&#x44e;" horiz-adv-x="820" 
d="M202 303h84q10 54 37.5 92t65 55t70.5 23.5t69 6.5q94 0 157 -44q95 -66 95 -202t-95 -203q-63 -44 -163 -44q-28 0 -55 4t-60.5 17t-58 34.5t-43.5 61t-22 91.5h-81v-195h-134v467h134v-164zM526 378q-52 0 -76.5 -45t-24.5 -99q0 -15 2.5 -32.5t11 -46.5t31 -47.5
t56.5 -18.5q39 0 63.5 25t32.5 55.5t8 64.5q0 14 -2.5 31t-11.5 46t-32 48t-58 19z" />
    <glyph glyph-name="afii10097" unicode="&#x44f;" horiz-adv-x="565" 
d="M355 171h-29q-42 0 -63 -20q-13 -12 -29 -45l-18 -38q-21 -44 -53 -63q-33 -20 -111 -18l-18 106q24 -2 39 7q14 8 28 35l13 25q13 25 29 37q21 16 46 20v4q-54 0 -86 29q-30 28 -30 80q0 58 34 93q25 26 62 35t96 9h226v-467h-136v171zM355 379h-68q-42 0 -60 -18
q-16 -16 -16 -42q0 -31 23 -46q19 -12 53 -12h68v118z" />
    <glyph glyph-name="afii10071" unicode="&#x451;" horiz-adv-x="559" 
d="M191 295h196q-5 46 -32.5 68.5t-63.5 22.5q-44 0 -69 -26t-31 -65zM428 134l78 -70q-69 -77 -214 -77q-119 0 -181 60q-71 68 -71 179q0 114 75 189q66 65 172 65q105 0 165 -62q67 -69 67 -200v-13h-333q0 -61 34.5 -88.5t82.5 -27.5q71 0 125 45zM95 638
q0 33 22.5 55.5t55.5 22.5t55.5 -22.5t22.5 -55.5t-22.5 -55.5t-55.5 -22.5t-55.5 22.5t-22.5 55.5zM316 638q0 33 22.5 55.5t55.5 22.5t55.5 -22.5t22.5 -55.5t-22.5 -55.5t-55.5 -22.5t-55.5 22.5t-22.5 55.5z" />
    <glyph glyph-name="afii10099" unicode="&#x452;" horiz-adv-x="598" 
d="M210 700v-67h158v-98h-158v-134q24 30 59 47q37 18 83 18q83 0 124 -39q48 -46 48 -156v-180q0 -183 -56 -244q-48 -52 -147 -52q-50 0 -87 8l14 110q21 -8 47 -8q44 0 65 25q28 32 28 167v150q0 70 -21 92q-15 17 -46 17t-64 -25q-28 -21 -47 -50v-281h-136v535h-74v98
h74v67h136z" />
    <glyph glyph-name="afii10100" unicode="&#x453;" horiz-adv-x="444" 
d="M210 353v-353h-136v467h350v-114h-214zM285 700h126l-116 -163h-82z" />
    <glyph glyph-name="afii10101" unicode="&#x454;" horiz-adv-x="516" 
d="M416 138l76 -72q-34 -40 -79 -59q-52 -20 -123 -20q-250 0 -250 244q0 65 18.5 113t45 73t63.5 40t65.5 19t60.5 4q119 0 186 -57l-63 -85q-52 40 -117 40q-33 0 -66 -21t-44 -67h157v-104h-157q4 -50 36 -73.5t72 -23.5q70 0 119 49z" />
    <glyph glyph-name="afii10102" unicode="&#x455;" horiz-adv-x="498" 
d="M40 59l67 82q28 -21 55 -33q35 -15 71 -15q39 0 57 11q20 12 20 34q0 23 -26 38q-15 8 -60 18l-45 11q-55 13 -85 40q-32 28 -32 80q0 74 56 117q50 38 150 38q54 0 98 -12t82 -41l-57 -85q-62 38 -124 38q-37 0 -52 -11t-15 -27q0 -22 28 -33q9 -3 32.5 -8.5t40.5 -10.5
l36 -10q60 -18 87 -45q34 -34 34 -89q0 -68 -41 -108q-52 -51 -172 -51q-70 0 -123 20q-43 16 -82 52z" />
    <glyph glyph-name="afii10103" unicode="&#x456;" horiz-adv-x="284" 
d="M74 0v467h136v-467h-136zM60 648q0 34 24 58t58 24t58 -24t24 -58t-24 -58t-58 -24t-58 24t-24 58z" />
    <glyph glyph-name="afii10104" unicode="&#x457;" horiz-adv-x="284" 
d="M74 0v467h136v-467h-136zM270 649q0 -35 -17 -54q-15 -18 -37 -18t-37 18q-17 19 -17 54t17 54q15 18 37 18t37 -18q17 -19 17 -54zM122 649q0 -35 -17 -54q-15 -18 -37 -18t-37 18q-17 19 -17 54t17 54q15 18 37 18t37 -18q17 -19 17 -54z" />
    <glyph glyph-name="afii10105" unicode="&#x458;" horiz-adv-x="318" 
d="M244 467v-461q0 -43 -1 -64t-11 -54t-29 -52q-41 -41 -138 -41q-70 0 -120 28l45 99q24 -13 56 -13q34 0 49 19q13 17 13 70v469h136zM94 648q0 34 24 58t58 24t58 -24t24 -58t-24 -58t-58 -24t-58 24t-24 58z" />
    <glyph glyph-name="afii10106" unicode="&#x459;" horiz-adv-x="827" 
d="M517 314h67q65 0 106 -10t69 -40q38 -42 38 -109q0 -72 -42 -111q-47 -44 -167 -44h-203v357h-131l-3 -59q-3 -74 -16 -135q-18 -86 -62 -128q-49 -45 -153 -48l-18 106q52 3 78 31q29 30 37 125q5 60 9 140l4 78h387v-153zM517 94h41q46 0 69 12q30 17 30 54
q0 33 -25 49q-17 11 -65 11h-50v-126z" />
    <glyph glyph-name="afii10107" unicode="&#x45a;" horiz-adv-x="834" 
d="M524 314h67q65 0 106 -10t69 -40q38 -42 38 -109q0 -72 -42 -111q-47 -44 -167 -44h-203v214h-182v-214h-136v467h136v-153h182v153h132v-153zM524 94h41q46 0 69 12q30 17 30 54q0 33 -25 49q-17 11 -65 11h-50v-126z" />
    <glyph glyph-name="afii10108" unicode="&#x45b;" horiz-adv-x="598" 
d="M524 0h-136v247q0 70 -21 92q-17 17 -46 17q-31 0 -64 -25q-28 -21 -47 -50v-281h-136v535h-74v98h74v67h136v-67h158v-98h-158v-134q24 30 59 47q37 18 83 18q83 0 124 -39q48 -46 48 -154v-273z" />
    <glyph glyph-name="afii10109" unicode="&#x45c;" horiz-adv-x="538" 
d="M210 467v-164h24q35 0 57 14q18 13 37 50l16 31q24 45 57 63q31 16 89 16h17l12 -100q-25 0 -42 -9q-16 -9 -29 -34l-15 -27q-14 -26 -34 -40q-23 -15 -49 -16v-4q30 -1 51 -18q19 -14 35 -47l22 -46q11 -22 20 -30q16 -13 42 -13h4l-16 -106q-75 -6 -114 22
q-29 21 -48 69l-20 48q-19 43 -35 55q-19 14 -63 14h-18v-195h-136v467h136zM320 700h126l-116 -163h-82z" />
    <glyph glyph-name="afii10110" unicode="&#x45e;" horiz-adv-x="522" 
d="M272 166l91 301h143l-174 -493q-32 -91 -68 -129q-49 -50 -145 -50q-33 0 -60 7l-12 104q23 -7 46 -7q38 0 61 17q25 20 40 64l13 38l-191 449h145zM333 711l93 -20q-5 -86 -64 -122q-37 -22 -101 -22t-101 22q-59 36 -64 122l93 20q5 -51 26 -70q15 -14 46 -14t46 14
q21 19 26 70z" />
    <glyph glyph-name="afii10193" unicode="&#x45f;" horiz-adv-x="588" 
d="M210 110h168v357h136v-467h-157v-123h-126v123h-157v467h136v-357z" />
    <glyph glyph-name="afii10146" unicode="&#x462;" horiz-adv-x="718" 
d="M275 514v-92h105q172 0 237 -63q55 -53 55 -144q0 -93 -53 -148q-65 -67 -213 -67h-281v514h-115v118h115v68h150v-68h205v-118h-205zM275 304v-182h73q95 0 130 29q28 24 28 66q0 46 -32 67q-29 20 -128 20h-71z" />
    <glyph glyph-name="afii10194" unicode="&#x463;" horiz-adv-x="549" 
d="M234 306h72q38 0 63 -2t58.5 -13.5t53.5 -33.5q38 -40 38 -108q0 -65 -42 -105q-47 -44 -167 -44h-212v373h-88v94h88v233h136v-233h158v-94h-158v-67zM234 94h44q45 0 69 12q30 15 30 52q0 31 -25 47q-19 11 -65 11h-53v-122z" />
    <glyph glyph-name="afii10147" unicode="&#x472;" horiz-adv-x="778" 
d="M226 424h326q-10 83 -58 131q-38 39 -105 39q-66 0 -105 -39q-51 -51 -58 -131zM556 300h-333q2 -44 18.5 -86.5t42.5 -68.5q39 -39 105 -39t105 39q59 57 62 155zM728 350q0 -185 -97 -282q-85 -84 -242 -84t-242 84q-97 97 -97 282t97 282q85 84 242 84t242 -84
q97 -97 97 -282z" />
    <glyph glyph-name="afii10195" unicode="&#x473;" horiz-adv-x="588" 
d="M189 289h210q-6 41 -33 68q-28 27 -72 27q-45 0 -72 -27t-33 -68zM400 185h-212q0 -44 34 -76q27 -26 73 -26q44 0 71 26q31 31 34 76zM548 234q0 -139 -94 -206q-59 -41 -160 -41t-160 41q-94 67 -94 206t94 205q59 41 160 41t160 -41q94 -66 94 -205z" />
    <glyph glyph-name="afii10148" unicode="&#x474;" horiz-adv-x="731" 
d="M20 700h158l159 -472l100 312q29 90 70 129q50 47 134 47q34 0 66 -7l12 -119q-20 4 -35 4q-76 0 -110 -99l-171 -495h-130z" />
    <glyph glyph-name="afii10196" unicode="&#x475;" horiz-adv-x="563" 
d="M20 467h144l104 -313l55 176q16 52 36.5 84.5t45.5 45t41.5 15.5t42.5 3q23 0 48 -5l12 -102q-18 3 -27 3q-30 0 -47 -18t-32 -60l-105 -296h-142z" />
    <glyph glyph-name="afii10050" unicode="&#x490;" horiz-adv-x="568" 
d="M86 0v700h312v159h140v-283h-302v-576h-150z" />
    <glyph glyph-name="afii10098" unicode="&#x491;" horiz-adv-x="463" 
d="M443 353h-233v-353h-136v467h249v124h120v-238z" />
    <glyph glyph-name="uni0492" unicode="&#x492;" horiz-adv-x="578" 
d="M540 576h-294v-158h198v-124h-198v-294h-150v294h-92v124h92v282h444v-124z" />
    <glyph glyph-name="uni0493" unicode="&#x493;" horiz-adv-x="446" 
d="M352 257v-104h-140v-153h-136v153h-68v104h68v210h350v-114h-214v-96h140z" />
    <glyph glyph-name="uni0496" unicode="&#x496;" horiz-adv-x="982" 
d="M838 0q-55 9 -83 44q-22 27 -40 98l-19 76q-12 51 -39 72q-27 22 -75 22h-25v-312h-144v312h-22q-48 0 -75 -22q-27 -21 -45 -72l-40 -110q-26 -72 -64 -98q-49 -33 -127 -25l-20 122h3q29 0 47 12q20 13 33 50l34 91q19 48 46 75q37 35 84 42v6q-40 5 -66 27
q-25 21 -46 66l-29 64q-16 36 -39 47q-18 9 -47 11l16 118h3q76 0 116 -23q46 -26 74 -92l31 -73q25 -59 46 -74q25 -18 65 -18h22v264h144v-264h22q40 0 65 18q21 15 46 74l31 73q28 66 74 92q40 23 116 23h3l16 -118q-29 -2 -47 -11q-23 -11 -39 -47l-29 -64
q-18 -39 -46 -62q-29 -24 -66 -29v-6q50 -11 78 -39t41 -80l17 -64q13 -48 29 -66q20 -23 66 -23h38v-266h-134v159z" />
    <glyph glyph-name="uni0497" unicode="&#x497;" horiz-adv-x="754" 
d="M626 -2q-30 4 -52 29q-15 18 -25 52l-14 49q-10 35 -26 51q-18 18 -52 18h-17v-197h-128v197h-22q-35 0 -54 -19q-15 -15 -28 -50l-19 -50q-20 -51 -47 -70q-38 -27 -112 -21l-16 106h6q27 0 43 14q10 8 24 41l15 34q13 30 33 47t53 20v4q-27 3 -45 14q-22 13 -36 40
l-13 25q-15 28 -27 35q-18 12 -43 10l12 100h16q56 0 85 -16q31 -16 54 -63l15 -31q19 -41 35 -52q19 -14 54 -14h17v166h128v-166h17q35 0 54 14q16 11 35 52l15 31q23 47 54 63q29 16 85 16h16l12 -100q-25 2 -43 -10q-12 -7 -27 -35l-13 -25q-14 -27 -36 -40
q-18 -11 -45 -14v-4q32 -9 49 -25t28 -47l7 -22q11 -37 24 -48q16 -14 52 -14h22v-216h-120v121z" />
    <glyph glyph-name="uni0498" unicode="&#x498;" horiz-adv-x="636" 
d="M117 535l-60 100q96 81 255 81q135 0 201 -53q62 -50 62 -138q0 -69 -43 -112q-32 -32 -76 -42v-8q61 -11 97 -47q43 -42 43 -113q0 -54 -25 -97t-55 -66q-55 -44 -149 -53v-157h-140v158q-52 5 -89 18q-54 19 -102 61l68 102q81 -63 190 -63q61 0 94 23q38 26 38 78
q0 47 -40 71q-37 22 -141 22h-23v120h26q101 0 138 33q25 23 25 55q0 44 -35 67q-30 19 -79 19q-52 0 -102 -18q-43 -15 -78 -41z" />
    <glyph glyph-name="uni0499" unicode="&#x499;" horiz-adv-x="474" 
d="M18 52l64 76q21 -18 52 -31q31 -12 71 -12q39 0 59 13q24 15 24 43q0 29 -26 41q-18 9 -60 9h-44v92h25q42 0 63 9q31 13 31 44q0 23 -21 36q-18 10 -51 10q-32 0 -68 -12q-30 -10 -57 -28l-50 76q39 30 83 45q49 17 117 17q87 0 133 -30q56 -36 56 -105q0 -43 -27 -70
q-25 -25 -60 -30v-5q45 -5 76 -36q26 -27 26 -67q0 -78 -61 -117q-31 -20 -88 -28v-132h-126v130q-31 4 -61 13q-44 16 -80 49z" />
    <glyph glyph-name="uni049A" unicode="&#x49a;" horiz-adv-x="677" 
d="M236 700v-264h25q50 0 78 22q22 17 46 70l33 73q32 71 78 95q44 20 115 20h3l18 -118q-29 -2 -48 -12q-22 -12 -36 -41l-33 -69q-16 -34 -44 -57q-30 -26 -70 -30v-6q47 -12 77 -42q25 -25 43 -81l15 -52q17 -52 34 -74q22 -27 67 -27h30v-266h-134v159q-51 11 -76 43
t-42 97l-20 75q-15 53 -47 75q-31 22 -86 22h-26v-312h-150v700h150z" />
    <glyph glyph-name="uni049B" unicode="&#x49b;" horiz-adv-x="549" 
d="M210 467v-164h24q35 0 57 14q18 13 37 50l16 31q24 45 57 63q31 16 89 16h17l12 -100q-25 0 -42 -9q-16 -9 -29 -34l-15 -27q-10 -19 -34 -36q-20 -13 -49 -16v-4q35 -8 53 -23q21 -18 33 -50l11 -28q14 -31 27 -42q18 -15 49 -15h18v-216h-120v123q-31 5 -52 29
q-14 16 -26 48l-17 49q-15 38 -36 54q-21 15 -60 15h-20v-195h-136v467h136z" />
    <glyph glyph-name="uni049C" unicode="&#x49c;" horiz-adv-x="723" 
d="M305 565h82v-122q11 4 23 13q6 4 10.5 9.5t7.5 10t6.5 12.5t5 11.5t5.5 14.5t5 14l26 73q32 71 78 95q44 20 115 20h3l18 -118q-29 -2 -48 -12q-24 -12 -37 -41l-29 -66q-22 -47 -47 -67q-27 -23 -66 -29v-6q50 -9 83 -42q24 -24 43 -75l31 -91q12 -36 33 -50
q18 -12 47 -12h3l-20 -122q-84 -6 -128 25q-40 28 -64 98l-35 117q-15 50 -43 69q-13 8 -26 11v-119h-82v126h-69v-312h-150v700h150v-264h69v129z" />
    <glyph glyph-name="uni049D" unicode="&#x49d;" horiz-adv-x="583" 
d="M264 394h68v-88q13 4 22 11q21 16 32 50l11 31q16 43 55 63q31 16 87 16h13l12 -100q-23 0 -41 -10q-16 -10 -27 -34l-10 -24q-10 -23 -35 -40q-22 -14 -44 -18v-4q33 -3 54 -23q18 -17 30 -51l11 -34q7 -23 21 -34q16 -12 42 -12h4l-16 -106q-2 0 -8 -0.5t-10 -0.5
q-66 0 -95 20q-36 24 -51 87l-8 33q-7 34 -26 51q-12 10 -23 13v-86h-68v91h-56v-195h-134v467h134v-164h56v91z" />
    <glyph glyph-name="uni04A0" unicode="&#x4a0;" horiz-adv-x="768" 
d="M338 700v-264h25q50 0 78 22q22 17 46 70l33 73q32 71 78 95q44 20 115 20h3l18 -118q-29 -2 -48 -12q-22 -12 -36 -41l-33 -69q-22 -47 -44 -65q-28 -24 -70 -28v-6q52 -9 85 -42q24 -24 43 -75l34 -91q12 -36 33 -50q18 -12 47 -12h3l-20 -122q-84 -6 -128 25
q-40 28 -64 98l-42 117q-17 49 -46 69q-27 18 -89 18h-21v-312h-150v576h-186v124h336z" />
    <glyph glyph-name="uni04A1" unicode="&#x4a1;" horiz-adv-x="596" 
d="M268 467v-164h24q35 0 57 14q18 13 37 50l16 31q24 45 57 63q31 16 89 16h17l12 -100q-25 0 -42 -9q-16 -9 -29 -34l-15 -27q-14 -26 -34 -40q-23 -15 -49 -16v-4q30 -1 51 -18q19 -14 35 -47l22 -46q11 -22 20 -30q16 -13 42 -13h4l-16 -106q-75 -6 -114 22
q-29 21 -48 69l-20 48q-19 43 -35 55q-19 14 -63 14h-18v-195h-136v357h-128v110h264z" />
    <glyph glyph-name="uni04A2" unicode="&#x4a2;" horiz-adv-x="779" 
d="M613 0h-106v300h-271v-300h-150v700h150v-276h271v276h150v-576h96v-283h-140v159z" />
    <glyph glyph-name="uni04A3" unicode="&#x4a3;" horiz-adv-x="626" 
d="M486 0h-94v197h-182v-197h-136v467h136v-160h182v160h136v-357h84v-233h-126v123z" />
    <glyph glyph-name="uni04AA" unicode="&#x4aa;" horiz-adv-x="680" 
d="M637 641l-75 -105q-43 29 -66 39q-41 19 -87 19q-73 0 -119 -46q-70 -70 -70 -212q0 -126 63 -186q46 -44 117 -44q86 0 164 63l76 -106q-69 -60 -177 -74v-159h-140v157q-106 11 -176 80q-97 97 -97 267q0 187 103 291q91 91 246 91q80 0 137 -19q56 -20 101 -56z" />
    <glyph glyph-name="uni04AB" unicode="&#x4ab;" horiz-adv-x="525" 
d="M413 139l82 -72q-49 -61 -135 -74v-133h-126v130q-80 7 -129 55q-65 63 -65 177q0 120 69 189t192 69q112 0 177 -56l-65 -85q-47 35 -96 35q-54 0 -86 -30q-41 -38 -41 -119q0 -69 35 -104q28 -28 84 -28q60 0 104 46z" />
    <glyph glyph-name="uni04AE" unicode="&#x4ae;" horiz-adv-x="668" 
d="M334 413l156 287h164l-245 -434v-266h-150v266l-245 434h164z" />
    <glyph glyph-name="uni04AF" unicode="&#x4af;" horiz-adv-x="538" 
d="M269 171l104 296h145l-181 -453v-206h-136v206l-181 453h145z" />
    <glyph glyph-name="uni04B0" unicode="&#x4b0;" horiz-adv-x="668" 
d="M543 246v-112h-134v-134h-150v134h-133v112h133v30l-245 424h164l156 -287l156 287h164l-245 -424v-30h134z" />
    <glyph glyph-name="uni04B1" unicode="&#x4b1;" horiz-adv-x="538" 
d="M457 98v-98h-120v-192h-136v192h-120v98h120v16l-181 353h145l104 -236l104 236h145l-181 -353v-16h120z" />
    <glyph glyph-name="uni04B2" unicode="&#x4b2;" horiz-adv-x="695" 
d="M549 0h-50l-158 245l-161 -245h-174l249 375l-213 325h167l132 -198l131 198h167l-213 -325l166 -251h97v-283h-140v159z" />
    <glyph glyph-name="uni04B3" unicode="&#x4b3;" horiz-adv-x="567" 
d="M437 0h-57l-98 139l-114 -139h-160l198 243l-164 224h160l89 -121l99 121h160l-184 -224l97 -133h100v-233h-126v123z" />
    <glyph glyph-name="uni04B6" unicode="&#x4b6;" horiz-adv-x="723" 
d="M557 0h-106v295q-77 -27 -161 -27q-120 0 -172 53q-48 49 -48 153v226h148v-192q0 -64 25 -89q26 -27 91 -27q66 0 117 21v287h150v-576h96v-283h-140v159z" />
    <glyph glyph-name="uni04B7" unicode="&#x4b7;" horiz-adv-x="587" 
d="M447 0h-91v170q-61 -18 -126 -18q-83 0 -126 30q-54 39 -54 135v150h136v-127q0 -46 21 -64q20 -16 63 -16q44 0 86 16v191h136v-357h81v-233h-126v123z" />
    <glyph glyph-name="uni04B8" unicode="&#x4b8;" horiz-adv-x="691" 
d="M302 552h82v-158q48 6 71 19v287h150v-700h-150v295q-22 -10 -71 -15v-106h-82v102q-112 2 -165 40q-67 47 -67 157v227h148v-193q0 -62 24 -88q20 -22 60 -26v159z" />
    <glyph glyph-name="uni04B9" unicode="&#x4b9;" horiz-adv-x="582" 
d="M246 370h70v-108q34 4 56 14v191h136v-467h-136v172q-24 -8 -56 -11v-75h-70v72q-88 0 -138 35q-58 39 -58 131v143h132v-123q0 -45 22 -66q14 -14 42 -17v109z" />
    <glyph glyph-name="uni04BA" unicode="&#x4ba;" horiz-adv-x="708" 
d="M236 301v-301h-150v700h150v-279q79 27 180 27q122 0 178 -55q23 -22 34.5 -52.5t13.5 -50t2 -50.5v-240h-148v204q0 63 -26 89q-29 29 -98 29q-74 0 -136 -21z" />
    <glyph glyph-name="uni04BB" unicode="&#x4bb;" horiz-adv-x="598" 
d="M74 700h136v-287q24 30 59 47q37 18 83 18q83 0 124 -39q48 -46 48 -154v-285h-136v259q0 70 -21 92q-17 17 -46 17q-31 0 -64 -25q-28 -21 -47 -50v-293h-136v700z" />
    <glyph glyph-name="uni04C0" unicode="&#x4c0;" horiz-adv-x="322" 
d="M86 700h150v-700h-150v700z" />
    <glyph glyph-name="uni04CF" unicode="&#x4cf;" horiz-adv-x="284" 
d="M74 0v700h136v-700h-136z" />
    <glyph glyph-name="uni04D0" unicode="&#x4d0;" horiz-adv-x="732" 
d="M434 700l294 -700h-156l-65 165h-282l-65 -165h-156l294 700h136zM271 285h189l-95 241zM453 952l95 -20q-7 -88 -61 -130q-42 -33 -121 -33t-121 33q-54 42 -61 130l95 20q9 -58 36 -78q18 -13 51 -13t51 13q27 20 36 78z" />
    <glyph glyph-name="uni04D1" unicode="&#x4d1;" horiz-adv-x="546" 
d="M109 340l-52 82q85 58 213 58q109 0 156 -50q42 -44 42 -132v-146q0 -37 10 -49q13 -15 40 -10l-16 -105q-77 -14 -117 16q-26 20 -37 57q-36 -38 -65 -53q-41 -21 -91 -21q-74 0 -117 40t-43 102q0 59 41 100q40 42 123 56q64 11 139 11v10q0 36 -17 53q-20 21 -65 21
q-70 0 -144 -40zM335 148v70q-53 -2 -87 -9q-47 -9 -67 -30q-15 -15 -15 -38q0 -24 16 -38q15 -14 44 -14q35 0 64 18q23 14 45 41zM337 711l93 -20q-5 -86 -64 -122q-37 -22 -101 -22t-101 22q-59 36 -64 122l93 20q5 -51 26 -70q15 -14 46 -14t46 14q21 19 26 70z" />
    <glyph glyph-name="uni04D2" unicode="&#x4d2;" horiz-adv-x="732" 
d="M434 700l294 -700h-156l-65 165h-282l-65 -165h-156l294 700h136zM271 285h189l-95 241zM166 852q0 33 23.5 56.5t56.5 23.5t56.5 -23.5t23.5 -56.5t-23.5 -56.5t-56.5 -23.5t-56.5 23.5t-23.5 56.5zM406 852q0 33 23.5 56.5t56.5 23.5t56.5 -23.5t23.5 -56.5
t-23.5 -56.5t-56.5 -23.5t-56.5 23.5t-23.5 56.5z" />
    <glyph glyph-name="uni04D3" unicode="&#x4d3;" horiz-adv-x="546" 
d="M109 340l-52 82q85 58 213 58q109 0 156 -50q42 -44 42 -132v-146q0 -37 10 -49q13 -15 40 -10l-16 -105q-77 -14 -117 16q-26 20 -37 57q-36 -38 -65 -53q-41 -21 -91 -21q-74 0 -117 40t-43 102q0 59 41 100q40 42 123 56q64 11 139 11v10q0 36 -17 53q-20 21 -65 21
q-70 0 -144 -40zM335 148v70q-53 -2 -87 -9q-47 -9 -67 -30q-15 -15 -15 -38q0 -24 16 -38q15 -14 44 -14q35 0 64 18q23 14 45 41zM297 654q0 32 22.5 54t53.5 22t53.5 -22t22.5 -54t-22.5 -54t-53.5 -22t-53.5 22t-22.5 54zM76 654q0 32 22 54t54 22t54 -22t22 -54
t-22 -54t-54 -22t-54 22t-22 54z" />
    <glyph glyph-name="uni04D4" unicode="&#x4d4;" horiz-adv-x="1015" 
d="M969 576h-302v-144h242v-124h-242v-184h310v-124h-460v172h-258l-101 -172h-156l414 700h553v-124zM517 292v284h-30l-156 -284h186z" />
    <glyph glyph-name="uni04D5" unicode="&#x4d5;" horiz-adv-x="835" 
d="M470 295h193q-9 91 -92 91q-78 0 -101 -91zM795 213h-329v-7q0 -59 35.5 -88t82.5 -29q67 0 118 45l78 -70q-70 -77 -206 -77q-126 0 -178 83q-72 -83 -194 -83q-82 0 -123 37q-47 43 -47 112q0 41 19 71.5t50 46.5t53 22.5t46 10.5q58 8 131 8v7q0 41 -19 59
q-21 19 -68 19q-68 0 -139 -40l-48 79q83 61 196 61q111 0 157 -65q58 65 159 65q110 0 168 -66t58 -194v-7zM331 139v74q-58 -2 -94 -8.5t-51.5 -18.5t-19.5 -22t-4 -26q0 -25 18 -38t43 -13q66 0 108 52z" />
    <glyph glyph-name="uni04D6" unicode="&#x4d6;" horiz-adv-x="584" 
d="M538 576h-302v-144h242v-124h-242v-184h310v-124h-460v700h452v-124zM400 952l95 -20q-7 -88 -61 -130q-42 -33 -121 -33t-121 33q-54 42 -61 130l95 20q9 -58 36 -78q18 -13 51 -13t51 13q27 20 36 78z" />
    <glyph glyph-name="uni04D7" unicode="&#x4d7;" horiz-adv-x="559" 
d="M191 295h196q-4 42 -32 68q-24 23 -64 23q-38 0 -66 -24q-27 -26 -34 -67zM428 134l78 -70q-69 -77 -214 -77q-119 0 -181 60q-71 68 -71 179q0 114 75 189q66 65 172 65q107 0 165 -62q67 -69 67 -200v-13h-333q0 -50 30 -84q30 -32 87 -32q71 0 125 45zM351 711l93 -20
q-5 -86 -64 -122q-37 -22 -101 -22t-101 22q-59 36 -64 122l93 20q5 -51 26 -70q15 -14 46 -14t46 14q21 19 26 70z" />
    <glyph glyph-name="uni04D8" unicode="&#x4d8;" horiz-adv-x="767" 
d="M50 364h496q-5 121 -67 182q-48 48 -128 48q-53 0 -100 -25q-34 -19 -69 -54l-92 105q45 43 106 67q68 27 158 27q73 0 135.5 -17.5t118.5 -73.5q59 -59 84 -138t25 -152q0 -161 -101 -260q-92 -91 -244 -91q-67 0 -120.5 16.5t-100.5 64.5q-99 101 -101 301zM540 256
h-325q7 -69 48 -110q42 -42 112 -42q68 0 111 43q42 42 54 109z" />
    <glyph glyph-name="afii10846" unicode="&#x4d9;" horiz-adv-x="559" 
d="M368 172h-196q4 -42 32 -68q24 -23 64 -23q38 0 66 24q27 26 34 67zM131 327l-78 71q33 36 82 57q59 25 142 25q109 0 171 -60q71 -68 71 -178q0 -115 -75 -190q-66 -65 -172 -65q-107 0 -165 62q-67 69 -67 200v13h333q0 53 -30 84q-30 32 -87 32q-45 0 -77 -16
q-22 -11 -48 -35z" />
    <glyph glyph-name="uni04DC" unicode="&#x4dc;" horiz-adv-x="970" 
d="M557 700v-264h22q40 0 65 18q21 15 46 74l31 73q28 66 74 92q40 23 116 23h3l16 -118q-29 -2 -47 -11q-23 -11 -39 -47l-29 -64q-21 -45 -46 -66q-26 -22 -66 -27v-6q47 -7 84 -42q27 -27 46 -75l34 -91q13 -37 33 -50q18 -12 47 -12h3l-20 -122q-78 -8 -127 25
q-38 26 -64 98l-40 110q-18 51 -45 72q-28 22 -75 22h-22v-312h-144v312h-22q-48 0 -75 -22q-27 -21 -45 -72l-40 -110q-26 -72 -64 -98q-49 -33 -127 -25l-20 122h3q29 0 47 12q20 13 33 50l34 91q19 48 46 75q37 35 84 42v6q-40 5 -66 27q-25 21 -46 66l-29 64
q-16 36 -39 47q-18 9 -47 11l16 118h3q76 0 116 -23q46 -26 74 -92l31 -73q25 -59 46 -74q25 -18 65 -18h22v264h144zM280 852q0 33 23.5 56.5t56.5 23.5t56.5 -23.5t23.5 -56.5t-23.5 -56.5t-56.5 -23.5t-56.5 23.5t-23.5 56.5zM520 852q0 33 23.5 56.5t56.5 23.5
t56.5 -23.5t23.5 -56.5t-23.5 -56.5t-56.5 -23.5t-56.5 23.5t-23.5 56.5z" />
    <glyph glyph-name="uni04DD" unicode="&#x4dd;" horiz-adv-x="752" 
d="M440 467v-166h17q35 0 54 14q16 11 35 52l15 31q23 47 54 63q29 16 85 16h16l12 -100q-25 2 -43 -10q-12 -7 -27 -35l-13 -25q-14 -27 -36 -40q-18 -11 -45 -14v-4q33 -3 53 -20t33 -47l15 -34q14 -33 24 -41q16 -14 43 -14h6l-16 -106q-74 -6 -112 21q-27 19 -47 70
l-19 50q-13 35 -28 50q-19 19 -54 19h-22v-197h-128v197h-22q-35 0 -54 -19q-15 -15 -28 -50l-19 -50q-20 -51 -47 -70q-38 -27 -112 -21l-16 106h6q27 0 43 14q10 8 24 41l15 34q13 30 33 47t53 20v4q-27 3 -45 14q-22 13 -36 40l-13 25q-15 28 -27 35q-18 12 -43 10
l12 100h16q56 0 85 -16q31 -16 54 -63l15 -31q19 -41 35 -52q19 -14 54 -14h17v166h128zM405 654q0 32 22.5 54t53.5 22t53.5 -22t22.5 -54t-22.5 -54t-53.5 -22t-53.5 22t-22.5 54zM184 654q0 32 22 54t54 22t54 -22t22 -54t-22 -54t-54 -22t-54 22t-22 54z" />
    <glyph glyph-name="uni04DE" unicode="&#x4de;" horiz-adv-x="636" 
d="M117 535l-60 100q96 81 255 81q135 0 201 -53q62 -50 62 -138q0 -69 -43 -112q-32 -32 -76 -42v-8q61 -11 97 -47q43 -42 43 -113q0 -105 -76 -164q-71 -55 -221 -55q-95 0 -159 22q-57 20 -104 61l68 102q81 -63 190 -63q61 0 94 23q38 26 38 78q0 47 -40 71
q-37 22 -141 22h-23v120h26q101 0 138 33q25 23 25 55q0 44 -35 67q-30 19 -79 19q-52 0 -102 -18q-43 -15 -78 -41zM114 852q0 33 23.5 56.5t56.5 23.5t56.5 -23.5t23.5 -56.5t-23.5 -56.5t-56.5 -23.5t-56.5 23.5t-23.5 56.5zM354 852q0 33 23.5 56.5t56.5 23.5
t56.5 -23.5t23.5 -56.5t-23.5 -56.5t-56.5 -23.5t-56.5 23.5t-23.5 56.5z" />
    <glyph glyph-name="uni04DF" unicode="&#x4df;" horiz-adv-x="474" 
d="M18 52l64 76q21 -18 52 -31q31 -12 71 -12q39 0 59 13q24 15 24 43q0 29 -26 41q-18 9 -60 9h-44v92h25q42 0 63 9q31 13 31 44q0 23 -21 36q-18 10 -51 10q-32 0 -68 -12q-30 -10 -57 -28l-50 76q39 30 83 45q49 17 117 17q87 0 133 -30q56 -36 56 -105q0 -43 -27 -70
q-25 -25 -60 -30v-5q45 -5 76 -36q26 -27 26 -67q0 -78 -61 -117q-52 -33 -159 -33q-70 0 -116 16q-44 16 -80 49zM263 654q0 32 22.5 54t53.5 22t53.5 -22t22.5 -54t-22.5 -54t-53.5 -22t-53.5 22t-22.5 54zM42 654q0 32 22 54t54 22t54 -22t22 -54t-22 -54t-54 -22t-54 22
t-22 54z" />
    <glyph glyph-name="uni04E2" unicode="&#x4e2;" horiz-adv-x="738" 
d="M236 271l266 357v72h150v-700h-150v433l-266 -357v-76h-150v700h150v-429zM518 784h-298v92h298v-92z" />
    <glyph glyph-name="uni04E3" unicode="&#x4e3;" horiz-adv-x="594" 
d="M208 200l178 219v48h134v-467h-134v267l-178 -219v-48h-134v467h134v-267zM149 578v86h296v-86h-296z" />
    <glyph glyph-name="uni04E4" unicode="&#x4e4;" horiz-adv-x="738" 
d="M236 271l266 357v72h150v-700h-150v433l-266 -357v-76h-150v700h150v-429zM169 852q0 33 23.5 56.5t56.5 23.5t56.5 -23.5t23.5 -56.5t-23.5 -56.5t-56.5 -23.5t-56.5 23.5t-23.5 56.5zM409 852q0 33 23.5 56.5t56.5 23.5t56.5 -23.5t23.5 -56.5t-23.5 -56.5t-56.5 -23.5
t-56.5 23.5t-23.5 56.5z" />
    <glyph glyph-name="uni04E5" unicode="&#x4e5;" horiz-adv-x="594" 
d="M208 200l178 219v48h134v-467h-134v267l-178 -219v-48h-134v467h134v-267zM331 654q0 32 22.5 54t53.5 22t53.5 -22t22.5 -54t-22.5 -54t-53.5 -22t-53.5 22t-22.5 54zM110 654q0 32 22 54t54 22t54 -22t22 -54t-22 -54t-54 -22t-54 22t-22 54z" />
    <glyph glyph-name="uni04E6" unicode="&#x4e6;" horiz-adv-x="778" 
d="M389 594q-65 0 -104 -39q-65 -65 -65 -205t65 -205q39 -39 104 -39t104 39q65 65 65 205t-65 205q-39 39 -104 39zM728 350q0 -185 -97 -282q-85 -84 -242 -84t-242 84q-97 97 -97 282t97 282q85 84 242 84t242 -84q97 -97 97 -282zM189 852q0 33 23.5 56.5t56.5 23.5
t56.5 -23.5t23.5 -56.5t-23.5 -56.5t-56.5 -23.5t-56.5 23.5t-23.5 56.5zM429 852q0 33 23.5 56.5t56.5 23.5t56.5 -23.5t23.5 -56.5t-23.5 -56.5t-56.5 -23.5t-56.5 23.5t-23.5 56.5z" />
    <glyph glyph-name="uni04E7" unicode="&#x4e7;" horiz-adv-x="588" 
d="M294 378q-39 0 -65 -25q-39 -38 -39 -120q0 -80 39 -119q26 -25 65 -25t65 25q39 39 39 119q0 82 -39 120q-26 25 -65 25zM548 234q0 -139 -94 -206q-59 -41 -160 -41t-160 41q-94 67 -94 206t94 205q59 41 160 41t160 -41q94 -66 94 -205zM328 654q0 32 22 54t54 22
t54 -22t22 -54t-22 -54t-54 -22t-54 22t-22 54zM107 654q0 32 22.5 54t53.5 22t53.5 -22t22.5 -54t-22.5 -54t-53.5 -22t-53.5 22t-22.5 54z" />
    <glyph glyph-name="uni04E8" unicode="&#x4e8;" horiz-adv-x="778" 
d="M226 424h326q-10 83 -58 131q-38 39 -105 39q-66 0 -105 -39q-51 -51 -58 -131zM556 300h-333q2 -44 18.5 -86.5t42.5 -68.5q39 -39 105 -39t105 39q59 57 62 155zM728 350q0 -185 -97 -282q-85 -84 -242 -84t-242 84q-97 97 -97 282t97 282q85 84 242 84t242 -84
q97 -97 97 -282z" />
    <glyph glyph-name="uni04E9" unicode="&#x4e9;" horiz-adv-x="588" 
d="M189 289h210q-6 41 -33 68q-28 27 -72 27q-45 0 -72 -27t-33 -68zM400 185h-212q0 -44 34 -76q27 -26 73 -26q44 0 71 26q31 31 34 76zM548 234q0 -139 -94 -206q-59 -41 -160 -41t-160 41q-94 67 -94 206t94 205q59 41 160 41t160 -41q94 -66 94 -205z" />
    <glyph glyph-name="uni04EA" unicode="&#x4ea;" horiz-adv-x="778" 
d="M226 424h326q-10 83 -58 131q-38 39 -105 39q-66 0 -105 -39q-51 -51 -58 -131zM556 300h-333q2 -44 18.5 -86.5t42.5 -68.5q39 -39 105 -39t105 39q59 57 62 155zM728 350q0 -185 -97 -282q-85 -84 -242 -84t-242 84q-97 97 -97 282t97 282q85 84 242 84t242 -84
q97 -97 97 -282zM189 852q0 33 23.5 56.5t56.5 23.5t56.5 -23.5t23.5 -56.5t-23.5 -56.5t-56.5 -23.5t-56.5 23.5t-23.5 56.5zM429 852q0 33 23.5 56.5t56.5 23.5t56.5 -23.5t23.5 -56.5t-23.5 -56.5t-56.5 -23.5t-56.5 23.5t-23.5 56.5z" />
    <glyph glyph-name="uni04EB" unicode="&#x4eb;" horiz-adv-x="588" 
d="M189 289h210q-6 41 -33 68q-28 27 -72 27q-45 0 -72 -27t-33 -68zM400 185h-212q0 -44 34 -76q27 -26 73 -26q44 0 71 26q31 31 34 76zM548 234q0 -139 -94 -206q-59 -41 -160 -41t-160 41q-94 67 -94 206t94 205q59 41 160 41t160 -41q94 -66 94 -205zM328 654
q0 32 22 54t54 22t54 -22t22 -54t-22 -54t-54 -22t-54 22t-22 54zM107 654q0 32 22.5 54t53.5 22t53.5 -22t22.5 -54t-22.5 -54t-53.5 -22t-53.5 22t-22.5 54z" />
    <glyph glyph-name="uni04EE" unicode="&#x4ee;" horiz-adv-x="637" 
d="M337 374l134 326h152l-223 -532q-42 -102 -93 -144q-53 -42 -137 -42q-51 0 -86 13l-14 120q35 -11 67 -11q46 0 71 18q25 17 41 55l13 31l-252 492h160zM467 784h-298v92h298v-92z" />
    <glyph glyph-name="uni04EF" unicode="&#x4ef;" horiz-adv-x="522" 
d="M272 166l91 301h143l-174 -493q-32 -91 -68 -129q-49 -50 -145 -50q-33 0 -60 7l-12 104q23 -7 46 -7q38 0 61 17q25 20 40 64l13 38l-191 449h145zM113 578v86h296v-86h-296z" />
    <glyph glyph-name="uni04F0" unicode="&#x4f0;" horiz-adv-x="637" 
d="M337 374l134 326h152l-223 -532q-42 -102 -93 -144q-53 -42 -137 -42q-51 0 -86 13l-14 120q35 -11 67 -11q46 0 71 18q25 17 41 55l13 31l-252 492h160zM118 852q0 33 23.5 56.5t56.5 23.5t56.5 -23.5t23.5 -56.5t-23.5 -56.5t-56.5 -23.5t-56.5 23.5t-23.5 56.5z
M358 852q0 33 23.5 56.5t56.5 23.5t56.5 -23.5t23.5 -56.5t-23.5 -56.5t-56.5 -23.5t-56.5 23.5t-23.5 56.5z" />
    <glyph glyph-name="uni04F1" unicode="&#x4f1;" horiz-adv-x="522" 
d="M272 166l91 301h143l-174 -493q-32 -91 -68 -129q-49 -50 -145 -50q-33 0 -60 7l-12 104q23 -7 46 -7q38 0 61 17q25 20 40 64l13 38l-191 449h145zM295 654q0 32 22.5 54t53.5 22t53.5 -22t22.5 -54t-22.5 -54t-53.5 -22t-53.5 22t-22.5 54zM74 654q0 32 22 54t54 22
t54 -22t22 -54t-22 -54t-54 -22t-54 22t-22 54z" />
    <glyph glyph-name="uni04F2" unicode="&#x4f2;" horiz-adv-x="637" 
d="M337 374l134 326h152l-223 -532q-42 -102 -93 -144q-53 -42 -137 -42q-51 0 -86 13l-14 120q35 -11 67 -11q46 0 71 18q25 17 41 55l13 31l-252 492h160zM213 910h112l-101 -141h-75zM375 910h112l-101 -141h-75z" />
    <glyph glyph-name="uni04F3" unicode="&#x4f3;" horiz-adv-x="522" 
d="M272 166l91 301h143l-174 -493q-32 -91 -68 -129q-49 -50 -145 -50q-33 0 -60 7l-12 104q23 -7 46 -7q38 0 61 17q25 20 40 64l13 38l-191 449h145zM186 700h114l-112 -163h-79zM348 700h114l-112 -163h-79z" />
    <glyph glyph-name="uni04F4" unicode="&#x4f4;" horiz-adv-x="687" 
d="M451 413v287h150v-700h-150v295q-77 -27 -161 -27q-120 0 -172 53q-48 49 -48 153v226h148v-192q0 -64 25 -89q26 -27 91 -27q66 0 117 21zM143 852q0 33 23.5 56.5t56.5 23.5t56.5 -23.5t23.5 -56.5t-23.5 -56.5t-56.5 -23.5t-56.5 23.5t-23.5 56.5zM383 852
q0 33 23.5 56.5t56.5 23.5t56.5 -23.5t23.5 -56.5t-23.5 -56.5t-56.5 -23.5t-56.5 23.5t-23.5 56.5z" />
    <glyph glyph-name="uni04F5" unicode="&#x4f5;" horiz-adv-x="566" 
d="M356 276v191h136v-467h-136v170q-61 -18 -126 -18q-83 0 -126 30q-54 39 -54 135v150h136v-127q0 -46 21 -64q20 -16 63 -16q44 0 86 16zM309 654q0 32 22.5 54t53.5 22t53.5 -22t22.5 -54t-22.5 -54t-53.5 -22t-53.5 22t-22.5 54zM88 654q0 32 22 54t54 22t54 -22
t22 -54t-22 -54t-54 -22t-54 22t-22 54z" />
    <glyph glyph-name="uni04F8" unicode="&#x4f8;" horiz-adv-x="946" 
d="M710 700h150v-700h-150v700zM236 442h98q173 0 241 -74q51 -56 51 -147q0 -98 -57 -154q-68 -67 -209 -67h-274v700h150v-258zM236 320v-198h68q97 0 130 29q28 25 28 73q0 41 -25 65q-32 31 -135 31h-66zM273 852q0 33 23.5 56.5t56.5 23.5t56.5 -23.5t23.5 -56.5
t-23.5 -56.5t-56.5 -23.5t-56.5 23.5t-23.5 56.5zM513 852q0 33 23.5 56.5t56.5 23.5t56.5 -23.5t23.5 -56.5t-23.5 -56.5t-56.5 -23.5t-56.5 23.5t-23.5 56.5z" />
    <glyph glyph-name="uni04F9" unicode="&#x4f9;" horiz-adv-x="760" 
d="M550 0v467h136v-467h-136zM74 0v467h136v-153h65q66 0 107 -10t69 -41q37 -40 37 -108q0 -69 -39 -108q-21 -21 -53 -32t-58 -13t-70 -2h-194zM210 94h44q47 0 70 13q28 16 28 52q0 34 -25 50q-17 11 -65 11h-52v-126zM414 654q0 32 22 54t54 22t54 -22t22 -54t-22 -54
t-54 -22t-54 22t-22 54zM193 654q0 32 22.5 54t53.5 22t53.5 -22t22.5 -54t-22.5 -54t-53.5 -22t-53.5 22t-22.5 54z" />
    <glyph glyph-name="uni1E9E" unicode="&#x1e9e;" horiz-adv-x="1232" 
d="M567 633l-75 -97q-38 25 -78 41q-43 17 -86 17q-50 0 -77 -22q-29 -24 -29 -60t35 -58q16 -10 87 -35l77 -26q88 -30 124 -66q50 -49 50 -131q0 -90 -58 -146q-69 -66 -222 -66q-94 0 -159 25q-64 27 -116 74l82 98q33 -27 83 -50t104 -23q55 0 83 17q35 22 35 61
q0 28 -21 49q-16 17 -72 35l-93 31q-93 30 -132 68q-47 46 -47 123q0 100 65 161q67 63 194 63q77 0 139 -22q57 -20 107 -61zM1164 633l-75 -97q-38 25 -78 41q-42 17 -86 17q-49 0 -77 -22q-29 -24 -29 -60t35 -58q16 -10 87 -35l77 -26q88 -30 124 -66q50 -49 50 -131
q0 -90 -58 -146q-69 -66 -222 -66q-94 0 -159 25q-64 27 -116 74l82 98q33 -27 83 -50t104 -23q55 0 83 17q35 22 35 61q0 28 -21 49q-17 17 -72 35l-93 31q-93 30 -132 68q-47 46 -47 123q0 100 65 161q67 63 194 63q77 0 139 -22q57 -20 107 -61z" />
    <glyph glyph-name="uni2010" unicode="&#x2010;" horiz-adv-x="372" 
d="M50 216v114h272v-114h-272z" />
    <glyph glyph-name="uni2011" unicode="&#x2011;" horiz-adv-x="372" 
d="M50 216v114h272v-114h-272z" />
    <glyph glyph-name="figuredash" unicode="&#x2012;" horiz-adv-x="770" 
d="M70 305v106h630v-106h-630z" />
    <glyph glyph-name="endash" unicode="&#x2013;" horiz-adv-x="770" 
d="M70 220v106h630v-106h-630z" />
    <glyph glyph-name="emdash" unicode="&#x2014;" horiz-adv-x="1001" 
d="M70 326h861v-106h-861v106z" />
    <glyph glyph-name="afii00208" unicode="&#x2015;" horiz-adv-x="1001" 
d="M70 326h861v-106h-861v106z" />
    <glyph glyph-name="quoteleft" unicode="&#x2018;" horiz-adv-x="308" 
d="M205 794l53 -49q-40 -31 -63 -63q-25 -31 -33 -68q27 -4 42 -19q20 -20 20 -54q0 -37 -24 -61q-22 -21 -53 -21t-55 22q-28 28 -28 81q0 86 60 159q33 40 81 73z" />
    <glyph glyph-name="quoteright" unicode="&#x2019;" horiz-adv-x="308" 
d="M103 381l-53 49q40 31 63 63q25 31 33 68q-27 4 -42 19q-20 20 -20 54q0 37 24 61q22 21 53 21t55 -22q28 -28 28 -81q0 -87 -60 -159q-33 -40 -81 -73z" />
    <glyph glyph-name="quotesinglbase" unicode="&#x201a;" horiz-adv-x="308" 
d="M103 -189l-53 49q40 31 63 63q25 31 33 68q-27 4 -42 19q-20 20 -20 54q0 37 24 61q22 21 53 21t55 -22q28 -28 28 -81q0 -87 -60 -159q-33 -40 -81 -73z" />
    <glyph glyph-name="quotedblleft" unicode="&#x201c;" horiz-adv-x="531" 
d="M428 762l53 -49q-40 -31 -63 -63q-25 -31 -33 -68q27 -4 42 -19q20 -20 20 -54q0 -37 -24 -61q-23 -21 -53 -21q-31 0 -55 22q-28 28 -28 81q0 86 60 159q33 40 81 73zM209 762l53 -49q-40 -31 -63 -63q-25 -31 -33 -68q27 -4 42 -19q20 -20 20 -54q0 -37 -24 -61
q-22 -21 -53 -21t-55 22q-28 28 -28 81q0 86 60 159q33 40 81 73z" />
    <glyph glyph-name="quotedblright" unicode="&#x201d;" horiz-adv-x="531" 
d="M103 412l-53 49q40 31 63 63q25 31 33 68q-27 4 -42 19q-20 20 -20 54q0 37 24 61q22 21 53 21t55 -22q28 -28 28 -81q0 -86 -60 -159q-33 -40 -81 -73zM322 412l-53 49q40 31 63 63q25 31 33 68q-27 4 -42 19q-20 20 -20 54q0 37 24 61q23 21 53 21q31 0 55 -22
q28 -28 28 -81q0 -86 -60 -159q-33 -40 -81 -73z" />
    <glyph glyph-name="quotedblbase" unicode="&#x201e;" horiz-adv-x="531" 
d="M103 -189l-53 49q40 31 63 63q25 31 33 68q-27 4 -42 19q-20 20 -20 54q0 37 24 61q22 21 53 21t55 -22q28 -28 28 -81q0 -87 -60 -159q-33 -40 -81 -73zM322 -189l-53 49q40 31 63 63q25 31 33 68q-27 4 -42 19q-20 20 -20 54q0 37 24 61q23 21 53 21q31 0 55 -22
q28 -28 28 -81q0 -87 -60 -159q-33 -40 -81 -73z" />
    <glyph glyph-name="dagger" unicode="&#x2020;" horiz-adv-x="434" 
d="M148 403h-128v124h128v173h134v-173h132v-124h-132v-403h-134v403z" />
    <glyph glyph-name="daggerdbl" unicode="&#x2021;" horiz-adv-x="434" 
d="M148 335v74h-128v118h128v173h134v-173h132v-118h-132v-74h132v-118h-132v-217h-134v217h-128v118h128z" />
    <glyph glyph-name="bullet" unicode="&#x2022;" horiz-adv-x="368" 
d="M60 350q0 51 36.5 87.5t87.5 36.5t87.5 -36.5t36.5 -87.5t-36.5 -87.5t-87.5 -36.5t-87.5 36.5t-36.5 87.5z" />
    <glyph glyph-name="ellipsis" unicode="&#x2026;" horiz-adv-x="872" 
d="M60 68q0 35 24.5 59.5t59.5 24.5t59.5 -24.5t24.5 -59.5t-24.5 -59.5t-59.5 -24.5t-59.5 24.5t-24.5 59.5zM352 68q0 35 24.5 59.5t59.5 24.5t59.5 -24.5t24.5 -59.5t-24.5 -59.5t-59.5 -24.5t-59.5 24.5t-24.5 59.5zM644 68q0 35 24.5 59.5t59.5 24.5t59.5 -24.5
t24.5 -59.5t-24.5 -59.5t-59.5 -24.5t-59.5 24.5t-24.5 59.5z" />
    <glyph glyph-name="perthousand" unicode="&#x2030;" horiz-adv-x="1349" 
d="M269 -77l-67 39l452 815l70 -40zM714 298q-24 0 -39 -16q-29 -30 -29 -101t29 -101q15 -16 39 -16t39 16q29 30 29 101t-29 101q-15 16 -39 16zM884 181q0 -100 -51 -153q-43 -44 -119 -44t-119 44q-51 53 -51 153q0 101 51 152q44 45 119 45t119 -45q51 -51 51 -152z
M210 636q-24 0 -39 -16q-29 -30 -29 -101t29 -101q15 -16 39 -16t39 16q29 30 29 101t-29 101q-15 16 -39 16zM380 519q0 -100 -51 -153q-43 -44 -119 -44t-119 44q-51 53 -51 153q0 101 51 152q44 45 119 45t119 -45q51 -51 51 -152zM1139 298q-24 0 -39 -16
q-29 -30 -29 -101t29 -101q15 -16 39 -16t39 16q29 30 29 101t-29 101q-15 16 -39 16zM1309 181q0 -100 -51 -153q-43 -44 -119 -44t-119 44q-51 53 -51 153q0 101 51 152q44 45 119 45t119 -45q51 -51 51 -152z" />
    <glyph glyph-name="guilsinglleft" unicode="&#x2039;" horiz-adv-x="422" 
d="M352 35l-64 -57l-218 249l218 244l61 -62l-148 -182z" />
    <glyph glyph-name="guilsinglright" unicode="&#x203a;" horiz-adv-x="422" 
d="M70 35l151 192l-148 182l61 62l218 -244l-218 -249z" />
    <glyph glyph-name="fraction" unicode="&#x2044;" horiz-adv-x="422" 
d="M17 -77l-67 39l452 815l70 -40z" />
    <glyph glyph-name="Euro" unicode="&#x20ac;" 
d="M629 651l-62 -115q-43 29 -66 39q-41 19 -87 19q-72 0 -119 -46q-47 -47 -59 -108h272l-42 -80h-241v-40h221l-42 -80h-165q7 -57 55 -96q48 -38 111 -38q86 0 164 63l76 -106q-91 -79 -254 -79q-76 0 -133.5 17.5t-105.5 65.5q-71 69 -90 173h-107l41 80h63v40h-104
l41 80h68q20 111 94 185q90 91 246 91q81 0 137 -19q46 -16 88 -46z" />
    <glyph glyph-name="uni20B4" unicode="&#x20b4;" 
d="M122 536l-75 97q40 35 89 56q63 27 138 27q113 0 178 -52q65 -53 65 -136q0 -59 -40 -107h83v-80h-159l-54 -40h213v-80h-294q-20 -25 -20 -51t15 -41q20 -21 61 -21q43 0 83 20q37 19 69 53l82 -98q-41 -47 -98 -71q-65 -28 -155 -28q-96 0 -155 41q-70 49 -70 126
q0 36 19 70h-57v80h110l49 40h-159v80h248q27 16 44 38q25 31 25 60q0 35 -23 55t-66 20q-40 0 -86 -21q-36 -16 -60 -37z" />
    <glyph glyph-name="uni20B6" unicode="&#x20b6;" 
d="M312 700q86 0 141 -12.5t96 -52.5q61 -61 61 -152q0 -103 -59 -162q-66 -67 -233 -67h-91v-55h214v-80h-214v-119h-150v119h-87v80h87v55h-87v106h87v340h235zM227 360h61q94 0 131 35q31 30 31 77q0 59 -37 85q-30 21 -102 21h-84v-218z" />
    <glyph glyph-name="uni20B7" unicode="&#x20b7;" 
d="M312 700q86 0 141 -12.5t96 -52.5q61 -61 61 -152q0 -103 -59 -162q-66 -67 -233 -67h-91v-55h214v-80h-214v-119h-150v119h-87v80h87v55h-87v106h87v340h235zM227 360h61q94 0 131 35q31 30 31 77q0 59 -37 85q-30 21 -102 21h-84v-218z" />
    <glyph glyph-name="uni20B9" unicode="&#x20b9;" 
d="M312 700q86 0 141 -12.5t96 -52.5q61 -61 61 -152q0 -103 -59 -162q-66 -67 -233 -67h-91v-55h214v-80h-214v-119h-150v119h-87v80h87v55h-87v106h87v340h235zM227 360h61q94 0 131 35q31 30 31 77q0 59 -37 85q-30 21 -102 21h-84v-218z" />
    <glyph glyph-name="uni20BA" unicode="&#x20ba;" 
d="M312 700q86 0 141 -12.5t96 -52.5q61 -61 61 -152q0 -103 -59 -162q-66 -67 -233 -67h-91v-55h214v-80h-214v-119h-150v119h-87v80h87v55h-87v106h87v340h235zM227 360h61q94 0 131 35q31 30 31 77q0 59 -37 85q-30 21 -102 21h-84v-218z" />
    <glyph glyph-name="uni20BB" unicode="&#x20bb;" 
d="M312 700q86 0 141 -12.5t96 -52.5q61 -61 61 -152q0 -103 -59 -162q-66 -67 -233 -67h-91v-55h214v-80h-214v-119h-150v119h-87v80h87v55h-87v106h87v340h235zM227 360h61q94 0 131 35q31 30 31 77q0 59 -37 85q-30 21 -102 21h-84v-218z" />
    <glyph glyph-name="uni20BC" unicode="&#x20bc;" 
d="M312 700q86 0 141 -12.5t96 -52.5q61 -61 61 -152q0 -103 -59 -162q-66 -67 -233 -67h-91v-55h214v-80h-214v-119h-150v119h-87v80h87v55h-87v106h87v340h235zM227 360h61q94 0 131 35q31 30 31 77q0 59 -37 85q-30 21 -102 21h-84v-218z" />
    <glyph glyph-name="uni20BD" unicode="&#x20bd;" 
d="M312 700q86 0 141 -12.5t96 -52.5q61 -61 61 -152q0 -103 -59 -162q-66 -67 -233 -67h-91v-55h214v-80h-214v-119h-150v119h-87v80h87v55h-87v106h87v340h235zM227 360h61q94 0 131 35q31 30 31 77q0 59 -37 85q-30 21 -102 21h-84v-218z" />
    <glyph glyph-name="uni20BE" unicode="&#x20be;" 
d="M312 700q86 0 141 -12.5t96 -52.5q61 -61 61 -152q0 -103 -59 -162q-66 -67 -233 -67h-91v-55h214v-80h-214v-119h-150v119h-87v80h87v55h-87v106h87v340h235zM227 360h61q94 0 131 35q31 30 31 77q0 59 -37 85q-30 21 -102 21h-84v-218z" />
    <glyph glyph-name="uni20BF" unicode="&#x20bf;" 
d="M312 700q86 0 141 -12.5t96 -52.5q61 -61 61 -152q0 -103 -59 -162q-66 -67 -233 -67h-91v-55h214v-80h-214v-119h-150v119h-87v80h87v55h-87v106h87v340h235zM227 360h61q94 0 131 35q31 30 31 77q0 59 -37 85q-30 21 -102 21h-84v-218z" />
    <glyph glyph-name="uni20C0" unicode="&#x20c0;" 
d="M312 700q86 0 141 -12.5t96 -52.5q61 -61 61 -152q0 -103 -59 -162q-66 -67 -233 -67h-91v-55h214v-80h-214v-119h-150v119h-87v80h87v55h-87v106h87v340h235zM227 360h61q94 0 131 35q31 30 31 77q0 59 -37 85q-30 21 -102 21h-84v-218z" />
    <glyph glyph-name="uni20C1" unicode="&#x20c1;" 
d="M312 700q86 0 141 -12.5t96 -52.5q61 -61 61 -152q0 -103 -59 -162q-66 -67 -233 -67h-91v-55h214v-80h-214v-119h-150v119h-87v80h87v55h-87v106h87v340h235zM227 360h61q94 0 131 35q31 30 31 77q0 59 -37 85q-30 21 -102 21h-84v-218z" />
    <glyph glyph-name="uni20C2" unicode="&#x20c2;" 
d="M312 700q86 0 141 -12.5t96 -52.5q61 -61 61 -152q0 -103 -59 -162q-66 -67 -233 -67h-91v-55h214v-80h-214v-119h-150v119h-87v80h87v55h-87v106h87v340h235zM227 360h61q94 0 131 35q31 30 31 77q0 59 -37 85q-30 21 -102 21h-84v-218z" />
    <glyph glyph-name="uni20C3" unicode="&#x20c3;" 
d="M312 700q86 0 141 -12.5t96 -52.5q61 -61 61 -152q0 -103 -59 -162q-66 -67 -233 -67h-91v-55h214v-80h-214v-119h-150v119h-87v80h87v55h-87v106h87v340h235zM227 360h61q94 0 131 35q31 30 31 77q0 59 -37 85q-30 21 -102 21h-84v-218z" />
    <glyph glyph-name="uni20C4" unicode="&#x20c4;" 
d="M312 700q86 0 141 -12.5t96 -52.5q61 -61 61 -152q0 -103 -59 -162q-66 -67 -233 -67h-91v-55h214v-80h-214v-119h-150v119h-87v80h87v55h-87v106h87v340h235zM227 360h61q94 0 131 35q31 30 31 77q0 59 -37 85q-30 21 -102 21h-84v-218z" />
    <glyph glyph-name="uni20C5" unicode="&#x20c5;" 
d="M312 700q86 0 141 -12.5t96 -52.5q61 -61 61 -152q0 -103 -59 -162q-66 -67 -233 -67h-91v-55h214v-80h-214v-119h-150v119h-87v80h87v55h-87v106h87v340h235zM227 360h61q94 0 131 35q31 30 31 77q0 59 -37 85q-30 21 -102 21h-84v-218z" />
    <glyph glyph-name="uni20C6" unicode="&#x20c6;" 
d="M312 700q86 0 141 -12.5t96 -52.5q61 -61 61 -152q0 -103 -59 -162q-66 -67 -233 -67h-91v-55h214v-80h-214v-119h-150v119h-87v80h87v55h-87v106h87v340h235zM227 360h61q94 0 131 35q31 30 31 77q0 59 -37 85q-30 21 -102 21h-84v-218z" />
    <glyph glyph-name="uni20C7" unicode="&#x20c7;" 
d="M312 700q86 0 141 -12.5t96 -52.5q61 -61 61 -152q0 -103 -59 -162q-66 -67 -233 -67h-91v-55h214v-80h-214v-119h-150v119h-87v80h87v55h-87v106h87v340h235zM227 360h61q94 0 131 35q31 30 31 77q0 59 -37 85q-30 21 -102 21h-84v-218z" />
    <glyph glyph-name="uni20C8" unicode="&#x20c8;" 
d="M312 700q86 0 141 -12.5t96 -52.5q61 -61 61 -152q0 -103 -59 -162q-66 -67 -233 -67h-91v-55h214v-80h-214v-119h-150v119h-87v80h87v55h-87v106h87v340h235zM227 360h61q94 0 131 35q31 30 31 77q0 59 -37 85q-30 21 -102 21h-84v-218z" />
    <glyph glyph-name="uni20C9" unicode="&#x20c9;" 
d="M312 700q86 0 141 -12.5t96 -52.5q61 -61 61 -152q0 -103 -59 -162q-66 -67 -233 -67h-91v-55h214v-80h-214v-119h-150v119h-87v80h87v55h-87v106h87v340h235zM227 360h61q94 0 131 35q31 30 31 77q0 59 -37 85q-30 21 -102 21h-84v-218z" />
    <glyph glyph-name="uni20CA" unicode="&#x20ca;" 
d="M312 700q86 0 141 -12.5t96 -52.5q61 -61 61 -152q0 -103 -59 -162q-66 -67 -233 -67h-91v-55h214v-80h-214v-119h-150v119h-87v80h87v55h-87v106h87v340h235zM227 360h61q94 0 131 35q31 30 31 77q0 59 -37 85q-30 21 -102 21h-84v-218z" />
    <glyph glyph-name="uni20CB" unicode="&#x20cb;" 
d="M312 700q86 0 141 -12.5t96 -52.5q61 -61 61 -152q0 -103 -59 -162q-66 -67 -233 -67h-91v-55h214v-80h-214v-119h-150v119h-87v80h87v55h-87v106h87v340h235zM227 360h61q94 0 131 35q31 30 31 77q0 59 -37 85q-30 21 -102 21h-84v-218z" />
    <glyph glyph-name="uni20CC" unicode="&#x20cc;" 
d="M312 700q86 0 141 -12.5t96 -52.5q61 -61 61 -152q0 -103 -59 -162q-66 -67 -233 -67h-91v-55h214v-80h-214v-119h-150v119h-87v80h87v55h-87v106h87v340h235zM227 360h61q94 0 131 35q31 30 31 77q0 59 -37 85q-30 21 -102 21h-84v-218z" />
    <glyph glyph-name="uni20CD" unicode="&#x20cd;" 
d="M312 700q86 0 141 -12.5t96 -52.5q61 -61 61 -152q0 -103 -59 -162q-66 -67 -233 -67h-91v-55h214v-80h-214v-119h-150v119h-87v80h87v55h-87v106h87v340h235zM227 360h61q94 0 131 35q31 30 31 77q0 59 -37 85q-30 21 -102 21h-84v-218z" />
    <glyph glyph-name="uni20CE" unicode="&#x20ce;" 
d="M312 700q86 0 141 -12.5t96 -52.5q61 -61 61 -152q0 -103 -59 -162q-66 -67 -233 -67h-91v-55h214v-80h-214v-119h-150v119h-87v80h87v55h-87v106h87v340h235zM227 360h61q94 0 131 35q31 30 31 77q0 59 -37 85q-30 21 -102 21h-84v-218z" />
    <glyph glyph-name="uni20CF" unicode="&#x20cf;" 
d="M312 700q86 0 141 -12.5t96 -52.5q61 -61 61 -152q0 -103 -59 -162q-66 -67 -233 -67h-91v-55h214v-80h-214v-119h-150v119h-87v80h87v55h-87v106h87v340h235zM227 360h61q94 0 131 35q31 30 31 77q0 59 -37 85q-30 21 -102 21h-84v-218z" />
    <glyph glyph-name="afii61352" unicode="&#x2116;" horiz-adv-x="1038" 
d="M232 463v-463h-146v700h133l266 -462v210q0 42 1.5 68.5t16.5 72t43 72.5q58 56 201 56h2l30 -124h-8q-79 0 -111 -32q-15 -15 -23 -40.5t-9 -45t-1 -58.5v-417h-130zM716 91v76h238v-76h-238zM978 379q0 -78 -43 -121q-37 -38 -100 -38t-100 38q-43 43 -43 121t43 121
q37 38 100 38t100 -38q43 -43 43 -121zM835 468q-19 0 -30 -11q-23 -21 -23 -78t23 -78q11 -11 30 -11t30 11q23 21 23 78t-23 78q-11 11 -30 11z" />
    <glyph glyph-name="uni2117" unicode="&#x2117;" horiz-adv-x="812" 
d="M374 312v-149h-92v385h156q78 0 112 -34q31 -31 31 -88q0 -52 -30 -82q-33 -32 -112 -32h-65zM374 478v-96h46q36 0 51 13q14 12 14 36q0 22 -12 33q-15 14 -51 14h-48zM406 638q-119 0 -203 -84q-39 -39 -62 -93.5t-23 -110.5t23 -110.5t62 -93.5q84 -84 203 -84t203 84
q39 39 62 93.5t23 110.5t-23 110.5t-62 93.5q-84 84 -203 84zM772 350q0 -69 -27 -137.5t-79 -120.5q-51 -51 -120 -79.5t-140 -28.5t-140 28.5t-120 79.5q-52 52 -79 120.5t-27 137.5t27 137.5t79 120.5q51 51 120 79.5t140 28.5t140 -28.5t120 -79.5q52 -52 79 -120.5
t27 -137.5z" />
    <glyph glyph-name="trademark" unicode="&#x2122;" horiz-adv-x="639" 
d="M114 636h-74v64h226v-64h-74v-167h-78v167zM452 580l46 120h101v-231h-74v158l-50 -119h-46l-49 119v-158h-74v231h97z" />
    <glyph glyph-name="partialdiff" unicode="&#x2202;" horiz-adv-x="627" 
d="M234 593l-23 97q53 26 122 26q109 0 171 -61q78 -76 78 -233q0 -102 -28 -193q-32 -102 -92 -165q-45 -47 -92.5 -62t-104.5 -15q-114 0 -173 56q-62 58 -62 154q0 70 30 131t81 99q64 47 158 47q74 0 118 -32q42 -30 54 -80h6q18 138 -47 206q-41 44 -112 44
q-44 0 -84 -19zM317 374q-44 0 -76 -30q-28 -26 -44.5 -71t-16.5 -88q0 -48 23 -73q22 -23 58 -23q43 0 75 31q27 26 44 70t17 88q0 51 -24 75q-20 21 -56 21z" />
    <glyph glyph-name="product" unicode="&#x220f;" horiz-adv-x="732" 
d="M236 576v-768h-150v892h560v-892h-150v768h-260z" />
    <glyph glyph-name="summation" unicode="&#x2211;" horiz-adv-x="540" 
d="M502 576h-294l184 -248v-102l-186 -294h304v-124h-460v106l231 366l-231 314v106h452v-124z" />
    <glyph glyph-name="minus" unicode="&#x2212;" horiz-adv-x="726" 
d="M48 412h630v-124h-630v124z" />
    <glyph glyph-name="uni2215" unicode="&#x2215;" horiz-adv-x="704" 
d="M140 -198l-72 43l522 871l74 -46z" />
    <glyph glyph-name="uni2219" unicode="&#x2219;" horiz-adv-x="268" 
d="M50 253q0 35 24.5 59.5t59.5 24.5t59.5 -24.5t24.5 -59.5t-24.5 -59.5t-59.5 -24.5t-59.5 24.5t-24.5 59.5z" />
    <glyph glyph-name="radical" unicode="&#x221a;" horiz-adv-x="703" 
d="M117 473h-92v92h189l127 -448l218 633h120l-271 -790h-144z" />
    <glyph glyph-name="infinity" unicode="&#x221e;" horiz-adv-x="756" 
d="M457 269l12 -14q22 -25 40 -38q26 -19 55 -19t48 19t19 52q0 32 -20 52q-19 19 -47 19t-56 -22q-1 -1 -7 -6t-15.5 -13.5t-17.5 -17.5zM378 223l-20 -24q-31 -36 -60 -56q-46 -31 -103 -31q-74 0 -119 43q-46 43 -46 113q0 67 44 113q43 44 115 44q59 0 105 -31
q23 -15 65 -59l19 -20l19 20q42 44 65 59q46 31 105 31q71 0 116 -44q43 -43 43 -111q0 -71 -42 -115q-43 -43 -123 -43q-59 0 -103 31q-32 21 -60 56zM299 269l-11 12q-8 9 -17.5 17.5t-15.5 13.5t-7 6q-28 22 -56 22t-47 -19q-20 -20 -20 -52q0 -33 19 -52t48 -19t55 19
q18 13 40 38z" />
    <glyph glyph-name="integral" unicode="&#x222b;" horiz-adv-x="430" 
d="M428 690l-33 -93q-27 11 -51 11q-31 0 -48 -19q-18 -20 -18 -85v-513q0 -110 -45 -154q-42 -42 -124 -42q-56 0 -107 20l35 93q24 -11 51 -11q33 0 48 19q16 19 16 85v512q0 109 45 154q43 43 124 43q59 0 107 -20z" />
    <glyph glyph-name="approxequal" unicode="&#x2248;" horiz-adv-x="664" 
d="M530 503l64 -35q-24 -46 -52 -74q-45 -46 -112 -46q-43 0 -96 25l-37 18q-44 21 -75 21q-25 0 -47 -13q-23 -15 -41 -39l-64 35q28 44 54 69q48 46 109 46q38 0 93 -25l35 -16q52 -24 82 -24q34 0 56 19q16 13 31 39zM530 318l64 -35q-24 -46 -52 -74q-45 -46 -112 -46
q-43 0 -96 25l-37 18q-44 21 -75 21q-25 0 -47 -13q-23 -15 -41 -39l-64 35q28 44 54 69q48 46 109 46q38 0 93 -25l35 -16q52 -24 82 -24q34 0 56 19q16 13 31 39z" />
    <glyph glyph-name="notequal" unicode="&#x2260;" horiz-adv-x="710" 
d="M40 186v116h227l52 96h-279v116h342l79 145l87 -40l-57 -105h179v-116h-242l-52 -96h294v-116h-357l-76 -140l-87 41l54 99h-164z" />
    <glyph glyph-name="lessequal" unicode="&#x2264;" horiz-adv-x="706" 
d="M60 0v80h586v-80h-586zM620 670l26 -80l-516 -190l516 -191l-26 -80l-560 213v116z" />
    <glyph glyph-name="greaterequal" unicode="&#x2265;" horiz-adv-x="706" 
d="M646 0h-586v80h586v-80zM86 670l560 -212v-116l-560 -213l-26 80l516 191l-516 190z" />
    <glyph glyph-name="dotmath" unicode="&#x22c5;" horiz-adv-x="268" 
d="M50 253q0 35 24.5 59.5t59.5 24.5t59.5 -24.5t24.5 -59.5t-24.5 -59.5t-59.5 -24.5t-59.5 24.5t-24.5 59.5z" />
    <glyph glyph-name="lozenge" unicode="&#x25ca;" horiz-adv-x="446" 
d="M194 700h57l165 -348l-165 -352h-57l-164 352zM324 353l-102 230l-100 -230l101 -236z" />
    <glyph glyph-name="openbullet" unicode="&#x25e6;" horiz-adv-x="354" 
d="M60 600q0 49 34 83t83 34t83 -34t34 -83t-34 -83t-83 -34t-83 34t-34 83zM119 600q0 -24 17 -41t41 -17t41 17t17 41t-17 41t-41 17t-41 -17t-17 -41z" />
    <glyph glyph-name="uniF400" unicode="&#xf400;" horiz-adv-x="2" 
d="M-249 700h126l-116 -163h-82z" />
    <glyph glyph-name="uniF401" unicode="&#xf401;" horiz-adv-x="2" 
d="M-342 910h138l-109 -141h-94z" />
    <glyph glyph-name="uniF406" unicode="&#xf406;" horiz-adv-x="566" 
d="M372 946l94 -20q-11 -87 -66 -127q-43 -30 -117 -30t-117 30q-55 40 -66 127l95 20q7 -52 36 -72q19 -13 52 -13q34 0 52 13q26 18 37 72z" />
    <glyph glyph-name="uniF407" unicode="&#xf407;" horiz-adv-x="434" 
d="M164 -99l21 90h57l-8 -39q51 0 78 -27q22 -23 22 -57q0 -47 -35 -74q-30 -22 -83 -22q-41 0 -67 8q-24 7 -49 25l32 52q31 -23 70 -23q23 0 36 8q15 10 15 28q0 19 -18 27q-12 6 -41 6q-16 0 -30 -2z" />
    <glyph glyph-name="uniF408" unicode="&#xf408;" horiz-adv-x="363" 
d="M180 844l-62 -75h-88l91 141h118l94 -141h-88z" />
    <glyph glyph-name="uniF409" unicode="&#xf409;" horiz-adv-x="292" 
d="M112 -61h113q2 -52 -13 -96q-20 -62 -80 -110l-66 26q32 45 41 86q5 26 5 74v20z" />
    <glyph glyph-name="uniF40A" unicode="&#xf40a;" horiz-adv-x="249" 
d="M90 700h119q0 -51 -17 -102q-23 -68 -76 -118l-76 21q36 53 45 109q5 30 5 84v6z" />
    <glyph glyph-name="uniF40B" unicode="&#xf40b;" horiz-adv-x="364" 
d="M100 854q0 34 24 58t58 24t58 -24t24 -58t-24 -58t-58 -24t-58 24t-24 58z" />
    <glyph glyph-name="uniF40C" unicode="&#xf40c;" horiz-adv-x="410" 
d="M160 863q0 -19 13 -32t32 -13t32 13t13 32t-13 32t-32 13t-32 -13t-13 -32zM100 863q0 44 30.5 74.5t74.5 30.5t74.5 -30.5t30.5 -74.5t-30.5 -74.5t-74.5 -30.5t-74.5 30.5t-30.5 74.5z" />
    <glyph glyph-name="uniF40D" unicode="&#xf40d;" horiz-adv-x="415" 
d="M87 784l-57 43q21 34 40 50q26 23 70 23q34 0 68 -17l21 -10q27 -13 44 -13q21 0 32 9q8 5 23 26l57 -43q-20 -37 -42 -54q-24 -20 -66 -20q-35 0 -69 16l-21 10q-31 14 -46 14q-18 0 -32 -11q-12 -10 -22 -23z" />
    <glyph glyph-name="uniF40E" unicode="&#xf40e;" horiz-adv-x="438" 
d="M176 0h72q-29 -29 -46 -50q-24 -31 -24 -52q0 -18 12 -28t30 -10q17 0 33 10t26 26l53 -40q-20 -30 -47 -45q-29 -17 -74 -17q-49 0 -78 23q-33 27 -33 67q0 33 26 66q21 27 50 50z" />
    <glyph glyph-name="uniF47E" unicode="&#xf47e;" horiz-adv-x="744" 
d="M658 700v-392q0 -60 -2.5 -96.5t-18 -83.5t-45.5 -77q-67 -67 -220 -67t-220 67q-30 30 -45.5 77t-18 83.5t-2.5 96.5v392h150v-390v-13q0 -43 1 -64.5t10 -49.5t27 -44q32 -29 98 -29t98 29q18 16 27 44t10 49.5t1 64.5v13v390h150zM290 854q0 34 24 58t58 24t58 -24
t24 -58t-24 -58t-58 -24t-58 24t-24 58z" />
    <glyph glyph-name="uniF47F" unicode="&#xf47f;" horiz-adv-x="598" 
d="M524 0h-132v53h-5q-23 -29 -58 -46q-36 -18 -84 -18q-80 0 -121 38q-23 21 -34.5 54t-13.5 56.5t-2 61.5v268h136v-256q0 -63 12 -84q16 -28 56 -28q34 0 62 18t48 49v301h136v-467zM217 648q0 34 24 58t58 24t58 -24t24 -58t-24 -58t-58 -24t-58 24t-24 58z" />
    <glyph glyph-name="uniF481" unicode="&#xf481;" horiz-adv-x="732" 
d="M434 700l294 -700h-156l-65 165h-282l-65 -165h-156l294 700h136zM271 285h189l-95 241zM313 -99l21 90h57l-8 -39q51 0 78 -27q22 -23 22 -57q0 -47 -35 -74q-30 -22 -83 -22q-41 0 -67 8q-24 7 -49 25l32 52q31 -23 70 -23q23 0 36 8q15 10 15 28q0 19 -18 27
q-12 6 -41 6q-16 0 -30 -2z" />
    <glyph glyph-name="uniF482" unicode="&#xf482;" horiz-adv-x="546" 
d="M109 340l-52 82q85 58 213 58q109 0 156 -50q42 -44 42 -132v-146q0 -37 10 -49q13 -15 40 -10l-16 -105q-77 -14 -117 16q-26 20 -37 57q-22 -27 -46 -42q-30 -19 -58 -24l-11 -38q54 0 79 -26q19 -21 19 -46q0 -42 -37 -69q-29 -21 -82 -21q-34 0 -65 9q-28 8 -46 18
l32 52q32 -23 71 -23q21 0 36 9q14 10 14 27t-19 25q-26 11 -70 4l21 75q-74 0 -116 43q-38 40 -38 95q0 59 41 100q40 42 123 56q64 11 139 11v10q0 36 -17 53q-20 21 -65 21q-70 0 -144 -40zM335 148v70q-53 -2 -87 -9q-47 -9 -67 -30q-15 -15 -15 -38q0 -24 16 -38
q15 -14 44 -14q35 0 64 18q23 14 45 41z" />
    <glyph glyph-name="uniF483" unicode="&#xf483;" horiz-adv-x="584" 
d="M355 576h-297v124h487v-86l-339 -490h342v-124h-522v90zM260 863q0 -19 13 -32t32 -13t32 13t13 32t-13 32t-32 13t-32 -13t-13 -32zM200 863q0 44 30.5 74.5t74.5 30.5t74.5 -30.5t30.5 -74.5t-30.5 -74.5t-74.5 -30.5t-74.5 30.5t-30.5 74.5z" />
    <glyph glyph-name="uniF484" unicode="&#xf484;" horiz-adv-x="497" 
d="M281 357h-230v110h410v-84l-249 -273h244v-110h-420v84zM213 630q0 -19 13 -32t32 -13t32 13t13 32t-13 32t-32 13t-32 -13t-13 -32zM155 630q0 43 30 73t73 30t73 -30t30 -73t-30 -73t-73 -30t-73 30t-30 73z" />
    <glyph glyph-name="uniF4C4" unicode="&#xf4c4;" horiz-adv-x="568" 
d="M359 576v-576h-46l-7 -51q53 -3 77 -27q23 -23 23 -57q0 -37 -26 -63q-30 -30 -100 -30q-36 0 -64 7q-24 6 -43 16l31 56q14 -9 29 -12q17 -5 39 -5q29 0 42 11q11 9 11 24q0 20 -18 28q-15 6 -39 6q-18 0 -32 -2l17 99h-44v576h-195v124h540v-124h-195z" />
    <glyph glyph-name="uniF4C5" unicode="&#xf4c5;" horiz-adv-x="452" 
d="M440 467v-114h-146v-353h-39l-11 -43q54 0 79 -26q19 -21 19 -46q0 -42 -37 -69q-29 -21 -80 -21q-35 0 -67 9q-28 8 -46 18l32 52q32 -23 71 -23q21 0 36 9q14 10 14 27t-19 25q-26 11 -70 4l22 84h-40v353h-146v114h428z" />
    <glyph glyph-name="uniF4C8" unicode="&#xf4c8;" horiz-adv-x="680" 
d="M637 641l-75 -105q-43 29 -66 39q-41 19 -87 19q-73 0 -119 -46q-70 -70 -70 -212q0 -126 63 -186q46 -44 117 -44q86 0 164 63l76 -106q-42 -38 -98 -56q-53 -18 -119 -23l-5 -35q53 -3 77 -27q23 -23 23 -57q0 -37 -26 -63q-30 -30 -100 -30q-36 0 -64 7q-24 6 -43 16
l31 56q14 -9 29 -12q17 -5 39 -5q29 0 42 11q11 9 11 24q0 20 -18 28q-15 6 -39 6q-18 0 -32 -2l16 83q-131 -1 -217 83q-97 95 -97 268q0 186 103 290q91 91 246 91q80 0 137 -19q56 -20 101 -56z" />
    <glyph glyph-name="uniF4C9" unicode="&#xf4c9;" horiz-adv-x="525" 
d="M413 139l82 -72q-65 -74 -170 -76l-9 -34q54 0 79 -26q19 -21 19 -46q0 -42 -37 -69q-29 -21 -80 -21q-35 0 -67 9q-28 8 -46 18l32 52q32 -23 71 -23q21 0 36 9q14 10 14 27t-19 25q-26 11 -70 4l20 74q-114 -3 -177 75q-51 61 -51 157q0 120 69 189t192 69
q112 0 177 -56l-65 -85q-47 35 -96 35q-54 0 -86 -30q-41 -38 -41 -119q0 -69 35 -104q28 -28 84 -28q60 0 104 46z" />
    <glyph glyph-name="uniF4CC" unicode="&#xf4cc;" horiz-adv-x="637" 
d="M337 374l134 326h152l-223 -532q-42 -102 -93 -144q-53 -42 -137 -42q-51 0 -86 13l-14 120q35 -11 67 -11q46 0 71 18q25 17 41 55l13 31l-252 492h160zM280 910h138l-109 -141h-94z" />
    <glyph glyph-name="uniF4CD" unicode="&#xf4cd;" horiz-adv-x="522" 
d="M272 166l91 301h143l-174 -493q-32 -91 -68 -129q-49 -50 -145 -50q-33 0 -60 7l-12 104q23 -7 46 -7q38 0 61 17q25 20 40 64l13 38l-191 449h145zM294 700h126l-116 -163h-82z" />
    <glyph glyph-name="dollar.fitted" unicode="&#xf5f5;" horiz-adv-x="588" 
d="M538 633l-75 -97q-56 43 -116 53v-181q123 -35 169 -81q50 -49 50 -131q0 -92 -58 -146q-61 -58 -161 -64v-76h-98v75q-64 3 -123 28q-60 25 -104 70l81 98q26 -26 66 -47q40 -20 80 -25v179q-71 23 -107.5 39.5t-61.5 41.5q-47 47 -47 124q0 97 65 160q61 59 151 61v76
h98v-77q53 -5 103 -28q44 -20 88 -52zM347 266v-159q35 0 57 20q24 23 24 62q0 34 -21 52q-23 21 -60 25zM249 432v156q-32 -1 -54 -21q-24 -21 -24 -59q0 -36 25 -55q22 -15 53 -21z" />
    <glyph glyph-name="Euro.fitted" unicode="&#xf5f6;" horiz-adv-x="744" 
d="M693 651l-62 -115q-43 29 -66 39q-41 19 -87 19q-72 0 -119 -46q-47 -47 -59 -108h272l-42 -80h-241v-40h221l-42 -80h-165q7 -57 55 -96q48 -38 111 -38q86 0 164 63l76 -106q-91 -79 -254 -79q-76 0 -133.5 17.5t-105.5 65.5q-71 69 -90 173h-107l41 80h63v40h-104
l41 80h68q20 111 94 185q90 91 246 91q81 0 137 -19q46 -16 88 -46z" />
    <glyph glyph-name="cent.fitted" unicode="&#xf5f7;" horiz-adv-x="503" 
d="M408 134l76 -72q-57 -65 -143 -68v-84h-98v77q-108 -1 -171 77q-51 62 -51 158q0 117 70 189q61 61 152 67v79h98v-80q81 -3 142 -56l-68 -81q-34 26 -78 31v-274q43 6 71 37zM247 95v272q-44 -12 -66 -49q-22 -35 -22 -93q0 -60 24 -92q23 -32 64 -38z" />
    <glyph glyph-name="sterling.fitted" unicode="&#xf5f8;" horiz-adv-x="599" 
d="M107 -7l-62 93q86 48 86 125q0 42 -10 73h-91v106h66q-22 66 -22 118q0 54 20 94.5t47 61.5t64.5 33.5t63.5 15.5t52 3q71 0 124 -24q49 -22 87 -66l-85 -85q-51 59 -119 59q-59 0 -86.5 -30t-27.5 -77q0 -32 22 -103h140v-106h-116q6 -24 6 -47q0 -60 -47 -103l2 -3
q26 12 57 12q24 0 61 -15l22 -9q30 -13 58 -13q43 0 69 39l81 -77q-62 -82 -152 -82q-47 0 -95 17l-29 10q-54 18 -78 18q-56 0 -108 -38z" />
    <glyph glyph-name="yen.fitted" unicode="&#xf5f9;" horiz-adv-x="630" 
d="M314 409l131 291h160l-216 -418h144v-80h-144v-45h144v-80h-144v-77h-150v77h-144v80h144v45h-144v80h144l-214 418h160z" />
    <glyph glyph-name="florin.fitted" unicode="&#xf5fa;" horiz-adv-x="689" 
d="M318 467l12 58q22 112 87 154q48 31 128 31q82 0 135 -28l-47 -96q-39 18 -76 18q-40 0 -63 -23q-20 -20 -29 -61l-11 -53h138l-23 -108h-138l-75 -355q-9 -43 -16 -68t-26.5 -58.5t-48.5 -52.5q-46 -30 -130 -30q-70 0 -125 31l51 99q31 -21 70 -21q36 0 54 19
q20 20 37 95l73 341h-90l23 108h90z" />
    <glyph glyph-name="uni20B4.fitted" unicode="&#xf5fb;" horiz-adv-x="566" 
d="M105 536l-75 97q40 35 89 56q63 27 138 27q113 0 178 -52q65 -53 65 -136q0 -59 -40 -107h83v-80h-159l-54 -40h213v-80h-294q-20 -25 -20 -51t15 -41q20 -21 61 -21q43 0 83 20q37 19 69 53l82 -98q-41 -47 -98 -71q-65 -28 -155 -28q-96 0 -155 41q-70 49 -70 126
q0 36 19 70h-57v80h110l49 40h-159v80h248q27 16 44 38q25 31 25 60q0 35 -23 55t-66 20q-40 0 -86 -21q-36 -16 -60 -37z" />
    <glyph glyph-name="uni20B6.fitted" unicode="&#xf5fc;" horiz-adv-x="655" 
d="M344 700q86 0 141 -12.5t96 -52.5q61 -61 61 -152q0 -103 -59 -162q-66 -67 -233 -67h-91v-55h214v-80h-214v-119h-150v119h-87v80h87v55h-87v106h87v340h235zM259 360h61q94 0 131 35q31 30 31 77q0 59 -37 85q-30 21 -102 21h-84v-218z" />
    <glyph glyph-name="numbersign.fitted" unicode="&#xf5ff;" horiz-adv-x="864" 
d="M593 0h-134l29 154h-186l-29 -154h-134l29 154h-146l22 114h146l30 165h-146l22 114h146l29 153h134l-29 -153h186l28 153h134l-28 -153h146l-22 -114h-146l-30 -165h146l-22 -114h-146zM324 268h186l30 165h-186z" />
    <glyph glyph-name="uniF639" unicode="&#xf639;" horiz-adv-x="584" 
d="M292 594q-29 0 -47 -18q-45 -45 -45 -226t45 -226q18 -18 47 -18t47 18q45 45 45 226t-45 226q-18 18 -47 18zM550 350q0 -216 -88 -305q-60 -61 -170 -61t-170 61q-88 89 -88 305t88 305q60 61 170 61t170 -61q88 -89 88 -305z" />
    <glyph glyph-name="uniF63A" unicode="&#xf63a;" horiz-adv-x="572" 
d="M283 124h249v-124h-464v101q80 70 121 111q76 74 125 140q54 74 54 140q0 48 -28 76q-26 26 -66 26q-44 0 -72 -30q-21 -22 -39 -69l-133 57q30 84 98 127q58 37 150 37q124 0 190 -63t66 -164q0 -71 -34 -132t-101 -129q-53 -53 -116 -104z" />
    <glyph glyph-name="uniF63B" unicode="&#xf63b;" horiz-adv-x="580" 
d="M170 500l-124 47q21 66 63 108q61 61 181 61q108 0 169 -46q67 -50 67 -142q0 -68 -35 -109q-33 -39 -84 -50v-3q58 -12 95 -48q45 -45 45 -121q0 -89 -58 -147q-66 -66 -219 -66q-55 0 -92.5 8.5t-73.5 36.5q-51 39 -77 102l123 67q18 -41 38 -61q30 -31 81 -31
q53 0 81 28q27 27 27 68q0 43 -28 69t-88 26h-39v124h21q59 0 89 22q33 24 33 70q0 35 -23 58q-24 23 -64 23q-45 0 -71 -27q-22 -23 -37 -67z" />
    <glyph glyph-name="uniF63C" unicode="&#xf63c;" horiz-adv-x="530" 
d="M292 134h-281v95l255 471h172v-452h63v-114h-63v-134h-146v134zM292 531l-149 -283h149v283z" />
    <glyph glyph-name="uniF63D" unicode="&#xf63d;" horiz-adv-x="550" 
d="M89 700h358v-124h-237l-12 -145q45 32 109 32q97 0 153 -60q59 -62 59 -169q0 -119 -68 -187q-39 -39 -85 -51t-107 -12q-97 0 -148 35q-55 38 -80 107l133 59q12 -43 33 -64q24 -25 63 -25q42 0 66 31q27 36 27 106q0 74 -35 106q-24 22 -61 22q-53 0 -85 -43h-113z" />
    <glyph glyph-name="uniF63E" unicode="&#xf63e;" horiz-adv-x="542" 
d="M492 600l-121 -61q-11 32 -31 48q-21 17 -54 17q-40 0 -65 -23q-26 -24 -38.5 -80t-13.5 -108q42 69 137 69q86 0 136 -49q68 -66 68 -181q0 -123 -68 -189q-61 -59 -171 -59q-103 0 -161 59q-76 80 -76 268q0 97 20 187q24 110 76 161q58 57 167 57q75 0 122 -28
q51 -31 73 -88zM272 348q-29 0 -49 -19q-30 -29 -30 -106t30 -106q20 -19 49 -19q31 0 50 19q30 29 30 106t-30 106q-19 19 -50 19z" />
    <glyph glyph-name="uniF63F" unicode="&#xf63f;" horiz-adv-x="459" 
d="M306 576h-276v124h412v-98q-69 -123 -121 -280q-55 -167 -65 -322h-148q17 155 76 309q45 119 122 267z" />
    <glyph glyph-name="uniF640" unicode="&#xf640;" horiz-adv-x="580" 
d="M290 608q-35 0 -56 -21q-26 -26 -26 -74t26 -74q21 -21 56 -21t56 21q26 26 26 74t-26 74q-21 21 -56 21zM290 310q-35 0 -61 -24q-29 -28 -29 -81t29 -81q24 -24 62 -24q36 0 60 24q29 29 29 81q0 53 -29 81q-24 24 -61 24zM290 -16q-137 0 -198 59q-58 56 -58 158
q0 82 50 130q31 30 75 41q-51 13 -78 54t-27 103q0 80 49 128q60 59 187 59t187 -59q49 -48 49 -128q0 -62 -27 -103t-78 -54q44 -11 75 -41q50 -48 50 -130q0 -102 -58 -158q-61 -59 -198 -59z" />
    <glyph glyph-name="uniF641" unicode="&#xf641;" horiz-adv-x="542" 
d="M56 101l110 62q13 -30 30 -47q21 -20 56 -20q39 0 63 23q24 21 39 85q11 49 14 99q-43 -61 -131 -61q-86 0 -139 49q-66 61 -66 172q0 126 74 195q61 58 163 58q105 0 164 -59q75 -75 75 -267q0 -100 -19 -187q-24 -111 -76 -163q-56 -56 -162 -56q-78 0 -120 27
q-47 29 -75 90zM268 352q32 0 51 19q30 29 30 106t-30 106q-19 19 -51 19q-30 0 -50 -19q-30 -29 -30 -106t30 -106q20 -19 50 -19z" />
    <glyph glyph-name="uniF643" unicode="&#xf643;" 
d="M300 -15q-104 0 -164 54q-76 68 -76 210q0 139 76 207q60 54 164 54t164 -54q76 -68 76 -207q0 -142 -76 -210q-60 -54 -164 -54zM224 246q0 -50 10 -86q11 -39 31 -53q11 -8 35 -8t35 8q20 14 31 53q10 36 10 86t-10 86q-11 39 -31 53q-11 8 -35 8t-35 -8
q-20 -14 -31 -53q-10 -36 -10 -86z" />
    <glyph glyph-name="uniF644" unicode="&#xf644;" 
d="M254 0v313q-39 -37 -92 -62l-53 74q66 42 101 77q45 45 70 98h120v-500h-146z" />
    <glyph glyph-name="uniF645" unicode="&#xf645;" 
d="M330 124h193v-124h-434v98q171 91 218 131q58 48 58 95q0 31 -21 48t-51 17q-40 0 -62 -22q-15 -15 -37 -61l-117 59q37 78 94 112q55 33 152 33q77 0 133 -40q67 -48 67 -133q0 -83 -83 -149q-38 -30 -110 -64z" />
    <glyph glyph-name="uniF646" unicode="&#xf646;" 
d="M173 294l-124 47q20 64 62 106q63 63 182 63q106 0 167 -46q69 -51 69 -142q0 -59 -35 -100q-31 -36 -84 -50v-3q53 -10 95 -48q45 -40 45 -113q0 -105 -86 -168q-62 -45 -187 -45q-57 0 -95.5 8t-74.5 36q-51 39 -77 103l123 67q18 -41 38 -61q30 -31 81 -31q53 0 81 28
q27 27 27 68q0 35 -28 61t-88 26h-39v124h21q59 0 92 24q30 23 30 59q0 35 -23 58q-24 23 -64 23q-45 0 -73 -30q-20 -21 -35 -64z" />
    <glyph glyph-name="uniF647" unicode="&#xf647;" 
d="M321 0h-281v95l255 405h172v-386h63v-114h-63v-205h-146v205zM321 362l-149 -248h149v248z" />
    <glyph glyph-name="uniF648" unicode="&#xf648;" 
d="M127 500h358v-124h-237l-12 -141q45 32 109 32q97 0 153 -60q59 -62 59 -162q0 -119 -68 -187q-39 -39 -85 -51t-107 -12q-97 0 -148 35q-55 38 -80 107l133 59q12 -43 33 -64q24 -25 63 -25q42 0 66 31q27 36 27 106q0 67 -35 99q-24 22 -61 22q-53 0 -85 -43h-113z" />
    <glyph glyph-name="uniF649" unicode="&#xf649;" 
d="M528 600l-121 -61q-11 32 -31 48q-21 17 -54 17q-40 0 -65 -23q-26 -24 -38.5 -80t-13.5 -108q42 69 137 69q86 0 136 -49q68 -66 68 -181q0 -123 -68 -189q-61 -59 -171 -59q-103 0 -161 59q-76 80 -76 268q0 97 20 187q24 110 76 161q58 57 167 57q75 0 122 -28
q51 -31 73 -88zM308 348q-29 0 -49 -19q-30 -29 -30 -106t30 -106q20 -19 49 -19q31 0 50 19q30 29 30 106t-30 106q-19 19 -50 19z" />
    <glyph glyph-name="uniF64A" unicode="&#xf64a;" 
d="M370 376h-276v124h412v-98q-69 -123 -121 -280q-54 -165 -65 -327h-148q18 162 76 314q45 119 122 267z" />
    <glyph glyph-name="uniF64B" unicode="&#xf64b;" 
d="M300 608q-35 0 -56 -21q-26 -26 -26 -74t26 -74q21 -21 56 -21t56 21q26 26 26 74t-26 74q-21 21 -56 21zM300 310q-35 0 -61 -24q-29 -28 -29 -81t29 -81q24 -24 62 -24q36 0 60 24q29 29 29 81q0 53 -29 81q-24 24 -61 24zM300 -16q-137 0 -198 59q-58 56 -58 158
q0 82 50 130q31 30 75 41q-51 13 -78 54t-27 103q0 80 49 128q60 59 187 59t187 -59q49 -48 49 -128q0 -62 -27 -103t-78 -54q44 -11 75 -41q50 -48 50 -130q0 -102 -58 -158q-61 -59 -198 -59z" />
    <glyph glyph-name="uniF64C" unicode="&#xf64c;" 
d="M86 -88l110 62q13 -30 30 -47q21 -20 56 -20q39 0 63 23q25 22 39 81q11 51 14 95q-43 -61 -131 -61q-86 0 -139 49q-66 61 -66 172q0 117 74 186q61 58 163 58q105 0 164 -59q75 -75 75 -258q0 -96 -19 -183q-23 -106 -76 -159q-56 -56 -162 -56q-78 0 -120 27
q-47 29 -75 90zM298 155q32 0 51 19q30 29 30 106q0 68 -30 97q-19 19 -51 19q-30 0 -50 -19q-30 -29 -30 -97q0 -77 30 -106q20 -19 50 -19z" />
    <glyph glyph-name="uniF6BA" unicode="&#xf6ba;" horiz-adv-x="372" 
d="M50 301v114h272v-114h-272z" />
    <glyph glyph-name="uniF6BB" unicode="&#xf6bb;" horiz-adv-x="770" 
d="M70 305v106h630v-106h-630z" />
    <glyph glyph-name="uniF6BC" unicode="&#xf6bc;" horiz-adv-x="1001" 
d="M70 411h861v-106h-861v106z" />
    <glyph glyph-name="uniF6C3" unicode="&#xf6c3;" horiz-adv-x="291" 
d="M112 -61h113q0 -48 -13 -87q-20 -62 -80 -110l-66 26q32 45 41 86q5 26 5 74v11z" />
    <glyph glyph-name="uniF6C9" unicode="&#xf6c9;" horiz-adv-x="399" 
d="M161 910h138l-109 -141h-94z" />
    <glyph glyph-name="uniF6CA" unicode="&#xf6ca;" horiz-adv-x="363" 
d="M180 835l65 75h88l-94 -141h-118l-91 141h88z" />
    <glyph glyph-name="uniF6CB" unicode="&#xf6cb;" horiz-adv-x="560" 
d="M80 852q0 33 23.5 56.5t56.5 23.5t56.5 -23.5t23.5 -56.5t-23.5 -56.5t-56.5 -23.5t-56.5 23.5t-23.5 56.5zM320 852q0 33 23.5 56.5t56.5 23.5t56.5 -23.5t23.5 -56.5t-23.5 -56.5t-56.5 -23.5t-56.5 23.5t-23.5 56.5z" />
    <glyph glyph-name="uniF6CE" unicode="&#xf6ce;" horiz-adv-x="399" 
d="M238 910l65 -141h-94l-109 141h138z" />
    <glyph glyph-name="uniF6CF" unicode="&#xf6cf;" horiz-adv-x="538" 
d="M164 910h112l-101 -141h-75zM326 910h112l-101 -141h-75z" />
    <glyph glyph-name="uniF6D0" unicode="&#xf6d0;" horiz-adv-x="458" 
d="M378 784h-298v92h298v-92z" />
    <glyph glyph-name="uniF6D1" unicode="&#xf6d1;" horiz-adv-x="524" 
d="M349 922l95 -20q-7 -88 -61 -130q-42 -33 -121 -33t-121 33q-54 42 -61 130l95 20q9 -58 36 -78q18 -13 51 -13t51 13q27 20 36 78z" />
    <glyph glyph-name="uniF6D4" unicode="&#xf6d4;" horiz-adv-x="530" 
d="M337 711l93 -20q-5 -86 -64 -122q-37 -22 -101 -22t-101 22q-59 36 -64 122l93 20q5 -51 26 -70q15 -14 46 -14t46 14q21 19 26 70z" />
    <glyph glyph-name="uniF6DC" unicode="&#xf6dc;" horiz-adv-x="340" 
d="M148 0v510q-39 -37 -92 -62l-53 77q61 39 101 77q43 42 70 98h120v-700h-146z" />
    <glyph glyph-name="uniF6DE" unicode="&#xf6de;" horiz-adv-x="750" 
d="M52 326h646v-106h-646v106z" />
    <glyph glyph-name="uniF730" unicode="&#xf730;" 
d="M300 -15q-104 0 -164 54q-76 68 -76 210q0 139 76 207q60 54 164 54t164 -54q76 -68 76 -207q0 -142 -76 -210q-60 -54 -164 -54zM224 246q0 -50 10 -86q11 -39 31 -53q11 -8 35 -8t35 8q20 14 31 53q10 36 10 86t-10 86q-11 39 -31 53q-11 8 -35 8t-35 -8
q-20 -14 -31 -53q-10 -36 -10 -86z" />
    <glyph glyph-name="uniF731" unicode="&#xf731;" horiz-adv-x="414" 
d="M177 0v313q-39 -37 -92 -62l-53 74q66 42 101 77q45 45 70 98h120v-500h-146z" />
    <glyph glyph-name="uniF732" unicode="&#xf732;" horiz-adv-x="571" 
d="M314 124h193v-124h-434v98q171 91 218 131q58 48 58 95q0 31 -21 48t-51 17q-40 0 -62 -22q-15 -15 -37 -61l-117 59q37 78 94 112q55 33 152 33q77 0 133 -40q67 -48 67 -133q0 -83 -83 -149q-38 -30 -110 -64z" />
    <glyph glyph-name="uniF733" unicode="&#xf733;" 
d="M173 294l-124 47q20 64 62 106q63 63 182 63q106 0 167 -46q69 -51 69 -142q0 -59 -35 -100q-31 -36 -84 -50v-3q53 -10 95 -48q45 -40 45 -113q0 -105 -86 -168q-62 -45 -187 -45q-57 0 -95.5 8t-74.5 36q-51 39 -77 103l123 67q18 -41 38 -61q30 -31 81 -31q53 0 81 28
q27 27 27 68q0 35 -28 61t-88 26h-39v124h21q59 0 92 24q30 23 30 59q0 35 -23 58q-24 23 -64 23q-45 0 -73 -30q-20 -21 -35 -64z" />
    <glyph glyph-name="uniF734" unicode="&#xf734;" horiz-adv-x="586" 
d="M329 0h-281v95l255 405h172v-386h63v-114h-63v-205h-146v205zM329 362l-149 -248h149v248z" />
    <glyph glyph-name="uniF735" unicode="&#xf735;" 
d="M127 500h358v-124h-237l-12 -141q45 32 109 32q97 0 153 -60q59 -62 59 -162q0 -119 -68 -187q-39 -39 -85 -51t-107 -12q-97 0 -148 35q-55 38 -80 107l133 59q12 -43 33 -64q24 -25 63 -25q42 0 66 31q27 36 27 106q0 67 -35 99q-24 22 -61 22q-53 0 -85 -43h-113z" />
    <glyph glyph-name="uniF736" unicode="&#xf736;" 
d="M528 600l-121 -61q-11 32 -31 48q-21 17 -54 17q-40 0 -65 -23q-26 -24 -38.5 -80t-13.5 -108q42 69 137 69q86 0 136 -49q68 -66 68 -181q0 -123 -68 -189q-61 -59 -171 -59q-103 0 -161 59q-76 80 -76 268q0 97 20 187q24 110 76 161q58 57 167 57q75 0 122 -28
q51 -31 73 -88zM308 348q-29 0 -49 -19q-30 -29 -30 -106t30 -106q20 -19 49 -19q31 0 50 19q30 29 30 106t-30 106q-19 19 -50 19z" />
    <glyph glyph-name="uniF737" unicode="&#xf737;" horiz-adv-x="532" 
d="M331 376h-276v124h412v-98q-69 -123 -121 -280q-54 -165 -65 -327h-148q18 162 76 314q45 119 122 267z" />
    <glyph glyph-name="uniF738" unicode="&#xf738;" 
d="M300 608q-35 0 -56 -21q-26 -26 -26 -74t26 -74q21 -21 56 -21t56 21q26 26 26 74t-26 74q-21 21 -56 21zM300 310q-35 0 -61 -24q-29 -28 -29 -81t29 -81q24 -24 62 -24q36 0 60 24q29 29 29 81q0 53 -29 81q-24 24 -61 24zM300 -16q-137 0 -198 59q-58 56 -58 158
q0 82 50 130q31 30 75 41q-51 13 -78 54t-27 103q0 80 49 128q60 59 187 59t187 -59q49 -48 49 -128q0 -62 -27 -103t-78 -54q44 -11 75 -41q50 -48 50 -130q0 -102 -58 -158q-61 -59 -198 -59z" />
    <glyph glyph-name="uniF739" unicode="&#xf739;" 
d="M86 -88l110 62q13 -30 30 -47q21 -20 56 -20q39 0 63 23q25 22 39 81q11 51 14 95q-43 -61 -131 -61q-86 0 -139 49q-66 61 -66 172q0 117 74 186q61 58 163 58q105 0 164 -59q75 -75 75 -258q0 -96 -19 -183q-23 -106 -76 -159q-56 -56 -162 -56q-78 0 -120 27
q-47 29 -75 90zM298 155q32 0 51 19q30 29 30 106q0 68 -30 97q-19 19 -51 19q-30 0 -50 -19q-30 -29 -30 -97q0 -77 30 -106q20 -19 50 -19z" />
    <glyph glyph-name="nbspace" horiz-adv-x="233" 
 />
    <glyph glyph-name="mu1" horiz-adv-x="610" 
d="M536 0h-136v60q-13 -31 -36 -50q-25 -20 -59 -20t-59 20q-23 19 -36 50v-252h-136v659h136v-277q8 -50 38 -77q24 -22 57 -22t57 22q30 27 38 77v277h136v-467z" />
    <glyph glyph-name="hyphenminus" horiz-adv-x="372" 
d="M50 216v114h272v-114h-272z" />
    <glyph glyph-name="dotlessi1" horiz-adv-x="284" 
d="M74 0v467h136v-467h-136z" />
    </font>
</defs>
</svg>
