<?xml version="1.0" standalone="no"?>
<!DOCTYPE svg PUBLIC "-//W3C//DTD SVG 1.1//EN" "http://www.w3.org/Graphics/SVG/1.1/DTD/svg11.dtd" >
<svg>
<metadata>
Created by FontForge 20110222 at Mon Aug  4 03:01:31 2014
 By Orthosie Webhosting
Copyright (c) 2008 ParaType Inc., ParaType Ltd. All rights reserved.
</metadata>
<defs>
<font id="TextbookNewRegular" horiz-adv-x="520" >
  <font-face 
    font-family="TextbookNewRegular"
    font-weight="400"
    font-stretch="normal"
    units-per-em="1000"
    panose-1="2 11 6 3 2 5 3 2 2 4"
    ascent="776"
    descent="-224"
    x-height="467"
    cap-height="700"
    bbox="-366 -255 1251 952"
    underline-thickness="50"
    underline-position="-50"
    unicode-range="U+0020-FB02"
  />
<missing-glyph horiz-adv-x="233" 
 />
    <glyph glyph-name="afii10017.var.accented" unicode="&#x410;`" horiz-adv-x="676" 
d="M183 190l-73 -190h-106l291 700h86l291 -700h-106l-73 190h-310zM459 273l-121 306l-121 -306h242zM370 910h106l-112 -141h-70z" />
    <glyph glyph-name="afii10022.var.accented" unicode="&#x415;`" horiz-adv-x="529" 
d="M482 617h-306v-201h254v-83h-254v-250h319v-83h-415v700h402v-83zM247 910h106l-112 -141h-70z" />
    <glyph glyph-name="afii10026.var.accented" unicode="&#x418;`" horiz-adv-x="670" 
d="M176 198l318 434v68h96v-700h-96v506l-318 -434v-72h-96v700h96v-502zM346 910h106l-112 -141h-70z" />
    <glyph glyph-name="afii10032.var.accented" unicode="&#x41e;`" horiz-adv-x="722" 
d="M361 633q-90 0 -144 -62q-70 -79 -70 -221t70 -221q54 -62 144 -62t144 62q70 79 70 221t-70 221q-54 62 -144 62zM677 349q0 -189 -97 -285q-81 -80 -219 -80t-219 80q-97 96 -97 286t97 286q81 80 219 80t219 -80q97 -96 97 -287zM372 910h106l-112 -141h-70z" />
    <glyph glyph-name="afii10037.var.accented" unicode="&#x423;`" horiz-adv-x="614" 
d="M326 297l170 403h100l-236 -559q-33 -78 -71 -114q-45 -43 -122 -43q-32 0 -62 9l-9 80q24 -8 49 -8q44 0 70 21q28 21 49 76l11 28l-261 510h106zM318 910h106l-112 -141h-70z" />
    <glyph glyph-name="afii10045.var.accented" unicode="&#x42b;`" horiz-adv-x="840" 
d="M664 0v700h96v-700h-96zM176 700v-273h127q148 0 211 -62q56 -54 56 -149q0 -96 -55 -153q-63 -63 -219 -63h-216v700h96zM176 83h124q92 0 132 37q36 34 36 93q0 63 -38 96q-41 35 -133 35h-121v-261zM423 910h106l-112 -141h-70z" />
    <glyph glyph-name="afii10047.var.accented" unicode="&#x42d;`" horiz-adv-x="620" 
d="M34 65l54 69q80 -67 174 -67q85 0 136 49q40 38 57 95.5t17 109.5h-273v83h273q0 47 -17 95t-49 80q-56 54 -142 54q-80 0 -167 -62l-47 66q95 79 218 79q130 0 211 -77q96 -94 96 -272q0 -205 -99 -304q-79 -79 -214 -79q-136 0 -228 81zM318 910h106l-112 -141h-70z
" />
    <glyph glyph-name="afii10048.var.accented" unicode="&#x42e;`" horiz-adv-x="956" 
d="M287 329h-111v-329h-96v700h96v-288h113q11 147 98 230q78 74 210 74q137 0 217 -80q97 -96 97 -287q0 -189 -97 -285q-81 -80 -220 -80q-134 0 -209 75q-48 48 -72 123t-26 147zM597 633q-87 0 -142 -61q-70 -79 -70 -222t70 -222q55 -61 142 -61t142 61q70 79 70 222
t-70 222q-55 61 -142 61zM461 910h106l-112 -141h-70z" />
    <glyph glyph-name="afii10049.var.accented" unicode="&#x42f;`" horiz-adv-x="636" 
d="M556 700v-700h-96v292h-62q-62 0 -98 -35q-23 -21 -46 -75l-38 -90q-26 -60 -62 -85q-45 -31 -112 -21l-8 80h3q38 0 60 20q18 18 37 61l28 66q17 43 45 72q28 28 65 37v7q-37 -1 -74 12t-61 36q-45 45 -45 120q0 91 52 143q59 60 182 60h230zM460 375v242h-119
q-72 0 -108 -31q-38 -33 -38 -93q0 -56 39 -86q41 -32 133 -32h93zM363 910h106l-112 -141h-70z" />
    <glyph glyph-name="afii10023.var.accented" unicode="&#x401;`" horiz-adv-x="529" 
d="M482 617h-306v-201h254v-83h-254v-250h319v-83h-415v700h402v-83zM87 817q0 25 17 42t42 17t42 -17t17 -42t-17 -42t-42 -17t-42 17t-17 42zM358 817q0 25 17 42t42 17t42 -17t17 -42t-17 -42t-42 -17t-42 17t-17 42zM294 910h90l-112 -141h-54z" />
    <glyph glyph-name="afii10065.var.accented" unicode="&#x430;`" horiz-adv-x="500" 
d="M106 365l-41 58q77 55 183 55q96 0 139 -45q37 -39 37 -129v-162q0 -57 10 -69q12 -15 38 -10l-12 -71q-48 -12 -81 14q-23 18 -31 51q-30 -32 -60 -47q-40 -21 -99 -21q-74 0 -115 40q-42 40 -42 103q0 58 41 99q43 43 132 56q63 9 134 9v5q0 63 -23 84q-22 21 -72 21
q-34 0 -75 -13q-36 -12 -63 -28zM341 135v92q-67 0 -121 -11q-50 -10 -74 -32q-23 -21 -23 -53q0 -29 20 -49q21 -20 61 -20q31 0 59 12q41 18 78 61zM261 700h102l-112 -163h-66z" />
    <glyph glyph-name="afii10070.var.accented" unicode="&#x435;`" horiz-adv-x="496" 
d="M130 289h236q-5 54 -37 87q-29 30 -78 30q-48 0 -77 -28q-36 -34 -44 -89zM394 112l56 -49q-64 -74 -182 -74q-107 0 -167 62q-67 70 -67 179q0 113 67 186q57 62 151 62q85 0 138 -50q74 -70 72 -211h-336q2 -75 46 -121q35 -35 92 -35q76 0 130 51zM265 700h102
l-112 -163h-66z" />
    <glyph glyph-name="afii10074.var.accented" unicode="&#x438;`" horiz-adv-x="524" 
d="M151 150l222 270v47h83v-467h-83v318l-222 -270v-48h-83v467h83v-317zM282 700h102l-112 -163h-66z" />
    <glyph glyph-name="afii10080.var.accented" unicode="&#x43e;`" horiz-adv-x="545" 
d="M34 231q0 112 70 182q68 65 172 65q102 0 165 -61q70 -68 70 -185q0 -111 -63 -176q-64 -67 -177 -67q-110 0 -174 68q-63 67 -63 174zM272 406q-63 0 -102 -45q-44 -50 -44 -128q0 -77 44 -127q39 -45 102 -45q64 0 103 45q44 50 44 127q0 78 -44 128q-39 45 -103 45z
M300 700h102l-112 -163h-66z" />
    <glyph glyph-name="afii10085.var.accented" unicode="&#x443;`" horiz-adv-x="468" 
d="M251 135l111 332h90l-168 -489q-39 -113 -73 -144q-40 -39 -111 -39q-27 0 -51 6l-8 75q21 -6 42 -6q43 0 69 26q23 23 42 85l12 38l-190 448h96zM254 700h102l-112 -163h-66z" />
    <glyph glyph-name="afii10093.var.accented" unicode="&#x44b;`" horiz-adv-x="645" 
d="M494 0v467h83v-467h-83zM68 0v467h83v-159h81q107 0 154 -50q38 -40 38 -105q0 -69 -42 -109q-46 -44 -163 -44h-151zM151 72h77q54 0 80 20q29 22 29 64q0 39 -27 60q-26 20 -85 20h-74v-164zM339 700h102l-112 -163h-66z" />
    <glyph glyph-name="afii10095.var.accented" unicode="&#x44d;`" horiz-adv-x="471" 
d="M34 59l53 53q54 -51 125 -51q59 0 93 36q38 41 38 106h-182v72h182q-5 69 -53 106q-34 25 -87 25q-39 0 -71 -16q-16 -8 -49 -30l-46 57q76 61 168 61q107 0 169 -62q63 -63 63 -180q0 -127 -64 -190q-57 -57 -160 -57q-65 0 -109 20q-40 18 -70 50zM246 700h102
l-112 -163h-66z" />
    <glyph glyph-name="afii10096.var.accented" unicode="&#x44e;`" horiz-adv-x="726" 
d="M151 213v-213h-83v467h83v-182h79q12 79 63 130q62 63 167 63q101 0 161 -59q71 -69 71 -187q0 -110 -64 -178q-62 -65 -174 -65q-105 0 -166 66q-59 64 -60 158h-77zM457 406q-60 0 -100 -45q-43 -49 -43 -128q0 -76 42 -126q39 -46 101 -46q61 0 100 45q43 51 43 127
q0 79 -43 128q-41 45 -100 45zM349 700h102l-112 -163h-66z" />
    <glyph glyph-name="afii10097.var.accented" unicode="&#x44f;`" horiz-adv-x="505" 
d="M354 181h-58q-44 0 -70 -24q-11 -10 -35 -58l-20 -40q-21 -41 -50 -57q-28 -15 -79 -11l-8 75h2q25 0 40 9q16 10 28 37l15 30q14 28 24 38q19 20 50 27v4q-55 0 -88 33q-31 31 -31 81q0 66 38 102q42 40 133 40h192v-467h-83v181zM354 395h-107q-43 0 -64 -20
q-21 -21 -21 -53q0 -34 25 -53q23 -18 72 -18h95v144zM277 700h102l-112 -163h-66z" />
    <glyph glyph-name="afii10071.var.accented" unicode="&#x451;`" horiz-adv-x="494" 
d="M333 636q0 23 17 40t40 17t40 -17t17 -40t-17 -40t-40 -17t-40 17t-17 40zM48 636q0 23 17 40t40 17t40 -17t17 -40t-17 -40t-40 -17t-40 17t-17 40zM129 289h236q-5 54 -37 87q-29 30 -78 30q-48 0 -77 -28q-36 -34 -44 -89zM393 112l56 -49q-64 -74 -182 -74
q-107 0 -167 62q-67 70 -67 179q0 113 67 186q57 62 151 62q85 0 138 -50q74 -70 72 -211h-336q2 -75 46 -121q35 -35 92 -35q76 0 130 51zM233 700h94l-112 -163h-58z" />
    <glyph glyph-name="fi" unicode="fi" horiz-adv-x="522" 
d="M90 467v68q0 88 45 133q41 42 108 42q51 0 96 -21l-30 -67q-36 14 -60 14q-33 0 -52 -21q-24 -26 -24 -80v-68h136v-72h-136v-395h-83v395h-70v72h70zM371 0v467h83v-467h-83zM357 638q0 23 16 39t39 16q25 0 40.5 -17.5t15.5 -37.5q0 -22 -17 -38.5t-39 -16.5
q-21 0 -38 15t-17 40z" />
    <glyph glyph-name="fl" unicode="fl" horiz-adv-x="514" 
d="M90 467v68q0 88 45 133q41 42 108 42q51 0 96 -21l-30 -67q-36 14 -60 14q-33 0 -52 -21q-24 -26 -24 -80v-68h136v-72h-136v-395h-83v395h-70v72h70zM363 0v700h83v-700h-83z" />
    <glyph glyph-name=".notdef" horiz-adv-x="233" 
 />
    <glyph glyph-name=".null" horiz-adv-x="0" 
 />
    <glyph glyph-name="nonmarkingreturn" horiz-adv-x="333" 
 />
    <glyph glyph-name="space" unicode=" " horiz-adv-x="233" 
 />
    <glyph glyph-name="exclam" unicode="!" horiz-adv-x="274" 
d="M181 192h-96v508h96v-508zM69 48q0 26 19.5 45t44.5 19t44.5 -19t19.5 -45t-19.5 -45t-44.5 -19t-44.5 19t-19.5 45z" />
    <glyph glyph-name="quotedbl" unicode="&#x22;" horiz-adv-x="403" 
d="M162 700l-26 -214h-42l-26 214h94zM335 700l-26 -214h-42l-26 214h94z" />
    <glyph glyph-name="numbersign" unicode="#" horiz-adv-x="870" 
d="M550 0h-88l32 172h-185l-33 -172h-88l33 172h-166l15 78h166l37 201h-166l15 78h166l32 171h88l-32 -171h185l32 171h88l-32 -171h166l-15 -78h-166l-37 -201h166l-15 -78h-166zM324 250h185l37 201h-185z" />
    <glyph glyph-name="dollar" unicode="$" 
d="M482 635l-52 -67q-61 52 -131 58v-230l41 -14q84 -29 124 -70q46 -48 46 -123q0 -85 -52 -139q-60 -62 -159 -65v-75h-72v76q-58 3 -112 25q-60 24 -105 67l59 68q73 -65 158 -73v248l-13 5q-95 37 -132 73q-49 48 -49 120q0 82 51 134q57 59 143 62v73h72v-74
q46 -3 92 -23q47 -20 91 -56zM299 296v-225q51 5 81 34q32 32 32 79q0 44 -29 70q-26 24 -84 42zM227 422v207q-45 -5 -72 -29q-30 -28 -30 -71q0 -46 38 -75q20 -15 64 -32z" />
    <glyph glyph-name="percent" unicode="%" horiz-adv-x="891" 
d="M364 519q0 -97 -53 -152q-43 -45 -109 -45t-109 45q-53 55 -53 152t53 152q43 45 109 45t109 -45q53 -55 53 -152zM202 654q-29 0 -48 -19q-32 -32 -32 -116t32 -116q19 -19 48 -19t48 19q32 32 32 116t-32 116q-19 19 -48 19zM689 316q-29 0 -48 -19q-32 -32 -32 -116
t32 -116q19 -19 48 -19t48 19q32 32 32 116t-32 116q-19 19 -48 19zM851 181q0 -97 -53 -152q-43 -45 -109 -45t-109 45q-53 55 -53 152t53 152q43 45 109 45t109 -45q53 -55 53 -152zM235 -77l-49 32l456 822l50 -36z" />
    <glyph glyph-name="ampersand" unicode="&#x26;" horiz-adv-x="624" 
d="M527 268l72 -42q-33 -60 -83 -107l76 -119h-106l-33 55q-31 -31 -78 -50t-114 -19q-93 0 -151 54q-65 61 -65 164q0 98 70 166q40 38 99 67q-21 36 -28 52q-19 42 -19 78q0 61 41 104q43 45 115 45q39 0 87 -18q33 -15 63 -40l-54 -64q-22 20 -43 30q-24 12 -48 12
q-32 0 -49 -19q-19 -19 -19 -47q0 -25 31 -80q10 -17 59 -99l120 -202q35 35 57 79zM403 126l-147 248q-52 -24 -83 -66q-33 -45 -33 -102q0 -61 37 -100q35 -38 92 -38q76 0 134 58z" />
    <glyph glyph-name="quotesingle" unicode="'" horiz-adv-x="230" 
d="M162 700l-26 -214h-42l-26 214h94z" />
    <glyph glyph-name="parenleft" unicode="(" horiz-adv-x="323" 
d="M220 716l63 -40q-55 -88 -82 -184q-31 -107 -31 -237q0 -107 30 -208q32 -105 83 -200l-63 -39q-71 93 -111 209q-41 121 -41 238q0 145 46 270q38 105 106 191z" />
    <glyph glyph-name="parenright" unicode=")" horiz-adv-x="323" 
d="M40 676l63 40q68 -86 106 -191q46 -125 46 -270q0 -117 -41 -238q-40 -116 -111 -209l-63 39q51 95 83 200q30 101 30 208q0 130 -31 237q-27 96 -82 184z" />
    <glyph glyph-name="asterisk" unicode="*" horiz-adv-x="430" 
d="M218 516h-12l-58 -99l-67 52l77 84l-3 12l-112 26l27 80l105 -47l10 6l-11 114h83l-11 -114l10 -5l104 46l27 -80l-113 -28l-3 -11l79 -83l-67 -52z" />
    <glyph glyph-name="plus" unicode="+" horiz-adv-x="718" 
d="M318 309h-270v82h270v270h82v-270h270v-82h-270v-270h-82v270z" />
    <glyph glyph-name="comma" unicode="," horiz-adv-x="278" 
d="M98 -159l-48 37q22 19 44 47q23 29 31 61q-19 2 -35 18q-15 17 -15 42q0 29 20 51q19 20 48 20q31 0 50 -21q21 -22 21 -62q0 -70 -52 -132q-27 -33 -64 -61z" />
    <glyph glyph-name="hyphen" unicode="-" horiz-adv-x="330" 
d="M29 244v82h272v-82h-272z" />
    <glyph glyph-name="period" unicode="." horiz-adv-x="275" 
d="M65 56q0 29 21.5 50.5t51.5 21.5q29 0 50.5 -21.5t21.5 -50.5q0 -27 -19.5 -49.5t-52.5 -22.5q-35 0 -54 23t-19 49z" />
    <glyph glyph-name="slash" unicode="/" horiz-adv-x="690" 
d="M126 -192l-58 37l522 871l60 -40z" />
    <glyph glyph-name="zero" unicode="0" 
d="M260 634q-58 0 -88 -54q-38 -65 -38 -230q0 -164 38 -230q30 -54 88 -54t88 54q38 67 38 230q0 161 -38 230q-30 54 -88 54zM482 350q0 -231 -87 -316q-51 -50 -135 -50t-135 50q-87 85 -87 316q0 230 87 314q54 52 137 52q79 0 133 -51q87 -83 87 -315z" />
    <glyph glyph-name="one" unicode="1" 
d="M285 0v547q-48 -42 -102 -67l-40 57q51 31 92 68q47 42 72 95h70v-700h-92z" />
    <glyph glyph-name="two" unicode="2" 
d="M167 82h297v-82h-412v81q62 64 130 130q103 103 138 159q50 77 50 151q0 50 -27 81q-28 32 -81 32q-51 0 -82 -31q-23 -23 -39 -64l-80 36q25 65 72 102q49 39 133 39q99 0 153 -56q49 -52 49 -134q0 -77 -35 -139.5t-93 -127.5t-173 -177z" />
    <glyph glyph-name="three" unicode="3" 
d="M136 543l-77 33q19 51 54 86q54 54 146 54q95 0 145 -48q51 -49 51 -138q0 -70 -40 -112q-31 -34 -79 -45v-3q57 -9 94 -46q46 -48 46 -122q0 -104 -62 -164q-55 -54 -153 -54q-92 0 -145 37q-47 33 -72 97l78 42q16 -42 41 -64q32 -29 91 -29q55 0 87 32q37 37 37 106
q0 60 -38 95q-36 31 -119 31h-22v78h21q74 0 108 28q37 31 37 86q0 54 -29 83q-28 28 -81 28q-51 0 -82 -31q-21 -21 -37 -60z" />
    <glyph glyph-name="four" unicode="4" 
d="M348 149h-301v80l309 471h84v-471h63v-80h-63v-149h-92v149zM348 552l-213 -323h213v323z" />
    <glyph glyph-name="five" unicode="5" 
d="M115 700h319v-80h-238l-17 -189q38 32 98 32q81 0 130 -48q63 -61 63 -178q0 -131 -70 -200q-53 -53 -148 -53q-88 0 -136 39q-40 33 -66 95l77 42q13 -41 39 -66q31 -30 86 -30q47 0 74 27q46 45 46 146q0 84 -39 123q-29 29 -79 29q-62 0 -99 -45h-70z" />
    <glyph glyph-name="six" unicode="6" 
d="M458 602l-77 -40q-14 34 -35 52q-26 22 -61 22q-47 0 -74 -27q-55 -55 -60 -218q19 28 53 48q36 20 81 20q71 0 118 -46q67 -64 67 -179q0 -57 -17.5 -110.5t-51.5 -87.5q-52 -52 -142 -52q-85 0 -135 48q-43 41 -58.5 107.5t-15.5 162.5q0 108 19 198q23 110 76 165
q51 51 135 51q72 0 118 -33q40 -29 60 -81zM374 226q0 73 -26 114q-29 45 -84 45q-56 0 -85 -44q-29 -43 -29 -119q0 -81 31 -121q30 -37 82 -37q51 0 79 37q32 41 32 125z" />
    <glyph glyph-name="seven" unicode="7" 
d="M360 618h-284v82h368v-80q-76 -127 -129 -300q-51 -168 -65 -320h-96q25 181 83 345q57 159 123 273z" />
    <glyph glyph-name="eight" unicode="8" 
d="M260 640q-47 0 -72 -30q-27 -30 -27 -91q0 -60 31 -91q26 -26 68 -26q43 0 67 26q32 32 32 94q0 59 -27 90q-24 28 -72 28zM260 328q-50 0 -80 -30q-33 -33 -33 -104q0 -70 33 -103q29 -31 82 -31q48 0 78 30q33 33 33 104t-33 104q-30 30 -80 30zM260 -16q-96 0 -148 48
q-61 56 -61 166q0 62 29 109q30 47 84 65q-40 14 -66 54q-27 41 -27 105q0 87 50 137q49 48 139 48t139 -48q50 -50 50 -137q0 -64 -27 -105q-26 -40 -66 -54q54 -18 84 -65q29 -47 29 -109q0 -49 -16 -94.5t-45 -71.5q-54 -48 -148 -48z" />
    <glyph glyph-name="nine" unicode="9" 
d="M62 101l77 40q15 -34 35 -53q26 -24 69 -24q49 0 80 32q48 51 55 213q-22 -35 -56 -52q-31 -16 -77 -16q-78 0 -128 47q-67 63 -67 179q0 129 69 197q52 52 141 52q83 0 136 -49q33 -31 50.5 -84t20.5 -93.5t3 -101.5q0 -98 -16 -185q-21 -114 -75 -168q-51 -51 -136 -51
q-76 0 -121 34q-40 31 -60 83zM146 471q0 -72 26 -112q29 -44 86 -44q54 0 83 44q29 43 29 119q0 89 -39 129q-29 29 -74 29q-51 0 -79 -37q-32 -41 -32 -128z" />
    <glyph glyph-name="colon" unicode=":" horiz-adv-x="247" 
d="M57 413q0 24 17.5 45t48.5 21q32 0 49.5 -20.5t17.5 -45.5q0 -27 -19.5 -47t-47.5 -20q-27 0 -46.5 19.5t-19.5 47.5zM57 48q0 28 19.5 47.5t46.5 19.5q28 0 47.5 -20t19.5 -47t-19.5 -47t-47.5 -20q-27 0 -46.5 19.5t-19.5 47.5z" />
    <glyph glyph-name="semicolon" unicode=";" horiz-adv-x="279" 
d="M80 413q0 25 17.5 45.5t49.5 20.5q31 0 48.5 -21t17.5 -45q0 -28 -19.5 -47.5t-46.5 -19.5q-28 0 -47.5 20t-19.5 47zM97 -159l-44 38q28 23 47 49q20 28 30 61q-21 3 -34 16q-16 16 -16 43q0 29 18 49q19 20 49 20t48 -21q18 -20 18 -58q0 -75 -53 -140q-29 -35 -63 -57
z" />
    <glyph glyph-name="semicolon" unicode="&#x37e;" horiz-adv-x="279" 
d="M80 413q0 25 17.5 45.5t49.5 20.5q31 0 48.5 -21t17.5 -45q0 -28 -19.5 -47.5t-46.5 -19.5q-28 0 -47.5 20t-19.5 47zM97 -159l-44 38q28 23 47 49q20 28 30 61q-21 3 -34 16q-16 16 -16 43q0 29 18 49q19 20 49 20t48 -21q18 -20 18 -58q0 -75 -53 -140q-29 -35 -63 -57
z" />
    <glyph glyph-name="less" unicode="&#x3c;" horiz-adv-x="706" 
d="M624 648l22 -58l-516 -240l516 -240l-22 -58l-564 253v92z" />
    <glyph glyph-name="equal" unicode="=" horiz-adv-x="704" 
d="M41 213v82h622v-82h-622zM41 405v82h622v-82h-622z" />
    <glyph glyph-name="greater" unicode="&#x3e;" horiz-adv-x="706" 
d="M82 648l564 -251v-92l-564 -253l-22 58l516 240l-516 240z" />
    <glyph glyph-name="question" unicode="?" horiz-adv-x="493" 
d="M273 190h-88v5q0 54 13 93q14 39 56 87l33 37q17 19 26.5 31.5t19.5 38t10 52.5q0 44 -28 71q-27 25 -69 25q-45 0 -76 -31q-24 -24 -39 -62l-85 29q22 58 63 98q55 52 143 52q95 0 146 -51q49 -47 49 -127q0 -37 -12 -69.5t-25 -49t-34 -38.5l-39 -40q-42 -45 -52 -69
q-12 -29 -12 -76v-6zM165 48q0 26 19.5 45t44.5 19t44.5 -19t19.5 -45t-19.5 -45t-44.5 -19t-44.5 19t-19.5 45z" />
    <glyph glyph-name="at" unicode="@" horiz-adv-x="766" 
d="M563 515l-63 -213q-9 -28 -9 -44q0 -12 9 -20q11 -10 35 -10q51 0 82 36q37 42 37 124q0 108 -68 179q-37 39 -92.5 61t-115.5 22q-114 0 -187 -78q-79 -84 -79 -215q0 -135 82 -223q79 -84 209 -84q91 0 168 49l42 -49q-82 -66 -215 -66q-151 0 -248 96
q-110 108 -110 280q0 82 29.5 151.5t77.5 115.5q93 89 233 89q156 0 257 -104q89 -93 89 -231q0 -97 -55 -156q-53 -58 -136 -58q-37 0 -61 12q-24 13 -38 35q-45 -45 -102 -45q-50 0 -84 34q-42 42 -42 120q0 37 17.5 86t50.5 80q40 39 102 39q68 0 108 -51l11 38h66z
M423 268l44 154q-39 48 -86 48q-39 0 -66 -36q-38 -51 -38 -119q0 -40 18 -64q19 -24 50 -24q40 0 78 41z" />
    <glyph glyph-name="A" unicode="A" horiz-adv-x="676" 
d="M183 190l-73 -190h-106l291 700h86l291 -700h-106l-73 190h-310zM459 273l-121 306l-121 -306h242z" />
    <glyph glyph-name="B" unicode="B" horiz-adv-x="627" 
d="M80 0v700h220q73 0 121 -10.5t81 -44.5q45 -46 45 -120q0 -68 -39 -108q-29 -29 -69 -40v-8q63 -9 106 -51q48 -47 48 -125q0 -83 -53 -136q-57 -57 -159 -57h-301zM176 617v-209h119q94 0 126 34q26 27 26 73q0 49 -26 73q-30 29 -103 29h-142zM176 325v-242h147
q88 0 129 32q38 30 38 86q0 54 -30 84q-40 40 -156 40h-128z" />
    <glyph glyph-name="C" unicode="C" horiz-adv-x="626" 
d="M583 635l-53 -66q-29 24 -64 40q-51 24 -100 24q-83 0 -140 -55q-79 -77 -79 -228q0 -149 77 -226q57 -57 144 -57q90 0 170 67l54 -69q-92 -81 -224 -81q-137 0 -217 79q-106 102 -106 284q0 178 103 281q86 88 220 88q69 0 129 -25q47 -19 86 -56z" />
    <glyph glyph-name="D" unicode="D" horiz-adv-x="664" 
d="M80 700h170q194 0 279 -81q90 -85 90 -273q0 -176 -88 -263q-49 -49 -117.5 -66t-163.5 -17h-170v700zM176 617v-534h87q137 0 195 59q59 60 59 209q0 147 -59 207q-58 59 -195 59h-87z" />
    <glyph glyph-name="E" unicode="E" horiz-adv-x="529" 
d="M482 617h-306v-201h254v-83h-254v-250h319v-83h-415v700h402v-83z" />
    <glyph glyph-name="F" unicode="F" horiz-adv-x="510" 
d="M176 617v-202h244v-83h-244v-332h-96v700h396v-83h-300z" />
    <glyph glyph-name="G" unicode="G" horiz-adv-x="708" 
d="M668 342q-2 -196 -97 -287q-75 -71 -203 -71q-138 0 -221 83q-102 104 -102 281q0 171 97 274q87 94 227 94q83 0 144 -25q55 -22 101 -65l-56 -66q-35 30 -73 48q-53 25 -110 25q-93 0 -150 -58q-40 -40 -59 -104.5t-19 -126.5q0 -66 19.5 -126t57.5 -97q55 -54 150 -54
q83 0 130 46q27 27 43.5 68t19.5 81h-189v80h290z" />
    <glyph glyph-name="H" unicode="H" horiz-adv-x="671" 
d="M176 321v-321h-96v700h96v-296h319v296h96v-700h-96v321h-319z" />
    <glyph glyph-name="I" unicode="I" horiz-adv-x="256" 
d="M80 0v700h96v-700h-96z" />
    <glyph glyph-name="J" unicode="J" horiz-adv-x="367" 
d="M191 700h96v-494q0 -64 -9 -108t-40 -74q-40 -40 -118 -40q-72 0 -120 32l39 73q38 -22 73 -22t54 20q25 27 25 120v493z" />
    <glyph glyph-name="K" unicode="K" horiz-adv-x="632" 
d="M176 368l298 332h108l-254 -284l300 -416h-110l-253 351l-89 -100v-251h-96v700h96v-332z" />
    <glyph glyph-name="L" unicode="L" horiz-adv-x="521" 
d="M176 83h329v-83h-425v700h96v-617z" />
    <glyph glyph-name="M" unicode="M" horiz-adv-x="769" 
d="M357 127l-181 451v-578h-96v700h130l176 -438l174 438h129v-700h-96v578l-179 -451h-57z" />
    <glyph glyph-name="N" unicode="N" horiz-adv-x="667" 
d="M176 542v-542h-96v700h96l315 -532v532h96v-700h-96z" />
    <glyph glyph-name="O" unicode="O" horiz-adv-x="722" 
d="M361 633q-90 0 -144 -62q-70 -79 -70 -221t70 -221q54 -62 144 -62t144 62q70 79 70 221t-70 221q-54 62 -144 62zM677 349q0 -189 -97 -285q-81 -80 -219 -80t-219 80q-97 96 -97 286t97 286q81 80 219 80t219 -80q97 -96 97 -287z" />
    <glyph glyph-name="P" unicode="P" horiz-adv-x="604" 
d="M176 260v-260h-96v700h220q140 0 205 -62q59 -57 59 -158q0 -103 -60 -159q-66 -61 -196 -61h-132zM176 343h118q87 0 128 38q39 35 39 101q0 67 -43 102q-40 33 -128 33h-114v-274z" />
    <glyph glyph-name="Q" unicode="Q" horiz-adv-x="722" 
d="M430 199l72 -75q33 31 51 83q22 67 22 143q0 143 -70 221q-54 62 -144 62t-144 -62q-70 -79 -70 -221t70 -221q56 -62 149 -62q35 0 68 13l-63 64zM576 -67l-75 77q-59 -26 -133 -26q-144 0 -226 80q-97 96 -97 286t97 286q81 80 219 80t219 -80q97 -96 97 -281
q0 -103 -24 -173q-25 -77 -85 -129l65 -68z" />
    <glyph glyph-name="R" unicode="R" horiz-adv-x="609" 
d="M176 617v-239h96q105 0 143 39q30 32 30 83q0 53 -30 83q-34 34 -141 34h-98zM176 295v-295h-96v700h219q73 0 117.5 -11t79.5 -46q52 -54 52 -142q0 -84 -49 -136q-41 -42 -103 -56l181 -309h-105l-174 295h-122z" />
    <glyph glyph-name="S" unicode="S" horiz-adv-x="584" 
d="M512 635l-52 -67q-46 31 -83 44q-47 18 -96 18q-63 0 -96 -30q-30 -28 -30 -71q0 -46 38 -75q13 -9 35.5 -20t37.5 -16.5t19 -6.5l85 -29q91 -31 128 -70q46 -48 46 -123q0 -85 -52 -139q-64 -66 -188 -66q-90 0 -159 27q-60 24 -105 67l59 68q40 -32 86 -52
q55 -24 118 -24q71 0 107 35q32 32 32 79q0 44 -29 70q-21 20 -96 46l-76 26q-97 34 -136 73q-49 48 -49 120q0 83 51 134q62 63 179 63q76 0 135 -25q51 -23 91 -56z" />
    <glyph glyph-name="T" unicode="T" horiz-adv-x="530" 
d="M313 617v-617h-96v617h-203v83h502v-83h-203z" />
    <glyph glyph-name="U" unicode="U" horiz-adv-x="683" 
d="M603 700v-431q0 -49 -2.5 -79.5t-16.5 -71t-42 -68.5q-66 -66 -201 -66q-134 0 -200 66q-28 28 -42 68.5t-16.5 71t-2.5 79.5v431h96v-428q0 -42 1 -61t10 -51.5t27 -50.5q40 -40 128 -40q87 0 127 40q18 18 27 50.5t10 51.5t1 61v428h96z" />
    <glyph glyph-name="V" unicode="V" horiz-adv-x="600" 
d="M300 169l178 531h102l-241 -700h-78l-241 700h102z" />
    <glyph glyph-name="W" unicode="W" horiz-adv-x="918" 
d="M459 565l-163 -565h-80l-182 700h98l135 -511l148 511h88l148 -511l135 511h98l-182 -700h-80z" />
    <glyph glyph-name="X" unicode="X" horiz-adv-x="620" 
d="M498 0l-188 293l-188 -293h-112l242 369l-213 331h105l166 -255l166 255h105l-213 -331l242 -369h-112z" />
    <glyph glyph-name="Y" unicode="Y" horiz-adv-x="614" 
d="M307 363l185 337h108l-245 -432v-268h-96v268l-245 432h108z" />
    <glyph glyph-name="Z" unicode="Z" horiz-adv-x="581" 
d="M421 617h-342v83h456v-76l-386 -541h380v-83h-483v80z" />
    <glyph glyph-name="bracketleft" unicode="[" horiz-adv-x="337" 
d="M172 -113h139v-79h-229v908h229v-79h-139v-750z" />
    <glyph glyph-name="backslash" unicode="\" horiz-adv-x="689" 
d="M590 -192l-522 868l60 40l521 -871z" />
    <glyph glyph-name="bracketright" unicode="]" horiz-adv-x="337" 
d="M165 -113v750h-139v79h229v-908h-229v79h139z" />
    <glyph glyph-name="asciicircum" unicode="^" horiz-adv-x="511" 
d="M255 632l-119 -167h-78l169 235h56l170 -235h-78z" />
    <glyph glyph-name="underscore" unicode="_" horiz-adv-x="587" 
d="M0 -220v82h587v-82h-587z" />
    <glyph glyph-name="grave" unicode="`" horiz-adv-x="394" 
d="M208 700l76 -163h-66l-112 163h102z" />
    <glyph glyph-name="a" unicode="a" horiz-adv-x="500" 
d="M106 365l-41 58q77 55 183 55q96 0 139 -45q37 -39 37 -129v-162q0 -57 10 -69q12 -15 38 -10l-12 -71q-48 -12 -81 14q-23 18 -31 51q-30 -32 -60 -47q-40 -21 -99 -21q-74 0 -115 40q-42 40 -42 103q0 58 41 99q43 43 132 56q63 9 134 9v5q0 63 -23 84q-22 21 -72 21
q-34 0 -75 -13q-36 -12 -63 -28zM341 135v92q-67 0 -121 -11q-50 -10 -74 -32q-23 -21 -23 -53q0 -29 20 -49q21 -20 61 -20q31 0 59 12q41 18 78 61z" />
    <glyph glyph-name="b" unicode="b" horiz-adv-x="535" 
d="M151 319v-191q21 -25 52 -44q36 -21 76 -21q52 0 83 31q47 47 47 145q0 81 -31 122q-32 43 -88 43q-43 0 -82 -30q-13 -10 -27 -23t-21 -21.5t-9 -10.5zM68 0v700h83v-287q65 65 151 65q84 0 136 -52q63 -63 63 -183q0 -132 -70 -202q-52 -52 -139 -52q-52 0 -85 16
q-32 15 -56 41v-46h-83z" />
    <glyph glyph-name="c" unicode="c" horiz-adv-x="469" 
d="M391 113l56 -49q-63 -75 -177 -75q-111 0 -171 60q-65 65 -65 179q0 112 66 182q64 68 171 68q102 0 169 -58l-48 -58q-64 44 -121 44q-59 0 -96 -37q-49 -49 -49 -142q0 -83 46 -129q37 -37 97 -37q67 0 122 52z" />
    <glyph glyph-name="d" unicode="d" horiz-adv-x="535" 
d="M384 144v191q-56 69 -123 69q-69 0 -106 -57q-29 -45 -29 -119q0 -77 34 -121q35 -44 92 -44q42 0 78 26q34 26 54 55zM467 700v-700h-83v50q-51 -61 -147 -61q-85 0 -137 53q-66 67 -66 185q0 122 66 193q54 58 149 58q86 0 135 -61v283h83z" />
    <glyph glyph-name="e" unicode="e" horiz-adv-x="496" 
d="M130 289h236q-6 55 -39 86t-76 31q-45 0 -79 -31t-42 -86zM394 112l56 -49q-65 -74 -183 -74q-106 0 -166 62q-67 70 -67 179q0 98 57 173t161 75q48 0 85.5 -17t60.5 -43.5t38 -62.5t20.5 -69.5t5.5 -68.5h-336q1 -71 41.5 -113.5t96.5 -42.5q76 0 130 51z" />
    <glyph glyph-name="f" unicode="f" horiz-adv-x="311" 
d="M90 467v68q0 89 45 133q44 42 122 42q50 0 104 -22l-30 -67q-37 15 -68 15q-39 0 -62 -21q-28 -26 -28 -80v-68h136v-72h-136v-395h-83v395h-70v72h70z" />
    <glyph glyph-name="g" unicode="g" horiz-adv-x="535" 
d="M467 467v-461q0 -114 -50 -163q-50 -48 -150 -48q-107 0 -175 48l41 64q65 -38 132 -38q63 0 92 31q27 28 27 109v44q-52 -60 -146 -60q-85 0 -138 52q-66 66 -66 182q0 125 66 193q57 58 150 58q87 0 134 -61v50h83zM384 149v186q-56 69 -123 69q-69 0 -106 -57
q-29 -45 -29 -114q0 -79 34 -121q35 -44 92 -44q42 0 78 26q34 26 54 55z" />
    <glyph glyph-name="h" unicode="h" horiz-adv-x="522" 
d="M68 700h83v-289q31 31 59 46q40 21 90 21q76 0 115 -39t39 -138v-301h-83v299q0 53 -16 76q-22 29 -65 29q-42 0 -81 -30q-31 -23 -58 -59v-315h-83v700z" />
    <glyph glyph-name="i" unicode="i" horiz-adv-x="219" 
d="M68 0v467h83v-467h-83zM54 638q0 23 16 39t39 16q25 0 40.5 -17.5t15.5 -37.5q0 -22 -17 -38.5t-39 -16.5q-21 0 -38 15t-17 40z" />
    <glyph glyph-name="j" unicode="j" horiz-adv-x="267" 
d="M117 467h83v-512q0 -94 -33 -128q-32 -32 -100 -32q-58 0 -102 21l30 68q30 -14 63 -14q29 0 43 14q16 16 16 55v528zM103 638q0 20 15.5 37.5t39.5 17.5q22 0 38.5 -15.5t16.5 -39.5q0 -25 -18 -40t-37 -15q-22 0 -38.5 17t-16.5 38z" />
    <glyph glyph-name="k" unicode="k" horiz-adv-x="482" 
d="M151 284l196 183h104l-189 -176l208 -291h-99l-168 235l-52 -48v-187h-83v700h83v-416z" />
    <glyph glyph-name="l" unicode="l" horiz-adv-x="219" 
d="M68 0v700h83v-700h-83z" />
    <glyph glyph-name="m" unicode="m" horiz-adv-x="777" 
d="M151 467v-52q20 26 51 43q36 20 86 20q49 0 82 -22q30 -21 44 -54q32 37 63 54q39 22 90 22q71 0 108 -41q34 -37 34 -125v-312h-83v296q0 55 -13 77q-19 29 -57 29q-35 0 -70 -25q-30 -22 -56 -58v-319h-83v300q0 46 -11 68q-17 34 -60 34q-38 0 -75 -28
q-28 -22 -50 -53v-321h-83v467h83z" />
    <glyph glyph-name="n" unicode="n" horiz-adv-x="522" 
d="M68 467h83v-56q31 31 59 46q38 21 91 21q75 0 114 -39t39 -138v-301h-83v299q0 53 -16 76q-20 29 -63 29q-42 0 -83 -30q-31 -23 -58 -59v-315h-83v467z" />
    <glyph glyph-name="o" unicode="o" horiz-adv-x="545" 
d="M34 231q0 112 70 182q68 65 172 65q102 0 165 -61q70 -68 70 -185q0 -111 -63 -176q-64 -67 -177 -67q-110 0 -174 68q-63 67 -63 174zM273 406q-64 0 -103 -45q-44 -50 -44 -128q0 -77 44 -127q39 -45 102 -45q64 0 103 45q44 50 44 127q0 78 -44 128q-39 45 -102 45z
" />
    <glyph glyph-name="p" unicode="p" horiz-adv-x="535" 
d="M151 319v-191q21 -25 52 -44q36 -21 76 -21q52 0 83 31q47 47 47 145q0 81 -31 122q-32 43 -88 43q-43 0 -82 -30q-13 -10 -27 -23t-21 -21.5t-9 -10.5zM68 -192v659h83v-54q65 65 151 65q84 0 136 -52q63 -63 63 -183q0 -132 -70 -202q-52 -52 -139 -52q-52 0 -85 16
q-32 15 -56 41v-238h-83z" />
    <glyph glyph-name="q" unicode="q" horiz-adv-x="535" 
d="M384 144v191q-56 69 -123 69q-69 0 -106 -57q-29 -45 -29 -119q0 -77 34 -121q35 -44 92 -44q42 0 78 26q34 26 54 55zM467 467v-659h-83v242q-51 -61 -147 -61q-85 0 -137 53q-66 67 -66 185q0 122 66 193q56 58 150 58q85 0 134 -61v50h83z" />
    <glyph glyph-name="r" unicode="r" horiz-adv-x="358" 
d="M151 467v-63q24 30 56 50q37 24 82 24q33 0 65 -15l-26 -78q-26 12 -49 12q-39 0 -77 -30q-28 -22 -51 -52v-315h-83v467h83z" />
    <glyph glyph-name="s" unicode="s" horiz-adv-x="448" 
d="M34 59l52 58q25 -23 61 -39q40 -17 83 -17q45 0 70 17q26 20 26 53q0 29 -25 47q-13 10 -63 25l-63 18q-76 22 -101 49q-25 26 -25 67q0 59 38 97q44 44 132 44q57 0 101 -16q38 -14 75 -41l-44 -61q-30 19 -62 32q-34 14 -72 14q-41 0 -64 -18q-19 -15 -19 -38
q0 -24 23 -37q15 -8 66 -23l68 -20q63 -19 89 -45q34 -34 34 -88q0 -60 -37 -99q-46 -49 -142 -49q-70 0 -116 17q-47 17 -85 53z" />
    <glyph glyph-name="t" unicode="t" horiz-adv-x="326" 
d="M90 467v123h83v-123h98v-72h-98v-244q0 -58 15 -73q12 -14 44 -14q20 0 38 5q2 1 24 10l30 -66q-17 -10 -42 -17q-27 -7 -65 -7q-64 0 -93 29q-34 33 -34 122v255h-70v72h70z" />
    <glyph glyph-name="u" unicode="u" horiz-adv-x="522" 
d="M374 0v62q-27 -31 -63 -51q-41 -22 -94 -22q-70 0 -108 39q-41 42 -41 125v314h83v-299q0 -52 17 -76q21 -29 70 -29q42 0 77 24q33 22 56 59v321h83v-467h-80z" />
    <glyph glyph-name="v" unicode="v" horiz-adv-x="492" 
d="M246 115l129 352h91l-176 -467h-88l-176 467h91z" />
    <glyph glyph-name="w" unicode="w" horiz-adv-x="714" 
d="M357 365l-100 -365h-88l-147 467h83l110 -352l94 352h96l94 -352l110 352h83l-147 -467h-88z" />
    <glyph glyph-name="x" unicode="x" horiz-adv-x="500" 
d="M360 467h102l-161 -219l183 -248h-102l-132 184l-132 -184h-102l184 248l-162 219h102l110 -154z" />
    <glyph glyph-name="y" unicode="y" horiz-adv-x="468" 
d="M251 135l111 332h90l-168 -489q-39 -113 -73 -144q-40 -39 -111 -39q-27 0 -51 6l-8 75q21 -6 42 -6q43 0 69 26q23 23 42 85l12 38l-190 448h96z" />
    <glyph glyph-name="z" unicode="z" horiz-adv-x="463" 
d="M311 395h-250v72h362v-59l-275 -336h275v-72h-383v60z" />
    <glyph glyph-name="braceleft" unicode="{" horiz-adv-x="509" 
d="M415 716l8 -70h-30q-56 0 -79 -24q-22 -23 -22 -83v-112q0 -83 -30 -121q-25 -31 -67 -43v-4q42 -12 67 -43q30 -38 30 -121v-110q0 -60 22 -83q23 -24 79 -24h30l-8 -70h-17q-112 0 -151 41q-35 36 -35 121v122q0 75 -26 103q-28 31 -85 31h-22v70h16q64 0 91 31
q26 28 26 103v124q0 85 35 121q39 41 151 41h17z" />
    <glyph glyph-name="bar" unicode="|" horiz-adv-x="220" 
d="M69 -30v760h82v-760h-82z" />
    <glyph glyph-name="braceright" unicode="}" horiz-adv-x="509" 
d="M94 716h17q112 0 151 -41q35 -36 35 -121v-124q0 -75 26 -103q27 -31 91 -31h16v-70h-22q-57 0 -85 -31q-26 -28 -26 -103v-122q0 -85 -35 -121q-39 -41 -151 -41h-17l-8 70h30q56 0 79 24q22 23 22 83v110q0 83 30 121q25 31 67 43v4q-42 12 -67 43q-30 38 -30 121v112
q0 60 -22 83q-23 24 -79 24h-30z" />
    <glyph glyph-name="asciitilde" unicode="~" horiz-adv-x="628" 
d="M505 725l53 -23q-20 -46 -54 -78q-39 -36 -94 -36q-39 0 -90 23l-37 17q-48 22 -78 22t-53 -21q-16 -16 -30 -39l-52 23q20 45 52 77q38 38 92 38q39 0 91 -24l42 -19q44 -20 72 -20q34 0 56 21q12 11 30 39z" />
    <glyph glyph-name="uni00A0" unicode="&#xa0;" horiz-adv-x="233" 
 />
    <glyph glyph-name="exclamdown" unicode="&#xa1;" horiz-adv-x="274" 
d="M79 492h101v-508h-101v508zM69 636q0 26 19.5 45t44.5 19t44.5 -19t19.5 -45t-19.5 -45t-44.5 -19t-44.5 19t-19.5 45z" />
    <glyph glyph-name="cent" unicode="&#xa2;" 
d="M417 109l56 -49q-53 -64 -148 -69v-81h-72v80q-76 2 -132 58q-65 65 -65 183q0 110 66 180q53 56 131 65v81h72v-81q81 -6 139 -56l-47 -56q-44 32 -93 38v-337q52 3 93 44zM254 66v334q-53 -11 -82 -60q-26 -45 -26 -111q0 -75 31 -117q28 -38 77 -46z" />
    <glyph glyph-name="sterling" unicode="&#xa3;" 
d="M90 -7l-53 81q40 26 63 58q28 40 28 89q0 45 -14 83h-89v73h66q-23 65 -23 122q0 101 57 158q59 59 163 59q66 0 121 -28q43 -21 76 -60l-68 -58q-28 30 -50 43q-34 21 -73 21q-61 0 -93 -34q-33 -33 -33 -99q0 -47 25 -124h148v-73h-128q8 -42 8 -70q0 -72 -49 -128
l2 -5q28 10 53 10q32 0 83 -19q50 -18 76 -18q44 0 77 46l61 -59q-32 -38 -58 -53q-37 -22 -87 -22q-45 0 -105 20q-59 21 -90 21q-50 0 -94 -34z" />
    <glyph glyph-name="currency" unicode="&#xa4;" horiz-adv-x="640" 
d="M83 631l86 -87q63 51 151 51q87 0 150 -51l88 88l52 -52l-88 -88q51 -64 51 -146q0 -92 -51 -155l87 -86l-51 -53l-87 87q-63 -50 -147 -50q-98 0 -155 50l-86 -87l-53 53l88 87q-51 68 -51 155q0 79 51 145l-88 88zM139 342q0 -74 52 -126q55 -55 129 -55q75 0 128 54
q53 53 53 128q0 72 -47 122q-55 58 -134 58q-74 0 -127 -53q-54 -54 -54 -128z" />
    <glyph glyph-name="yen" unicode="&#xa5;" 
d="M260 363l154 337h103l-212 -432h154v-62h-153v-43h153v-62h-153v-101h-92v101h-153v62h153v43h-153v62h154l-212 432h103z" />
    <glyph glyph-name="brokenbar" unicode="&#xa6;" horiz-adv-x="220" 
d="M69 444v286h82v-286h-82zM69 -30v286h82v-286h-82z" />
    <glyph glyph-name="section" unicode="&#xa7;" horiz-adv-x="585" 
d="M337 440l66 -44q48 -34 71 -69q25 -36 25 -89q0 -66 -32 -110q-33 -45 -82 -67q53 -42 53 -117q0 -71 -43 -110q-42 -39 -121 -39q-87 0 -149 64l51 60q48 -49 99 -49q35 0 55 17q22 18 22 54q0 38 -29 70q-27 28 -76 62l-48 34q-58 42 -79 69q-34 42 -34 99q0 56 31 101
t81 70q-53 51 -53 112q0 75 43 116q44 42 122 42q88 0 147 -54l-51 -62q-45 41 -93 41q-40 0 -62 -22q-20 -20 -20 -56q0 -39 31 -68q14 -14 75 -55zM336 339l-90 60q-35 -20 -54 -49q-20 -29 -20 -64q0 -36 26 -66q21 -24 59 -50l82 -59q28 17 47 41q27 33 27 76
q0 36 -24 66q-19 22 -53 45z" />
    <glyph glyph-name="dieresis" unicode="&#xa8;" horiz-adv-x="475" 
d="M265 638q0 23 16 39t39 16q22 0 38.5 -15.5t16.5 -39.5q0 -23 -16 -39t-39 -16q-24 0 -39.5 16.5t-15.5 38.5zM100 638q0 23 16 39t39 16q22 0 38.5 -15.5t16.5 -39.5q0 -23 -16 -39t-39 -16q-24 0 -39.5 16.5t-15.5 38.5z" />
    <glyph glyph-name="copyright" unicode="&#xa9;" horiz-adv-x="812" 
d="M526 251l47 -41q-51 -63 -151 -63q-92 0 -141 50q-55 55 -55 150t55 153t149 58q83 0 135 -49l-40 -49q-51 37 -101 37q-52 0 -82 -31q-39 -39 -39 -115q0 -74 39 -113q31 -31 81 -31q57 0 103 44zM101 350q0 -127 89 -216t216 -89q126 0 215 89q90 89 90 216t-88 215
q-89 90 -217 90q-126 0 -215 -89q-90 -89 -90 -216zM40 350q0 150 106 257q109 109 260 109t258 -107q108 -108 108 -259q0 -150 -106 -258q-52 -53 -120.5 -80.5t-139.5 -27.5q-153 0 -260 108q-106 108 -106 258z" />
    <glyph glyph-name="ordfeminine" unicode="&#xaa;" horiz-adv-x="402" 
d="M90 629l-32 46q63 41 142 41q75 0 108 -35q29 -30 29 -100v-143q0 -28 8 -36q8 -10 29 -8l-10 -55q-40 -7 -64 12q-18 14 -22 39q-22 -24 -45 -36q-32 -17 -76 -17q-59 0 -92 31t-33 79q0 46 32 78q34 33 102 43q51 7 105 7v4q0 47 -18 65q-17 17 -55 17q-51 0 -108 -32z
M272 450v72q-55 -2 -88 -8q-42 -6 -63 -26q-18 -16 -18 -42q0 -23 16 -37q16 -15 47 -15q29 0 53 12q30 16 53 44z" />
    <glyph glyph-name="guillemotleft" unicode="&#xab;" horiz-adv-x="537" 
d="M467 63l-49 -40l-159 204l159 193l49 -42l-112 -151zM339 25l-51 -47l-218 249l218 244l51 -51l-158 -193z" />
    <glyph glyph-name="logicalnot" unicode="&#xac;" horiz-adv-x="726" 
d="M48 308v82h630v-232h-82v150h-548z" />
    <glyph glyph-name="uni00AD" unicode="&#xad;" horiz-adv-x="330" 
d="M29 244v82h272v-82h-272z" />
    <glyph glyph-name="registered" unicode="&#xae;" horiz-adv-x="812" 
d="M346 317v-154h-76v385h136q74 0 109 -30q34 -30 34 -85q0 -47 -25 -74q-19 -23 -55 -30l95 -166h-84l-84 154h-50zM346 488v-111h54q33 0 50 13q19 16 19 43q0 30 -18 43q-15 12 -50 12h-55zM40 350q0 150 106 257q109 109 260 109t258 -107q108 -108 108 -259
q0 -150 -106 -258q-52 -53 -120.5 -80.5t-139.5 -27.5q-153 0 -260 108q-106 108 -106 258zM101 350q0 -127 89 -216t216 -89q126 0 215 89q90 89 90 216t-88 215q-89 90 -217 90q-126 0 -215 -89q-90 -89 -90 -216z" />
    <glyph glyph-name="macron" unicode="&#xaf;" horiz-adv-x="460" 
d="M100 578v58h260v-58h-260z" />
    <glyph glyph-name="macron" unicode="&#x2c9;" horiz-adv-x="460" 
d="M100 578v58h260v-58h-260z" />
    <glyph glyph-name="degree" unicode="&#xb0;" horiz-adv-x="350" 
d="M60 601q0 49 33 82t82 33t82 -33t33 -82t-33 -82t-82 -33t-82 33t-33 82zM109 601q0 -26 20 -46t46 -20t46 20t20 46t-20 46t-46 20t-46 -20t-20 -46z" />
    <glyph glyph-name="plusminus" unicode="&#xb1;" horiz-adv-x="718" 
d="M48 462h270v218h82v-218h270v-82h-270v-196h-82v196h-270v82zM48 132h622v-82h-622v82z" />
    <glyph glyph-name="twosuperior" unicode="&#xb2;" horiz-adv-x="340" 
d="M128 340h170v-60h-265v53q35 29 88 82q57 59 77 92q28 45 28 84q0 28 -16 46q-17 19 -46 19q-28 0 -47 -19q-16 -16 -23 -39l-61 24q14 41 46 65q39 29 91 29q62 0 96 -36q33 -33 33 -87q0 -48 -28 -98q-23 -40 -68 -87q-35 -37 -75 -68z" />
    <glyph glyph-name="threesuperior" unicode="&#xb3;" horiz-adv-x="340" 
d="M89 602l-58 25q16 41 50 65q35 24 84 24q57 0 91 -33q34 -34 34 -84q0 -37 -20 -62q-19 -25 -50 -34v-2q34 -8 55 -31q27 -29 27 -73q0 -58 -38 -94q-37 -35 -105 -35q-54 0 -86 23q-30 21 -50 58l58 35q12 -24 28 -38q21 -18 50 -18q31 0 49 18q20 19 20 52q0 36 -25 54
q-20 14 -65 14h-12v60h13q38 0 58 16q23 18 23 50q0 30 -17 47q-15 17 -44 17q-26 0 -45 -17q-13 -12 -25 -37z" />
    <glyph glyph-name="acute" unicode="&#xb4;" horiz-adv-x="392" 
d="M182 700h102l-112 -163h-66z" />
    <glyph glyph-name="mu" unicode="&#xb5;" horiz-adv-x="525" 
d="M457 467v-467h-83v61q-21 -35 -47 -53q-29 -19 -64 -19q-37 0 -67 19q-7 5 -14 11.5t-12.5 13t-9.5 12t-6 9.5l-3 4v-250h-83v659h83v-303q13 -45 44 -76q28 -27 68 -27t68 27q29 27 43 76v303h83z" />
    <glyph glyph-name="mu" unicode="&#x3bc;" horiz-adv-x="525" 
d="M457 467v-467h-83v61q-21 -35 -47 -53q-29 -19 -64 -19q-37 0 -67 19q-7 5 -14 11.5t-12.5 13t-9.5 12t-6 9.5l-3 4v-250h-83v659h83v-303q13 -45 44 -76q28 -27 68 -27t68 27q29 27 43 76v303h83z" />
    <glyph glyph-name="paragraph" unicode="&#xb6;" horiz-adv-x="538" 
d="M501 700v-66h-64v-826h-70v826h-99v-826h-70v544q-70 -2 -118 36q-56 43 -56 130q0 71 38 117q32 39 83 52t120 13h236z" />
    <glyph glyph-name="periodcentered" unicode="&#xb7;" horiz-adv-x="250" 
d="M53 253q0 29 21.5 50.5t51.5 21.5q29 0 50.5 -21.5t21.5 -50.5q0 -27 -19.5 -49.5t-52.5 -22.5q-35 0 -54 23t-19 49z" />
    <glyph glyph-name="cedilla" unicode="&#xb8;" horiz-adv-x="421" 
d="M199 0h46l-15 -43q51 2 80 -27q21 -21 21 -50q0 -31 -23 -56q-28 -29 -87 -29q-31 0 -61 10q-20 6 -43 19l26 44q17 -10 33 -16q20 -7 44 -7q26 0 39 13q9 9 9 24q0 11 -9 20q-14 14 -52 14q-17 0 -37 -3z" />
    <glyph glyph-name="onesuperior" unicode="&#xb9;" horiz-adv-x="340" 
d="M150 280v320q-31 -26 -60 -40l-24 42q38 25 53 40q30 27 46 58h53v-420h-68z" />
    <glyph glyph-name="ordmasculine" unicode="&#xba;" horiz-adv-x="437" 
d="M34 525q0 87 54 140q53 51 130 51q82 0 131 -47q54 -54 54 -143q0 -84 -48 -136q-50 -53 -138 -53q-84 0 -135 54q-48 50 -48 134zM219 660q-51 0 -81 -35q-33 -37 -33 -98q0 -62 33 -99q30 -35 81 -35q50 0 80 35q33 37 33 99q0 61 -33 98q-30 35 -80 35z" />
    <glyph glyph-name="guillemotright" unicode="&#xbb;" horiz-adv-x="537" 
d="M70 63l112 164l-112 151l49 42l159 -193l-159 -204zM198 25l158 202l-158 193l51 51l218 -244l-218 -249z" />
    <glyph glyph-name="onequarter" unicode="&#xbc;" horiz-adv-x="790" 
d="M624 89h-187v52l184 279h69v-271h38v-60h-38v-89h-66v89zM624 145v186l-120 -186h120zM171 -77l-49 32l456 822l50 -36zM140 280v320q-31 -26 -60 -40l-24 42q38 25 53 40q30 27 46 58h53v-420h-68z" />
    <glyph glyph-name="onehalf" unicode="&#xbd;" horiz-adv-x="790" 
d="M127 280v320q-31 -26 -60 -40l-24 42q38 25 53 40q30 27 46 58h53v-420h-68zM567 60h170v-60h-265v53q35 29 88 82q57 59 77 92q28 45 28 84q0 28 -16 46q-17 19 -46 19q-28 0 -47 -19q-16 -16 -23 -39l-61 24q14 41 46 65q39 29 91 29q62 0 96 -36q33 -33 33 -87
q0 -48 -28 -98q-23 -40 -68 -87q-35 -37 -75 -68zM148 -77l-49 32l456 822l50 -36z" />
    <glyph glyph-name="threequarters" unicode="&#xbe;" horiz-adv-x="788" 
d="M106 602l-58 25q16 41 50 65q35 24 84 24q57 0 91 -33q34 -34 34 -84q0 -37 -20 -62q-19 -25 -50 -34v-2q34 -8 55 -31q27 -29 27 -73q0 -58 -38 -94q-37 -35 -105 -35q-54 0 -86 23q-30 21 -50 58l58 35q12 -24 28 -38q21 -18 50 -18q31 0 49 18q20 20 20 51
q0 36 -25 54q-20 14 -65 14h-12v62h13q38 0 58 16q23 18 23 50q0 27 -17 46q-15 17 -44 17q-26 0 -45 -17q-13 -12 -25 -37zM229 -77l-49 32l456 822l50 -36zM644 145v186l-120 -186h120zM644 89h-187v52l184 279h69v-271h38v-60h-38v-89h-66v89z" />
    <glyph glyph-name="questiondown" unicode="&#xbf;" horiz-adv-x="493" 
d="M220 492h88v-5q0 -52 -13 -91t-56 -87l-33 -37q-17 -19 -26 -30.5t-19.5 -36.5t-10.5 -52q0 -46 28 -74q25 -25 67 -25q47 0 78 31q24 24 39 62l85 -29q-24 -68 -75 -109q-53 -41 -132 -41q-85 0 -138 47q-56 50 -56 135q0 35 12 66.5t25 48t34 38.5l39 40q42 45 52 69
q12 29 12 74v6zM328 636q0 -26 -19 -45t-45 -19t-45 19t-19 45t19 45t45 19t45 -19t19 -45z" />
    <glyph glyph-name="Agrave" unicode="&#xc0;" horiz-adv-x="676" 
d="M183 190l-73 -190h-106l291 700h86l291 -700h-106l-73 190h-310zM459 273l-121 306l-121 -306h242zM292 910l76 -141h-70l-112 141h106z" />
    <glyph glyph-name="Aacute" unicode="&#xc1;" horiz-adv-x="676" 
d="M183 190l-73 -190h-106l291 700h86l291 -700h-106l-73 190h-310zM459 273l-121 306l-121 -306h242zM382 910h106l-112 -141h-70z" />
    <glyph glyph-name="Acircumflex" unicode="&#xc2;" horiz-adv-x="676" 
d="M183 190l-73 -190h-106l291 700h86l291 -700h-106l-73 190h-310zM459 273l-121 306l-121 -306h242zM336 850l-61 -81h-84l106 141h78l106 -141h-84z" />
    <glyph glyph-name="Atilde" unicode="&#xc3;" horiz-adv-x="676" 
d="M183 190l-73 -190h-106l291 700h86l291 -700h-106l-73 190h-310zM459 273l-121 306l-121 -306h242zM449 877l45 -34q-23 -34 -36 -45q-25 -20 -55 -20q-27 0 -63 20l-20 11q-30 17 -46 17q-17 0 -32 -12q-13 -10 -20 -21l-44 35q18 27 37 42q26 22 60 22q27 0 55 -16
l23 -13q34 -19 48 -19q17 0 31 12q12 12 17 21z" />
    <glyph glyph-name="Adieresis" unicode="&#xc4;" horiz-adv-x="676" 
d="M183 190l-73 -190h-106l291 700h86l291 -700h-106l-73 190h-310zM459 273l-121 306l-121 -306h242zM174 830q0 25 17 42t42 17t42 -17t17 -42t-17 -42t-42 -17t-42 17t-17 42zM377 830q0 25 17 42t42 17t42 -17t17 -42t-17 -42t-42 -17t-42 17t-17 42z" />
    <glyph glyph-name="Aring" unicode="&#xc5;" horiz-adv-x="676" 
d="M183 190l-73 -190h-106l291 700h86l291 -700h-106l-73 190h-310zM459 273l-121 306l-121 -306h242zM238 852q0 42 29 71t71 29t71 -29t29 -71t-29 -71t-71 -29t-71 29t-29 71zM288 852q0 -20 15 -35t35 -15t35 15t15 35t-15 35t-35 15t-35 -15t-15 -35z" />
    <glyph glyph-name="AE" unicode="&#xc6;" horiz-adv-x="951" 
d="M593 617v-201h250v-83h-250v-250h314v-83h-410v190h-282l-107 -190h-106l414 700h479v-83h-302zM497 273v344h-39l-195 -344h234z" />
    <glyph glyph-name="Ccedilla" unicode="&#xc7;" horiz-adv-x="626" 
d="M583 635l-53 -66q-29 24 -64 40q-51 24 -100 24q-83 0 -140 -55q-79 -77 -79 -228q0 -149 77 -226q57 -57 144 -57q90 0 170 67l54 -69q-80 -75 -207 -78l-10 -30q49 2 78 -27q21 -21 21 -50q0 -31 -23 -56q-28 -29 -87 -29q-31 0 -61 10q-20 6 -43 19l26 44
q16 -10 33 -16q20 -7 44 -7q26 0 39 13q9 9 9 24q0 11 -9 20q-14 14 -53 14q-17 0 -36 -3l24 74q-111 4 -186 76q-49 46 -77.5 119t-28.5 165q0 176 103 281q86 88 220 88q69 0 129 -25q47 -19 86 -56z" />
    <glyph glyph-name="Egrave" unicode="&#xc8;" horiz-adv-x="529" 
d="M482 617h-306v-201h254v-83h-254v-250h319v-83h-415v700h402v-83zM259 910l76 -141h-70l-112 141h106z" />
    <glyph glyph-name="Eacute" unicode="&#xc9;" horiz-adv-x="529" 
d="M482 617h-306v-201h254v-83h-254v-250h319v-83h-415v700h402v-83zM312 910h106l-112 -141h-70z" />
    <glyph glyph-name="Ecircumflex" unicode="&#xca;" horiz-adv-x="529" 
d="M482 617h-306v-201h254v-83h-254v-250h319v-83h-415v700h402v-83zM285 850l-61 -81h-84l106 141h78l106 -141h-84z" />
    <glyph glyph-name="Edieresis" unicode="&#xcb;" horiz-adv-x="529" 
d="M482 617h-306v-201h254v-83h-254v-250h319v-83h-415v700h402v-83zM125 830q0 25 17 42t42 17t42 -17t17 -42t-17 -42t-42 -17t-42 17t-17 42zM328 830q0 25 17 42t42 17t42 -17t17 -42t-17 -42t-42 -17t-42 17t-17 42z" />
    <glyph glyph-name="Igrave" unicode="&#xcc;" horiz-adv-x="256" 
d="M80 0v700h96v-700h-96zM92 910l76 -141h-70l-112 141h106z" />
    <glyph glyph-name="Iacute" unicode="&#xcd;" horiz-adv-x="256" 
d="M80 0v700h96v-700h-96zM164 910h106l-112 -141h-70z" />
    <glyph glyph-name="Icircumflex" unicode="&#xce;" horiz-adv-x="256" 
d="M80 0v700h96v-700h-96zM128 850l-61 -81h-84l106 141h78l106 -141h-84z" />
    <glyph glyph-name="Idieresis" unicode="&#xcf;" horiz-adv-x="256" 
d="M80 0v700h96v-700h-96zM-32 830q0 25 17 42t42 17t42 -17t17 -42t-17 -42t-42 -17t-42 17t-17 42zM171 830q0 25 17 42t42 17t42 -17t17 -42t-17 -42t-42 -17t-42 17t-17 42z" />
    <glyph glyph-name="Eth" unicode="&#xd0;" horiz-adv-x="674" 
d="M90 408v292h170q194 0 279 -81q90 -85 90 -273q0 -176 -88 -263q-49 -49 -117.5 -66t-163.5 -17h-170v325h-78v83h78zM186 617v-209h143v-83h-143v-242h87q137 0 195 59q59 60 59 210q0 146 -59 206q-58 59 -195 59h-87z" />
    <glyph glyph-name="Ntilde" unicode="&#xd1;" horiz-adv-x="667" 
d="M176 542v-542h-96v700h96l315 -532v532h96v-700h-96zM440 877l45 -34q-23 -34 -36 -45q-25 -20 -55 -20q-27 0 -63 20l-20 11q-30 17 -46 17q-17 0 -32 -12q-13 -10 -20 -21l-44 35q18 27 37 42q26 22 60 22q27 0 55 -16l23 -13q34 -19 48 -19q18 0 31 12q12 12 17 21z
" />
    <glyph glyph-name="Ograve" unicode="&#xd2;" horiz-adv-x="722" 
d="M361 633q-90 0 -144 -62q-70 -79 -70 -221t70 -221q54 -62 144 -62t144 62q70 79 70 221t-70 221q-54 62 -144 62zM677 349q0 -189 -97 -285q-81 -80 -219 -80t-219 80q-97 96 -97 286t97 286q81 80 219 80t219 -80q97 -96 97 -287zM322 910l76 -141h-70l-112 141h106z
" />
    <glyph glyph-name="Oacute" unicode="&#xd3;" horiz-adv-x="722" 
d="M361 633q-90 0 -144 -62q-70 -79 -70 -221t70 -221q54 -62 144 -62t144 62q70 79 70 221t-70 221q-54 62 -144 62zM677 349q0 -189 -97 -285q-81 -80 -219 -80t-219 80q-97 96 -97 286t97 286q81 80 219 80t219 -80q97 -96 97 -287zM392 910h106l-112 -141h-70z" />
    <glyph glyph-name="Ocircumflex" unicode="&#xd4;" horiz-adv-x="722" 
d="M361 633q-90 0 -144 -62q-70 -79 -70 -221t70 -221q54 -62 144 -62t144 62q70 79 70 221t-70 221q-54 62 -144 62zM677 349q0 -189 -97 -285q-81 -80 -219 -80t-219 80q-97 96 -97 286t97 286q81 80 219 80t219 -80q97 -96 97 -287zM360 850l-61 -81h-84l106 141h78
l106 -141h-84z" />
    <glyph glyph-name="Otilde" unicode="&#xd5;" horiz-adv-x="722" 
d="M361 633q-90 0 -144 -62q-70 -79 -70 -221t70 -221q54 -62 144 -62t144 62q70 79 70 221t-70 221q-54 62 -144 62zM677 349q0 -189 -97 -285q-81 -80 -219 -80t-219 80q-97 96 -97 286t97 286q81 80 219 80t219 -80q97 -96 97 -287zM474 877l45 -34q-23 -34 -36 -45
q-25 -20 -55 -20q-27 0 -63 20l-20 11q-30 17 -46 17q-17 0 -32 -12q-13 -10 -20 -21l-44 35q18 27 37 42q26 22 60 22q27 0 55 -16l23 -13q34 -19 48 -19q18 0 31 12q12 12 17 21z" />
    <glyph glyph-name="Odieresis" unicode="&#xd6;" horiz-adv-x="722" 
d="M361 633q-90 0 -144 -62q-70 -79 -70 -221t70 -221q54 -62 144 -62t144 62q70 79 70 221t-70 221q-54 62 -144 62zM677 349q0 -189 -97 -285q-81 -80 -219 -80t-219 80q-97 96 -97 286t97 286q81 80 219 80t219 -80q97 -96 97 -287zM200 830q0 25 17 42t42 17t42 -17
t17 -42t-17 -42t-42 -17t-42 17t-17 42zM403 830q0 25 17 42t42 17t42 -17t17 -42t-17 -42t-42 -17t-42 17t-17 42z" />
    <glyph glyph-name="multiply" unicode="&#xd7;" horiz-adv-x="710" 
d="M355 297l-191 -191l-58 58l191 191l-191 191l58 58l191 -191l191 191l58 -58l-191 -191l191 -191l-58 -58z" />
    <glyph glyph-name="Oslash" unicode="&#xd8;" horiz-adv-x="722" 
d="M208 140l272 454q-51 39 -119 39q-90 0 -144 -62q-70 -79 -70 -221q0 -128 61 -210zM524 546l-271 -448q48 -31 108 -31q90 0 144 62q70 78 70 221q0 117 -51 196zM622 709l-44 -73q99 -106 99 -285q0 -191 -97 -287q-81 -80 -219 -80q-91 0 -156 34l-44 -73l-51 32
l45 75q-60 63 -85 131t-25 168q0 189 97 285q81 80 221 80q94 0 165 -41l41 69z" />
    <glyph glyph-name="Ugrave" unicode="&#xd9;" horiz-adv-x="683" 
d="M603 700v-431q0 -49 -2.5 -79.5t-16.5 -71t-42 -68.5q-66 -66 -201 -66q-134 0 -200 66q-28 28 -42 68.5t-16.5 71t-2.5 79.5v431h96v-428q0 -42 1 -61t10 -51.5t27 -50.5q40 -40 128 -40q87 0 127 40q18 18 27 50.5t10 51.5t1 61v428h96zM322 910l76 -141h-70l-112 141
h106z" />
    <glyph glyph-name="Uacute" unicode="&#xda;" horiz-adv-x="683" 
d="M603 700v-431q0 -49 -2.5 -79.5t-16.5 -71t-42 -68.5q-66 -66 -201 -66q-134 0 -200 66q-28 28 -42 68.5t-16.5 71t-2.5 79.5v431h96v-428q0 -42 1 -61t10 -51.5t27 -50.5q40 -40 128 -40q87 0 127 40q18 18 27 50.5t10 51.5t1 61v428h96zM362 910h106l-112 -141h-70z
" />
    <glyph glyph-name="Ucircumflex" unicode="&#xdb;" horiz-adv-x="683" 
d="M603 700v-431q0 -49 -2.5 -79.5t-16.5 -71t-42 -68.5q-66 -66 -201 -66q-134 0 -200 66q-28 28 -42 68.5t-16.5 71t-2.5 79.5v431h96v-428q0 -42 1 -61t10 -51.5t27 -50.5q40 -40 128 -40q87 0 127 40q18 18 27 50.5t10 51.5t1 61v428h96zM343 850l-61 -81h-84l106 141
h78l106 -141h-84z" />
    <glyph glyph-name="Udieresis" unicode="&#xdc;" horiz-adv-x="683" 
d="M603 700v-431q0 -49 -2.5 -79.5t-16.5 -71t-42 -68.5q-66 -66 -201 -66q-134 0 -200 66q-28 28 -42 68.5t-16.5 71t-2.5 79.5v431h96v-428q0 -42 1 -61t10 -51.5t27 -50.5q40 -40 128 -40q87 0 127 40q18 18 27 50.5t10 51.5t1 61v428h96zM181 830q0 25 17 42t42 17
t42 -17t17 -42t-17 -42t-42 -17t-42 17t-17 42zM384 830q0 25 17 42t42 17t42 -17t17 -42t-17 -42t-42 -17t-42 17t-17 42z" />
    <glyph glyph-name="Yacute" unicode="&#xdd;" horiz-adv-x="614" 
d="M307 363l185 337h108l-245 -432v-268h-96v268l-245 432h108zM332 910h106l-112 -141h-70z" />
    <glyph glyph-name="Thorn" unicode="&#xde;" horiz-adv-x="604" 
d="M176 170v-170h-96v700h96v-90h124q140 0 205 -62q59 -57 59 -158q0 -103 -60 -159q-66 -61 -196 -61h-132zM176 527v-274h118q87 0 128 38q39 35 39 101q0 67 -43 102q-40 33 -128 33h-114z" />
    <glyph glyph-name="germandbls" unicode="&#xdf;" horiz-adv-x="505" 
d="M68 0v444q0 57 1.5 86t13.5 68t36 64q46 48 128 48q85 0 133 -48q47 -47 47 -127q0 -70 -35 -109q-24 -26 -61 -37v-5q52 -9 88 -45q46 -46 46 -134q0 -122 -56 -178q-41 -41 -116 -41q-53 0 -96 24l28 70q31 -20 65 -20q31 0 52 22q31 34 31 117q0 78 -36 116
q-32 32 -95 32h-8v69h6q49 0 75 26t26 85q0 58 -26 85q-24 26 -67 26q-42 0 -67 -25q-30 -30 -30 -105v-508h-83z" />
    <glyph glyph-name="agrave" unicode="&#xe0;" horiz-adv-x="500" 
d="M106 365l-41 58q77 55 183 55q96 0 139 -45q37 -39 37 -129v-162q0 -57 10 -69q12 -15 38 -10l-12 -71q-48 -12 -81 14q-23 18 -31 51q-30 -32 -60 -47q-40 -21 -99 -21q-74 0 -115 40q-42 40 -42 103q0 58 41 99q43 43 132 56q63 9 134 9v5q0 63 -23 84q-22 21 -72 21
q-34 0 -75 -13q-36 -12 -63 -28zM341 135v92q-67 0 -121 -11q-50 -10 -74 -32q-23 -21 -23 -53q0 -29 20 -49q21 -20 61 -20q31 0 59 12q41 18 78 61zM228 700l76 -163h-66l-112 163h102z" />
    <glyph glyph-name="aacute" unicode="&#xe1;" horiz-adv-x="500" 
d="M106 365l-41 58q77 55 183 55q96 0 139 -45q37 -39 37 -129v-162q0 -57 10 -69q12 -15 38 -10l-12 -71q-48 -12 -81 14q-23 18 -31 51q-30 -32 -60 -47q-40 -21 -99 -21q-74 0 -115 40q-42 40 -42 103q0 58 41 99q43 43 132 56q63 9 134 9v5q0 63 -23 84q-22 21 -72 21
q-34 0 -75 -13q-36 -12 -63 -28zM341 135v92q-67 0 -121 -11q-50 -10 -74 -32q-23 -21 -23 -53q0 -29 20 -49q21 -20 61 -20q31 0 59 12q41 18 78 61zM262 700h102l-112 -163h-66z" />
    <glyph glyph-name="acircumflex" unicode="&#xe2;" horiz-adv-x="500" 
d="M106 365l-41 58q77 55 183 55q96 0 139 -45q37 -39 37 -129v-162q0 -57 10 -69q12 -15 38 -10l-12 -71q-48 -12 -81 14q-23 18 -31 51q-30 -32 -60 -47q-40 -21 -99 -21q-74 0 -115 40q-42 40 -42 103q0 58 41 99q43 43 132 56q63 9 134 9v5q0 63 -23 84q-22 21 -72 21
q-34 0 -75 -13q-36 -12 -63 -28zM341 135v92q-67 0 -121 -11q-50 -10 -74 -32q-23 -21 -23 -53q0 -29 20 -49q21 -20 61 -20q31 0 59 12q41 18 78 61zM242 637l-65 -100h-84l110 163h78l110 -163h-84z" />
    <glyph glyph-name="atilde" unicode="&#xe3;" horiz-adv-x="500" 
d="M106 365l-41 58q77 55 183 55q96 0 139 -45q37 -39 37 -129v-162q0 -57 10 -69q12 -15 38 -10l-12 -71q-48 -12 -81 14q-23 18 -31 51q-30 -32 -60 -47q-40 -21 -99 -21q-74 0 -115 40q-42 40 -42 103q0 58 41 99q43 43 132 56q63 9 134 9v5q0 63 -23 84q-22 21 -72 21
q-34 0 -75 -13q-36 -12 -63 -28zM341 135v92q-67 0 -121 -11q-50 -10 -74 -32q-23 -21 -23 -53q0 -29 20 -49q21 -20 61 -20q31 0 59 12q41 18 78 61zM124 569l-47 31q17 29 30 42q28 28 73 28q30 0 62 -20l17 -11q28 -17 46 -17t33 13q11 11 17 24l47 -31q-10 -24 -28 -42
q-29 -28 -70 -28q-32 0 -64 19l-20 12q-27 17 -44 17q-18 0 -35 -15q-11 -9 -17 -22z" />
    <glyph glyph-name="adieresis" unicode="&#xe4;" horiz-adv-x="500" 
d="M106 365l-41 58q77 55 183 55q96 0 139 -45q37 -39 37 -129v-162q0 -57 10 -69q12 -15 38 -10l-12 -71q-48 -12 -81 14q-23 18 -31 51q-30 -32 -60 -47q-40 -21 -99 -21q-74 0 -115 40q-42 40 -42 103q0 58 41 99q43 43 132 56q63 9 134 9v5q0 63 -23 84q-22 21 -72 21
q-34 0 -75 -13q-36 -12 -63 -28zM341 135v92q-67 0 -121 -11q-50 -10 -74 -32q-23 -21 -23 -53q0 -29 20 -49q21 -20 61 -20q31 0 59 12q41 18 78 61zM275 638q0 23 16 39t39 16q22 0 38.5 -15.5t16.5 -39.5q0 -23 -16 -39t-39 -16q-24 0 -39.5 16.5t-15.5 38.5zM110 638
q0 23 16 39t39 16q22 0 38.5 -15.5t16.5 -39.5q0 -23 -16 -39t-39 -16q-24 0 -39.5 16.5t-15.5 38.5z" />
    <glyph glyph-name="aring" unicode="&#xe5;" horiz-adv-x="500" 
d="M106 365l-41 58q77 55 183 55q96 0 139 -45q37 -39 37 -129v-162q0 -57 10 -69q12 -15 38 -10l-12 -71q-48 -12 -81 14q-23 18 -31 51q-30 -32 -60 -47q-40 -21 -99 -21q-74 0 -115 40q-42 40 -42 103q0 58 41 99q43 43 132 56q63 9 134 9v5q0 63 -23 84q-22 21 -72 21
q-34 0 -75 -13q-36 -12 -63 -28zM341 135v92q-67 0 -121 -11q-50 -10 -74 -32q-23 -21 -23 -53q0 -29 20 -49q21 -20 61 -20q31 0 59 12q41 18 78 61zM140 630q0 42 29 71t71 29t71 -29t29 -71t-29 -71t-71 -29t-71 29t-29 71zM190 630q0 -20 15 -35t35 -15t35 15t15 35
t-15 35t-35 15t-35 -15t-15 -35z" />
    <glyph glyph-name="ae" unicode="&#xe6;" horiz-adv-x="799" 
d="M437 289h232q-12 117 -113 117q-51 0 -81.5 -33t-37.5 -84zM699 112l56 -49q-64 -74 -182 -74q-126 0 -185 93q-81 -93 -199 -93q-24 0 -48.5 6t-50.5 20.5t-42 44.5t-16 72q0 128 173 155q63 9 134 9v5q0 30 -5 50.5t-27 37.5t-62 17q-64 0 -139 -41l-35 58q32 23 76 39
t105 16q45 0 87 -16.5t65 -48.5q52 65 154 65q58 0 100.5 -22.5t64.5 -60.5t32 -79t10 -88v-11h-332q2 -77 46 -121q35 -35 93 -35q74 0 127 51zM339 135v92q-83 -3 -119 -11q-97 -20 -97 -85q0 -69 81 -69q77 0 135 73z" />
    <glyph glyph-name="ccedilla" unicode="&#xe7;" horiz-adv-x="469" 
d="M391 113l56 -49q-62 -74 -163 -74l-14 -33q51 2 80 -27q21 -21 21 -50q0 -31 -23 -56q-28 -29 -87 -29q-31 0 -61 10q-20 6 -43 19l26 44q17 -10 33 -16q20 -7 44 -7q26 0 39 13q9 9 9 24q0 11 -9 20q-16 14 -53 14q-20 0 -36 -3l28 77q-83 3 -139 59q-65 65 -65 179
q0 112 66 182q64 68 171 68q102 0 169 -58l-48 -58q-64 44 -121 44q-59 0 -96 -37q-49 -49 -49 -142q0 -83 46 -129q37 -37 97 -37q67 0 122 52z" />
    <glyph glyph-name="egrave" unicode="&#xe8;" horiz-adv-x="496" 
d="M130 289h236q-6 55 -39 86t-76 31q-45 0 -79 -31t-42 -86zM394 112l56 -49q-65 -74 -183 -74q-106 0 -166 62q-67 70 -67 179q0 98 57 173t161 75q48 0 85.5 -17t60.5 -43.5t38 -62.5t20.5 -69.5t5.5 -68.5h-336q1 -71 41.5 -113.5t96.5 -42.5q76 0 130 51zM228 700
l76 -163h-66l-112 163h102z" />
    <glyph glyph-name="eacute" unicode="&#xe9;" horiz-adv-x="496" 
d="M130 289h236q-6 55 -39 86t-76 31q-45 0 -79 -31t-42 -86zM394 112l56 -49q-65 -74 -183 -74q-106 0 -166 62q-67 70 -67 179q0 98 57 173t161 75q48 0 85.5 -17t60.5 -43.5t38 -62.5t20.5 -69.5t5.5 -68.5h-336q1 -71 41.5 -113.5t96.5 -42.5q76 0 130 51zM287 700h102
l-112 -163h-66z" />
    <glyph glyph-name="ecircumflex" unicode="&#xea;" horiz-adv-x="496" 
d="M130 289h236q-6 55 -39 86t-76 31q-45 0 -79 -31t-42 -86zM394 112l56 -49q-65 -74 -183 -74q-106 0 -166 62q-67 70 -67 179q0 98 57 173t161 75q48 0 85.5 -17t60.5 -43.5t38 -62.5t20.5 -69.5t5.5 -68.5h-336q1 -71 41.5 -113.5t96.5 -42.5q76 0 130 51zM252 637
l-65 -100h-84l110 163h78l110 -163h-84z" />
    <glyph glyph-name="edieresis" unicode="&#xeb;" horiz-adv-x="496" 
d="M130 289h236q-6 55 -39 86t-76 31q-45 0 -79 -31t-42 -86zM394 112l56 -49q-65 -74 -183 -74q-106 0 -166 62q-67 70 -67 179q0 98 57 173t161 75q48 0 85.5 -17t60.5 -43.5t38 -62.5t20.5 -69.5t5.5 -68.5h-336q1 -71 41.5 -113.5t96.5 -42.5q76 0 130 51zM285 638
q0 23 16 39t39 16q22 0 38.5 -15.5t16.5 -39.5q0 -23 -16 -39t-39 -16q-24 0 -39.5 16.5t-15.5 38.5zM120 638q0 23 16 39t39 16q22 0 38.5 -15.5t16.5 -39.5q0 -23 -16 -39t-39 -16q-24 0 -39.5 16.5t-15.5 38.5z" />
    <glyph glyph-name="igrave" unicode="&#xec;" horiz-adv-x="219" 
d="M68 0v467h83v-467h-83zM73 700l76 -163h-66l-112 163h102z" />
    <glyph glyph-name="iacute" unicode="&#xed;" horiz-adv-x="219" 
d="M68 0v467h83v-467h-83zM152 700h102l-112 -163h-66z" />
    <glyph glyph-name="icircumflex" unicode="&#xee;" horiz-adv-x="219" 
d="M68 0v467h83v-467h-83zM110 637l-65 -100h-84l110 163h78l110 -163h-84z" />
    <glyph glyph-name="idieresis" unicode="&#xef;" horiz-adv-x="219" 
d="M68 0v467h83v-467h-83zM137 638q0 23 16 39t39 16q22 0 38.5 -15.5t16.5 -39.5q0 -23 -16 -39t-39 -16q-24 0 -39.5 16.5t-15.5 38.5zM-28 638q0 23 16 39t39 16q22 0 38.5 -15.5t16.5 -39.5q0 -23 -16 -39t-39 -16q-24 0 -39.5 16.5t-15.5 38.5z" />
    <glyph glyph-name="eth" unicode="&#xf0;" horiz-adv-x="545" 
d="M421 666l-71 -34q58 -55 98 -124q63 -113 63 -249q0 -134 -63 -203q-62 -67 -177 -67q-110 0 -174 68q-63 67 -63 174q0 112 70 182q29 29 73 47t87 18q89 0 143 -60q-12 52 -53 104q-39 50 -70 75l-107 -55l-31 60l78 40q-46 27 -93 44l54 54q57 -23 110 -59l96 48z
M273 406q-64 0 -103 -45q-44 -50 -44 -128q0 -77 44 -127q39 -45 102 -45q64 0 103 45q44 50 44 127q0 78 -44 128q-39 45 -102 45z" />
    <glyph glyph-name="ntilde" unicode="&#xf1;" horiz-adv-x="522" 
d="M68 467h83v-56q31 31 59 46q38 21 91 21q75 0 114 -39t39 -138v-301h-83v299q0 53 -16 76q-20 29 -63 29q-42 0 -83 -30q-31 -23 -58 -59v-315h-83v467zM144 569l-47 31q17 29 30 42q28 28 73 28q30 0 62 -20l17 -11q28 -17 46 -17t33 13q11 11 17 24l47 -31
q-10 -24 -28 -42q-29 -28 -70 -28q-32 0 -64 19l-20 12q-27 17 -44 17q-18 0 -35 -15q-11 -9 -17 -22z" />
    <glyph glyph-name="ograve" unicode="&#xf2;" horiz-adv-x="545" 
d="M34 231q0 112 70 182q68 65 172 65q102 0 165 -61q70 -68 70 -185q0 -111 -63 -176q-64 -67 -177 -67q-110 0 -174 68q-63 67 -63 174zM273 406q-64 0 -103 -45q-44 -50 -44 -128q0 -77 44 -127q39 -45 102 -45q64 0 103 45q44 50 44 127q0 78 -44 128q-39 45 -102 45z
M236 700l76 -163h-66l-112 163h102z" />
    <glyph glyph-name="oacute" unicode="&#xf3;" horiz-adv-x="545" 
d="M34 231q0 112 70 182q68 65 172 65q102 0 165 -61q70 -68 70 -185q0 -111 -63 -176q-64 -67 -177 -67q-110 0 -174 68q-63 67 -63 174zM273 406q-64 0 -103 -45q-44 -50 -44 -128q0 -77 44 -127q39 -45 102 -45q64 0 103 45q44 50 44 127q0 78 -44 128q-39 45 -102 45z
M322 700h102l-112 -163h-66z" />
    <glyph glyph-name="ocircumflex" unicode="&#xf4;" horiz-adv-x="545" 
d="M34 231q0 112 70 182q68 65 172 65q102 0 165 -61q70 -68 70 -185q0 -111 -63 -176q-64 -67 -177 -67q-110 0 -174 68q-63 67 -63 174zM273 406q-64 0 -103 -45q-44 -50 -44 -128q0 -77 44 -127q39 -45 102 -45q64 0 103 45q44 50 44 127q0 78 -44 128q-39 45 -102 45z
M280 637l-65 -100h-84l110 163h78l110 -163h-84z" />
    <glyph glyph-name="otilde" unicode="&#xf5;" horiz-adv-x="545" 
d="M34 231q0 112 70 182q68 65 172 65q102 0 165 -61q70 -68 70 -185q0 -111 -63 -176q-64 -67 -177 -67q-110 0 -174 68q-63 67 -63 174zM273 406q-64 0 -103 -45q-44 -50 -44 -128q0 -77 44 -127q39 -45 102 -45q64 0 103 45q44 50 44 127q0 78 -44 128q-39 45 -102 45z
M168 569l-47 31q17 29 30 42q28 28 73 28q30 0 62 -20l17 -11q28 -17 46 -17t33 13q11 11 17 24l47 -31q-10 -24 -28 -42q-29 -28 -70 -28q-32 0 -64 19l-20 12q-27 17 -44 17q-18 0 -35 -15q-11 -9 -17 -22z" />
    <glyph glyph-name="odieresis" unicode="&#xf6;" horiz-adv-x="545" 
d="M34 231q0 112 70 182q68 65 172 65q102 0 165 -61q70 -68 70 -185q0 -111 -63 -176q-64 -67 -177 -67q-110 0 -174 68q-63 67 -63 174zM273 406q-64 0 -103 -45q-44 -50 -44 -128q0 -77 44 -127q39 -45 102 -45q64 0 103 45q44 50 44 127q0 78 -44 128q-39 45 -102 45z
M299 638q0 23 16 39t39 16q22 0 38.5 -15.5t16.5 -39.5q0 -23 -16 -39t-39 -16q-24 0 -39.5 16.5t-15.5 38.5zM134 638q0 23 16 39t39 16q22 0 38.5 -15.5t16.5 -39.5q0 -23 -16 -39t-39 -16q-24 0 -39.5 16.5t-15.5 38.5z" />
    <glyph glyph-name="divide" unicode="&#xf7;" horiz-adv-x="718" 
d="M299 544q0 25 17.5 42.5t42.5 17.5t42.5 -17.5t17.5 -42.5t-17.5 -42.5t-42.5 -17.5t-42.5 17.5t-17.5 42.5zM299 156q0 25 17.5 42.5t42.5 17.5t42.5 -17.5t17.5 -42.5t-17.5 -42.5t-42.5 -17.5t-42.5 17.5t-17.5 42.5zM48 309v82h622v-82h-622z" />
    <glyph glyph-name="oslash" unicode="&#xf8;" horiz-adv-x="545" 
d="M81 -3l30 47q-31 28 -50 68q-27 57 -27 119q0 114 70 182q65 65 169 65q53 0 97 -20l29 47l50 -33l-25 -43q41 -31 62 -77q25 -54 25 -120q0 -110 -63 -176q-62 -67 -177 -67q-60 0 -108 22l-29 -47zM158 121l171 273q-28 12 -56 12q-63 0 -103 -45q-44 -50 -44 -128
q0 -59 32 -112zM378 357l-173 -278q30 -18 67 -18q63 0 103 45q44 51 44 127q0 71 -41 124z" />
    <glyph glyph-name="ugrave" unicode="&#xf9;" horiz-adv-x="522" 
d="M374 0v62q-27 -31 -63 -51q-41 -22 -94 -22q-70 0 -108 39q-41 42 -41 125v314h83v-299q0 -52 17 -76q21 -29 70 -29q42 0 77 24q33 22 56 59v321h83v-467h-80zM238 700l76 -163h-66l-112 163h102z" />
    <glyph glyph-name="uacute" unicode="&#xfa;" horiz-adv-x="522" 
d="M374 0v62q-27 -31 -63 -51q-41 -22 -94 -22q-70 0 -108 39q-41 42 -41 125v314h83v-299q0 -52 17 -76q21 -29 70 -29q42 0 77 24q33 22 56 59v321h83v-467h-80zM300 700h102l-112 -163h-66z" />
    <glyph glyph-name="ucircumflex" unicode="&#xfb;" horiz-adv-x="522" 
d="M374 0v62q-27 -31 -63 -51q-41 -22 -94 -22q-70 0 -108 39q-41 42 -41 125v314h83v-299q0 -52 17 -76q21 -29 70 -29q42 0 77 24q33 22 56 59v321h83v-467h-80zM263 637l-65 -100h-84l110 163h78l110 -163h-84z" />
    <glyph glyph-name="udieresis" unicode="&#xfc;" horiz-adv-x="522" 
d="M374 0v62q-27 -31 -63 -51q-41 -22 -94 -22q-70 0 -108 39q-41 42 -41 125v314h83v-299q0 -52 17 -76q21 -29 70 -29q42 0 77 24q33 22 56 59v321h83v-467h-80zM288 638q0 23 16 39t39 16q22 0 38.5 -15.5t16.5 -39.5q0 -23 -16 -39t-39 -16q-24 0 -39.5 16.5t-15.5 38.5
zM123 638q0 23 16 39t39 16q22 0 38.5 -15.5t16.5 -39.5q0 -23 -16 -39t-39 -16q-24 0 -39.5 16.5t-15.5 38.5z" />
    <glyph glyph-name="yacute" unicode="&#xfd;" horiz-adv-x="468" 
d="M251 135l111 332h90l-168 -489q-39 -113 -73 -144q-40 -39 -111 -39q-27 0 -51 6l-8 75q21 -6 42 -6q43 0 69 26q23 23 42 85l12 38l-190 448h96zM272 700h102l-112 -163h-66z" />
    <glyph glyph-name="thorn" unicode="&#xfe;" horiz-adv-x="535" 
d="M151 319v-191q21 -25 52 -44q36 -21 76 -21q52 0 83 31q47 47 47 145q0 81 -31 122q-32 43 -88 43q-43 0 -82 -30q-13 -10 -27 -23t-21 -21.5t-9 -10.5zM68 -192v892h83v-287q65 65 151 65q84 0 136 -52q63 -63 63 -183q0 -132 -70 -202q-52 -52 -139 -52q-52 0 -85 16
q-32 15 -56 41v-238h-83z" />
    <glyph glyph-name="ydieresis" unicode="&#xff;" horiz-adv-x="468" 
d="M251 135l111 332h90l-168 -489q-39 -113 -73 -144q-40 -39 -111 -39q-27 0 -51 6l-8 75q21 -6 42 -6q43 0 69 26q23 23 42 85l12 38l-190 448h96zM270 638q0 23 16 39t39 16q22 0 38.5 -15.5t16.5 -39.5q0 -23 -16 -39t-39 -16q-24 0 -39.5 16.5t-15.5 38.5zM105 638
q0 23 16 39t39 16q22 0 38.5 -15.5t16.5 -39.5q0 -23 -16 -39t-39 -16q-24 0 -39.5 16.5t-15.5 38.5z" />
    <glyph glyph-name="Amacron" unicode="&#x100;" horiz-adv-x="676" 
d="M183 190l-73 -190h-106l291 700h86l291 -700h-106l-73 190h-310zM459 273l-121 306l-121 -306h242zM485 784h-298v67h298v-67z" />
    <glyph glyph-name="amacron" unicode="&#x101;" horiz-adv-x="500" 
d="M106 365l-41 58q77 55 183 55q96 0 139 -45q37 -39 37 -129v-162q0 -57 10 -69q12 -15 38 -10l-12 -71q-48 -12 -81 14q-23 18 -31 51q-30 -32 -60 -47q-40 -21 -99 -21q-74 0 -115 40q-42 40 -42 103q0 58 41 99q43 43 132 56q63 9 134 9v5q0 63 -23 84q-22 21 -72 21
q-34 0 -75 -13q-36 -12 -63 -28zM341 135v92q-67 0 -121 -11q-50 -10 -74 -32q-23 -21 -23 -53q0 -29 20 -49q21 -20 61 -20q31 0 59 12q41 18 78 61zM114 578v58h260v-58h-260z" />
    <glyph glyph-name="Abreve" unicode="&#x102;" horiz-adv-x="676" 
d="M183 190l-73 -190h-106l291 700h86l291 -700h-106l-73 190h-310zM459 273l-121 306l-121 -306h242zM335 764q-56 0 -89 20q-55 31 -70 114l68 15q9 -49 41 -68q19 -11 50 -11t50 11q32 19 41 68l68 -15q-15 -83 -70 -114q-33 -20 -89 -20z" />
    <glyph glyph-name="abreve" unicode="&#x103;" horiz-adv-x="500" 
d="M106 365l-41 58q77 55 183 55q96 0 139 -45q37 -39 37 -129v-162q0 -57 10 -69q12 -15 38 -10l-12 -71q-48 -12 -81 14q-23 18 -31 51q-30 -32 -60 -47q-40 -21 -99 -21q-74 0 -115 40q-42 40 -42 103q0 58 41 99q43 43 132 56q63 9 134 9v5q0 63 -23 84q-22 21 -72 21
q-34 0 -75 -13q-36 -12 -63 -28zM341 135v92q-67 0 -121 -11q-50 -10 -74 -32q-23 -21 -23 -53q0 -29 20 -49q21 -20 61 -20q31 0 59 12q41 18 78 61zM321 701l63 -14q-5 -77 -50 -111q-34 -27 -93 -27q-60 0 -92 27q-42 35 -49 111l63 14q6 -54 29 -74q18 -16 50 -16t50 16
q23 20 29 74z" />
    <glyph glyph-name="Aogonek" unicode="&#x104;" horiz-adv-x="676" 
d="M183 190l-73 -190h-106l291 700h86l291 -700h-42q-47 -40 -69 -62q-25 -25 -25 -51q0 -16 11 -27q10 -10 31 -10q16 0 34 8q6 3 22 14l31 -43q-18 -15 -41 -24q-24 -10 -54 -10q-44 0 -69 17q-33 23 -33 62q0 38 34 72q26 27 64 54l-73 190h-310zM459 273l-121 306
l-121 -306h242z" />
    <glyph glyph-name="aogonek" unicode="&#x105;" horiz-adv-x="500" 
d="M106 365l-41 58q77 55 183 55q96 0 139 -45q37 -39 37 -129v-162q0 -57 10 -69q12 -15 38 -10l-12 -71q-53 -32 -76 -54q-29 -29 -29 -53q0 -16 11 -25q12 -10 29 -10q22 0 48 18l29 -44q-17 -13 -34 -19q-26 -10 -53 -10q-43 0 -68 18q-30 21 -30 61q0 37 37 74
q29 29 69 50q-17 9 -29 24t-16 35q-30 -32 -60 -47q-40 -21 -99 -21q-74 0 -115 40q-42 40 -42 103q0 58 41 99q43 43 132 56q63 9 134 9v5q0 63 -23 84q-22 21 -72 21q-34 0 -75 -13q-36 -12 -63 -28zM341 135v92q-67 0 -121 -11q-50 -10 -74 -32q-23 -21 -23 -53
q0 -29 20 -49q21 -20 61 -20q31 0 59 12q41 18 78 61z" />
    <glyph glyph-name="Cacute" unicode="&#x106;" horiz-adv-x="626" 
d="M583 635l-53 -66q-29 24 -64 40q-51 24 -100 24q-83 0 -140 -55q-79 -77 -79 -228q0 -149 77 -226q57 -57 144 -57q90 0 170 67l54 -69q-92 -81 -224 -81q-137 0 -217 79q-106 102 -106 284q0 178 103 281q86 88 220 88q69 0 129 -25q47 -19 86 -56zM407 910h106
l-112 -141h-70z" />
    <glyph glyph-name="cacute" unicode="&#x107;" horiz-adv-x="469" 
d="M391 113l56 -49q-63 -75 -177 -75q-111 0 -171 60q-65 65 -65 179q0 112 66 182q64 68 171 68q102 0 169 -58l-48 -58q-64 44 -121 44q-59 0 -96 -37q-49 -49 -49 -142q0 -83 46 -129q37 -37 97 -37q67 0 122 52zM307 700h102l-112 -163h-66z" />
    <glyph glyph-name="Ccircumflex" unicode="&#x108;" horiz-adv-x="626" 
d="M583 635l-53 -66q-29 24 -64 40q-51 24 -100 24q-83 0 -140 -55q-79 -77 -79 -228q0 -149 77 -226q57 -57 144 -57q90 0 170 67l54 -69q-92 -81 -224 -81q-137 0 -217 79q-106 102 -106 284q0 178 103 281q86 88 220 88q69 0 129 -25q47 -19 86 -56zM371 850l-61 -81h-84
l106 141h78l106 -141h-84z" />
    <glyph glyph-name="ccircumflex" unicode="&#x109;" horiz-adv-x="469" 
d="M391 113l56 -49q-63 -75 -177 -75q-111 0 -171 60q-65 65 -65 179q0 112 66 182q64 68 171 68q102 0 169 -58l-48 -58q-64 44 -121 44q-59 0 -96 -37q-49 -49 -49 -142q0 -83 46 -129q37 -37 97 -37q67 0 122 52zM272 637l-65 -100h-84l110 163h78l110 -163h-84z" />
    <glyph glyph-name="Cdotaccent" unicode="&#x10a;" horiz-adv-x="626" 
d="M583 635l-53 -66q-29 24 -64 40q-51 24 -100 24q-83 0 -140 -55q-79 -77 -79 -228q0 -149 77 -226q57 -57 144 -57q90 0 170 67l54 -69q-92 -81 -224 -81q-137 0 -217 79q-106 102 -106 284q0 178 103 281q86 88 220 88q69 0 129 -25q47 -19 86 -56zM306 828
q0 26 18 43.5t44 17.5t44 -17.5t18 -43.5t-18 -44t-44 -18t-44 18t-18 44z" />
    <glyph glyph-name="cdotaccent" unicode="&#x10b;" horiz-adv-x="469" 
d="M391 113l56 -49q-63 -75 -177 -75q-111 0 -171 60q-65 65 -65 179q0 112 66 182q64 68 171 68q102 0 169 -58l-48 -58q-64 44 -121 44q-59 0 -96 -37q-49 -49 -49 -142q0 -83 46 -129q37 -37 97 -37q67 0 122 52zM216 638q0 23 16 39t39 16q22 0 38.5 -15.5t16.5 -39.5
q0 -23 -16 -39t-39 -16q-24 0 -39.5 16.5t-15.5 38.5z" />
    <glyph glyph-name="Ccaron" unicode="&#x10c;" horiz-adv-x="626" 
d="M583 635l-53 -66q-29 24 -64 40q-51 24 -100 24q-83 0 -140 -55q-79 -77 -79 -228q0 -149 77 -226q57 -57 144 -57q90 0 170 67l54 -69q-92 -81 -224 -81q-137 0 -217 79q-106 102 -106 284q0 178 103 281q86 88 220 88q69 0 129 -25q47 -19 86 -56zM309 910l61 -81
l61 81h84l-106 -141h-78l-106 141h84z" />
    <glyph glyph-name="ccaron" unicode="&#x10d;" horiz-adv-x="469" 
d="M391 113l56 -49q-63 -75 -177 -75q-111 0 -171 60q-65 65 -65 179q0 112 66 182q64 68 171 68q102 0 169 -58l-48 -58q-64 44 -121 44q-59 0 -96 -37q-49 -49 -49 -142q0 -83 46 -129q37 -37 97 -37q67 0 122 52zM272 600l65 100h84l-110 -163h-78l-110 163h84z" />
    <glyph glyph-name="Dcaron" unicode="&#x10e;" horiz-adv-x="664" 
d="M80 700h170q194 0 279 -81q90 -85 90 -273q0 -176 -88 -263q-49 -49 -117.5 -66t-163.5 -17h-170v700zM176 617v-534h87q137 0 195 59q59 60 59 209q0 147 -59 207q-58 59 -195 59h-87zM246 910l61 -81l61 81h84l-106 -141h-78l-106 141h84z" />
    <glyph glyph-name="dcaron" unicode="&#x10f;" horiz-adv-x="640" 
d="M384 144v191q-56 69 -123 69q-69 0 -106 -57q-29 -45 -29 -119q0 -77 34 -121q35 -44 92 -44q42 0 78 26q34 26 54 55zM467 700v-700h-83v50q-51 -61 -147 -61q-85 0 -137 53q-66 67 -66 185q0 122 66 193q54 58 149 58q86 0 135 -61v283h83zM559 700h91q2 -59 -13 -100
q-22 -60 -73 -104l-54 21q26 38 37 65q14 36 14 79q0 25 -2 39z" />
    <glyph glyph-name="Dcroat" unicode="&#x110;" horiz-adv-x="674" 
d="M90 408v292h170q194 0 279 -81q90 -85 90 -273q0 -176 -88 -263q-49 -49 -117.5 -66t-163.5 -17h-170v325h-78v83h78zM186 617v-209h143v-83h-143v-242h87q137 0 195 59q59 60 59 210q0 146 -59 206q-58 59 -195 59h-87z" />
    <glyph glyph-name="dcroat" unicode="&#x111;" horiz-adv-x="544" 
d="M384 144v191q-56 69 -123 69q-69 0 -106 -57q-29 -45 -29 -119q0 -77 34 -121q35 -44 92 -44q42 0 78 26q34 26 54 55zM467 700v-69h75v-64h-75v-567h-83v50q-51 -61 -147 -61q-85 0 -137 53q-66 67 -66 185q0 122 66 193q54 58 149 58q86 0 135 -61v150h-182v64h182v69
h83z" />
    <glyph glyph-name="Emacron" unicode="&#x112;" horiz-adv-x="529" 
d="M482 617h-306v-201h254v-83h-254v-250h319v-83h-415v700h402v-83zM429 784h-298v67h298v-67z" />
    <glyph glyph-name="emacron" unicode="&#x113;" horiz-adv-x="496" 
d="M130 289h236q-6 55 -39 86t-76 31q-45 0 -79 -31t-42 -86zM394 112l56 -49q-65 -74 -183 -74q-106 0 -166 62q-67 70 -67 179q0 98 57 173t161 75q48 0 85.5 -17t60.5 -43.5t38 -62.5t20.5 -69.5t5.5 -68.5h-336q1 -71 41.5 -113.5t96.5 -42.5q76 0 130 51zM130 578v58
h260v-58h-260z" />
    <glyph glyph-name="Edotaccent" unicode="&#x116;" horiz-adv-x="529" 
d="M482 617h-306v-201h254v-83h-254v-250h319v-83h-415v700h402v-83zM225 828q0 26 18 43.5t44 17.5t44 -17.5t18 -43.5t-18 -44t-44 -18t-44 18t-18 44z" />
    <glyph glyph-name="edotaccent" unicode="&#x117;" horiz-adv-x="496" 
d="M130 289h236q-6 55 -39 86t-76 31q-45 0 -79 -31t-42 -86zM394 112l56 -49q-65 -74 -183 -74q-106 0 -166 62q-67 70 -67 179q0 98 57 173t161 75q48 0 85.5 -17t60.5 -43.5t38 -62.5t20.5 -69.5t5.5 -68.5h-336q1 -71 41.5 -113.5t96.5 -42.5q76 0 130 51zM200 638
q0 23 16 39t39 16q22 0 38.5 -15.5t16.5 -39.5q0 -23 -16 -39t-39 -16q-24 0 -39.5 16.5t-15.5 38.5z" />
    <glyph glyph-name="Eogonek" unicode="&#x118;" horiz-adv-x="529" 
d="M482 617h-306v-201h254v-83h-254v-250h319v-83h-35q-47 -40 -69 -62q-25 -25 -25 -51q0 -16 11 -27q10 -10 31 -10q16 0 34 8q6 3 22 14l31 -43q-18 -15 -41 -24q-24 -10 -54 -10q-44 0 -69 17q-33 23 -33 62q0 38 34 72q26 27 64 54h-316v700h402v-83z" />
    <glyph glyph-name="eogonek" unicode="&#x119;" horiz-adv-x="496" 
d="M130 289h236q-5 54 -37 87q-29 30 -78 30q-48 0 -77 -28q-36 -34 -44 -89zM394 112l56 -49q-24 -22 -68 -57q-52 -41 -70 -64q-27 -33 -27 -55q0 -16 11 -27q10 -10 28 -10q23 0 49 18l29 -44q-17 -13 -34 -19q-26 -10 -53 -10q-43 0 -68 18q-30 23 -30 58q0 32 25 66
q23 31 56 54q-20 -2 -37 -2q-100 0 -160 62q-67 70 -67 179q0 113 67 186q57 62 151 62q85 0 138 -50q74 -70 72 -211h-336q2 -75 46 -121q35 -35 92 -35q41 0 75 15q31 13 55 36z" />
    <glyph glyph-name="Ecaron" unicode="&#x11a;" horiz-adv-x="529" 
d="M482 617h-306v-201h254v-83h-254v-250h319v-83h-415v700h402v-83zM224 910l61 -81l61 81h84l-106 -141h-78l-106 141h84z" />
    <glyph glyph-name="ecaron" unicode="&#x11b;" horiz-adv-x="496" 
d="M130 289h236q-6 55 -39 86t-76 31q-45 0 -79 -31t-42 -86zM394 112l56 -49q-65 -74 -183 -74q-106 0 -166 62q-67 70 -67 179q0 98 57 173t161 75q48 0 85.5 -17t60.5 -43.5t38 -62.5t20.5 -69.5t5.5 -68.5h-336q1 -71 41.5 -113.5t96.5 -42.5q76 0 130 51zM248 600
l65 100h84l-110 -163h-78l-110 163h84z" />
    <glyph glyph-name="Gcircumflex" unicode="&#x11c;" horiz-adv-x="708" 
d="M668 342q-2 -196 -97 -287q-75 -71 -203 -71q-138 0 -221 83q-102 104 -102 281q0 171 97 274q87 94 227 94q83 0 144 -25q55 -22 101 -65l-56 -66q-35 30 -73 48q-53 25 -110 25q-93 0 -150 -58q-40 -40 -59 -104.5t-19 -126.5q0 -66 19.5 -126t57.5 -97q55 -54 150 -54
q83 0 130 46q27 27 43.5 68t19.5 81h-189v80h290zM371 850l-61 -81h-84l106 141h78l106 -141h-84z" />
    <glyph glyph-name="gcircumflex" unicode="&#x11d;" horiz-adv-x="535" 
d="M467 467v-461q0 -114 -50 -163q-50 -48 -150 -48q-107 0 -175 48l41 64q65 -38 132 -38q63 0 92 31q27 28 27 109v44q-52 -60 -146 -60q-85 0 -138 52q-66 66 -66 182q0 125 66 193q57 58 150 58q87 0 134 -61v50h83zM384 149v186q-56 69 -123 69q-69 0 -106 -57
q-29 -45 -29 -114q0 -79 34 -121q35 -44 92 -44q42 0 78 26q34 26 54 55zM258 637l-65 -100h-84l110 163h78l110 -163h-84z" />
    <glyph glyph-name="Gbreve" unicode="&#x11e;" horiz-adv-x="708" 
d="M668 342q-2 -196 -97 -287q-75 -71 -203 -71q-138 0 -221 83q-102 104 -102 281q0 171 97 274q87 94 227 94q83 0 144 -25q55 -22 101 -65l-56 -66q-35 30 -73 48q-53 25 -110 25q-93 0 -150 -58q-40 -40 -59 -104.5t-19 -126.5q0 -66 19.5 -126t57.5 -97q55 -54 150 -54
q83 0 130 46q27 27 43.5 68t19.5 81h-189v80h290zM370 764q-56 0 -89 20q-55 31 -70 114l68 15q9 -49 41 -68q19 -11 50 -11t50 11q32 19 41 68l68 -15q-15 -83 -70 -114q-33 -20 -89 -20z" />
    <glyph glyph-name="gbreve" unicode="&#x11f;" horiz-adv-x="535" 
d="M467 467v-461q0 -114 -50 -163q-50 -48 -150 -48q-107 0 -175 48l41 64q65 -38 132 -38q63 0 92 31q27 28 27 109v44q-52 -60 -146 -60q-85 0 -138 52q-66 66 -66 182q0 125 66 193q57 58 150 58q87 0 134 -61v50h83zM384 149v186q-56 69 -123 69q-69 0 -106 -57
q-29 -45 -29 -114q0 -79 34 -121q35 -44 92 -44q42 0 78 26q34 26 54 55zM331 701l63 -14q-5 -77 -50 -111q-34 -27 -93 -27q-60 0 -92 27q-42 35 -49 111l63 14q6 -54 29 -74q18 -16 50 -16t50 16q23 20 29 74z" />
    <glyph glyph-name="Gdotaccent" unicode="&#x120;" horiz-adv-x="708" 
d="M668 342q-2 -196 -97 -287q-75 -71 -203 -71q-138 0 -221 83q-102 104 -102 281q0 171 97 274q87 94 227 94q83 0 144 -25q55 -22 101 -65l-56 -66q-35 30 -73 48q-53 25 -110 25q-93 0 -150 -58q-40 -40 -59 -104.5t-19 -126.5q0 -66 19.5 -126t57.5 -97q55 -54 150 -54
q83 0 130 46q27 27 43.5 68t19.5 81h-189v80h290zM307 828q0 26 18 43.5t44 17.5t44 -17.5t18 -43.5t-18 -44t-44 -18t-44 18t-18 44z" />
    <glyph glyph-name="gdotaccent" unicode="&#x121;" horiz-adv-x="535" 
d="M467 467v-461q0 -114 -50 -163q-50 -48 -150 -48q-107 0 -175 48l41 64q65 -38 132 -38q63 0 92 31q27 28 27 109v44q-52 -60 -146 -60q-85 0 -138 52q-66 66 -66 182q0 125 66 193q57 58 150 58q87 0 134 -61v50h83zM384 149v186q-56 69 -123 69q-69 0 -106 -57
q-29 -45 -29 -114q0 -79 34 -121q35 -44 92 -44q42 0 78 26q34 26 54 55zM195 638q0 23 16 39t39 16q22 0 38.5 -15.5t16.5 -39.5q0 -23 -16 -39t-39 -16q-24 0 -39.5 16.5t-15.5 38.5z" />
    <glyph glyph-name="Gcommaaccent" unicode="&#x122;" horiz-adv-x="708" 
d="M668 342q-2 -196 -97 -287q-75 -71 -203 -71q-138 0 -221 83q-102 104 -102 281q0 171 97 274q87 94 227 94q83 0 144 -25q55 -22 101 -65l-56 -66q-35 30 -73 48q-53 25 -110 25q-93 0 -150 -58q-40 -40 -59 -104.5t-19 -126.5q0 -66 19.5 -126t57.5 -97q55 -54 150 -54
q83 0 130 46q27 27 43.5 68t19.5 81h-189v80h290zM325 -61h93q0 -52 -13 -90q-22 -61 -73 -104l-56 21q26 38 37 65q14 33 14 76q0 18 -2 32z" />
    <glyph glyph-name="gcommaaccent" unicode="&#x123;" horiz-adv-x="535" 
d="M467 467v-461q0 -114 -50 -163q-50 -48 -150 -48q-107 0 -175 48l41 64q65 -38 132 -38q63 0 92 31q27 28 27 109v44q-52 -60 -146 -60q-85 0 -138 52q-66 66 -66 182q0 125 66 193q57 58 150 58q87 0 134 -61v50h83zM384 149v186q-56 69 -123 69q-69 0 -106 -57
q-29 -45 -29 -114q0 -79 34 -121q35 -44 92 -44q42 0 78 26q34 26 54 55zM288 527h-91q-2 54 13 95q22 60 73 104l54 -21q-26 -38 -37 -65q-14 -35 -14 -82q0 -11 2 -31z" />
    <glyph glyph-name="Hcircumflex" unicode="&#x124;" horiz-adv-x="671" 
d="M176 321v-321h-96v700h96v-296h319v296h96v-700h-96v321h-319zM333 850l-61 -81h-84l106 141h78l106 -141h-84z" />
    <glyph glyph-name="hcircumflex" unicode="&#x125;" horiz-adv-x="522" 
d="M68 700h83v-289q31 31 59 46q40 21 90 21q76 0 115 -39t39 -138v-301h-83v299q0 53 -16 76q-22 29 -65 29q-42 0 -81 -30q-31 -23 -58 -59v-315h-83v700zM112 827l-65 -100h-84l110 163h78l110 -163h-84z" />
    <glyph glyph-name="Hbar" unicode="&#x126;" horiz-adv-x="711" 
d="M196 321v-321h-96v536h-70v78h70v86h96v-86h319v86h96v-86h70v-78h-70v-536h-96v321h-319zM515 536h-319v-132h319v132z" />
    <glyph glyph-name="hbar" unicode="&#x127;" horiz-adv-x="539" 
d="M85 700h83v-69h182v-64h-182v-156q31 31 59 46q40 21 90 21q76 0 115 -39t39 -138v-301h-83v299q0 53 -16 76q-22 29 -65 29q-42 0 -81 -30q-31 -23 -58 -59v-315h-83v567h-75v64h75v69z" />
    <glyph glyph-name="uni012A" unicode="&#x12a;" horiz-adv-x="256" 
d="M80 0v700h96v-700h-96zM277 784h-298v67h298v-67z" />
    <glyph glyph-name="imacron" unicode="&#x12b;" horiz-adv-x="219" 
d="M68 0v467h83v-467h-83zM-20 578v58h260v-58h-260z" />
    <glyph glyph-name="Iogonek" unicode="&#x12e;" horiz-adv-x="256" 
d="M87 700h96v-700h-32q-29 -31 -46 -52q-26 -34 -26 -58q0 -20 11 -29q11 -11 32 -11q16 0 32 8q8 4 22 14l31 -43q-18 -15 -41 -24q-24 -10 -54 -10q-46 0 -71 19q-30 23 -30 60q0 41 38 86q11 13 38 40v700z" />
    <glyph glyph-name="iogonek" unicode="&#x12f;" horiz-adv-x="219" 
d="M68 467h83v-467h-15q-51 -51 -63 -69q-16 -23 -16 -44q0 -18 11 -27q10 -10 30 -10q22 0 47 18l29 -44q-15 -11 -33 -19q-24 -10 -55 -10q-42 0 -67 18q-30 21 -30 61q0 34 28 71q17 23 51 55v467zM54 638q0 23 16 39t39 16q25 0 40.5 -17.5t15.5 -37.5q0 -22 -17 -38.5
t-39 -16.5q-21 0 -38 15t-17 40z" />
    <glyph glyph-name="Idotaccent" unicode="&#x130;" horiz-adv-x="256" 
d="M80 0v700h96v-700h-96zM66 828q0 26 18 43.5t44 17.5t44 -17.5t18 -43.5t-18 -44t-44 -18t-44 18t-18 44z" />
    <glyph glyph-name="dotlessi" unicode="&#x131;" horiz-adv-x="219" 
d="M68 0v467h83v-467h-83z" />
    <glyph glyph-name="Jcircumflex" unicode="&#x134;" horiz-adv-x="367" 
d="M191 700h96v-494q0 -64 -9 -108t-40 -74q-40 -40 -118 -40q-72 0 -120 32l39 73q38 -22 73 -22t54 20q25 27 25 120v493zM238 850l-61 -81h-84l106 141h78l106 -141h-84z" />
    <glyph glyph-name="jcircumflex" unicode="&#x135;" horiz-adv-x="267" 
d="M117 467h83v-512q0 -94 -33 -128q-32 -32 -100 -32q-58 0 -102 21l30 68q30 -14 63 -14q29 0 43 14q16 16 16 55v528zM156 637l-65 -100h-84l110 163h78l110 -163h-84z" />
    <glyph glyph-name="Kcommaaccent" unicode="&#x136;" horiz-adv-x="632" 
d="M176 368l298 332h108l-254 -284l300 -416h-110l-253 351l-89 -100v-251h-96v700h96v-332zM300 -61h93q0 -52 -13 -90q-22 -61 -73 -104l-56 21q26 38 37 65q14 33 14 76q0 18 -2 32z" />
    <glyph glyph-name="kcommaaccent" unicode="&#x137;" horiz-adv-x="482" 
d="M151 284l196 183h104l-189 -176l208 -291h-99l-168 235l-52 -48v-187h-83v700h83v-416zM215 -51h91q2 -54 -13 -95q-22 -60 -73 -104l-54 21q26 38 37 65q14 35 14 82q0 11 -2 31z" />
    <glyph glyph-name="Lacute" unicode="&#x139;" horiz-adv-x="521" 
d="M176 83h329v-83h-425v700h96v-617zM172 910h106l-112 -141h-70z" />
    <glyph glyph-name="lacute" unicode="&#x13a;" horiz-adv-x="219" 
d="M68 0v700h83v-700h-83zM147 900h102l-112 -163h-66z" />
    <glyph glyph-name="Lcommaaccent" unicode="&#x13b;" horiz-adv-x="521" 
d="M176 83h329v-83h-425v700h96v-617zM260 -61h93q0 -52 -13 -90q-22 -61 -73 -104l-56 21q26 38 37 65q14 33 14 76q0 18 -2 32z" />
    <glyph glyph-name="lcommaaccent" unicode="&#x13c;" horiz-adv-x="219" 
d="M68 0v700h83v-700h-83zM68 -51h91q2 -54 -13 -95q-22 -60 -73 -104l-54 21q26 38 37 65q14 35 14 82q0 11 -2 31z" />
    <glyph glyph-name="Lcaron" unicode="&#x13d;" horiz-adv-x="521" 
d="M176 83h329v-83h-425v700h96v-617zM326 700h93q2 -59 -13 -102q-22 -60 -73 -104l-56 21q26 38 37 65q14 36 14 79q0 7 -1 22.5t-1 18.5z" />
    <glyph glyph-name="lcaron" unicode="&#x13e;" horiz-adv-x="320" 
d="M68 0v700h83v-700h-83zM239 700h91q2 -59 -13 -100q-22 -60 -73 -104l-54 21q26 38 37 65q14 36 14 79q0 25 -2 39z" />
    <glyph glyph-name="Ldot" unicode="&#x13f;" horiz-adv-x="521" 
d="M176 83h329v-83h-425v700h96v-617zM327 350q0 26 18 43.5t44 17.5t44 -17.5t18 -43.5t-18 -44t-44 -18t-44 18t-18 44z" />
    <glyph glyph-name="ldot" unicode="&#x140;" horiz-adv-x="380" 
d="M68 0v700h83v-700h-83zM245 350q0 23 16 39t39 16q22 0 38.5 -15.5t16.5 -39.5q0 -23 -16 -39t-39 -16q-24 0 -39.5 16.5t-15.5 38.5z" />
    <glyph glyph-name="Lslash" unicode="&#x141;" horiz-adv-x="521" 
d="M184 83h329v-83h-425v230l-53 -41l-51 62l104 81v368h96v-294l122 95l51 -61l-173 -135v-222z" />
    <glyph glyph-name="lslash" unicode="&#x142;" horiz-adv-x="219" 
d="M68 0v268l-50 -42l-36 51l86 71v352h83v-283l50 41l36 -49l-86 -72v-337h-83z" />
    <glyph glyph-name="Nacute" unicode="&#x143;" horiz-adv-x="667" 
d="M176 542v-542h-96v700h96l315 -532v532h96v-700h-96zM352 910h106l-112 -141h-70z" />
    <glyph glyph-name="nacute" unicode="&#x144;" horiz-adv-x="522" 
d="M68 467h83v-56q31 31 59 46q38 21 91 21q75 0 114 -39t39 -138v-301h-83v299q0 53 -16 76q-20 29 -63 29q-42 0 -83 -30q-31 -23 -58 -59v-315h-83v467zM312 700h102l-112 -163h-66z" />
    <glyph glyph-name="Ncommaaccent" unicode="&#x145;" horiz-adv-x="667" 
d="M176 542v-542h-96v700h96l315 -532v532h96v-700h-96zM295 -61h93q0 -52 -13 -90q-22 -61 -73 -104l-56 21q26 38 37 65q14 33 14 76q0 18 -2 32z" />
    <glyph glyph-name="ncommaaccent" unicode="&#x146;" horiz-adv-x="522" 
d="M68 467h83v-56q31 31 59 46q38 21 91 21q75 0 114 -39t39 -138v-301h-83v299q0 53 -16 76q-20 29 -63 29q-42 0 -83 -30q-31 -23 -58 -59v-315h-83v467zM215 -51h91q2 -54 -13 -95q-22 -60 -73 -104l-54 21q26 38 37 65q14 35 14 82q0 11 -2 31z" />
    <glyph glyph-name="Ncaron" unicode="&#x147;" horiz-adv-x="667" 
d="M176 542v-542h-96v700h96l315 -532v532h96v-700h-96zM264 910l61 -81l61 81h84l-106 -141h-78l-106 141h84z" />
    <glyph glyph-name="ncaron" unicode="&#x148;" horiz-adv-x="522" 
d="M68 467h83v-56q31 31 59 46q38 21 91 21q75 0 114 -39t39 -138v-301h-83v299q0 53 -16 76q-20 29 -63 29q-42 0 -83 -30q-31 -23 -58 -59v-315h-83v467zM282 600l65 100h84l-110 -163h-78l-110 163h84z" />
    <glyph glyph-name="Omacron" unicode="&#x14c;" horiz-adv-x="722" 
d="M361 633q-90 0 -144 -62q-70 -79 -70 -221t70 -221q54 -62 144 -62t144 62q70 79 70 221t-70 221q-54 62 -144 62zM677 349q0 -189 -97 -285q-81 -80 -219 -80t-219 80q-97 96 -97 286t97 286q81 80 219 80t219 -80q97 -96 97 -287zM509 784h-298v67h298v-67z" />
    <glyph glyph-name="omacron" unicode="&#x14d;" horiz-adv-x="545" 
d="M34 231q0 112 70 182q68 65 172 65q102 0 165 -61q70 -68 70 -185q0 -111 -63 -176q-64 -67 -177 -67q-110 0 -174 68q-63 67 -63 174zM273 406q-64 0 -103 -45q-44 -50 -44 -128q0 -77 44 -127q39 -45 102 -45q64 0 103 45q44 50 44 127q0 78 -44 128q-39 45 -102 45z
M144 578v58h260v-58h-260z" />
    <glyph glyph-name="Obreve" unicode="&#x14e;" horiz-adv-x="722" 
d="M361 633q-90 0 -144 -62q-70 -79 -70 -221t70 -221q54 -62 144 -62t144 62q70 79 70 221t-70 221q-54 62 -144 62zM677 349q0 -189 -97 -285q-81 -80 -219 -80t-219 80q-97 96 -97 286t97 286q81 80 219 80t219 -80q97 -96 97 -287zM360 764q-56 0 -89 20q-55 31 -70 114
l68 15q9 -49 41 -68q19 -11 50 -11t50 11q32 19 41 68l68 -15q-15 -83 -70 -114q-33 -20 -89 -20z" />
    <glyph glyph-name="obreve" unicode="&#x14f;" horiz-adv-x="545" 
d="M34 231q0 112 70 182q68 65 172 65q102 0 165 -61q70 -68 70 -185q0 -111 -63 -176q-64 -67 -177 -67q-110 0 -174 68q-63 67 -63 174zM273 406q-64 0 -103 -45q-44 -50 -44 -128q0 -77 44 -127q39 -45 102 -45q64 0 103 45q44 50 44 127q0 78 -44 128q-39 45 -102 45z
M355 701l63 -14q-5 -77 -50 -111q-34 -27 -93 -27q-60 0 -92 27q-42 35 -49 111l63 14q6 -54 29 -74q18 -16 50 -16t50 16q23 20 29 74z" />
    <glyph glyph-name="Ohungarumlaut" unicode="&#x150;" horiz-adv-x="722" 
d="M361 633q-90 0 -144 -62q-70 -79 -70 -221t70 -221q54 -62 144 -62t144 62q70 79 70 221t-70 221q-54 62 -144 62zM677 349q0 -189 -97 -285q-81 -80 -219 -80t-219 80q-97 96 -97 286t97 286q81 80 219 80t219 -80q97 -96 97 -287zM311 910h88l-108 -141h-57zM458 910
h88l-107 -141h-57z" />
    <glyph glyph-name="ohungarumlaut" unicode="&#x151;" horiz-adv-x="545" 
d="M34 231q0 112 70 182q68 65 172 65q102 0 165 -61q70 -68 70 -185q0 -111 -63 -176q-64 -67 -177 -67q-110 0 -174 68q-63 67 -63 174zM273 406q-64 0 -103 -45q-44 -50 -44 -128q0 -77 44 -127q39 -45 102 -45q64 0 103 45q44 50 44 127q0 78 -44 128q-39 45 -102 45z
M232 700h90l-118 -163h-55zM374 700h90l-118 -163h-55z" />
    <glyph glyph-name="OE" unicode="&#x152;" horiz-adv-x="1016" 
d="M356 633q-88 0 -144 -62q-70 -79 -70 -221t70 -221q56 -62 144 -62q85 0 140 62q70 79 70 221t-70 221q-55 62 -140 62zM570 630v70h398v-83h-302v-201h250v-83h-250v-250h315v-83h-411v72q-40 -45 -93 -66q-55 -22 -123 -22q-137 0 -217 80q-97 96 -97 286t97 286
q81 80 219 80q71 0 125 -23q50 -22 89 -63z" />
    <glyph glyph-name="oe" unicode="&#x153;" horiz-adv-x="873" 
d="M511 289h232q-5 54 -36 85.5t-76 31.5q-51 0 -81.5 -33t-38.5 -84zM773 112l56 -49q-65 -74 -185 -74q-131 0 -188 88q-67 -88 -185 -88q-112 0 -174 68q-63 69 -63 174q0 114 70 182q65 65 174 65q53 0 101 -23.5t75 -69.5q30 47 76.5 70t97.5 23q57 0 100 -23t66 -61.5
t34 -79.5t11 -85v-12h-332q0 -65 37 -110.5t104 -45.5q74 0 125 51zM273 406q-68 0 -107.5 -52t-39.5 -122q0 -78 42 -124.5t104 -46.5q57 0 100 47t43 125q0 79 -42.5 126t-99.5 47z" />
    <glyph glyph-name="Racute" unicode="&#x154;" horiz-adv-x="609" 
d="M176 617v-239h96q105 0 143 39q30 32 30 83q0 53 -30 83q-34 34 -141 34h-98zM176 295v-295h-96v700h219q73 0 117.5 -11t79.5 -46q52 -54 52 -142q0 -84 -49 -136q-41 -42 -103 -56l181 -309h-105l-174 295h-122zM322 910h106l-112 -141h-70z" />
    <glyph glyph-name="racute" unicode="&#x155;" horiz-adv-x="358" 
d="M151 467v-63q24 30 56 50q37 24 82 24q33 0 65 -15l-26 -78q-26 12 -49 12q-39 0 -77 -30q-28 -22 -51 -52v-315h-83v467h83zM262 700h102l-112 -163h-66z" />
    <glyph glyph-name="Rcommaaccent" unicode="&#x156;" horiz-adv-x="609" 
d="M176 617v-239h96q105 0 143 39q30 32 30 83q0 53 -30 83q-34 34 -141 34h-98zM176 295v-295h-96v700h219q73 0 117.5 -11t79.5 -46q52 -54 52 -142q0 -84 -49 -136q-41 -42 -103 -56l181 -309h-105l-174 295h-122zM280 -61h93q0 -52 -13 -90q-22 -61 -73 -104l-56 21
q26 38 37 65q14 33 14 76q0 18 -2 32z" />
    <glyph glyph-name="rcommaaccent" unicode="&#x157;" horiz-adv-x="358" 
d="M151 467v-63q24 30 56 50q37 24 82 24q33 0 65 -15l-26 -78q-26 12 -49 12q-39 0 -77 -30q-28 -22 -51 -52v-315h-83v467h83zM145 -51h91q2 -54 -13 -95q-22 -60 -73 -104l-54 21q26 38 37 65q14 35 14 82q0 11 -2 31z" />
    <glyph glyph-name="Rcaron" unicode="&#x158;" horiz-adv-x="609" 
d="M176 617v-239h96q105 0 143 39q30 32 30 83q0 53 -30 83q-34 34 -141 34h-98zM176 295v-295h-96v700h219q73 0 117.5 -11t79.5 -46q52 -54 52 -142q0 -84 -49 -136q-41 -42 -103 -56l181 -309h-105l-174 295h-122zM238 910l61 -81l61 81h84l-106 -141h-78l-106 141h84z
" />
    <glyph glyph-name="rcaron" unicode="&#x159;" horiz-adv-x="358" 
d="M151 467v-63q24 30 56 50q37 24 82 24q33 0 65 -15l-26 -78q-26 12 -49 12q-39 0 -77 -30q-28 -22 -51 -52v-315h-83v467h83zM222 600l65 100h84l-110 -163h-78l-110 163h84z" />
    <glyph glyph-name="Sacute" unicode="&#x15a;" horiz-adv-x="584" 
d="M512 635l-52 -67q-46 31 -83 44q-47 18 -96 18q-63 0 -96 -30q-30 -28 -30 -71q0 -46 38 -75q13 -9 35.5 -20t37.5 -16.5t19 -6.5l85 -29q91 -31 128 -70q46 -48 46 -123q0 -85 -52 -139q-64 -66 -188 -66q-90 0 -159 27q-60 24 -105 67l59 68q40 -32 86 -52
q55 -24 118 -24q71 0 107 35q32 32 32 79q0 44 -29 70q-21 20 -96 46l-76 26q-97 34 -136 73q-49 48 -49 120q0 83 51 134q62 63 179 63q76 0 135 -25q51 -23 91 -56zM317 910h106l-112 -141h-70z" />
    <glyph glyph-name="sacute" unicode="&#x15b;" horiz-adv-x="448" 
d="M34 59l52 58q25 -23 61 -39q40 -17 83 -17q45 0 70 17q26 20 26 53q0 29 -25 47q-13 10 -63 25l-63 18q-76 22 -101 49q-25 26 -25 67q0 59 38 97q44 44 132 44q57 0 101 -16q38 -14 75 -41l-44 -61q-30 19 -62 32q-34 14 -72 14q-41 0 -64 -18q-19 -15 -19 -38
q0 -24 23 -37q15 -8 66 -23l68 -20q63 -19 89 -45q34 -34 34 -88q0 -60 -37 -99q-46 -49 -142 -49q-70 0 -116 17q-47 17 -85 53zM258 700h102l-112 -163h-66z" />
    <glyph glyph-name="Scircumflex" unicode="&#x15c;" horiz-adv-x="584" 
d="M512 635l-52 -67q-46 31 -83 44q-47 18 -96 18q-63 0 -96 -30q-30 -28 -30 -71q0 -46 38 -75q13 -9 35.5 -20t37.5 -16.5t19 -6.5l85 -29q91 -31 128 -70q46 -48 46 -123q0 -85 -52 -139q-64 -66 -188 -66q-90 0 -159 27q-60 24 -105 67l59 68q40 -32 86 -52
q55 -24 118 -24q71 0 107 35q32 32 32 79q0 44 -29 70q-21 20 -96 46l-76 26q-97 34 -136 73q-49 48 -49 120q0 83 51 134q62 63 179 63q76 0 135 -25q51 -23 91 -56zM285 850l-61 -81h-84l106 141h78l106 -141h-84z" />
    <glyph glyph-name="scircumflex" unicode="&#x15d;" horiz-adv-x="448" 
d="M34 59l52 58q25 -23 61 -39q40 -17 83 -17q45 0 70 17q26 20 26 53q0 29 -25 47q-13 10 -63 25l-63 18q-76 22 -101 49q-25 26 -25 67q0 59 38 97q44 44 132 44q57 0 101 -16q38 -14 75 -41l-44 -61q-30 19 -62 32q-34 14 -72 14q-41 0 -64 -18q-19 -15 -19 -38
q0 -24 23 -37q15 -8 66 -23l68 -20q63 -19 89 -45q34 -34 34 -88q0 -60 -37 -99q-46 -49 -142 -49q-70 0 -116 17q-47 17 -85 53zM226 637l-65 -100h-84l110 163h78l110 -163h-84z" />
    <glyph glyph-name="Scedilla" unicode="&#x15e;" horiz-adv-x="584" 
d="M512 635l-52 -67q-46 31 -83 44q-47 18 -96 18q-63 0 -96 -30q-30 -28 -30 -71q0 -46 38 -75q13 -9 35.5 -20t37.5 -16.5t19 -6.5l85 -29q91 -31 128 -70q46 -48 46 -123q0 -87 -52 -139q-61 -59 -158 -63l-10 -30q54 -2 78 -27q21 -21 21 -50q0 -31 -23 -56
q-28 -29 -87 -29q-31 0 -61 10q-20 6 -43 19l26 44q17 -10 33 -16q20 -7 44 -7q26 0 39 13q9 9 9 24q0 11 -9 20q-14 14 -53 14q-16 0 -36 -3l24 74q-75 0 -141 26q-60 23 -105 65l59 68q40 -32 86 -52q55 -24 118 -24q71 0 107 35q32 32 32 79q0 44 -29 70q-21 20 -96 46
l-76 26q-97 34 -136 73q-49 48 -49 120q0 83 51 134q62 63 179 63q76 0 135 -25q51 -23 91 -56z" />
    <glyph glyph-name="Scedilla" unicode="&#xf6c1;" horiz-adv-x="584" 
d="M512 635l-52 -67q-46 31 -83 44q-47 18 -96 18q-63 0 -96 -30q-30 -28 -30 -71q0 -46 38 -75q13 -9 35.5 -20t37.5 -16.5t19 -6.5l85 -29q91 -31 128 -70q46 -48 46 -123q0 -87 -52 -139q-61 -59 -158 -63l-10 -30q54 -2 78 -27q21 -21 21 -50q0 -31 -23 -56
q-28 -29 -87 -29q-31 0 -61 10q-20 6 -43 19l26 44q17 -10 33 -16q20 -7 44 -7q26 0 39 13q9 9 9 24q0 11 -9 20q-14 14 -53 14q-16 0 -36 -3l24 74q-75 0 -141 26q-60 23 -105 65l59 68q40 -32 86 -52q55 -24 118 -24q71 0 107 35q32 32 32 79q0 44 -29 70q-21 20 -96 46
l-76 26q-97 34 -136 73q-49 48 -49 120q0 83 51 134q62 63 179 63q76 0 135 -25q51 -23 91 -56z" />
    <glyph glyph-name="scedilla" unicode="&#x15f;" horiz-adv-x="448" 
d="M34 59l52 58q25 -23 61 -39q40 -17 83 -17q45 0 70 17q26 20 26 53q0 29 -25 47q-13 10 -63 25l-63 18q-76 22 -101 49q-25 26 -25 67q0 59 38 97q44 44 132 44q57 0 101 -16q38 -14 75 -41l-44 -61q-30 19 -62 32q-34 14 -72 14q-41 0 -64 -18q-19 -15 -19 -38
q0 -24 23 -37q15 -8 66 -23l68 -20q63 -19 89 -45q34 -34 34 -88q0 -62 -37 -99q-48 -48 -124 -48l-14 -33q51 2 80 -27q21 -21 21 -50q0 -31 -23 -56q-28 -29 -87 -29q-31 0 -61 10q-20 6 -43 19l26 44q16 -10 33 -16q20 -7 44 -7q26 0 39 13q9 9 9 24q0 11 -9 20
q-16 14 -53 14q-19 0 -36 -3l28 77q-51 1 -100 21q-43 18 -73 48z" />
    <glyph glyph-name="scedilla" unicode="&#xf6c2;" horiz-adv-x="448" 
d="M34 59l52 58q25 -23 61 -39q40 -17 83 -17q45 0 70 17q26 20 26 53q0 29 -25 47q-13 10 -63 25l-63 18q-76 22 -101 49q-25 26 -25 67q0 59 38 97q44 44 132 44q57 0 101 -16q38 -14 75 -41l-44 -61q-30 19 -62 32q-34 14 -72 14q-41 0 -64 -18q-19 -15 -19 -38
q0 -24 23 -37q15 -8 66 -23l68 -20q63 -19 89 -45q34 -34 34 -88q0 -62 -37 -99q-48 -48 -124 -48l-14 -33q51 2 80 -27q21 -21 21 -50q0 -31 -23 -56q-28 -29 -87 -29q-31 0 -61 10q-20 6 -43 19l26 44q16 -10 33 -16q20 -7 44 -7q26 0 39 13q9 9 9 24q0 11 -9 20
q-16 14 -53 14q-19 0 -36 -3l28 77q-51 1 -100 21q-43 18 -73 48z" />
    <glyph glyph-name="Scaron" unicode="&#x160;" horiz-adv-x="584" 
d="M512 635l-52 -67q-46 31 -83 44q-47 18 -96 18q-63 0 -96 -30q-30 -28 -30 -71q0 -46 38 -75q13 -9 35.5 -20t37.5 -16.5t19 -6.5l85 -29q91 -31 128 -70q46 -48 46 -123q0 -85 -52 -139q-64 -66 -188 -66q-90 0 -159 27q-60 24 -105 67l59 68q40 -32 86 -52
q55 -24 118 -24q71 0 107 35q32 32 32 79q0 44 -29 70q-21 20 -96 46l-76 26q-97 34 -136 73q-49 48 -49 120q0 83 51 134q62 63 179 63q76 0 135 -25q51 -23 91 -56zM224 910l61 -81l61 81h84l-106 -141h-78l-106 141h84z" />
    <glyph glyph-name="scaron" unicode="&#x161;" horiz-adv-x="448" 
d="M34 59l52 58q25 -23 61 -39q40 -17 83 -17q45 0 70 17q26 20 26 53q0 29 -25 47q-13 10 -63 25l-63 18q-76 22 -101 49q-25 26 -25 67q0 59 38 97q44 44 132 44q57 0 101 -16q38 -14 75 -41l-44 -61q-30 19 -62 32q-34 14 -72 14q-41 0 -64 -18q-19 -15 -19 -38
q0 -24 23 -37q15 -8 66 -23l68 -20q63 -19 89 -45q34 -34 34 -88q0 -60 -37 -99q-46 -49 -142 -49q-70 0 -116 17q-47 17 -85 53zM226 600l65 100h84l-110 -163h-78l-110 163h84z" />
    <glyph glyph-name="Tcedilla" unicode="&#x162;" horiz-adv-x="530" 
d="M313 617v-617h-22l-16 -43q49 2 78 -27q21 -21 21 -50q0 -31 -23 -56q-28 -29 -87 -29q-31 0 -61 10q-20 6 -43 19l26 44q16 -10 33 -16q20 -7 44 -7q26 0 39 13q9 9 9 24q0 11 -9 20q-14 14 -53 14q-17 0 -36 -3l30 87h-26v617h-203v83h502v-83h-203z" />
    <glyph glyph-name="tcedilla" unicode="&#x163;" horiz-adv-x="326" 
d="M90 467v123h83v-123h98v-72h-98v-244q0 -58 15 -73q12 -14 44 -14q20 0 38 5q2 1 24 10l30 -66q-23 -13 -42 -17q-22 -6 -45 -6l-14 -33q51 2 80 -27q21 -21 21 -50q0 -31 -23 -56q-28 -29 -87 -29q-31 0 -61 10q-20 6 -43 19l26 44q16 -10 33 -16q20 -7 44 -7
q26 0 39 13q9 9 9 24q0 11 -9 20q-16 14 -53 14q-19 0 -36 -3l28 77q-41 3 -67 28q-34 32 -34 122v255h-70v72h70z" />
    <glyph glyph-name="Tcaron" unicode="&#x164;" horiz-adv-x="530" 
d="M313 617v-617h-96v617h-203v83h502v-83h-203zM202 910l61 -81l61 81h84l-106 -141h-78l-106 141h84z" />
    <glyph glyph-name="tcaron" unicode="&#x165;" horiz-adv-x="335" 
d="M90 467v123h83v-123h98v-72h-98v-244q0 -58 15 -73q12 -14 44 -14q20 0 38 5q2 1 24 10l30 -66q-17 -10 -42 -17q-27 -7 -65 -7q-64 0 -93 29q-34 33 -34 122v255h-70v72h70zM254 730h91q2 -59 -13 -100q-22 -60 -73 -104l-54 21q26 38 37 65q14 36 14 79q0 25 -2 39z
" />
    <glyph glyph-name="Umacron" unicode="&#x16a;" horiz-adv-x="683" 
d="M603 700v-431q0 -49 -2.5 -79.5t-16.5 -71t-42 -68.5q-66 -66 -201 -66q-134 0 -200 66q-28 28 -42 68.5t-16.5 71t-2.5 79.5v431h96v-428q0 -42 1 -61t10 -51.5t27 -50.5q40 -40 128 -40q87 0 127 40q18 18 27 50.5t10 51.5t1 61v428h96zM485 784h-298v67h298v-67z" />
    <glyph glyph-name="umacron" unicode="&#x16b;" horiz-adv-x="522" 
d="M374 0v62q-27 -31 -63 -51q-41 -22 -94 -22q-70 0 -108 39q-41 42 -41 125v314h83v-299q0 -52 17 -76q21 -29 70 -29q42 0 77 24q33 22 56 59v321h83v-467h-80zM131 578v58h260v-58h-260z" />
    <glyph glyph-name="Ubreve" unicode="&#x16c;" horiz-adv-x="683" 
d="M603 700v-431q0 -49 -2.5 -79.5t-16.5 -71t-42 -68.5q-66 -66 -201 -66q-134 0 -200 66q-28 28 -42 68.5t-16.5 71t-2.5 79.5v431h96v-428q0 -42 1 -61t10 -51.5t27 -50.5q40 -40 128 -40q87 0 127 40q18 18 27 50.5t10 51.5t1 61v428h96zM339 764q-56 0 -89 20
q-55 31 -70 114l68 15q9 -49 41 -68q19 -11 50 -11t50 11q32 19 41 68l68 -15q-15 -83 -70 -114q-33 -20 -89 -20z" />
    <glyph glyph-name="ubreve" unicode="&#x16d;" horiz-adv-x="522" 
d="M374 0v62q-27 -31 -63 -51q-41 -22 -94 -22q-70 0 -108 39q-41 42 -41 125v314h83v-299q0 -52 17 -76q21 -29 70 -29q42 0 77 24q33 22 56 59v321h83v-467h-80zM340 701l63 -14q-5 -77 -50 -111q-34 -27 -93 -27q-60 0 -92 27q-42 35 -49 111l63 14q6 -54 29 -74
q18 -16 50 -16t50 16q23 20 29 74z" />
    <glyph glyph-name="Uring" unicode="&#x16e;" horiz-adv-x="683" 
d="M603 700v-431q0 -49 -2.5 -79.5t-16.5 -71t-42 -68.5q-66 -66 -201 -66q-134 0 -200 66q-28 28 -42 68.5t-16.5 71t-2.5 79.5v431h96v-428q0 -42 1 -61t10 -51.5t27 -50.5q40 -40 128 -40q87 0 127 40q18 18 27 50.5t10 51.5t1 61v428h96zM241 852q0 42 29 71t71 29
t71 -29t29 -71t-29 -71t-71 -29t-71 29t-29 71zM291 852q0 -20 15 -35t35 -15t35 15t15 35t-15 35t-35 15t-35 -15t-15 -35z" />
    <glyph glyph-name="uring" unicode="&#x16f;" horiz-adv-x="522" 
d="M374 0v62q-27 -31 -63 -51q-41 -22 -94 -22q-70 0 -108 39q-41 42 -41 125v314h83v-299q0 -52 17 -76q21 -29 70 -29q42 0 77 24q33 22 56 59v321h83v-467h-80zM161 630q0 42 29 71t71 29t71 -29t29 -71t-29 -71t-71 -29t-71 29t-29 71zM211 630q0 -20 15 -35t35 -15
t35 15t15 35t-15 35t-35 15t-35 -15t-15 -35z" />
    <glyph glyph-name="Uhungarumlaut" unicode="&#x170;" horiz-adv-x="683" 
d="M603 700v-431q0 -49 -2.5 -79.5t-16.5 -71t-42 -68.5q-66 -66 -201 -66q-134 0 -200 66q-28 28 -42 68.5t-16.5 71t-2.5 79.5v431h96v-428q0 -42 1 -61t10 -51.5t27 -50.5q40 -40 128 -40q87 0 127 40q18 18 27 50.5t10 51.5t1 61v428h96zM285 910h88l-108 -141h-57z
M432 910h88l-107 -141h-57z" />
    <glyph glyph-name="uhungarumlaut" unicode="&#x171;" horiz-adv-x="522" 
d="M374 0v62q-27 -31 -63 -51q-41 -22 -94 -22q-70 0 -108 39q-41 42 -41 125v314h83v-299q0 -52 17 -76q21 -29 70 -29q42 0 77 24q33 22 56 59v321h83v-467h-80zM222 700h90l-118 -163h-55zM364 700h90l-118 -163h-55z" />
    <glyph glyph-name="Uogonek" unicode="&#x172;" horiz-adv-x="683" 
d="M603 700v-431q0 -50 -2.5 -80t-16.5 -70.5t-42 -68.5q-35 -37 -93 -59q-46 -40 -51 -44q-35 -33 -35 -60q0 -19 11 -27q13 -10 34 -10q14 0 31 8q8 4 22 14l31 -43q-22 -16 -41 -24q-24 -10 -56 -10q-47 0 -70 19q-30 22 -30 60q0 34 29 67q18 21 49 44q-156 -11 -232 65
q-28 28 -42 68.5t-16.5 71t-2.5 79.5v431h96v-428q0 -42 1 -61t10 -51.5t27 -50.5q40 -40 128 -40q87 0 127 40q18 18 27 50.5t10 51.5t1 61v428h96z" />
    <glyph glyph-name="uogonek" unicode="&#x173;" horiz-adv-x="522" 
d="M371 467h83v-467h-13q-53 -34 -76 -58q-29 -29 -29 -57q0 -14 11 -25q12 -10 29 -10q22 0 48 18l29 -44q-17 -13 -34 -19q-26 -10 -53 -10q-43 0 -68 18q-30 21 -30 61q0 39 37 74q32 30 69 52v62q-27 -27 -63 -46q-49 -27 -98 -27q-67 0 -104 39q-41 42 -41 125v314h83
v-299q0 -52 17 -76q21 -29 70 -29q42 0 77 24q33 22 56 59v321z" />
    <glyph glyph-name="Ydieresis" unicode="&#x178;" horiz-adv-x="614" 
d="M307 363l185 337h108l-245 -432v-268h-96v268l-245 432h108zM146 830q0 25 17 42t42 17t42 -17t17 -42t-17 -42t-42 -17t-42 17t-17 42zM349 830q0 25 17 42t42 17t42 -17t17 -42t-17 -42t-42 -17t-42 17t-17 42z" />
    <glyph glyph-name="Zacute" unicode="&#x179;" horiz-adv-x="581" 
d="M421 617h-342v83h456v-76l-386 -541h380v-83h-483v80zM332 910h106l-112 -141h-70z" />
    <glyph glyph-name="zacute" unicode="&#x17a;" horiz-adv-x="463" 
d="M311 395h-250v72h362v-59l-275 -336h275v-72h-383v60zM272 700h102l-112 -163h-66z" />
    <glyph glyph-name="Zdotaccent" unicode="&#x17b;" horiz-adv-x="581" 
d="M421 617h-342v83h456v-76l-386 -541h380v-83h-483v80zM246 828q0 26 18 43.5t44 17.5t44 -17.5t18 -43.5t-18 -44t-44 -18t-44 18t-18 44z" />
    <glyph glyph-name="zdotaccent" unicode="&#x17c;" horiz-adv-x="463" 
d="M311 395h-250v72h362v-59l-275 -336h275v-72h-383v60zM190 638q0 23 16 39t39 16q22 0 38.5 -15.5t16.5 -39.5q0 -23 -16 -39t-39 -16q-24 0 -39.5 16.5t-15.5 38.5z" />
    <glyph glyph-name="Zcaron" unicode="&#x17d;" horiz-adv-x="581" 
d="M421 617h-342v83h456v-76l-386 -541h380v-83h-483v80zM250 910l61 -81l61 81h84l-106 -141h-78l-106 141h84z" />
    <glyph glyph-name="zcaron" unicode="&#x17e;" horiz-adv-x="463" 
d="M311 395h-250v72h362v-59l-275 -336h275v-72h-383v60zM242 600l65 100h84l-110 -163h-78l-110 163h84z" />
    <glyph glyph-name="uni018F" unicode="&#x18f;" horiz-adv-x="700" 
d="M40 342h513q0 158 -75 233q-60 58 -155 58q-58 0 -113 -25q-39 -18 -72 -48l-56 66q40 37 93 60q70 30 149 30q145 0 234 -94q97 -103 97 -275q0 -177 -102 -277q-87 -86 -222 -86q-116 0 -190 75q-96 98 -101 283zM545 262h-404q11 -98 65 -149q50 -46 127 -46
q91 0 145 54q53 53 67 141z" />
    <glyph glyph-name="florin" unicode="&#x192;" 
d="M231 467l16 68q24 102 57 136q38 39 110 39q30 0 60 -9q23 -6 42 -17l-32 -66q-30 18 -63 18q-39 0 -60 -23q-20 -20 -31 -73l-16 -73h124l-15 -72h-124l-94 -441q-20 -89 -53 -122q-37 -37 -105 -37t-109 27l33 67q27 -20 66 -20q32 0 53 22q22 22 35 82l91 422h-80
l15 72h80z" />
    <glyph glyph-name="uni01CF" unicode="&#x1cf;" horiz-adv-x="256" 
d="M80 0v700h96v-700h-96zM67 910l61 -81l61 81h84l-106 -141h-78l-106 141h84z" />
    <glyph glyph-name="uni01D0" unicode="&#x1d0;" horiz-adv-x="219" 
d="M68 0v467h83v-467h-83zM110 600l65 100h84l-110 -163h-78l-110 163h84z" />
    <glyph glyph-name="uni01DD" unicode="&#x1dd;" horiz-adv-x="496" 
d="M366 178h-236q5 -54 37 -87q28 -30 77 -30q48 0 78 28q36 32 44 89zM102 352l-56 52q25 29 65 49q50 25 122 25q103 0 162 -62q67 -69 67 -179q0 -113 -70 -186q-60 -62 -151 -62q-84 0 -135 50q-75 74 -72 211h336q-2 77 -47 121q-36 35 -95 35q-45 0 -78 -17
q-28 -14 -48 -37z" />
    <glyph glyph-name="Gcaron" unicode="&#x1e6;" horiz-adv-x="708" 
d="M668 342q-2 -196 -97 -287q-75 -71 -203 -71q-138 0 -221 83q-102 104 -102 281q0 171 97 274q87 94 227 94q83 0 144 -25q55 -22 101 -65l-56 -66q-35 30 -73 48q-53 25 -110 25q-93 0 -150 -58q-40 -40 -59 -104.5t-19 -126.5q0 -66 19.5 -126t57.5 -97q55 -54 150 -54
q83 0 130 46q27 27 43.5 68t19.5 81h-189v80h290zM308 910l61 -81l61 81h84l-106 -141h-78l-106 141h84z" />
    <glyph glyph-name="gcaron" unicode="&#x1e7;" horiz-adv-x="535" 
d="M467 467v-461q0 -114 -50 -163q-50 -48 -150 -48q-107 0 -175 48l41 64q65 -38 132 -38q63 0 92 31q27 28 27 109v44q-52 -60 -146 -60q-85 0 -138 52q-66 66 -66 182q0 125 66 193q57 58 150 58q87 0 134 -61v50h83zM384 149v186q-56 69 -123 69q-69 0 -106 -57
q-29 -45 -29 -114q0 -79 34 -121q35 -44 92 -44q42 0 78 26q34 26 54 55zM258 600l65 100h84l-110 -163h-78l-110 163h84z" />
    <glyph glyph-name="AEacute" unicode="&#x1fc;" horiz-adv-x="951" 
d="M593 617v-201h250v-83h-250v-250h314v-83h-410v190h-282l-107 -190h-106l414 700h479v-83h-302zM497 273v344h-39l-195 -344h234zM527 910h106l-112 -141h-70z" />
    <glyph glyph-name="aeacute" unicode="&#x1fd;" horiz-adv-x="799" 
d="M437 289h232q-12 117 -113 117q-51 0 -81.5 -33t-37.5 -84zM699 112l56 -49q-64 -74 -182 -74q-126 0 -185 93q-81 -93 -199 -93q-24 0 -48.5 6t-50.5 20.5t-42 44.5t-16 72q0 128 173 155q63 9 134 9v5q0 30 -5 50.5t-27 37.5t-62 17q-64 0 -139 -41l-35 58q32 23 76 39
t105 16q45 0 87 -16.5t65 -48.5q52 65 154 65q58 0 100.5 -22.5t64.5 -60.5t32 -79t10 -88v-11h-332q2 -77 46 -121q35 -35 93 -35q74 0 127 51zM339 135v92q-83 -3 -119 -11q-97 -20 -97 -85q0 -69 81 -69q77 0 135 73zM385 700h102l-112 -163h-66z" />
    <glyph glyph-name="Scommaaccent" unicode="&#x218;" horiz-adv-x="584" 
d="M512 635l-52 -67q-46 31 -83 44q-47 18 -96 18q-63 0 -96 -30q-30 -28 -30 -71q0 -46 38 -75q13 -9 35.5 -20t37.5 -16.5t19 -6.5l85 -29q91 -31 128 -70q46 -48 46 -123q0 -85 -52 -139q-64 -66 -188 -66q-90 0 -159 27q-60 24 -105 67l59 68q40 -32 86 -52
q55 -24 118 -24q71 0 107 35q32 32 32 79q0 44 -29 70q-21 20 -96 46l-76 26q-97 34 -136 73q-49 48 -49 120q0 83 51 134q62 63 179 63q76 0 135 -25q51 -23 91 -56zM255 -61h93q0 -52 -13 -90q-22 -61 -73 -104l-56 21q26 38 37 65q14 33 14 76q0 18 -2 32z" />
    <glyph glyph-name="scommaaccent" unicode="&#x219;" horiz-adv-x="448" 
d="M34 59l52 58q25 -23 61 -39q40 -17 83 -17q45 0 70 17q26 20 26 53q0 29 -25 47q-13 10 -63 25l-63 18q-76 22 -101 49q-25 26 -25 67q0 59 38 97q44 44 132 44q57 0 101 -16q38 -14 75 -41l-44 -61q-30 19 -62 32q-34 14 -72 14q-41 0 -64 -18q-19 -15 -19 -38
q0 -24 23 -37q15 -8 66 -23l68 -20q63 -19 89 -45q34 -34 34 -88q0 -60 -37 -99q-46 -49 -142 -49q-70 0 -116 17q-47 17 -85 53zM185 -51h91q2 -54 -13 -95q-22 -60 -73 -104l-54 21q26 38 37 65q14 35 14 82q0 11 -2 31z" />
    <glyph glyph-name="Tcommaaccent" unicode="&#x21a;" horiz-adv-x="530" 
d="M313 617v-617h-96v617h-203v83h502v-83h-203zM221 -61h93q0 -52 -13 -90q-22 -61 -73 -104l-56 21q26 38 37 65q14 33 14 76q0 18 -2 32z" />
    <glyph glyph-name="tcommaaccent" unicode="&#x21b;" horiz-adv-x="326" 
d="M90 467v123h83v-123h98v-72h-98v-244q0 -58 15 -73q12 -14 44 -14q20 0 38 5q2 1 24 10l30 -66q-17 -10 -42 -17q-27 -7 -65 -7q-64 0 -93 29q-34 33 -34 122v255h-70v72h70zM180 -51h91q2 -54 -13 -95q-22 -60 -73 -104l-54 21q26 38 37 65q14 35 14 82q0 11 -2 31z" />
    <glyph glyph-name="uni0228" unicode="&#x228;" horiz-adv-x="529" 
d="M482 617h-306v-201h254v-83h-254v-250h319v-83h-168l-16 -43q49 2 78 -27q21 -21 21 -50q0 -31 -23 -56q-28 -29 -87 -29q-31 0 -61 10q-20 6 -43 19l26 44q16 -10 33 -16q20 -7 44 -7q26 0 39 13q9 9 9 24q0 11 -9 20q-14 14 -53 14q-17 0 -36 -3l30 87h-199v700h402
v-83z" />
    <glyph glyph-name="uni0229" unicode="&#x229;" horiz-adv-x="496" 
d="M130 289h236q-5 54 -37 87q-29 30 -78 30q-48 0 -77 -28q-36 -34 -44 -89zM394 112l56 -49q-61 -71 -165 -73l-13 -33q51 2 80 -27q21 -21 21 -50q0 -31 -23 -56q-28 -29 -87 -29q-31 0 -61 10q-20 6 -43 19l26 44q16 -10 33 -16q20 -7 44 -7q26 0 39 13q9 9 9 24
q0 11 -9 20q-16 14 -53 14q-20 0 -36 -3l27 77q-81 2 -138 61q-67 72 -67 179q0 113 67 186q57 62 151 62q85 0 138 -50q74 -70 72 -211h-336q2 -75 46 -121q35 -35 92 -35q76 0 130 51z" />
    <glyph glyph-name="uni0237" unicode="&#x237;" horiz-adv-x="267" 
d="M117 467h83v-512q0 -94 -33 -128q-32 -32 -100 -32q-58 0 -102 21l30 68q30 -14 63 -14q29 0 43 14q16 16 16 55v528z" />
    <glyph glyph-name="uni0259" unicode="&#x259;" horiz-adv-x="496" 
d="M366 178h-236q5 -54 37 -87q28 -30 77 -30q48 0 78 28q36 32 44 89zM102 352l-56 52q25 29 65 49q50 25 122 25q103 0 162 -62q67 -69 67 -179q0 -113 -70 -186q-60 -62 -151 -62q-84 0 -135 50q-75 74 -72 211h336q-2 77 -47 121q-36 35 -95 35q-45 0 -78 -17
q-28 -14 -48 -37z" />
    <glyph glyph-name="afii57929" unicode="&#x2bc;" horiz-adv-x="386" 
d="M99 700h91q2 -59 -13 -100q-22 -60 -73 -104l-54 21q26 38 37 65q14 36 14 79q0 25 -2 39z" />
    <glyph glyph-name="circumflex" unicode="&#x2c6;" horiz-adv-x="360" 
d="M182 637l-65 -100h-84l110 163h78l110 -163h-84z" />
    <glyph glyph-name="caron" unicode="&#x2c7;" horiz-adv-x="360" 
d="M182 600l65 100h84l-110 -163h-78l-110 163h84z" />
    <glyph glyph-name="breve" unicode="&#x2d8;" horiz-adv-x="484" 
d="M321 701l63 -14q-5 -77 -50 -111q-34 -27 -93 -27q-60 0 -92 27q-42 35 -49 111l63 14q6 -54 29 -74q18 -16 50 -16t50 16q23 20 29 74z" />
    <glyph glyph-name="dotaccent" unicode="&#x2d9;" horiz-adv-x="310" 
d="M100 638q0 23 16 39t39 16q22 0 38.5 -15.5t16.5 -39.5q0 -23 -16 -39t-39 -16q-24 0 -39.5 16.5t-15.5 38.5z" />
    <glyph glyph-name="ring" unicode="&#x2da;" horiz-adv-x="400" 
d="M100 630q0 42 29 71t71 29t71 -29t29 -71t-29 -71t-71 -29t-71 29t-29 71zM150 630q0 -20 15 -35t35 -15t35 15t15 35t-15 35t-35 15t-35 -15t-15 -35z" />
    <glyph glyph-name="ogonek" unicode="&#x2db;" horiz-adv-x="397" 
d="M197 0h68q-13 -11 -26 -20.5t-22.5 -17t-20.5 -19.5q-28 -28 -28 -56q0 -17 11 -27q10 -10 30 -10q22 0 47 18l29 -44q-15 -11 -33 -19q-24 -10 -55 -10q-42 0 -67 18q-30 21 -30 61q0 43 40 83q24 24 57 43z" />
    <glyph glyph-name="tilde" unicode="&#x2dc;" horiz-adv-x="387" 
d="M80 569l-47 31q17 29 30 42q28 28 73 28q30 0 62 -20l17 -11q28 -17 46 -17t33 13q11 11 17 24l47 -31q-10 -24 -28 -42q-29 -28 -70 -28q-32 0 -64 19l-20 12q-27 17 -44 17q-18 0 -35 -15q-11 -9 -17 -22z" />
    <glyph glyph-name="hungarumlaut" unicode="&#x2dd;" horiz-adv-x="408" 
d="M132 700h90l-118 -163h-55zM274 700h90l-118 -163h-55z" />
    <glyph glyph-name="acutecomb" unicode="&#x301;" horiz-adv-x="2" 
d="M-209 700h102l-112 -163h-66z" />
    <glyph glyph-name="uni0313" unicode="&#x313;" horiz-adv-x="386" 
d="M99 700h91q2 -59 -13 -100q-22 -60 -73 -104l-54 21q26 38 37 65q14 36 14 79q0 25 -2 39z" />
    <glyph glyph-name="uni0315" unicode="&#x315;" horiz-adv-x="386" 
d="M99 700h91q2 -59 -13 -100q-22 -60 -73 -104l-54 21q26 38 37 65q14 36 14 79q0 25 -2 39z" />
    <glyph glyph-name="uni0326" unicode="&#x326;" horiz-adv-x="463" 
d="M165 -51h91q2 -54 -13 -95q-22 -60 -73 -104l-54 21q26 38 37 65q14 35 14 82q0 11 -2 31z" />
    <glyph glyph-name="anoteleia" unicode="&#x387;" horiz-adv-x="250" 
d="M53 253q0 29 21.5 50.5t51.5 21.5q29 0 50.5 -21.5t21.5 -50.5q0 -27 -19.5 -49.5t-52.5 -22.5q-35 0 -54 23t-19 49z" />
    <glyph glyph-name="Delta" unicode="&#x394;" horiz-adv-x="676" 
d="M295 700h86l291 -700h-668zM534 83l-196 496l-196 -497z" />
    <glyph glyph-name="Delta" unicode="&#x2206;" horiz-adv-x="676" 
d="M295 700h86l291 -700h-668zM534 83l-196 496l-196 -497z" />
    <glyph glyph-name="Omega" unicode="&#x3a9;" horiz-adv-x="712" 
d="M408 0v157q53 13 89 46q67 62 67 182q0 122 -70 192q-56 56 -138 56t-138 -56q-70 -70 -70 -192q0 -120 67 -182q36 -33 89 -46v-157h-242v80h164v27q-55 14 -99 58q-81 83 -81 227q0 149 97 244q83 80 213 80t213 -80q97 -95 97 -244q0 -144 -81 -227q-44 -44 -99 -58
v-27h164v-80h-242z" />
    <glyph glyph-name="Omega" unicode="&#x2126;" horiz-adv-x="712" 
d="M408 0v157q53 13 89 46q67 62 67 182q0 122 -70 192q-56 56 -138 56t-138 -56q-70 -70 -70 -192q0 -120 67 -182q36 -33 89 -46v-157h-242v80h164v27q-55 14 -99 58q-81 83 -81 227q0 149 97 244q83 80 213 80t213 -80q97 -95 97 -244q0 -144 -81 -227q-44 -44 -99 -58
v-27h164v-80h-242z" />
    <glyph glyph-name="pi" unicode="&#x3c0;" horiz-adv-x="594" 
d="M198 395v-395h-83v395h-3q-24 0 -41 -5q-15 -4 -37 -16l-31 61q19 12 46 21q36 11 88 11h437v-72h-81v-395h-83v395h-212z" />
    <glyph glyph-name="afii10023" unicode="&#x401;" horiz-adv-x="529" 
d="M482 617h-306v-201h254v-83h-254v-250h319v-83h-415v700h402v-83zM125 817q0 25 17 42t42 17t42 -17t17 -42t-17 -42t-42 -17t-42 17t-17 42zM328 817q0 25 17 42t42 17t42 -17t17 -42t-17 -42t-42 -17t-42 17t-17 42z" />
    <glyph glyph-name="afii10051" unicode="&#x402;" horiz-adv-x="773" 
d="M313 617v-193q91 23 162 23q134 0 199 -67q59 -59 59 -165q0 -119 -59 -181q-53 -55 -148 -55q-72 0 -128 33l34 79q38 -29 95 -29q42 0 67 25q37 38 37 129q0 68 -36 105q-42 43 -130 43q-82 0 -152 -25v-339h-96v617h-203v83h502v-83h-203z" />
    <glyph glyph-name="afii10052" unicode="&#x403;" horiz-adv-x="494" 
d="M472 617h-296v-617h-96v700h392v-83zM312 910h106l-112 -141h-70z" />
    <glyph glyph-name="afii10053" unicode="&#x404;" horiz-adv-x="620" 
d="M532 134l54 -69q-90 -81 -230 -81q-133 0 -212 79q-99 99 -99 304q0 178 96 272q80 77 211 77q124 0 218 -80l-47 -65q-87 62 -167 62q-86 0 -142 -54q-32 -32 -49 -80t-17 -95h273v-83h-273q0 -52 17 -109.5t57 -95.5q51 -49 136 -49q94 0 174 67z" />
    <glyph glyph-name="afii10054" unicode="&#x405;" horiz-adv-x="584" 
d="M512 635l-52 -67q-46 31 -83 44q-47 18 -96 18q-63 0 -96 -30q-30 -28 -30 -71q0 -46 38 -75q13 -9 35.5 -20t37.5 -16.5t19 -6.5l85 -29q91 -31 128 -70q46 -48 46 -123q0 -85 -52 -139q-64 -66 -188 -66q-90 0 -159 27q-60 24 -105 67l59 68q40 -32 86 -52
q55 -24 118 -24q71 0 107 35q32 32 32 79q0 44 -29 70q-21 20 -96 46l-76 26q-97 34 -136 73q-49 48 -49 120q0 83 51 134q62 63 179 63q76 0 135 -25q51 -23 91 -56z" />
    <glyph glyph-name="afii10055" unicode="&#x406;" horiz-adv-x="256" 
d="M80 0v700h96v-700h-96z" />
    <glyph glyph-name="afii10056" unicode="&#x407;" horiz-adv-x="256" 
d="M80 0v700h96v-700h-96zM8 830q0 28 17 43.5t37 15.5t36.5 -16t16.5 -43t-16.5 -43t-36.5 -16t-37 15.5t-17 43.5zM142 830q0 25 15.5 42t37.5 17t37.5 -17t15.5 -42t-15.5 -42t-37.5 -17t-37.5 17t-15.5 42z" />
    <glyph glyph-name="afii10057" unicode="&#x408;" horiz-adv-x="367" 
d="M191 700h96v-494q0 -64 -9 -108t-40 -74q-40 -40 -118 -40q-72 0 -120 32l39 73q38 -22 73 -22t54 20q25 27 25 120v493z" />
    <glyph glyph-name="afii10058" unicode="&#x409;" horiz-adv-x="1003" 
d="M566 427h130q148 0 211 -62q56 -54 56 -149q0 -96 -55 -153q-63 -63 -219 -63h-219v617h-212v-27q0 -85 -8 -231q-3 -55 -6 -85t-11.5 -83t-26 -91.5t-42.5 -63.5q-52 -52 -140 -51l-14 80q49 1 83 32q29 27 44 91.5t23 188.5q5 75 5 214v109h401v-273zM566 83h127
q92 0 132 37q36 34 36 93q0 63 -38 96q-41 35 -133 35h-124v-261z" />
    <glyph glyph-name="afii10059" unicode="&#x40a;" horiz-adv-x="1022" 
d="M585 427h130q148 0 211 -62q56 -54 56 -149q0 -96 -55 -153q-63 -63 -219 -63h-219v344h-313v-344h-96v700h96v-273h313v273h96v-273zM585 83h127q92 0 132 37q36 34 36 93q0 63 -38 96q-41 35 -133 35h-124v-261z" />
    <glyph glyph-name="afii10060" unicode="&#x40b;" horiz-adv-x="783" 
d="M313 336v-336h-96v617h-203v83h502v-83h-203v-196q78 26 180 26q129 0 182 -53q44 -44 44 -132v-262h-96v238q0 68 -31 96q-31 27 -116 27q-88 0 -163 -25z" />
    <glyph glyph-name="afii10061" unicode="&#x40c;" horiz-adv-x="607" 
d="M176 700v-285h24q70 0 107 32q25 22 50 82l25 60q26 64 50 88q39 39 117 39h3l6 -78q-34 0 -57 -20q-11 -10 -33 -61l-29 -69q-19 -45 -43 -71q-29 -31 -77 -37v-4q54 -9 89 -42q28 -26 51 -83l43 -101q23 -54 35 -66q19 -18 51 -18h3l-6 -80q-74 -10 -117 30
q-21 20 -53 93l-48 109q-12 27 -25.5 48t-20.5 28.5t-10 9.5q-33 29 -94 29h-41v-333h-96v700h96zM338 910h106l-112 -141h-70z" />
    <glyph glyph-name="afii10062" unicode="&#x40e;" horiz-adv-x="614" 
d="M326 297l170 403h100l-236 -559q-33 -78 -71 -114q-45 -43 -122 -43q-32 0 -62 9l-9 80q24 -8 49 -8q44 0 70 21q28 21 49 76l11 28l-261 510h106zM401 908l66 -14q-8 -78 -46 -116q-40 -41 -114 -41t-114 41q-37 38 -46 116l66 14q11 -57 33 -77q21 -20 61 -20t61 20
q23 23 33 77z" />
    <glyph glyph-name="afii10145" unicode="&#x40f;" horiz-adv-x="658" 
d="M176 83h306v617h96v-700h-204v-169h-90v169h-204v700h96v-617z" />
    <glyph glyph-name="afii10017" unicode="&#x410;" horiz-adv-x="676" 
d="M183 190l-73 -190h-106l291 700h86l291 -700h-106l-73 190h-310zM459 273l-121 306l-121 -306h242z" />
    <glyph glyph-name="afii10018" unicode="&#x411;" horiz-adv-x="620" 
d="M176 617v-205h138q156 0 218 -60q54 -52 54 -145q0 -95 -56 -147q-64 -60 -198 -60h-252v700h434v-83h-338zM176 329v-246h143q86 0 125 35q39 34 39 92q0 49 -30 79q-41 40 -156 40h-121z" />
    <glyph glyph-name="afii10019" unicode="&#x412;" horiz-adv-x="627" 
d="M80 0v700h220q73 0 121 -10.5t81 -44.5q45 -46 45 -120q0 -68 -39 -108q-29 -29 -69 -40v-8q63 -9 106 -51q48 -47 48 -125q0 -83 -53 -136q-57 -57 -159 -57h-301zM176 617v-209h119q94 0 126 34q26 27 26 73q0 48 -26 73q-30 29 -103 29h-142zM176 325v-242h147
q88 0 129 32q38 30 38 86q0 54 -30 84q-40 40 -156 40h-128z" />
    <glyph glyph-name="afii10020" unicode="&#x413;" horiz-adv-x="494" 
d="M472 617h-296v-617h-96v700h392v-83z" />
    <glyph glyph-name="afii10021" unicode="&#x414;" horiz-adv-x="663" 
d="M2 83h76q52 94 74 188q23 102 23 317v112h394v-617h84v-238h-90v155h-471v-155h-90v238zM473 617h-206v-23q0 -217 -29 -338q-20 -90 -66 -173h301v534z" />
    <glyph glyph-name="afii10022" unicode="&#x415;" horiz-adv-x="529" 
d="M482 617h-306v-201h254v-83h-254v-250h319v-83h-415v700h402v-83z" />
    <glyph glyph-name="afii10024" unicode="&#x416;" horiz-adv-x="892" 
d="M494 333v-333h-96v333h-24q-61 0 -97 -34q-25 -24 -47 -81l-44 -109q-27 -66 -53 -92q-43 -43 -117 -31l-6 80q34 -2 55 16q14 13 35 68l37 96q20 53 48 82q37 40 95 48v4q-46 4 -77 35q-28 27 -45 73l-29 72q-19 48 -32 60q-18 18 -56 18h-4l6 78h4q81 0 120 -40
q19 -19 45 -80l28 -67q21 -52 45 -76q36 -38 102 -38h11v285h96v-285h11q66 0 102 38q24 24 45 76l28 67q26 61 45 80q39 40 120 40h4l6 -78h-4q-38 0 -56 -18q-13 -12 -32 -60l-29 -72q-17 -46 -45 -73q-31 -31 -77 -35v-4q58 -8 95 -48q28 -29 48 -82l37 -96
q21 -55 35 -68q21 -18 55 -16l-6 -80q-74 -12 -117 31q-26 26 -53 92l-44 109q-22 57 -47 81q-36 34 -97 34h-24z" />
    <glyph glyph-name="afii10025" unicode="&#x417;" horiz-adv-x="588" 
d="M102 571l-44 65q96 80 227 80q126 0 188 -59q54 -50 54 -133q0 -70 -43 -110q-30 -29 -80 -43v-8q61 -9 99 -46q45 -45 45 -120q0 -102 -72 -160q-65 -53 -187 -53q-102 0 -166 26q-56 22 -97 63l52 69q44 -34 83 -51q56 -24 119 -24q75 0 115 30q48 35 48 105
q0 57 -44 91q-44 32 -165 32h-22v80h23q84 0 128 21q63 30 63 101q0 49 -39 78q-37 28 -104 28q-92 0 -181 -62z" />
    <glyph glyph-name="afii10026" unicode="&#x418;" horiz-adv-x="670" 
d="M176 198l318 434v68h96v-700h-96v506l-318 -434v-72h-96v700h96v-502z" />
    <glyph glyph-name="afii10027" unicode="&#x419;" horiz-adv-x="670" 
d="M176 198l318 434v68h96v-700h-96v506l-318 -434v-72h-96v700h96v-502zM431 908l66 -14q-8 -78 -46 -116q-40 -41 -114 -41t-114 41q-37 38 -46 116l66 14q11 -57 33 -77q21 -20 61 -20t61 20q23 23 33 77z" />
    <glyph glyph-name="afii10028" unicode="&#x41a;" horiz-adv-x="607" 
d="M176 700v-285h24q70 0 107 32q25 22 50 82l25 60q26 64 50 88q39 39 117 39h3l6 -78q-34 0 -57 -20q-11 -10 -33 -61l-29 -69q-19 -45 -43 -71q-29 -31 -77 -37v-4q54 -9 89 -42q28 -26 51 -83l43 -101q23 -54 35 -66q19 -18 51 -18h3l-6 -80q-74 -10 -117 30
q-21 20 -53 93l-48 109q-12 27 -25.5 48t-20.5 28.5t-10 9.5q-33 29 -94 29h-41v-333h-96v700h96z" />
    <glyph glyph-name="afii10029" unicode="&#x41b;" horiz-adv-x="646" 
d="M470 617h-212v-27q0 -85 -8 -231q-3 -55 -6 -85t-11.5 -83t-26 -91.5t-42.5 -63.5q-52 -52 -140 -51l-14 80q49 1 83 32q29 27 44 91.5t23 188.5q5 75 5 214v109h401v-700h-96v617z" />
    <glyph glyph-name="afii10030" unicode="&#x41c;" horiz-adv-x="769" 
d="M357 127l-181 451v-578h-96v700h130l176 -438l174 438h129v-700h-96v578l-179 -451h-57z" />
    <glyph glyph-name="afii10031" unicode="&#x41d;" horiz-adv-x="671" 
d="M176 321v-321h-96v700h96v-296h319v296h96v-700h-96v321h-319z" />
    <glyph glyph-name="afii10032" unicode="&#x41e;" horiz-adv-x="722" 
d="M361 633q-90 0 -144 -62q-70 -79 -70 -221t70 -221q54 -62 144 -62t144 62q70 79 70 221t-70 221q-54 62 -144 62zM677 349q0 -189 -97 -285q-81 -80 -219 -80t-219 80q-97 96 -97 286t97 286q81 80 219 80t219 -80q97 -96 97 -287z" />
    <glyph glyph-name="afii10033" unicode="&#x41f;" horiz-adv-x="665" 
d="M176 617v-617h-96v700h505v-700h-96v617h-313z" />
    <glyph glyph-name="afii10034" unicode="&#x420;" horiz-adv-x="604" 
d="M176 260v-260h-96v700h220q140 0 205 -62q59 -57 59 -158q0 -103 -60 -159q-66 -61 -196 -61h-132zM176 343h118q87 0 128 38q39 35 39 101q0 67 -43 102q-40 33 -128 33h-114v-274z" />
    <glyph glyph-name="afii10035" unicode="&#x421;" horiz-adv-x="626" 
d="M583 635l-53 -66q-29 24 -64 40q-51 24 -100 24q-83 0 -140 -55q-79 -77 -79 -228q0 -149 77 -226q57 -57 144 -57q90 0 170 67l54 -69q-92 -81 -224 -81q-137 0 -217 79q-106 102 -106 284q0 178 103 281q86 88 220 88q69 0 129 -25q47 -19 86 -56z" />
    <glyph glyph-name="afii10036" unicode="&#x422;" horiz-adv-x="530" 
d="M313 617v-617h-96v617h-203v83h502v-83h-203z" />
    <glyph glyph-name="afii10037" unicode="&#x423;" horiz-adv-x="614" 
d="M326 297l170 403h100l-236 -559q-33 -78 -71 -114q-45 -43 -122 -43q-32 0 -62 9l-9 80q24 -8 49 -8q44 0 70 21q28 21 49 76l11 28l-261 510h106z" />
    <glyph glyph-name="afii10038" unicode="&#x424;" horiz-adv-x="820" 
d="M458 60v-85h-96v85h-11q-165 0 -242 81q-69 72 -69 207q0 130 68 200q77 79 244 79h10v73h96v-73h11q165 0 242 -78q69 -69 69 -201q0 -136 -69 -207q-78 -81 -246 -81h-7zM458 550v-413h9q105 0 157 50q54 51 54 160q0 102 -50 152q-51 51 -162 51h-8zM362 550h-8
q-111 0 -162 -51q-50 -51 -50 -152q0 -110 54 -160q55 -50 157 -50h9v413z" />
    <glyph glyph-name="afii10039" unicode="&#x425;" horiz-adv-x="620" 
d="M498 0l-188 293l-188 -293h-112l242 369l-213 331h105l166 -255l166 255h105l-213 -331l242 -369h-112z" />
    <glyph glyph-name="afii10040" unicode="&#x426;" horiz-adv-x="685" 
d="M176 83h300v617h96v-617h88v-238h-90v155h-490v700h96v-617z" />
    <glyph glyph-name="afii10041" unicode="&#x427;" horiz-adv-x="611" 
d="M435 396v304h96v-700h-96v313q-65 -26 -160 -26q-116 0 -168 53q-43 44 -43 133v227h96v-204q0 -66 31 -94q32 -29 104 -29q77 0 140 23z" />
    <glyph glyph-name="afii10042" unicode="&#x428;" horiz-adv-x="945" 
d="M176 83h248v617h97v-617h248v617h96v-700h-785v700h96v-617z" />
    <glyph glyph-name="afii10043" unicode="&#x429;" horiz-adv-x="975" 
d="M176 82h248v618h96v-618h248v618h96v-618h86v-237h-90v155h-780v700h96v-618z" />
    <glyph glyph-name="afii10044" unicode="&#x42a;" horiz-adv-x="764" 
d="M327 700v-273h130q148 0 211 -62q56 -56 56 -149q0 -96 -55 -153q-62 -63 -219 -63h-219v618h-206v82h302zM327 83h127q92 0 132 37q36 34 36 93q0 63 -38 96q-41 35 -133 35h-124v-261z" />
    <glyph glyph-name="afii10045" unicode="&#x42b;" horiz-adv-x="840" 
d="M664 0v700h96v-700h-96zM176 700v-273h127q148 0 211 -62q56 -54 56 -149q0 -96 -55 -153q-63 -63 -219 -63h-216v700h96zM176 83h124q92 0 132 37q36 34 36 93q0 63 -38 96q-41 35 -133 35h-121v-261z" />
    <glyph glyph-name="afii10046" unicode="&#x42c;" horiz-adv-x="613" 
d="M176 700v-273h130q148 0 211 -62q56 -54 56 -149q0 -96 -55 -153q-63 -63 -219 -63h-219v700h96zM176 83h127q92 0 132 37q36 34 36 93q0 63 -38 96q-41 35 -133 35h-124v-261z" />
    <glyph glyph-name="afii10047" unicode="&#x42d;" horiz-adv-x="620" 
d="M34 65l54 69q80 -67 174 -67q85 0 136 49q40 38 57 95.5t17 109.5h-273v83h273q0 47 -17 95t-49 80q-56 54 -142 54q-80 0 -167 -62l-47 66q95 79 218 79q130 0 211 -77q96 -94 96 -272q0 -205 -99 -304q-79 -79 -214 -79q-136 0 -228 81z" />
    <glyph glyph-name="afii10048" unicode="&#x42e;" horiz-adv-x="956" 
d="M287 329h-111v-329h-96v700h96v-288h113q11 147 98 230q78 74 210 74q137 0 217 -80q97 -96 97 -287q0 -189 -97 -285q-81 -80 -220 -80q-134 0 -209 75q-48 48 -72 123t-26 147zM597 633q-87 0 -142 -61q-70 -79 -70 -222t70 -222q55 -61 142 -61t142 61q70 79 70 222
t-70 222q-55 61 -142 61z" />
    <glyph glyph-name="afii10049" unicode="&#x42f;" horiz-adv-x="636" 
d="M556 700v-700h-96v292h-62q-62 0 -98 -35q-23 -21 -46 -75l-38 -90q-26 -60 -62 -85q-45 -31 -112 -21l-8 80h3q38 0 60 20q18 18 37 61l28 66q17 43 45 72q28 28 65 37v7q-37 -1 -74 12t-61 36q-45 45 -45 120q0 91 52 143q59 60 182 60h230zM460 375v242h-119
q-72 0 -108 -31q-38 -33 -38 -93q0 -56 39 -86q41 -32 133 -32h93z" />
    <glyph glyph-name="afii10065" unicode="&#x430;" horiz-adv-x="500" 
d="M106 365l-41 58q77 55 183 55q96 0 139 -45q37 -39 37 -129v-162q0 -57 10 -69q12 -15 38 -10l-12 -71q-48 -12 -81 14q-23 18 -31 51q-30 -32 -60 -47q-40 -21 -99 -21q-74 0 -115 40q-42 40 -42 103q0 58 41 99q43 43 132 56q63 9 134 9v5q0 63 -23 84q-22 21 -72 21
q-34 0 -75 -13q-36 -12 -63 -28zM341 135v92q-67 0 -121 -11q-50 -10 -74 -32q-23 -21 -23 -53q0 -29 20 -49q21 -20 61 -20q31 0 59 12q41 18 78 61z" />
    <glyph glyph-name="afii10066" unicode="&#x431;" horiz-adv-x="548" 
d="M396 750h82q-8 -58 -45 -94q-33 -32 -120 -57q-1 0 -15.5 -4.5t-18 -5.5t-17 -5.5t-19.5 -7.5t-17.5 -8t-19 -10t-16 -11.5t-15.5 -13.5q-54 -55 -63 -159q22 45 60 71q47 33 118 33q96 0 152 -54q72 -69 72 -191q0 -116 -73 -186q-60 -58 -159 -58q-106 0 -166 61
q-76 77 -76 232q0 81 22 171q27 100 78 151q21 21 49.5 37t45.5 22t49 16q9 3 23 7t20 6t15.5 5t13.5 5t10 4.5t9.5 5.5t6.5 6q11 11 14 32zM279 406q-60 0 -101 -45q-42 -48 -42 -128q0 -79 42 -127q41 -45 101 -45t101 45q42 48 42 127q0 80 -42 128q-41 45 -101 45z" />
    <glyph glyph-name="afii10067" unicode="&#x432;" horiz-adv-x="472" 
d="M68 0v467h188q87 0 126 -38q31 -29 31 -79q0 -46 -27 -75q-22 -23 -54 -28v-4q47 -4 78 -37q28 -29 28 -75q0 -57 -34 -91q-40 -40 -138 -40h-198zM153 275h94q42 0 61 16q19 15 19 45q0 28 -18 44q-18 15 -58 15h-98v-120zM153 72h99q55 0 76 19q20 18 20 48t-19 46
q-23 20 -83 20h-93v-133z" />
    <glyph glyph-name="afii10068" unicode="&#x433;" horiz-adv-x="383" 
d="M151 393v-393h-83v467h299v-74h-216z" />
    <glyph glyph-name="afii10069" unicode="&#x434;" horiz-adv-x="521" 
d="M78 0v-123h-76v194h57q44 76 57 151q8 47 8 164v81h313v-396h68v-194h-76v123h-351zM354 71v324h-150v-49q0 -83 -14 -144q-15 -70 -49 -131h213z" />
    <glyph glyph-name="afii10070" unicode="&#x435;" horiz-adv-x="496" 
d="M130 289h236q-5 54 -37 87q-29 30 -78 30q-48 0 -77 -28q-36 -34 -44 -89zM394 112l56 -49q-64 -74 -182 -74q-107 0 -167 62q-67 70 -67 179q0 113 67 186q57 62 151 62q85 0 138 -50q74 -70 72 -211h-336q2 -75 46 -121q35 -35 92 -35q76 0 130 51z" />
    <glyph glyph-name="afii10072" unicode="&#x436;" horiz-adv-x="677" 
d="M380 467v-180h20q39 0 64 21q18 15 39 57l21 42q22 41 46 55q28 15 75 15h4l8 -70q-28 0 -45 -13q-11 -9 -26 -38l-18 -35q-17 -32 -37 -46q-21 -14 -50 -19v-2q37 -4 62 -29q15 -15 32 -51l19 -43q17 -39 28 -50q15 -15 41 -15h6l-8 -75q-70 -7 -104 31q-18 19 -38 66
l-23 55q-15 36 -28 49q-23 23 -70 23h-18v-215h-83v215h-18q-47 0 -70 -23q-13 -13 -28 -49l-23 -55q-20 -47 -38 -66q-34 -38 -104 -31l-8 75h6q26 0 41 15q11 12 28 50l19 43q17 36 32 51q25 25 62 29v2q-29 5 -50 19q-20 14 -37 46l-18 35q-15 29 -26 38q-17 13 -45 13
l8 70h4q48 0 75 -15q24 -14 46 -55l21 -42q21 -42 39 -57q25 -21 64 -21h20v180h83z" />
    <glyph glyph-name="afii10073" unicode="&#x437;" horiz-adv-x="442" 
d="M20 59l50 57q31 -26 62 -39q35 -16 82 -16q52 0 75 19q26 17 26 54q0 29 -23 47q-28 22 -112 22h-20v68h22q75 0 102 26q18 18 18 44q0 34 -28 51q-24 14 -67 14q-37 0 -71 -12q-27 -10 -58 -30l-43 57q29 24 74 41q47 16 99 16q102 0 148 -42q37 -33 37 -89
q0 -43 -25 -71q-22 -25 -59 -32v-4q44 -7 72 -35q27 -28 27 -72q0 -60 -39 -97q-48 -47 -145 -47q-75 0 -125 20q-45 17 -79 50z" />
    <glyph glyph-name="afii10074" unicode="&#x438;" horiz-adv-x="524" 
d="M151 150l222 270v47h83v-467h-83v318l-222 -270v-48h-83v467h83v-317z" />
    <glyph glyph-name="afii10075" unicode="&#x439;" horiz-adv-x="524" 
d="M151 150l222 270v47h83v-467h-83v318l-222 -270v-48h-83v467h83v-317zM342 701l63 -14q-5 -77 -50 -111q-34 -27 -93 -27q-60 0 -92 27q-42 35 -49 111l63 14q6 -54 29 -74q18 -16 50 -16t50 16q23 20 29 74z" />
    <glyph glyph-name="afii10076" unicode="&#x43a;" horiz-adv-x="465" 
d="M151 467v-180h25q47 0 72 21q18 15 39 57l21 42q18 39 46 55q27 15 75 15h8l8 -70q-29 0 -47 -14q-9 -8 -24 -37l-18 -35q-15 -29 -34 -44q-22 -18 -55 -21v-2q37 -5 61 -29q17 -17 31 -51l19 -43q17 -39 28 -50q17 -17 47 -15l-8 -75q-61 -7 -99 26q-22 20 -43 71
l-23 55q-15 36 -29 50q-23 22 -76 22h-24v-215h-83v467h83z" />
    <glyph glyph-name="afii10077" unicode="&#x43b;" horiz-adv-x="504" 
d="M353 395h-150q-1 -39 -5 -102q-7 -95 -17 -141q-16 -79 -56 -119q-45 -43 -112 -43l-15 75q45 4 70 27q34 31 45 154q7 81 11 221h312v-467h-83v395z" />
    <glyph glyph-name="afii10078" unicode="&#x43c;" horiz-adv-x="618" 
d="M282 77l-131 289v-366h-83v467h110l131 -295l131 295h110v-467h-83v366l-131 -289h-54z" />
    <glyph glyph-name="afii10079" unicode="&#x43d;" horiz-adv-x="525" 
d="M151 216v-216h-83v467h83v-179h223v179h83v-467h-83v216h-223z" />
    <glyph glyph-name="afii10080" unicode="&#x43e;" horiz-adv-x="545" 
d="M34 231q0 112 70 182q68 65 172 65q102 0 165 -61q70 -68 70 -185q0 -111 -63 -176q-64 -67 -177 -67q-110 0 -174 68q-63 67 -63 174zM272 406q-63 0 -102 -45q-44 -50 -44 -128q0 -77 44 -127q39 -45 102 -45q64 0 103 45q44 50 44 127q0 78 -44 128q-39 45 -103 45z
" />
    <glyph glyph-name="afii10081" unicode="&#x43f;" horiz-adv-x="514" 
d="M151 395v-395h-83v467h378v-467h-83v395h-212z" />
    <glyph glyph-name="afii10082" unicode="&#x440;" horiz-adv-x="535" 
d="M151 319v-191q21 -25 52 -44q36 -21 76 -21q52 0 83 31q47 47 47 145q0 81 -31 122q-32 43 -88 43q-43 0 -82 -30q-13 -10 -27 -23t-21 -21.5t-9 -10.5zM68 -192v659h83v-54q65 65 151 65q84 0 136 -52q63 -63 63 -183q0 -132 -70 -202q-52 -52 -139 -52q-52 0 -85 16
q-32 15 -56 41v-238h-83z" />
    <glyph glyph-name="afii10083" unicode="&#x441;" horiz-adv-x="469" 
d="M391 113l56 -49q-62 -75 -175 -75q-114 0 -173 60q-65 65 -65 179q0 112 66 182q64 68 171 68q102 0 169 -58l-48 -58q-64 44 -121 44q-59 0 -96 -37q-49 -49 -49 -142q0 -83 46 -129q37 -37 97 -37q67 0 122 52z" />
    <glyph glyph-name="afii10084" unicode="&#x442;" horiz-adv-x="387" 
d="M152 0v395h-140v72h363v-72h-140v-395h-83z" />
    <glyph glyph-name="afii10085" unicode="&#x443;" horiz-adv-x="468" 
d="M251 135l111 332h90l-168 -489q-39 -113 -73 -144q-40 -39 -111 -39q-27 0 -51 6l-8 75q21 -6 42 -6q43 0 69 26q23 23 42 85l12 38l-190 448h96z" />
    <glyph glyph-name="afii10086" unicode="&#x444;" horiz-adv-x="711" 
d="M397 700v-266q48 41 102 41q80 0 129 -62q49 -61 49 -175q0 -138 -67 -203q-44 -43 -108 -43q-58 0 -105 33v-217h-83v217q-47 -33 -103 -33q-66 0 -110 43q-67 65 -67 201q0 114 49 177q49 62 129 62q55 0 102 -41v266h83zM396 370v-281q41 -27 81 -27q44 0 70 26
q40 39 40 146q0 106 -40 146q-25 25 -62 25q-42 0 -89 -35zM315 89v281q-46 35 -89 35q-37 0 -62 -25q-40 -39 -40 -144q0 -108 40 -148q26 -26 70 -26q40 0 81 27z" />
    <glyph glyph-name="afii10087" unicode="&#x445;" horiz-adv-x="500" 
d="M360 467h102l-161 -219l183 -248h-102l-132 184l-132 -184h-102l184 248l-162 219h102l110 -154z" />
    <glyph glyph-name="afii10088" unicode="&#x446;" horiz-adv-x="523" 
d="M151 72h206v395h83v-395h65v-195h-76v123h-361v467h83v-395z" />
    <glyph glyph-name="afii10089" unicode="&#x447;" horiz-adv-x="481" 
d="M330 255v212h83v-467h-83v182q-55 -18 -121 -18q-75 0 -115 30q-48 35 -48 120v153h83v-150q0 -40 18 -58q21 -21 78 -21q58 0 105 17z" />
    <glyph glyph-name="afii10090" unicode="&#x448;" horiz-adv-x="745" 
d="M151 72h180v395h83v-395h180v395h83v-467h-609v467h83v-395z" />
    <glyph glyph-name="afii10091" unicode="&#x449;" horiz-adv-x="773" 
d="M677 72h78v-195h-76v123h-611v467h83v-395h180v395h83v-395h180v395h83v-395z" />
    <glyph glyph-name="afii10092" unicode="&#x44a;" horiz-adv-x="535" 
d="M146 395h-130v72h213v-159h84q101 0 149 -45q43 -41 43 -110t-42 -109q-46 -44 -163 -44h-154v395zM229 72h77q54 0 80 20q29 22 29 63q0 39 -27 61q-26 20 -85 20h-74v-164z" />
    <glyph glyph-name="afii10093" unicode="&#x44b;" horiz-adv-x="645" 
d="M494 0v467h83v-467h-83zM68 0v467h83v-159h81q107 0 154 -50q38 -40 38 -105q0 -69 -42 -109q-46 -44 -163 -44h-151zM151 72h77q54 0 80 20q29 22 29 64q0 39 -27 60q-26 20 -85 20h-74v-164z" />
    <glyph glyph-name="afii10094" unicode="&#x44c;" horiz-adv-x="457" 
d="M68 0v467h83v-159h84q101 0 149 -45q43 -41 43 -110t-42 -109q-46 -44 -163 -44h-154zM151 72h77q54 0 80 20q29 22 29 63q0 39 -27 61q-26 20 -85 20h-74v-164z" />
    <glyph glyph-name="afii10095" unicode="&#x44d;" horiz-adv-x="471" 
d="M34 59l53 53q54 -51 125 -51q59 0 93 36q38 41 38 106h-182v72h182q-5 69 -53 106q-34 25 -87 25q-39 0 -71 -16q-16 -8 -49 -30l-46 57q76 61 168 61q107 0 169 -62q63 -63 63 -180q0 -127 -64 -190q-57 -57 -160 -57q-65 0 -109 20q-40 18 -70 50z" />
    <glyph glyph-name="afii10096" unicode="&#x44e;" horiz-adv-x="726" 
d="M151 213v-213h-83v467h83v-182h79q12 79 63 130q62 63 167 63q101 0 161 -59q71 -69 71 -187q0 -110 -64 -178q-62 -65 -174 -65q-105 0 -166 66q-59 64 -60 158h-77zM457 406q-60 0 -100 -45q-43 -49 -43 -128q0 -76 42 -126q39 -46 101 -46q61 0 100 45q43 51 43 127
q0 79 -43 128q-41 45 -100 45z" />
    <glyph glyph-name="afii10097" unicode="&#x44f;" horiz-adv-x="505" 
d="M354 181h-58q-44 0 -70 -24q-11 -10 -35 -58l-20 -40q-21 -41 -50 -57q-28 -15 -79 -11l-8 75h2q25 0 40 9q16 10 28 37l15 30q14 28 24 38q19 20 50 27v4q-55 0 -88 33q-31 31 -31 81q0 66 38 102q42 40 133 40h192v-467h-83v181zM354 395h-107q-43 0 -64 -20
q-21 -21 -21 -53q0 -34 25 -53q23 -18 72 -18h95v144z" />
    <glyph glyph-name="afii10071" unicode="&#x451;" horiz-adv-x="494" 
d="M289 636q0 23 17 40t40 17t40 -17t17 -40t-17 -40t-40 -17t-40 17t-17 40zM87 636q0 23 17 40t40 17t40 -17t17 -40t-17 -40t-40 -17t-40 17t-17 40zM129 289h236q-5 54 -37 87q-29 30 -78 30q-48 0 -77 -28q-36 -34 -44 -89zM393 112l56 -49q-64 -74 -182 -74
q-107 0 -167 62q-67 70 -67 179q0 113 67 186q57 62 151 62q85 0 138 -50q74 -70 72 -211h-336q2 -75 46 -121q35 -35 92 -35q76 0 130 51z" />
    <glyph glyph-name="afii10099" unicode="&#x452;" horiz-adv-x="539" 
d="M85 700h83v-69h182v-64h-182v-156q31 31 59 46q40 21 90 21q76 0 115 -39t39 -138v-248q0 -259 -173 -259q-28 0 -56 7l-8 75q22 -6 45 -6q30 0 51 11.5t32.5 28.5t17 48.5t7 57.5t1.5 69v214q0 52 -16 78.5t-65 26.5q-73 0 -139 -89v-315h-83v567h-75v64h75v69z" />
    <glyph glyph-name="afii10100" unicode="&#x453;" horiz-adv-x="383" 
d="M151 393v-393h-83v467h299v-74h-216zM252 700h102l-112 -163h-66z" />
    <glyph glyph-name="afii10101" unicode="&#x454;" horiz-adv-x="459" 
d="M384 111l53 -52q-34 -34 -69 -50q-45 -20 -110 -20q-103 0 -160 57q-64 63 -64 190q0 117 63 180q62 62 169 62q94 0 168 -61l-43 -59q-28 21 -58 34q-34 14 -70 14q-49 0 -82 -25q-47 -37 -53 -106h182v-72h-182q2 -66 41 -107q36 -36 95 -36q67 0 120 51z" />
    <glyph glyph-name="afii10102" unicode="&#x455;" horiz-adv-x="448" 
d="M34 59l52 58q25 -23 61 -39q40 -17 83 -17q45 0 70 17q26 20 26 53q0 29 -25 47q-13 10 -63 25l-63 18q-76 22 -101 49q-25 26 -25 67q0 59 38 97q44 44 132 44q57 0 101 -16q38 -14 75 -41l-44 -61q-30 19 -62 32q-34 14 -72 14q-41 0 -64 -18q-19 -15 -19 -38
q0 -24 23 -37q15 -8 66 -23l68 -20q63 -19 89 -45q34 -34 34 -88q0 -60 -37 -99q-46 -49 -142 -49q-70 0 -116 17q-47 17 -85 53z" />
    <glyph glyph-name="afii10103" unicode="&#x456;" horiz-adv-x="219" 
d="M68 0v467h83v-467h-83zM54 638q0 23 16 39t39 16q25 0 40.5 -17.5t15.5 -37.5q0 -22 -17 -38.5t-39 -16.5q-21 0 -38 15t-17 40z" />
    <glyph glyph-name="afii10104" unicode="&#x457;" horiz-adv-x="219" 
d="M68 0v467h83v-467h-83zM209 643q0 -24 -15 -39q-11 -11 -28 -11t-28 11q-15 15 -15 39t15 39q11 11 28 11t28 -11q15 -15 15 -39zM96 643q0 -24 -15 -39q-11 -11 -28 -11t-28 11q-15 15 -15 39t15 39q11 11 28 11t28 -11q15 -15 15 -39z" />
    <glyph glyph-name="afii10105" unicode="&#x458;" horiz-adv-x="267" 
d="M117 467h83v-512q0 -94 -33 -128q-32 -32 -100 -32q-58 0 -102 21l30 68q30 -14 63 -14q29 0 43 14q16 16 16 55v528zM103 638q0 20 15.5 37.5t39.5 17.5q22 0 38.5 -15.5t16.5 -39.5q0 -25 -18 -40t-37 -15q-22 0 -38.5 17t-16.5 38z" />
    <glyph glyph-name="afii10106" unicode="&#x459;" horiz-adv-x="734" 
d="M349 0v395h-146q-1 -39 -5 -102q-7 -95 -17 -141q-16 -79 -56 -119q-45 -43 -112 -43l-15 75q45 4 70 27q34 31 45 154q7 81 11 221h308v-165h80q101 0 149 -45q43 -41 43 -110q0 -63 -42 -103q-46 -44 -163 -44h-150zM432 72h73q54 0 80 20q29 22 29 57q0 40 -27 61
q-24 20 -85 20h-70v-158z" />
    <glyph glyph-name="afii10107" unicode="&#x45a;" horiz-adv-x="755" 
d="M449 467v-165h84q101 0 149 -45q43 -41 43 -110q0 -63 -42 -103q-46 -44 -163 -44h-154v230h-215v-230h-83v467h83v-165h215v165h83zM449 72h77q52 0 80 20q29 24 29 61q0 42 -30 62q-22 15 -82 15h-74v-158z" />
    <glyph glyph-name="afii10108" unicode="&#x45b;" horiz-adv-x="539" 
d="M85 700h83v-69h182v-64h-182v-156q31 31 59 46q40 21 90 21q76 0 115 -39t39 -138v-301h-83v299q0 53 -16 76q-22 29 -65 29q-42 0 -81 -30q-31 -23 -58 -59v-315h-83v567h-75v64h75v69z" />
    <glyph glyph-name="afii10109" unicode="&#x45c;" horiz-adv-x="465" 
d="M151 467v-180h25q47 0 72 21q18 15 39 57l21 42q18 39 46 55q27 15 75 15h8l8 -70q-29 0 -47 -14q-9 -8 -24 -37l-18 -35q-15 -29 -34 -44q-22 -18 -55 -21v-2q37 -5 61 -29q17 -17 31 -51l19 -43q17 -39 28 -50q17 -17 47 -15l-8 -75q-61 -7 -99 26q-22 20 -43 71
l-23 55q-15 36 -29 50q-23 22 -76 22h-24v-215h-83v467h83zM278 700h102l-112 -163h-66z" />
    <glyph glyph-name="afii10110" unicode="&#x45e;" horiz-adv-x="468" 
d="M251 135l111 332h90l-168 -489q-39 -113 -73 -144q-40 -39 -111 -39q-27 0 -51 6l-8 75q21 -6 42 -6q43 0 69 26q23 23 42 85l12 38l-190 448h96zM313 701l63 -14q-5 -77 -50 -111q-34 -27 -93 -27q-60 0 -92 27q-42 35 -49 111l63 14q6 -54 29 -74q18 -16 50 -16t50 16
q23 20 29 74z" />
    <glyph glyph-name="afii10193" unicode="&#x45f;" horiz-adv-x="508" 
d="M151 72h206v395h83v-467h-147v-137h-77v137h-148v467h83v-395z" />
    <glyph glyph-name="afii10146" unicode="&#x462;" horiz-adv-x="658" 
d="M125 0v540h-115v80h115v80h96v-80h205v-80h-205v-113h130q148 0 211 -62q56 -54 56 -149q0 -96 -55 -153q-63 -63 -219 -63h-219zM221 83h127q92 0 132 37q36 34 36 93q0 63 -38 96q-41 35 -133 35h-124v-261z" />
    <glyph glyph-name="afii10194" unicode="&#x463;" horiz-adv-x="505" 
d="M116 0v403h-106v64h106v233h83v-233h173v-64h-173v-95h84q101 0 149 -45q43 -41 43 -110t-42 -109q-46 -44 -163 -44h-154zM199 72h77q54 0 80 20q29 22 29 63q0 39 -27 61q-26 20 -85 20h-74v-164z" />
    <glyph glyph-name="afii10147" unicode="&#x472;" horiz-adv-x="722" 
d="M149 396h423q-7 108 -67 175q-54 62 -144 62t-144 -62q-61 -67 -68 -175zM573 313h-424q2 -50 20.5 -100.5t47.5 -83.5q54 -62 144 -62t144 62q32 35 49 86t19 98zM677 349q0 -189 -97 -285q-81 -80 -219 -80t-219 80q-97 96 -97 286t97 286q81 80 219 80t219 -80
q97 -96 97 -287z" />
    <glyph glyph-name="afii10195" unicode="&#x473;" horiz-adv-x="545" 
d="M34 231q0 112 70 182q68 65 172 65q102 0 165 -61q70 -68 70 -185q0 -111 -63 -176q-64 -67 -177 -67q-110 0 -174 68q-63 67 -63 174zM130 276h285q-9 52 -37 85q-40 45 -105 45t-104 -45q-31 -35 -39 -85zM417 204h-289q5 -58 40 -98q39 -45 106 -45q65 0 103 45
q33 38 40 98z" />
    <glyph glyph-name="afii10148" unicode="&#x474;" horiz-adv-x="670" 
d="M300 169l120 371q30 94 68 132q44 44 117 44q23 0 46 -6l9 -80q-18 5 -41 5q-35 0 -61 -26q-20 -20 -43 -86l-176 -523h-78l-241 700h102z" />
    <glyph glyph-name="afii10196" unicode="&#x475;" horiz-adv-x="515" 
d="M246 115l74 215q29 84 57 113q34 35 85 35q19 0 39 -5l6 -73q-21 3 -26 3q-24 0 -42 -15q-20 -18 -41 -79l-110 -309h-86l-176 467h91z" />
    <glyph glyph-name="afii10050" unicode="&#x490;" horiz-adv-x="497" 
d="M176 617v-617h-96v700h310v132h82v-215h-296z" />
    <glyph glyph-name="afii10098" unicode="&#x491;" horiz-adv-x="383" 
d="M151 0h-83v467h222v110h77v-184h-216v-393z" />
    <glyph glyph-name="uni0492" unicode="&#x492;" horiz-adv-x="524" 
d="M94 409v291h396v-83h-300v-208h224v-82h-224v-327h-96v327h-84v82h84z" />
    <glyph glyph-name="uni0493" unicode="&#x493;" horiz-adv-x="393" 
d="M320 271v-72h-159v-199h-83v199h-68v72h68v196h299v-74h-216v-122h159z" />
    <glyph glyph-name="uni0496" unicode="&#x496;" horiz-adv-x="909" 
d="M807 -14q-51 8 -78 42q-23 28 -39 89l-28 101q-15 52 -47 83q-34 32 -97 32h-24v-333h-96v333h-24q-61 0 -97 -34q-25 -24 -47 -81l-44 -109q-27 -66 -53 -92q-43 -43 -117 -31l-6 80q34 -2 55 16q14 13 35 68l37 96q20 53 48 82q37 40 95 48v4q-46 4 -77 35
q-28 27 -45 73l-29 72q-19 48 -32 60q-18 18 -56 18h-4l6 78h4q81 0 120 -40q19 -19 45 -80l28 -67q21 -52 45 -76q36 -38 102 -38h11v285h96v-285h11q66 0 102 38q24 24 45 76l28 67q26 61 45 80q39 40 120 40h4l6 -78h-4q-38 0 -56 -18q-13 -12 -32 -60l-29 -72
q-17 -46 -45 -73q-31 -31 -77 -35v-4q49 -8 82 -34q37 -30 56 -96l25 -86q18 -59 32 -74q19 -20 58 -20h30v-221h-88v141z" />
    <glyph glyph-name="uni0497" unicode="&#x497;" horiz-adv-x="690" 
d="M380 467v-180h20q39 0 64 21q18 15 39 57l21 42q22 41 46 55q28 15 75 15h4l8 -70q-28 0 -45 -13q-11 -9 -26 -38l-18 -35q-17 -32 -37 -46q-21 -14 -50 -19v-2q30 -6 52 -24q22 -17 36 -56l15 -43q15 -41 24 -50q15 -15 46 -15h28v-189h-76v116q-47 8 -69 38
q-16 22 -28 62l-14 45q-15 49 -38 63q-22 14 -59 14h-18v-215h-83v215h-18q-47 0 -70 -23q-13 -13 -28 -49l-23 -55q-20 -47 -38 -66q-34 -38 -104 -31l-8 75h6q26 0 41 15q11 12 28 50l19 43q17 36 32 51q25 25 62 29v2q-29 5 -50 19q-20 14 -37 46l-18 35q-15 29 -26 38
q-17 13 -45 13l8 70h4q48 0 75 -15q24 -14 46 -55l21 -42q21 -42 39 -57q25 -21 64 -21h20v180h83z" />
    <glyph glyph-name="uni0498" unicode="&#x498;" horiz-adv-x="588" 
d="M102 571l-44 65q96 80 227 80q126 0 188 -59q54 -50 54 -133q0 -70 -43 -110q-30 -29 -80 -43v-8q61 -9 99 -46q45 -45 45 -120q0 -102 -72 -160q-57 -46 -151 -52v-155h-90v157q-71 6 -112 23q-56 22 -97 63l52 69q44 -34 83 -51q56 -24 119 -24q75 0 115 30
q48 35 48 105q0 57 -44 91q-44 32 -165 32h-22v80h23q84 0 128 21q63 30 63 101q0 49 -39 78q-37 28 -104 28q-92 0 -181 -62z" />
    <glyph glyph-name="uni0499" unicode="&#x499;" horiz-adv-x="442" 
d="M20 59l50 57q31 -26 62 -39q35 -16 82 -16q52 0 75 19q26 17 26 54q0 29 -23 47q-28 22 -112 22h-20v68h22q75 0 102 26q18 18 18 44q0 34 -28 51q-24 14 -67 14q-37 0 -71 -12q-27 -10 -58 -30l-43 57q29 24 74 41q47 16 99 16q102 0 148 -42q37 -33 37 -89
q0 -43 -25 -71q-22 -25 -59 -32v-4q44 -7 72 -35q27 -28 27 -72q0 -60 -39 -97q-43 -42 -119 -46v-130h-77v132q-38 3 -74 17q-45 17 -79 50z" />
    <glyph glyph-name="uni049A" unicode="&#x49a;" horiz-adv-x="621" 
d="M615 66v-221h-88v145q-50 10 -76 37q-23 24 -44 82l-39 109q-25 62 -52 86q-31 29 -95 29h-45v-333h-96v700h96v-285h24q70 0 107 32q25 22 50 82l25 60q26 64 50 88q39 39 117 39h3l6 -78q-34 0 -57 -20q-11 -10 -33 -61l-29 -69q-17 -40 -43 -68q-29 -31 -77 -37v-4
q52 -8 87 -42q26 -24 51 -86l31 -91q21 -56 32 -69q21 -25 66 -25h29z" />
    <glyph glyph-name="uni049B" unicode="&#x49b;" horiz-adv-x="480" 
d="M151 215v-215h-83v467h83v-180h25q47 0 72 21q18 15 39 57l21 42q18 39 46 55q27 15 75 15h8l8 -70q-29 0 -47 -14q-9 -8 -24 -37l-18 -35q-15 -29 -34 -44q-22 -18 -55 -21v-2q35 -5 59 -29q17 -17 31 -51l15 -43q14 -43 26 -56q16 -19 50 -19h28v-179h-76v113
q-48 5 -71 37q-11 15 -30 68l-17 49q-16 38 -39 55q-22 16 -66 16h-26z" />
    <glyph glyph-name="uni049C" unicode="&#x49c;" horiz-adv-x="647" 
d="M247 550h72v-130q20 6 37 22q18 18 44 87l22 60q26 64 50 88q39 39 117 39h3l6 -78q-36 0 -57 -20q-11 -10 -33 -61l-28 -69q-19 -44 -45 -69q-29 -29 -76 -39v-4q50 -7 85 -35q30 -24 57 -90l41 -101q23 -54 35 -66q19 -18 51 -18h3l-6 -80q-74 -10 -117 30
q-21 20 -53 93l-46 109q-27 64 -54 87q-15 13 -36 20v-129h-72v137h-71v-333h-96v700h96v-285h71v135z" />
    <glyph glyph-name="uni049D" unicode="&#x49d;" horiz-adv-x="505" 
d="M215 390h58v-97q14 5 26 15q16 15 34 57l17 40q17 41 45 57q27 15 74 15h8l8 -70q-29 0 -47 -14q-9 -8 -24 -37l-18 -35q-17 -31 -34 -44q-21 -17 -51 -22v-2q34 -5 57 -28q17 -17 31 -51l17 -43q17 -39 28 -50q17 -17 49 -15l-8 -75q-61 -7 -99 26q-22 20 -43 71l-19 55
q-16 38 -28 50q-7 7 -23 15v-96h-58v103h-64v-215h-83v467h83v-180h64v103z" />
    <glyph glyph-name="uni04A0" unicode="&#x4a0;" horiz-adv-x="721" 
d="M290 700v-285h24q70 0 107 32q25 22 50 82l25 60q26 64 50 88q39 39 117 39h3l6 -78q-34 0 -57 -20q-11 -10 -33 -61l-29 -69q-19 -45 -43 -71q-29 -31 -77 -37v-4q54 -9 89 -42q28 -26 51 -83l43 -101q23 -54 35 -66q19 -18 51 -18h3l-6 -80q-74 -10 -117 30
q-21 20 -53 93l-48 109q-12 27 -25.5 48t-20.5 28.5t-10 9.5q-33 29 -94 29h-41v-333h-96v618h-192v82h288z" />
    <glyph glyph-name="uni04A1" unicode="&#x4a1;" horiz-adv-x="525" 
d="M211 467v-180h25q47 0 72 21q18 15 39 57l21 42q18 39 46 55q27 15 75 15h8l8 -70q-29 0 -47 -14q-9 -8 -24 -37l-18 -35q-15 -29 -34 -44q-22 -18 -55 -21v-2q37 -5 61 -29q17 -17 31 -51l19 -43q17 -39 28 -50q17 -17 47 -15l-8 -75q-61 -7 -99 26q-22 20 -43 71
l-23 55q-15 36 -29 50q-23 22 -76 22h-24v-215h-83v395h-126v72h209z" />
    <glyph glyph-name="uni04A2" unicode="&#x4a2;" horiz-adv-x="704" 
d="M589 0h-94v321h-319v-321h-96v700h96v-296h319v296h96v-617h88v-238h-90v155z" />
    <glyph glyph-name="uni04A3" unicode="&#x4a3;" horiz-adv-x="540" 
d="M446 0h-72v216h-223v-216h-83v467h83v-179h223v179h83v-395h65v-195h-76v123z" />
    <glyph glyph-name="uni04AA" unicode="&#x4aa;" horiz-adv-x="626" 
d="M583 635l-53 -66q-29 24 -64 40q-51 24 -100 24q-83 0 -140 -55q-79 -77 -79 -228q0 -149 77 -226q57 -57 144 -57q90 0 170 67l54 -69q-74 -65 -174 -78v-157h-90v156q-107 8 -177 77q-106 102 -106 284q0 178 103 281q86 88 220 88q69 0 129 -25q47 -19 86 -56z" />
    <glyph glyph-name="uni04AB" unicode="&#x4ab;" horiz-adv-x="469" 
d="M391 113l56 -49q-52 -63 -137 -73v-131h-77v131q-86 7 -134 58q-65 65 -65 179q0 112 66 182q64 68 171 68q102 0 169 -58l-48 -58q-64 44 -121 44q-59 0 -96 -37q-49 -49 -49 -142q0 -83 46 -129q37 -37 97 -37q67 0 122 52z" />
    <glyph glyph-name="uni04AE" unicode="&#x4ae;" horiz-adv-x="614" 
d="M307 363l185 337h108l-245 -432v-268h-96v268l-245 432h108z" />
    <glyph glyph-name="uni04AF" unicode="&#x4af;" horiz-adv-x="486" 
d="M243 115l129 352h94l-181 -467v-192h-84v192l-181 467h94z" />
    <glyph glyph-name="uni04B0" unicode="&#x4b0;" horiz-adv-x="614" 
d="M504 234v-78h-149v-156h-96v156h-149v78h149v34l-245 432h108l185 -337l185 337h108l-245 -432v-34h149z" />
    <glyph glyph-name="uni04B1" unicode="&#x4b1;" horiz-adv-x="486" 
d="M409 70v-70h-124v-192h-84v192h-124v70h124v22l-181 375h94l129 -274l129 274h94l-181 -375v-22h124z" />
    <glyph glyph-name="uni04B2" unicode="&#x4b2;" horiz-adv-x="627" 
d="M498 0l-188 293l-188 -293h-112l242 369l-213 331h105l166 -255l166 255h105l-213 -331l187 -286h82v-238h-90v155h-49z" />
    <glyph glyph-name="uni04B3" unicode="&#x4b3;" horiz-adv-x="500" 
d="M420 0h-38l-132 184l-132 -184h-102l184 248l-162 219h102l110 -154l110 154h102l-161 -219l130 -176h65v-195h-76v123z" />
    <glyph glyph-name="uni04B6" unicode="&#x4b6;" horiz-adv-x="644" 
d="M529 0h-94v313q-65 -26 -160 -26q-116 0 -168 53q-43 44 -43 133v227h96v-204q0 -66 31 -94q32 -29 104 -29q77 0 140 23v304h96v-617h88v-238h-90v155z" />
    <glyph glyph-name="uni04B7" unicode="&#x4b7;" horiz-adv-x="496" 
d="M402 0h-72v182q-55 -18 -121 -18q-75 0 -115 30q-48 35 -48 120v153h83v-150q0 -40 18 -58q21 -21 78 -21q58 0 105 17v212h83v-395h65v-195h-76v123z" />
    <glyph glyph-name="uni04B8" unicode="&#x4b8;" horiz-adv-x="617" 
d="M279 526h72v-152q48 5 90 22v304h96v-700h-96v313q-33 -14 -90 -22v-109h-72v105q-124 2 -172 53q-43 44 -43 133v227h96v-204q0 -66 31 -94q27 -24 88 -28v152z" />
    <glyph glyph-name="uni04B9" unicode="&#x4b9;" horiz-adv-x="489" 
d="M211 360h58v-121q33 3 69 16v212h83v-467h-83v182q-35 -12 -69 -15v-77h-58v74q-74 0 -116 32q-49 36 -49 118v153h83v-150q0 -37 20 -57q19 -20 62 -22v122z" />
    <glyph glyph-name="uni04BA" unicode="&#x4ba;" horiz-adv-x="646" 
d="M176 336v-336h-96v700h96v-279q78 26 180 26q129 0 182 -53q44 -44 44 -132v-262h-96v238q0 68 -31 96q-31 27 -116 27q-88 0 -163 -25z" />
    <glyph glyph-name="uni04BB" unicode="&#x4bb;" horiz-adv-x="522" 
d="M68 700h83v-289q31 31 59 46q40 21 90 21q76 0 115 -39t39 -138v-301h-83v299q0 53 -16 76q-22 29 -65 29q-42 0 -81 -30q-31 -23 -58 -59v-315h-83v700z" />
    <glyph glyph-name="uni04C0" unicode="&#x4c0;" horiz-adv-x="256" 
d="M80 0v700h96v-700h-96z" />
    <glyph glyph-name="uni04CF" unicode="&#x4cf;" horiz-adv-x="219" 
d="M68 0v700h83v-700h-83z" />
    <glyph glyph-name="uni04D0" unicode="&#x4d0;" horiz-adv-x="676" 
d="M183 190l-73 -190h-106l291 700h86l291 -700h-106l-73 190h-310zM459 273l-121 306l-121 -306h242zM432 908l66 -14q-8 -78 -46 -116q-40 -41 -114 -41t-114 41q-37 38 -46 116l66 14q11 -57 33 -77q21 -20 61 -20t61 20q23 23 33 77z" />
    <glyph glyph-name="uni04D1" unicode="&#x4d1;" horiz-adv-x="500" 
d="M106 365l-41 58q77 55 183 55q96 0 139 -45q37 -39 37 -129v-162q0 -57 10 -69q12 -15 38 -10l-12 -71q-48 -12 -81 14q-23 18 -31 51q-30 -32 -60 -47q-40 -21 -99 -21q-74 0 -115 40q-42 40 -42 103q0 58 41 99q43 43 132 56q63 9 134 9v5q0 63 -23 84q-22 21 -72 21
q-34 0 -75 -13q-36 -12 -63 -28zM341 135v92q-67 0 -121 -11q-50 -10 -74 -32q-23 -21 -23 -53q0 -29 20 -49q21 -20 61 -20q31 0 59 12q41 18 78 61zM329 701l63 -14q-5 -77 -50 -111q-34 -27 -93 -27q-60 0 -92 27q-42 35 -49 111l63 14q6 -54 29 -74q18 -16 50 -16t50 16
q23 20 29 74z" />
    <glyph glyph-name="uni04D2" unicode="&#x4d2;" horiz-adv-x="676" 
d="M183 190l-73 -190h-106l291 700h86l291 -700h-106l-73 190h-310zM459 273l-121 306l-121 -306h242zM177 830q0 25 17 42t42 17t42 -17t17 -42t-17 -42t-42 -17t-42 17t-17 42zM380 830q0 25 17 42t42 17t42 -17t17 -42t-17 -42t-42 -17t-42 17t-17 42z" />
    <glyph glyph-name="uni04D3" unicode="&#x4d3;" horiz-adv-x="500" 
d="M106 365l-41 58q77 55 183 55q96 0 139 -45q37 -39 37 -129v-162q0 -57 10 -69q12 -15 38 -10l-12 -71q-48 -12 -81 14q-23 18 -31 51q-30 -32 -60 -47q-40 -21 -99 -21q-74 0 -115 40q-42 40 -42 103q0 58 41 99q43 43 132 56q63 9 134 9v5q0 63 -23 84q-22 21 -72 21
q-34 0 -75 -13q-36 -12 -63 -28zM341 135v92q-67 0 -121 -11q-50 -10 -74 -32q-23 -21 -23 -53q0 -29 20 -49q21 -20 61 -20q31 0 59 12q41 18 78 61zM277 638q0 23 16 39t39 16q22 0 38.5 -15.5t16.5 -39.5q0 -23 -16 -39t-39 -16q-24 0 -39.5 16.5t-15.5 38.5zM112 638
q0 23 16 39t39 16q22 0 38.5 -15.5t16.5 -39.5q0 -23 -16 -39t-39 -16q-24 0 -39.5 16.5t-15.5 38.5z" />
    <glyph glyph-name="uni04D4" unicode="&#x4d4;" horiz-adv-x="951" 
d="M593 617v-201h250v-83h-250v-250h314v-83h-410v190h-282l-107 -190h-106l414 700h479v-83h-302zM497 273v344h-39l-195 -344h234z" />
    <glyph glyph-name="uni04D5" unicode="&#x4d5;" horiz-adv-x="799" 
d="M437 289h232q-6 59 -38 90q-27 27 -75 27q-45 0 -75 -27q-35 -32 -44 -90zM699 112l56 -49q-64 -74 -182 -74q-67 0 -113 25q-45 25 -72 68q-39 -45 -82 -67q-51 -26 -117 -26q-73 0 -115 40t-42 103q0 58 41 99q43 43 132 56q63 9 134 9v5q0 61 -26 84q-25 21 -68 21
q-64 0 -139 -41l-35 58q32 23 76 39t105 16q49 0 89 -16q39 -16 63 -49q52 65 154 65q88 0 141 -53q36 -36 52 -92.5t14 -115.5h-332q2 -77 46 -121q36 -35 93 -35q74 0 127 51zM339 135v92q-83 -3 -119 -11q-51 -10 -74 -32q-23 -21 -23 -53q0 -29 20 -49q21 -20 61 -20
q31 0 59 12q45 22 76 61z" />
    <glyph glyph-name="uni04D6" unicode="&#x4d6;" horiz-adv-x="529" 
d="M482 617h-306v-201h254v-83h-254v-250h319v-83h-415v700h402v-83zM374 908l66 -14q-8 -78 -46 -116q-40 -41 -114 -41t-114 41q-37 38 -46 116l66 14q11 -57 33 -77q21 -20 61 -20t61 20q23 23 33 77z" />
    <glyph glyph-name="uni04D7" unicode="&#x4d7;" horiz-adv-x="496" 
d="M130 289h236q-5 54 -37 87q-29 30 -78 30q-48 0 -77 -28q-36 -34 -44 -89zM394 112l56 -49q-64 -74 -182 -74q-107 0 -167 62q-67 70 -67 179q0 113 67 186q57 62 151 62q85 0 138 -50q74 -70 72 -211h-336q2 -75 46 -121q35 -35 92 -35q76 0 130 51zM327 701l63 -14
q-5 -77 -50 -111q-34 -27 -93 -27q-60 0 -92 27q-42 35 -49 111l63 14q6 -54 29 -74q18 -16 50 -16t50 16q23 20 29 74z" />
    <glyph glyph-name="uni04D8" unicode="&#x4d8;" horiz-adv-x="700" 
d="M40 342h513q0 158 -75 233q-60 58 -155 58q-58 0 -113 -25q-39 -18 -72 -48l-56 66q40 37 93 60q70 30 149 30q145 0 234 -94q97 -103 97 -275q0 -177 -102 -277q-87 -86 -222 -86q-116 0 -190 75q-96 98 -101 283zM545 262h-404q11 -98 65 -149q50 -46 127 -46
q91 0 145 54q53 53 67 141z" />
    <glyph glyph-name="afii10846" unicode="&#x4d9;" horiz-adv-x="496" 
d="M366 178h-236q5 -54 37 -87q28 -30 77 -30q48 0 78 28q36 32 44 89zM102 352l-56 52q25 29 65 49q50 25 122 25q103 0 162 -62q67 -69 67 -179q0 -113 -70 -186q-60 -62 -151 -62q-84 0 -135 50q-75 74 -72 211h336q-2 77 -47 121q-36 35 -95 35q-45 0 -78 -17
q-28 -14 -48 -37z" />
    <glyph glyph-name="uni04DC" unicode="&#x4dc;" horiz-adv-x="892" 
d="M494 333v-333h-96v333h-24q-61 0 -97 -34q-25 -24 -47 -81l-44 -109q-27 -66 -53 -92q-43 -43 -117 -31l-6 80q34 -2 55 16q14 13 35 68l37 96q20 53 48 82q37 40 95 48v4q-46 4 -77 35q-28 27 -45 73l-29 72q-19 48 -32 60q-18 18 -56 18h-4l6 78h4q81 0 120 -40
q19 -19 45 -80l28 -67q21 -52 45 -76q36 -38 102 -38h11v285h96v-285h11q66 0 102 38q24 24 45 76l28 67q26 61 45 80q39 40 120 40h4l6 -78h-4q-38 0 -56 -18q-13 -12 -32 -60l-29 -72q-17 -46 -45 -73q-31 -31 -77 -35v-4q58 -8 95 -48q28 -29 48 -82l37 -96
q21 -55 35 -68q21 -18 55 -16l-6 -80q-74 -12 -117 31q-26 26 -53 92l-44 109q-22 57 -47 81q-36 34 -97 34h-24zM280 830q0 25 17 42t42 17t42 -17t17 -42t-17 -42t-42 -17t-42 17t-17 42zM483 830q0 25 17 42t42 17t42 -17t17 -42t-17 -42t-42 -17t-42 17t-17 42z" />
    <glyph glyph-name="uni04DD" unicode="&#x4dd;" horiz-adv-x="677" 
d="M380 467v-180h20q39 0 64 21q18 15 39 57l21 42q22 41 46 55q28 15 75 15h4l8 -70q-28 0 -45 -13q-11 -9 -26 -38l-18 -35q-17 -32 -37 -46q-21 -14 -50 -19v-2q37 -4 62 -29q15 -15 32 -51l19 -43q17 -39 28 -50q15 -15 41 -15h6l-8 -75q-70 -7 -104 31q-18 19 -38 66
l-23 55q-15 36 -28 49q-23 23 -70 23h-18v-215h-83v215h-18q-47 0 -70 -23q-13 -13 -28 -49l-23 -55q-20 -47 -38 -66q-34 -38 -104 -31l-8 75h6q26 0 41 15q11 12 28 50l19 43q17 36 32 51q25 25 62 29v2q-29 5 -50 19q-20 14 -37 46l-18 35q-15 29 -26 38q-17 13 -45 13
l8 70h4q48 0 75 -15q24 -14 46 -55l21 -42q21 -42 39 -57q25 -21 64 -21h20v180h83zM364 638q0 23 16 39t39 16q22 0 38.5 -15.5t16.5 -39.5q0 -23 -16 -39t-39 -16q-24 0 -39.5 16.5t-15.5 38.5zM199 638q0 23 16 39t39 16q22 0 38.5 -15.5t16.5 -39.5q0 -23 -16 -39
t-39 -16q-24 0 -39.5 16.5t-15.5 38.5z" />
    <glyph glyph-name="uni04DE" unicode="&#x4de;" horiz-adv-x="588" 
d="M102 571l-44 65q96 80 227 80q126 0 188 -59q54 -50 54 -133q0 -70 -43 -110q-30 -29 -80 -43v-8q61 -9 99 -46q45 -45 45 -120q0 -102 -72 -160q-65 -53 -187 -53q-102 0 -166 26q-56 22 -97 63l52 69q44 -34 83 -51q56 -24 119 -24q75 0 115 30q48 35 48 105
q0 57 -44 91q-44 32 -165 32h-22v80h23q84 0 128 21q63 30 63 101q0 49 -39 78q-37 28 -104 28q-92 0 -181 -62zM124 830q0 25 17 42t42 17t42 -17t17 -42t-17 -42t-42 -17t-42 17t-17 42zM327 830q0 25 17 42t42 17t42 -17t17 -42t-17 -42t-42 -17t-42 17t-17 42z" />
    <glyph glyph-name="uni04DF" unicode="&#x4df;" horiz-adv-x="442" 
d="M20 59l50 57q31 -26 62 -39q35 -16 82 -16q52 0 75 19q26 17 26 54q0 29 -23 47q-28 22 -112 22h-20v68h22q75 0 102 26q18 18 18 44q0 34 -28 51q-24 14 -67 14q-37 0 -71 -12q-27 -10 -58 -30l-43 57q29 24 74 41q47 16 99 16q102 0 148 -42q37 -33 37 -89
q0 -43 -25 -71q-22 -25 -59 -32v-4q44 -7 72 -35q27 -28 27 -72q0 -60 -39 -97q-48 -47 -145 -47q-75 0 -125 20q-45 17 -79 50zM245 638q0 23 16 39t39 16q22 0 38.5 -15.5t16.5 -39.5q0 -23 -16 -39t-39 -16q-24 0 -39.5 16.5t-15.5 38.5zM80 638q0 23 16 39t39 16
q22 0 38.5 -15.5t16.5 -39.5q0 -23 -16 -39t-39 -16q-24 0 -39.5 16.5t-15.5 38.5z" />
    <glyph glyph-name="uni04E2" unicode="&#x4e2;" horiz-adv-x="670" 
d="M176 198l318 434v68h96v-700h-96v506l-318 -434v-72h-96v700h96v-502zM481 784h-298v67h298v-67z" />
    <glyph glyph-name="uni04E3" unicode="&#x4e3;" horiz-adv-x="524" 
d="M151 150l222 270v47h83v-467h-83v318l-222 -270v-48h-83v467h83v-317zM132 578v58h260v-58h-260z" />
    <glyph glyph-name="uni04E4" unicode="&#x4e4;" horiz-adv-x="670" 
d="M176 198l318 434v68h96v-700h-96v506l-318 -434v-72h-96v700h96v-502zM174 830q0 25 17 42t42 17t42 -17t17 -42t-17 -42t-42 -17t-42 17t-17 42zM377 830q0 25 17 42t42 17t42 -17t17 -42t-17 -42t-42 -17t-42 17t-17 42z" />
    <glyph glyph-name="uni04E5" unicode="&#x4e5;" horiz-adv-x="524" 
d="M151 150l222 270v47h83v-467h-83v318l-222 -270v-48h-83v467h83v-317zM289 638q0 23 16 39t39 16q22 0 38.5 -15.5t16.5 -39.5q0 -23 -16 -39t-39 -16q-24 0 -39.5 16.5t-15.5 38.5zM124 638q0 23 16 39t39 16q22 0 38.5 -15.5t16.5 -39.5q0 -23 -16 -39t-39 -16
q-24 0 -39.5 16.5t-15.5 38.5z" />
    <glyph glyph-name="uni04E6" unicode="&#x4e6;" horiz-adv-x="722" 
d="M361 633q-90 0 -144 -62q-70 -79 -70 -221t70 -221q54 -62 144 -62t144 62q70 79 70 221t-70 221q-54 62 -144 62zM677 349q0 -189 -97 -285q-81 -80 -219 -80t-219 80q-97 96 -97 286t97 286q81 80 219 80t219 -80q97 -96 97 -287zM195 830q0 25 17 42t42 17t42 -17
t17 -42t-17 -42t-42 -17t-42 17t-17 42zM398 830q0 25 17 42t42 17t42 -17t17 -42t-17 -42t-42 -17t-42 17t-17 42z" />
    <glyph glyph-name="uni04E7" unicode="&#x4e7;" horiz-adv-x="545" 
d="M34 231q0 112 70 182q68 65 172 65q102 0 165 -61q70 -68 70 -185q0 -111 -63 -176q-64 -67 -177 -67q-110 0 -174 68q-63 67 -63 174zM272 406q-63 0 -102 -45q-44 -50 -44 -128q0 -77 44 -127q39 -45 102 -45q64 0 103 45q44 50 44 127q0 78 -44 128q-39 45 -103 45z
M300 638q0 23 16 39t39 16q22 0 38.5 -15.5t16.5 -39.5q0 -23 -16 -39t-39 -16q-24 0 -39.5 16.5t-15.5 38.5zM135 638q0 23 16 39t39 16q22 0 38.5 -15.5t16.5 -39.5q0 -23 -16 -39t-39 -16q-24 0 -39.5 16.5t-15.5 38.5z" />
    <glyph glyph-name="uni04E8" unicode="&#x4e8;" horiz-adv-x="722" 
d="M149 396h423q-7 108 -67 175q-54 62 -144 62t-144 -62q-61 -67 -68 -175zM573 313h-424q2 -50 20.5 -100.5t47.5 -83.5q54 -62 144 -62t144 62q32 35 49 86t19 98zM677 349q0 -189 -97 -285q-81 -80 -219 -80t-219 80q-97 96 -97 286t97 286q81 80 219 80t219 -80
q97 -96 97 -287z" />
    <glyph glyph-name="uni04E9" unicode="&#x4e9;" horiz-adv-x="545" 
d="M34 231q0 112 70 182q68 65 172 65q102 0 165 -61q70 -68 70 -185q0 -111 -63 -176q-64 -67 -177 -67q-110 0 -174 68q-63 67 -63 174zM130 276h285q-9 52 -37 85q-40 45 -105 45t-104 -45q-31 -35 -39 -85zM417 204h-289q5 -58 40 -98q39 -45 106 -45q65 0 103 45
q33 38 40 98z" />
    <glyph glyph-name="uni04EA" unicode="&#x4ea;" horiz-adv-x="722" 
d="M149 396h423q-7 108 -67 175q-54 62 -144 62t-144 -62q-61 -67 -68 -175zM573 313h-424q2 -50 20.5 -100.5t47.5 -83.5q54 -62 144 -62t144 62q32 35 49 86t19 98zM677 349q0 -189 -97 -285q-81 -80 -219 -80t-219 80q-97 96 -97 286t97 286q81 80 219 80t219 -80
q97 -96 97 -287zM206 830q0 25 17 42t42 17t42 -17t17 -42t-17 -42t-42 -17t-42 17t-17 42zM409 830q0 25 17 42t42 17t42 -17t17 -42t-17 -42t-42 -17t-42 17t-17 42z" />
    <glyph glyph-name="uni04EB" unicode="&#x4eb;" horiz-adv-x="545" 
d="M34 231q0 112 70 182q68 65 172 65q102 0 165 -61q70 -68 70 -185q0 -111 -63 -176q-64 -67 -177 -67q-110 0 -174 68q-63 67 -63 174zM130 276h285q-9 52 -37 85q-40 45 -105 45t-104 -45q-31 -35 -39 -85zM417 204h-289q5 -58 40 -98q39 -45 106 -45q65 0 103 45
q33 38 40 98zM305 638q0 23 16 39t39 16q22 0 38.5 -15.5t16.5 -39.5q0 -23 -16 -39t-39 -16q-24 0 -39.5 16.5t-15.5 38.5zM140 638q0 23 16 39t39 16q22 0 38.5 -15.5t16.5 -39.5q0 -23 -16 -39t-39 -16q-24 0 -39.5 16.5t-15.5 38.5z" />
    <glyph glyph-name="uni04EE" unicode="&#x4ee;" horiz-adv-x="614" 
d="M326 297l170 403h100l-236 -559q-33 -78 -71 -114q-45 -43 -122 -43q-32 0 -62 9l-9 80q24 -8 49 -8q44 0 70 21q28 21 49 76l11 28l-261 510h106zM459 784h-298v67h298v-67z" />
    <glyph glyph-name="uni04EF" unicode="&#x4ef;" horiz-adv-x="468" 
d="M251 135l111 332h90l-168 -489q-39 -113 -73 -144q-40 -39 -111 -39q-27 0 -51 6l-8 75q21 -6 42 -6q43 0 69 26q23 23 42 85l12 38l-190 448h96zM114 578v58h260v-58h-260z" />
    <glyph glyph-name="uni04F0" unicode="&#x4f0;" horiz-adv-x="614" 
d="M326 297l170 403h100l-236 -559q-33 -78 -71 -114q-45 -43 -122 -43q-32 0 -62 9l-9 80q24 -8 49 -8q44 0 70 21q28 21 49 76l11 28l-261 510h106zM150 830q0 25 17 42t42 17t42 -17t17 -42t-17 -42t-42 -17t-42 17t-17 42zM353 830q0 25 17 42t42 17t42 -17t17 -42
t-17 -42t-42 -17t-42 17t-17 42z" />
    <glyph glyph-name="uni04F1" unicode="&#x4f1;" horiz-adv-x="468" 
d="M251 135l111 332h90l-168 -489q-39 -113 -73 -144q-40 -39 -111 -39q-27 0 -51 6l-8 75q21 -6 42 -6q43 0 69 26q23 23 42 85l12 38l-190 448h96zM269 638q0 23 16 39t39 16q22 0 38.5 -15.5t16.5 -39.5q0 -23 -16 -39t-39 -16q-24 0 -39.5 16.5t-15.5 38.5zM104 638
q0 23 16 39t39 16q22 0 38.5 -15.5t16.5 -39.5q0 -23 -16 -39t-39 -16q-24 0 -39.5 16.5t-15.5 38.5z" />
    <glyph glyph-name="uni04F2" unicode="&#x4f2;" horiz-adv-x="614" 
d="M326 297l170 403h100l-236 -559q-33 -78 -71 -114q-45 -43 -122 -43q-32 0 -62 9l-9 80q24 -8 49 -8q44 0 70 21q28 21 49 76l11 28l-261 510h106zM262 910h88l-108 -141h-57zM409 910h88l-107 -141h-57z" />
    <glyph glyph-name="uni04F3" unicode="&#x4f3;" horiz-adv-x="468" 
d="M251 135l111 332h90l-168 -489q-39 -113 -73 -144q-40 -39 -111 -39q-27 0 -51 6l-8 75q21 -6 42 -6q43 0 69 26q23 23 42 85l12 38l-190 448h96zM182 700h90l-118 -163h-55zM324 700h90l-118 -163h-55z" />
    <glyph glyph-name="uni04F4" unicode="&#x4f4;" horiz-adv-x="611" 
d="M435 396v304h96v-700h-96v313q-65 -26 -160 -26q-116 0 -168 53q-43 44 -43 133v227h96v-204q0 -66 31 -94q32 -29 104 -29q77 0 140 23zM140 830q0 25 17 42t42 17t42 -17t17 -42t-17 -42t-42 -17t-42 17t-17 42zM343 830q0 25 17 42t42 17t42 -17t17 -42t-17 -42
t-42 -17t-42 17t-17 42z" />
    <glyph glyph-name="uni04F5" unicode="&#x4f5;" horiz-adv-x="481" 
d="M330 255v212h83v-467h-83v182q-55 -18 -121 -18q-75 0 -115 30q-48 35 -48 120v153h83v-150q0 -40 18 -58q21 -21 78 -21q58 0 105 17zM261 638q0 23 16 39t39 16q22 0 38.5 -15.5t16.5 -39.5q0 -23 -16 -39t-39 -16q-24 0 -39.5 16.5t-15.5 38.5zM96 638q0 23 16 39
t39 16q22 0 38.5 -15.5t16.5 -39.5q0 -23 -16 -39t-39 -16q-24 0 -39.5 16.5t-15.5 38.5z" />
    <glyph glyph-name="uni04F8" unicode="&#x4f8;" horiz-adv-x="840" 
d="M664 0v700h96v-700h-96zM176 700v-273h127q148 0 211 -62q56 -54 56 -149q0 -96 -55 -153q-63 -63 -219 -63h-216v700h96zM176 83h124q92 0 132 37q36 34 36 93q0 63 -38 96q-41 35 -133 35h-121v-261zM259 830q0 25 17 42t42 17t42 -17t17 -42t-17 -42t-42 -17t-42 17
t-17 42zM462 830q0 25 17 42t42 17t42 -17t17 -42t-17 -42t-42 -17t-42 17t-17 42z" />
    <glyph glyph-name="uni04F9" unicode="&#x4f9;" horiz-adv-x="645" 
d="M494 0v467h83v-467h-83zM68 0v467h83v-159h81q107 0 154 -50q38 -40 38 -105q0 -69 -42 -109q-46 -44 -163 -44h-151zM151 72h77q54 0 80 20q29 22 29 64q0 39 -27 60q-26 20 -85 20h-74v-164zM355 638q0 23 16 39t39 16q22 0 38.5 -15.5t16.5 -39.5q0 -23 -16 -39
t-39 -16q-24 0 -39.5 16.5t-15.5 38.5zM190 638q0 23 16 39t39 16q22 0 38.5 -15.5t16.5 -39.5q0 -23 -16 -39t-39 -16q-24 0 -39.5 16.5t-15.5 38.5z" />
    <glyph glyph-name="uni1E9E" unicode="&#x1e9e;" horiz-adv-x="1117" 
d="M512 635l-52 -67q-46 31 -83 44q-47 18 -96 18q-63 0 -96 -30q-30 -28 -30 -71q0 -46 38 -75q13 -9 35.5 -20t37.5 -16.5t19 -6.5l85 -29q91 -31 128 -70q46 -48 46 -123q0 -85 -52 -139q-64 -66 -188 -66q-90 0 -159 27q-60 24 -105 67l59 68q40 -32 86 -52
q55 -24 118 -24q71 0 107 35q32 32 32 79q0 44 -29 70q-21 20 -96 46l-76 26q-97 34 -136 73q-49 48 -49 120q0 83 51 134q62 63 179 63q76 0 135 -25q51 -23 91 -56zM1045 635l-52 -67q-46 31 -83 44q-47 18 -96 18q-63 0 -96 -30q-30 -28 -30 -71q0 -46 38 -75
q13 -9 35.5 -20t37.5 -16.5t19 -6.5l85 -29q91 -31 128 -70q46 -48 46 -123q0 -85 -52 -139q-64 -66 -188 -66q-90 0 -159 27q-60 24 -105 67l59 68q40 -32 86 -52q55 -24 118 -24q71 0 107 35q32 32 32 79q0 44 -29 70q-21 20 -96 46l-76 26q-97 34 -136 73q-49 48 -49 120
q0 83 51 134q62 63 179 63q76 0 135 -25q51 -23 91 -56z" />
    <glyph glyph-name="uni2010" unicode="&#x2010;" horiz-adv-x="330" 
d="M29 244v82h272v-82h-272z" />
    <glyph glyph-name="uni2011" unicode="&#x2011;" horiz-adv-x="330" 
d="M29 244v82h272v-82h-272z" />
    <glyph glyph-name="figuredash" unicode="&#x2012;" horiz-adv-x="726" 
d="M48 317v82h630v-82h-630z" />
    <glyph glyph-name="endash" unicode="&#x2013;" horiz-adv-x="726" 
d="M48 244v82h630v-82h-630z" />
    <glyph glyph-name="emdash" unicode="&#x2014;" horiz-adv-x="1021" 
d="M80 326h861v-82h-861v82z" />
    <glyph glyph-name="afii00208" unicode="&#x2015;" horiz-adv-x="1021" 
d="M80 326h861v-82h-861v82z" />
    <glyph glyph-name="quoteleft" unicode="&#x2018;" horiz-adv-x="278" 
d="M180 716l48 -37q-22 -19 -44 -47q-23 -29 -31 -61q19 -2 35 -18q15 -17 15 -42q0 -29 -20 -51q-19 -20 -48 -20q-31 0 -50 21q-21 22 -21 62q0 70 52 132q27 33 64 61z" />
    <glyph glyph-name="quoteright" unicode="&#x2019;" horiz-adv-x="278" 
d="M98 440l-48 37q22 19 44 47q23 29 31 61q-19 2 -35 18q-15 17 -15 42q0 29 20 51q19 20 48 20q31 0 50 -21q21 -22 21 -62q0 -70 -52 -132q-27 -33 -64 -61z" />
    <glyph glyph-name="quotesinglbase" unicode="&#x201a;" horiz-adv-x="278" 
d="M98 -159l-48 37q22 19 44 47q23 29 31 61q-19 2 -35 18q-15 17 -15 42q0 29 20 51q19 20 48 20q31 0 50 -21q21 -22 21 -62q0 -70 -52 -132q-27 -33 -64 -61z" />
    <glyph glyph-name="quotedblleft" unicode="&#x201c;" horiz-adv-x="474" 
d="M362 750l44 -38q-28 -23 -47 -49q-20 -28 -30 -61q21 -3 34 -16q16 -16 16 -43q0 -29 -18 -49q-19 -20 -49 -20t-48 21q-18 20 -18 58q0 75 53 140q29 35 63 57zM184 750l44 -38q-28 -23 -47 -49q-20 -28 -30 -61q21 -3 34 -16q16 -16 16 -43q0 -29 -18 -49
q-19 -20 -49 -20t-48 21q-18 20 -18 58q0 75 53 140q29 35 63 57z" />
    <glyph glyph-name="quotedblright" unicode="&#x201d;" horiz-adv-x="474" 
d="M112 474l-44 38q28 23 47 49q20 28 30 61q-21 3 -34 16q-16 16 -16 43q0 29 18 49q19 20 49 20t48 -21q18 -20 18 -58q0 -75 -53 -140q-29 -35 -63 -57zM290 474l-44 38q28 23 47 49q20 28 30 61q-21 3 -34 16q-16 16 -16 43q0 29 18 49q19 20 49 20t48 -21
q18 -20 18 -58q0 -75 -53 -140q-29 -35 -63 -57z" />
    <glyph glyph-name="quotedblbase" unicode="&#x201e;" horiz-adv-x="474" 
d="M112 -155l-44 38q28 23 47 49q20 28 30 61q-21 3 -34 16q-16 16 -16 43q0 29 18 49q19 20 49 20t48 -21q18 -20 18 -58q0 -75 -53 -140q-29 -35 -63 -57zM290 -155l-44 38q28 23 47 49q20 28 30 61q-21 3 -34 16q-16 16 -16 43q0 29 18 49q19 20 49 20t48 -21
q18 -20 18 -58q0 -75 -53 -140q-29 -35 -63 -57z" />
    <glyph glyph-name="dagger" unicode="&#x2020;" horiz-adv-x="368" 
d="M140 445h-118v82h118v173h88v-173h118v-82h-118v-445h-88v445z" />
    <glyph glyph-name="daggerdbl" unicode="&#x2021;" horiz-adv-x="368" 
d="M140 700h88v-173h118v-82h-118v-110h118v-82h-118v-253h-88v253h-118v82h118v110h-118v82h118v173z" />
    <glyph glyph-name="bullet" unicode="&#x2022;" horiz-adv-x="360" 
d="M60 350q0 50 35 85t85 35t85 -35t35 -85t-35 -85t-85 -35t-85 35t-35 85z" />
    <glyph glyph-name="ellipsis" unicode="&#x2026;" horiz-adv-x="846" 
d="M69 56q0 29 21.5 50.5t51.5 21.5q29 0 50.5 -21.5t21.5 -50.5q0 -27 -19.5 -49.5t-52.5 -22.5q-35 0 -54 23t-19 49zM351 56q0 29 21.5 50.5t50.5 21.5q27 0 49.5 -19.5t22.5 -52.5q0 -31 -20.5 -51.5t-51.5 -20.5q-33 0 -52.5 22.5t-19.5 49.5zM633 56q0 33 22.5 52.5
t49.5 19.5q29 0 50.5 -21.5t21.5 -50.5q0 -27 -19.5 -49.5t-52.5 -22.5q-31 0 -51.5 20.5t-20.5 51.5z" />
    <glyph glyph-name="perthousand" unicode="&#x2030;" horiz-adv-x="1291" 
d="M364 519q0 -97 -53 -152q-43 -45 -109 -45t-109 45q-53 55 -53 152t53 152q43 45 109 45t109 -45q53 -55 53 -152zM202 654q-29 0 -48 -19q-32 -32 -32 -116t32 -116q19 -19 48 -19t48 19q32 32 32 116t-32 116q-19 19 -48 19zM689 316q-29 0 -48 -19q-32 -32 -32 -116
t32 -116q19 -19 48 -19t48 19q32 32 32 116t-32 116q-19 19 -48 19zM851 181q0 -97 -53 -152q-43 -45 -109 -45t-109 45q-53 55 -53 152t53 152q43 45 109 45t109 -45q53 -55 53 -152zM1083 316q-23 0 -42 -19q-32 -32 -32 -116t32 -116q19 -19 48 -19t48 19q32 32 32 116
t-32 116q-19 19 -54 19zM1251 181q0 -97 -53 -152q-43 -45 -109 -45t-109 45q-53 55 -53 152t53 152q43 45 109 45t109 -45q53 -55 53 -152zM245 -77l-49 32l456 822l50 -36z" />
    <glyph glyph-name="guilsinglleft" unicode="&#x2039;" horiz-adv-x="409" 
d="M339 25l-51 -47l-218 249l218 244l51 -51l-158 -193z" />
    <glyph glyph-name="guilsinglright" unicode="&#x203a;" horiz-adv-x="409" 
d="M121 -22l-51 47l158 202l-158 193l51 51l218 -244z" />
    <glyph glyph-name="fraction" unicode="&#x2044;" horiz-adv-x="412" 
d="M5 -77l-55 32l456 822l56 -36z" />
    <glyph glyph-name="Euro" unicode="&#x20ac;" 
d="M571 635l-53 -66q-29 24 -64 40q-50 24 -100 24q-80 0 -138 -55q-62 -58 -76 -147h303l-33 -62h-272v-43h251l-32 -62h-211q14 -87 66 -140q55 -57 146 -57q89 0 168 67l54 -69q-92 -81 -224 -81q-135 0 -217 79q-83 81 -99 201h-99l31 62h62v43h-93l31 62h66
q26 122 98 197q83 88 220 88q69 0 129 -25q47 -19 86 -56z" />
    <glyph glyph-name="uni20B4" unicode="&#x20b4;" 
d="M74 568l-52 63q42 35 89 56q64 29 131 29q107 0 170 -59q53 -49 53 -116q0 -32 -16 -64q-15 -28 -35 -46h80v-62h-141l-66 -43h207v-62h-276q-27 -17 -44 -44q-18 -26 -18 -56q0 -44 31 -70q30 -26 89 -26q51 0 97 23q43 21 75 53l59 -68q-41 -41 -97 -65
q-71 -29 -147 -29q-100 0 -157 57q-52 51 -52 125q0 55 40 100h-80v62h141l63 43h-204v62h284q25 15 45 42q22 30 22 61q0 48 -43 75q-33 21 -82 21q-53 0 -98 -21q-30 -14 -68 -41z" />
    <glyph glyph-name="uni20B6" unicode="&#x20b6;" 
d="M272 700q137 0 202 -63q62 -59 62 -157q0 -94 -55 -149q-66 -66 -225 -66h-108v-48h214v-62h-214v-155h-96v155h-82v62h82v48h-82v78h82v357h220zM148 343h113q91 0 133 38q39 35 39 100q0 61 -38 97q-41 39 -133 39h-114v-274z" />
    <glyph glyph-name="uni20B7" unicode="&#x20b7;" 
d="M272 700q137 0 202 -63q62 -59 62 -157q0 -94 -55 -149q-66 -66 -225 -66h-108v-48h214v-62h-214v-155h-96v155h-82v62h82v48h-82v78h82v357h220zM148 343h113q91 0 133 38q39 35 39 100q0 61 -38 97q-41 39 -133 39h-114v-274z" />
    <glyph glyph-name="uni20B9" unicode="&#x20b9;" 
d="M272 700q137 0 202 -63q62 -59 62 -157q0 -94 -55 -149q-66 -66 -225 -66h-108v-48h214v-62h-214v-155h-96v155h-82v62h82v48h-82v78h82v357h220zM148 343h113q91 0 133 38q39 35 39 100q0 61 -38 97q-41 39 -133 39h-114v-274z" />
    <glyph glyph-name="uni20BA" unicode="&#x20ba;" 
d="M272 700q137 0 202 -63q62 -59 62 -157q0 -94 -55 -149q-66 -66 -225 -66h-108v-48h214v-62h-214v-155h-96v155h-82v62h82v48h-82v78h82v357h220zM148 343h113q91 0 133 38q39 35 39 100q0 61 -38 97q-41 39 -133 39h-114v-274z" />
    <glyph glyph-name="uni20BB" unicode="&#x20bb;" 
d="M272 700q137 0 202 -63q62 -59 62 -157q0 -94 -55 -149q-66 -66 -225 -66h-108v-48h214v-62h-214v-155h-96v155h-82v62h82v48h-82v78h82v357h220zM148 343h113q91 0 133 38q39 35 39 100q0 61 -38 97q-41 39 -133 39h-114v-274z" />
    <glyph glyph-name="uni20BC" unicode="&#x20bc;" 
d="M272 700q137 0 202 -63q62 -59 62 -157q0 -94 -55 -149q-66 -66 -225 -66h-108v-48h214v-62h-214v-155h-96v155h-82v62h82v48h-82v78h82v357h220zM148 343h113q91 0 133 38q39 35 39 100q0 61 -38 97q-41 39 -133 39h-114v-274z" />
    <glyph glyph-name="uni20BD" unicode="&#x20bd;" 
d="M272 700q137 0 202 -63q62 -59 62 -157q0 -94 -55 -149q-66 -66 -225 -66h-108v-48h214v-62h-214v-155h-96v155h-82v62h82v48h-82v78h82v357h220zM148 343h113q91 0 133 38q39 35 39 100q0 61 -38 97q-41 39 -133 39h-114v-274z" />
    <glyph glyph-name="uni20BE" unicode="&#x20be;" 
d="M272 700q137 0 202 -63q62 -59 62 -157q0 -94 -55 -149q-66 -66 -225 -66h-108v-48h214v-62h-214v-155h-96v155h-82v62h82v48h-82v78h82v357h220zM148 343h113q91 0 133 38q39 35 39 100q0 61 -38 97q-41 39 -133 39h-114v-274z" />
    <glyph glyph-name="uni20BF" unicode="&#x20bf;" 
d="M272 700q137 0 202 -63q62 -59 62 -157q0 -94 -55 -149q-66 -66 -225 -66h-108v-48h214v-62h-214v-155h-96v155h-82v62h82v48h-82v78h82v357h220zM148 343h113q91 0 133 38q39 35 39 100q0 61 -38 97q-41 39 -133 39h-114v-274z" />
    <glyph glyph-name="uni20C0" unicode="&#x20c0;" 
d="M272 700q137 0 202 -63q62 -59 62 -157q0 -94 -55 -149q-66 -66 -225 -66h-108v-48h214v-62h-214v-155h-96v155h-82v62h82v48h-82v78h82v357h220zM148 343h113q91 0 133 38q39 35 39 100q0 61 -38 97q-41 39 -133 39h-114v-274z" />
    <glyph glyph-name="uni20C1" unicode="&#x20c1;" 
d="M272 700q137 0 202 -63q62 -59 62 -157q0 -94 -55 -149q-66 -66 -225 -66h-108v-48h214v-62h-214v-155h-96v155h-82v62h82v48h-82v78h82v357h220zM148 343h113q91 0 133 38q39 35 39 100q0 61 -38 97q-41 39 -133 39h-114v-274z" />
    <glyph glyph-name="uni20C2" unicode="&#x20c2;" 
d="M272 700q137 0 202 -63q62 -59 62 -157q0 -94 -55 -149q-66 -66 -225 -66h-108v-48h214v-62h-214v-155h-96v155h-82v62h82v48h-82v78h82v357h220zM148 343h113q91 0 133 38q39 35 39 100q0 61 -38 97q-41 39 -133 39h-114v-274z" />
    <glyph glyph-name="uni20C3" unicode="&#x20c3;" 
d="M272 700q137 0 202 -63q62 -59 62 -157q0 -94 -55 -149q-66 -66 -225 -66h-108v-48h214v-62h-214v-155h-96v155h-82v62h82v48h-82v78h82v357h220zM148 343h113q91 0 133 38q39 35 39 100q0 61 -38 97q-41 39 -133 39h-114v-274z" />
    <glyph glyph-name="uni20C4" unicode="&#x20c4;" 
d="M272 700q137 0 202 -63q62 -59 62 -157q0 -94 -55 -149q-66 -66 -225 -66h-108v-48h214v-62h-214v-155h-96v155h-82v62h82v48h-82v78h82v357h220zM148 343h113q91 0 133 38q39 35 39 100q0 61 -38 97q-41 39 -133 39h-114v-274z" />
    <glyph glyph-name="uni20C5" unicode="&#x20c5;" 
d="M272 700q137 0 202 -63q62 -59 62 -157q0 -94 -55 -149q-66 -66 -225 -66h-108v-48h214v-62h-214v-155h-96v155h-82v62h82v48h-82v78h82v357h220zM148 343h113q91 0 133 38q39 35 39 100q0 61 -38 97q-41 39 -133 39h-114v-274z" />
    <glyph glyph-name="uni20C6" unicode="&#x20c6;" 
d="M272 700q137 0 202 -63q62 -59 62 -157q0 -94 -55 -149q-66 -66 -225 -66h-108v-48h214v-62h-214v-155h-96v155h-82v62h82v48h-82v78h82v357h220zM148 343h113q91 0 133 38q39 35 39 100q0 61 -38 97q-41 39 -133 39h-114v-274z" />
    <glyph glyph-name="uni20C7" unicode="&#x20c7;" 
d="M272 700q137 0 202 -63q62 -59 62 -157q0 -94 -55 -149q-66 -66 -225 -66h-108v-48h214v-62h-214v-155h-96v155h-82v62h82v48h-82v78h82v357h220zM148 343h113q91 0 133 38q39 35 39 100q0 61 -38 97q-41 39 -133 39h-114v-274z" />
    <glyph glyph-name="uni20C8" unicode="&#x20c8;" 
d="M272 700q137 0 202 -63q62 -59 62 -157q0 -94 -55 -149q-66 -66 -225 -66h-108v-48h214v-62h-214v-155h-96v155h-82v62h82v48h-82v78h82v357h220zM148 343h113q91 0 133 38q39 35 39 100q0 61 -38 97q-41 39 -133 39h-114v-274z" />
    <glyph glyph-name="uni20C9" unicode="&#x20c9;" 
d="M272 700q137 0 202 -63q62 -59 62 -157q0 -94 -55 -149q-66 -66 -225 -66h-108v-48h214v-62h-214v-155h-96v155h-82v62h82v48h-82v78h82v357h220zM148 343h113q91 0 133 38q39 35 39 100q0 61 -38 97q-41 39 -133 39h-114v-274z" />
    <glyph glyph-name="uni20CA" unicode="&#x20ca;" 
d="M272 700q137 0 202 -63q62 -59 62 -157q0 -94 -55 -149q-66 -66 -225 -66h-108v-48h214v-62h-214v-155h-96v155h-82v62h82v48h-82v78h82v357h220zM148 343h113q91 0 133 38q39 35 39 100q0 61 -38 97q-41 39 -133 39h-114v-274z" />
    <glyph glyph-name="uni20CB" unicode="&#x20cb;" 
d="M272 700q137 0 202 -63q62 -59 62 -157q0 -94 -55 -149q-66 -66 -225 -66h-108v-48h214v-62h-214v-155h-96v155h-82v62h82v48h-82v78h82v357h220zM148 343h113q91 0 133 38q39 35 39 100q0 61 -38 97q-41 39 -133 39h-114v-274z" />
    <glyph glyph-name="uni20CC" unicode="&#x20cc;" 
d="M272 700q137 0 202 -63q62 -59 62 -157q0 -94 -55 -149q-66 -66 -225 -66h-108v-48h214v-62h-214v-155h-96v155h-82v62h82v48h-82v78h82v357h220zM148 343h113q91 0 133 38q39 35 39 100q0 61 -38 97q-41 39 -133 39h-114v-274z" />
    <glyph glyph-name="uni20CD" unicode="&#x20cd;" 
d="M272 700q137 0 202 -63q62 -59 62 -157q0 -94 -55 -149q-66 -66 -225 -66h-108v-48h214v-62h-214v-155h-96v155h-82v62h82v48h-82v78h82v357h220zM148 343h113q91 0 133 38q39 35 39 100q0 61 -38 97q-41 39 -133 39h-114v-274z" />
    <glyph glyph-name="uni20CE" unicode="&#x20ce;" 
d="M272 700q137 0 202 -63q62 -59 62 -157q0 -94 -55 -149q-66 -66 -225 -66h-108v-48h214v-62h-214v-155h-96v155h-82v62h82v48h-82v78h82v357h220zM148 343h113q91 0 133 38q39 35 39 100q0 61 -38 97q-41 39 -133 39h-114v-274z" />
    <glyph glyph-name="uni20CF" unicode="&#x20cf;" 
d="M272 700q137 0 202 -63q62 -59 62 -157q0 -94 -55 -149q-66 -66 -225 -66h-108v-48h214v-62h-214v-155h-96v155h-82v62h82v48h-82v78h82v357h220zM148 343h113q91 0 133 38q39 35 39 100q0 61 -38 97q-41 39 -133 39h-114v-274z" />
    <glyph glyph-name="afii61352" unicode="&#x2116;" horiz-adv-x="951" 
d="M484 165v319q0 125 56 180q53 52 167 52h2l20 -73h-4q-88 0 -124 -38q-16 -17 -24 -41t-9 -42t-1 -55v-467h-83l-302 514v-514h-85v700h84zM639 123v66h238v-66h-238zM758 511q-26 0 -40 -16q-25 -25 -25 -86t25 -86q14 -16 40 -16t40 16q25 25 25 86t-25 86
q-14 16 -40 16zM891 409q0 -84 -43 -128q-33 -36 -90 -36t-90 36q-43 44 -43 128t43 128q33 36 90 36t90 -36q43 -44 43 -128z" />
    <glyph glyph-name="uni2117" unicode="&#x2117;" horiz-adv-x="812" 
d="M363 317v-154h-76v385h134q76 0 111 -33q32 -31 32 -83q0 -48 -26 -78q-32 -37 -110 -37h-65zM363 488v-111h54q33 0 50 14q19 15 19 43q0 27 -18 42q-15 12 -50 12h-55zM40 350q0 150 106 257q109 109 260 109t258 -107q108 -108 108 -259q0 -150 -106 -258
q-52 -53 -120.5 -80.5t-139.5 -27.5q-153 0 -260 108q-106 108 -106 258zM101 350q0 -127 89 -216t216 -89q126 0 215 89q90 89 90 216t-88 215q-89 90 -217 90q-126 0 -215 -89q-90 -89 -90 -216z" />
    <glyph glyph-name="trademark" unicode="&#x2122;" horiz-adv-x="589" 
d="M114 652h-72v48h202v-48h-72v-183h-58v183zM413 564l65 136h69v-231h-56v165l-63 -131h-30l-62 131v-165h-56v231h69z" />
    <glyph glyph-name="partialdiff" unicode="&#x2202;" horiz-adv-x="574" 
d="M201 623l-19 69q48 24 113 24q97 0 160 -63q74 -74 74 -226q0 -97 -27 -199q-30 -112 -93 -172q-70 -67 -173 -67q-90 0 -145 55q-61 61 -61 155q0 62 28.5 123.5t79.5 102.5q64 53 149 53q62 0 108 -36q41 -32 55 -80q8 66 -5 132.5t-49 104.5q-43 45 -110 45
q-43 0 -85 -21zM293 406q-59 0 -105 -48q-63 -67 -63 -165q0 -64 32 -99q29 -34 81 -34q58 0 101 42q30 28 48 73.5t18 92.5q0 70 -38 108q-30 30 -74 30z" />
    <glyph glyph-name="product" unicode="&#x220f;" horiz-adv-x="665" 
d="M176 617v-809h-96v892h505v-892h-96v809h-313z" />
    <glyph glyph-name="summation" unicode="&#x2211;" horiz-adv-x="568" 
d="M502 617h-356l218 -287v-76l-218 -363h392v-83h-488v79l238 405l-238 329v79h452v-83z" />
    <glyph glyph-name="minus" unicode="&#x2212;" horiz-adv-x="718" 
d="M48 391h622v-82h-622v82z" />
    <glyph glyph-name="uni2215" unicode="&#x2215;" horiz-adv-x="690" 
d="M126 -192l-58 37l522 871l60 -40z" />
    <glyph glyph-name="uni2219" unicode="&#x2219;" horiz-adv-x="250" 
d="M53 253q0 29 21.5 50.5t51.5 21.5q29 0 50.5 -21.5t21.5 -50.5q0 -27 -19.5 -49.5t-52.5 -22.5q-35 0 -54 23t-19 49z" />
    <glyph glyph-name="radical" unicode="&#x221a;" horiz-adv-x="620" 
d="M99 497h-74v68h138l135 -470l218 655h80l-258 -790h-79z" />
    <glyph glyph-name="infinity" unicode="&#x221e;" horiz-adv-x="660" 
d="M330 298l18 18q36 36 59 52q37 25 81 25q64 0 104 -40q38 -40 38 -94q0 -58 -40 -98q-38 -38 -101 -38q-48 0 -87 26q-20 13 -58 54l-14 15l-14 -15q-38 -41 -58 -54q-39 -26 -87 -26q-63 0 -101 38q-40 40 -40 98q0 54 38 94q40 40 104 40q44 0 81 -25q23 -16 59 -52z
M378 258l12 -13q23 -25 41 -39q30 -22 58 -22q31 0 53 22q20 22 20 52q0 34 -22 54q-19 19 -50 19q-28 0 -58 -22q-13 -10 -42 -39zM282 258l-12 12q-29 29 -42 39q-30 22 -58 22q-31 0 -50 -19q-22 -20 -22 -54q0 -30 20 -52q22 -22 53 -22q28 0 58 22q18 14 41 39z" />
    <glyph glyph-name="integral" unicode="&#x222b;" horiz-adv-x="371" 
d="M369 691l-28 -68q-26 12 -48 12q-32 0 -48 -19q-18 -21 -18 -85v-560q0 -104 -41 -144q-33 -32 -97 -32q-49 0 -87 19l28 68q27 -12 50 -12q28 0 43 13q21 18 21 91v578q0 88 42 125q35 33 99 33q46 0 84 -19z" />
    <glyph glyph-name="approxequal" unicode="&#x2248;" horiz-adv-x="648" 
d="M525 507l53 -25q-20 -46 -54 -78q-39 -36 -94 -36q-50 0 -100 23l-37 17q-51 22 -83 22q-34 0 -58 -21q-14 -13 -30 -39l-52 25q20 45 52 77q39 38 97 38q41 0 96 -24l42 -19q43 -19 83 -19q34 0 55 20q15 14 30 39zM525 330l53 -25q-25 -51 -54 -78q-37 -36 -94 -36
q-50 0 -100 23l-37 17q-51 22 -83 22q-34 0 -58 -21q-14 -13 -30 -39l-52 25q20 45 52 77q39 38 97 38q41 0 96 -24l42 -19q42 -19 81 -19q36 0 57 20q12 11 30 39z" />
    <glyph glyph-name="notequal" unicode="&#x2260;" horiz-adv-x="704" 
d="M41 406v80h339l84 155l68 -34l-66 -121h197v-80h-240l-61 -112h301v-80h-345l-85 -156l-67 35l66 121h-191v80h234l61 112h-295z" />
    <glyph glyph-name="lessequal" unicode="&#x2264;" horiz-adv-x="706" 
d="M624 685l22 -58l-516 -216l516 -216l-22 -58l-564 229v92zM60 0v60h586v-60h-586z" />
    <glyph glyph-name="greaterequal" unicode="&#x2265;" horiz-adv-x="706" 
d="M82 685l564 -227v-92l-564 -229l-22 58l516 216l-516 216zM646 0h-586v60h586v-60z" />
    <glyph glyph-name="dotmath" unicode="&#x22c5;" horiz-adv-x="250" 
d="M53 253q0 29 21.5 50.5t51.5 21.5q29 0 50.5 -21.5t21.5 -50.5q0 -27 -19.5 -49.5t-52.5 -22.5q-35 0 -54 23t-19 49z" />
    <glyph glyph-name="lozenge" unicode="&#x25ca;" horiz-adv-x="434" 
d="M190 700h53l161 -348l-161 -352h-53l-160 352zM330 353l-114 252l-112 -252l113 -258z" />
    <glyph glyph-name="openbullet" unicode="&#x25e6;" horiz-adv-x="350" 
d="M60 601q0 49 33 82t82 33t82 -33t33 -82t-33 -82t-82 -33t-82 33t-33 82zM109 601q0 -26 20 -46t46 -20t46 20t20 46t-20 46t-46 20t-46 -20t-20 -46z" />
    <glyph glyph-name="uniF400" unicode="&#xf400;" horiz-adv-x="2" 
d="M-209 700h102l-112 -163h-66z" />
    <glyph glyph-name="uniF401" unicode="&#xf401;" horiz-adv-x="2" 
d="M-290 910h106l-112 -141h-70z" />
    <glyph glyph-name="uniF406" unicode="&#xf406;" horiz-adv-x="519" 
d="M260 764q-56 0 -89 20q-55 31 -70 114l68 15q9 -49 41 -68q19 -11 50 -11t50 11q32 19 41 68l68 -15q-15 -83 -70 -114q-33 -20 -89 -20z" />
    <glyph glyph-name="uniF407" unicode="&#xf407;" horiz-adv-x="414" 
d="M183 0h48l-16 -43q49 2 78 -27q21 -21 21 -50q0 -31 -23 -56q-28 -29 -87 -29q-31 0 -61 10q-20 6 -43 19l26 44q16 -10 33 -16q20 -7 44 -7q26 0 39 13q9 9 9 24q0 11 -9 20q-14 14 -53 14q-17 0 -36 -3z" />
    <glyph glyph-name="uniF408" unicode="&#xf408;" horiz-adv-x="350" 
d="M175 850l-61 -81h-84l106 141h78l106 -141h-84z" />
    <glyph glyph-name="uniF409" unicode="&#xf409;" horiz-adv-x="275" 
d="M115 -61h93q0 -52 -13 -90q-22 -61 -73 -104l-56 21q26 38 37 65q14 33 14 76q0 18 -2 32z" />
    <glyph glyph-name="uniF40A" unicode="&#xf40a;" horiz-adv-x="245" 
d="M106 700h93q2 -59 -13 -102q-22 -60 -73 -104l-56 21q26 38 37 65q14 36 14 79q0 7 -1 22.5t-1 18.5z" />
    <glyph glyph-name="uniF40B" unicode="&#xf40b;" horiz-adv-x="324" 
d="M100 828q0 26 18 43.5t44 17.5t44 -17.5t18 -43.5t-18 -44t-44 -18t-44 18t-18 44z" />
    <glyph glyph-name="uniF40C" unicode="&#xf40c;" horiz-adv-x="400" 
d="M100 852q0 42 29 71t71 29t71 -29t29 -71t-29 -71t-71 -29t-71 29t-29 71zM150 852q0 -20 15 -35t35 -15t35 15t15 35t-15 35t-35 15t-35 -15t-15 -35z" />
    <glyph glyph-name="uniF40D" unicode="&#xf40d;" horiz-adv-x="522" 
d="M376 877l45 -34q-23 -34 -36 -45q-25 -20 -55 -20q-27 0 -63 20l-20 11q-30 17 -46 17q-17 0 -32 -12q-13 -10 -20 -21l-44 35q18 27 37 42q26 22 60 22q27 0 55 -16l23 -13q34 -19 48 -19q18 0 31 12q12 12 17 21z" />
    <glyph glyph-name="uniF40E" unicode="&#xf40e;" horiz-adv-x="409" 
d="M198 7h64q-58 -54 -64 -61q-30 -35 -30 -59q0 -18 11 -27q11 -10 33 -10q16 0 32 8q8 4 22 14l31 -43q-22 -16 -41 -24q-24 -10 -57 -10q-42 0 -69 19q-30 21 -30 60t38 80q24 25 60 53z" />
    <glyph glyph-name="uniF47E" unicode="&#xf47e;" horiz-adv-x="683" 
d="M603 700v-431q0 -49 -2.5 -79.5t-16.5 -71t-42 -68.5q-66 -66 -201 -66q-134 0 -200 66q-28 28 -42 68.5t-16.5 71t-2.5 79.5v431h96v-428q0 -42 1 -61t10 -51.5t27 -50.5q40 -40 128 -40q87 0 127 40q18 18 27 50.5t10 51.5t1 61v428h96zM279 828q0 26 18 43.5t44 17.5
t44 -17.5t18 -43.5t-18 -44t-44 -18t-44 18t-18 44z" />
    <glyph glyph-name="uniF47F" unicode="&#xf47f;" horiz-adv-x="522" 
d="M374 0v62q-27 -31 -63 -51q-41 -22 -94 -22q-70 0 -108 39q-41 42 -41 125v314h83v-299q0 -52 17 -76q21 -29 70 -29q42 0 77 24q33 22 56 59v321h83v-467h-80zM206 638q0 23 16 39t39 16q22 0 38.5 -15.5t16.5 -39.5q0 -23 -16 -39t-39 -16q-24 0 -39.5 16.5t-15.5 38.5
z" />
    <glyph glyph-name="uniF481" unicode="&#xf481;" horiz-adv-x="676" 
d="M183 190l-73 -190h-106l291 700h86l291 -700h-106l-73 190h-310zM459 273l-121 306l-121 -306h242zM307 0h48l-16 -43q49 2 78 -27q21 -21 21 -50q0 -31 -23 -56q-28 -29 -87 -29q-31 0 -61 10q-20 6 -43 19l26 44q17 -10 33 -16q20 -7 44 -7q26 0 39 13q9 9 9 24
q0 11 -9 20q-14 14 -53 14q-17 0 -36 -3z" />
    <glyph glyph-name="uniF482" unicode="&#xf482;" horiz-adv-x="500" 
d="M106 365l-41 58q77 55 183 55q96 0 139 -45q37 -39 37 -129v-162q0 -57 10 -69q12 -15 38 -10l-12 -71q-48 -12 -81 14q-23 18 -31 51q-33 -33 -51 -43q-29 -17 -64 -22l-13 -35q51 2 80 -27q21 -21 21 -50q0 -31 -23 -56q-28 -29 -87 -29q-31 0 -61 10q-20 6 -43 19
l26 44q16 -10 33 -16q20 -7 44 -7q26 0 39 13q9 9 9 24q0 11 -9 20q-16 14 -53 14q-19 0 -36 -3l27 77q-67 -3 -113 39q-42 39 -42 103q0 58 41 99q43 43 132 56q63 9 134 9v5q0 63 -23 84q-22 21 -72 21q-34 0 -75 -13q-36 -12 -63 -28zM341 135v92q-67 0 -121 -11
q-50 -10 -74 -32q-23 -21 -23 -53q0 -29 20 -49q21 -20 61 -20q31 0 59 12q41 18 78 61z" />
    <glyph glyph-name="uniF483" unicode="&#xf483;" horiz-adv-x="581" 
d="M421 617h-342v83h456v-76l-386 -541h380v-83h-483v80zM214 852q0 42 29 71t71 29t71 -29t29 -71t-29 -71t-71 -29t-71 29t-29 71zM264 852q0 -20 15 -35t35 -15t35 15t15 35t-15 35t-35 15t-35 -15t-15 -35z" />
    <glyph glyph-name="uniF484" unicode="&#xf484;" horiz-adv-x="463" 
d="M311 395h-250v72h362v-59l-275 -336h275v-72h-383v60zM145 630q0 42 29 71t71 29t71 -29t29 -71t-29 -71t-71 -29t-71 29t-29 71zM195 630q0 -20 15 -35t35 -15t35 15t15 35t-15 35t-35 15t-35 -15t-15 -35z" />
    <glyph glyph-name="uniF4C4" unicode="&#xf4c4;" horiz-adv-x="530" 
d="M313 617v-617h-23l-14 -43q49 2 78 -27q21 -21 21 -50q0 -31 -23 -56q-28 -29 -87 -29q-31 0 -61 10q-20 6 -43 19l26 44q17 -10 33 -16q20 -7 44 -7q26 0 39 13q9 9 9 24q0 11 -9 20q-14 14 -53 14q-16 0 -36 -3l29 87h-26v617h-203v83h502v-83h-203z" />
    <glyph glyph-name="uniF4C5" unicode="&#xf4c5;" horiz-adv-x="387" 
d="M152 395h-140v72h363v-72h-140v-395h-18l-16 -43q51 2 80 -27q21 -21 21 -50q0 -31 -23 -56q-28 -29 -87 -29q-31 0 -61 10q-20 6 -43 19l26 44q17 -10 33 -16q20 -7 44 -7q26 0 39 13q9 9 9 24q0 11 -9 20q-16 14 -53 14q-19 0 -36 -3l32 87h-21v395z" />
    <glyph glyph-name="uniF4C8" unicode="&#xf4c8;" horiz-adv-x="626" 
d="M583 635l-53 -66q-29 24 -64 40q-51 24 -100 24q-83 0 -140 -55q-79 -77 -79 -228q0 -149 77 -226q57 -57 144 -57q90 0 170 67l54 -69q-80 -75 -207 -78l-10 -30q49 2 78 -27q21 -21 21 -50q0 -31 -23 -56q-28 -29 -87 -29q-31 0 -61 10q-20 6 -43 19l26 44
q16 -10 33 -16q20 -7 44 -7q26 0 39 13q9 9 9 24q0 11 -9 20q-14 14 -53 14q-17 0 -36 -3l24 74q-111 4 -186 76q-49 46 -77.5 119t-28.5 165q0 176 103 281q86 88 220 88q69 0 129 -25q47 -19 86 -56z" />
    <glyph glyph-name="uniF4C9" unicode="&#xf4c9;" horiz-adv-x="469" 
d="M391 113l56 -49q-62 -74 -163 -74l-14 -33q51 2 80 -27q21 -21 21 -50q0 -31 -23 -56q-28 -29 -87 -29q-31 0 -61 10q-20 6 -43 19l26 44q17 -10 33 -16q20 -7 44 -7q26 0 39 13q9 9 9 24q0 11 -9 20q-16 14 -53 14q-20 0 -36 -3l28 77q-83 3 -139 59q-65 65 -65 179
q0 112 66 182q64 68 171 68q102 0 169 -58l-48 -58q-64 44 -121 44q-59 0 -96 -37q-49 -49 -49 -142q0 -83 46 -129q37 -37 97 -37q67 0 122 52z" />
    <glyph glyph-name="uniF4CC" unicode="&#xf4cc;" horiz-adv-x="614" 
d="M326 297l170 403h100l-236 -559q-33 -78 -71 -114q-45 -43 -122 -43q-32 0 -62 9l-9 80q24 -8 49 -8q44 0 70 21q28 21 49 76l11 28l-261 510h106zM336 910h106l-112 -141h-70z" />
    <glyph glyph-name="uniF4CD" unicode="&#xf4cd;" horiz-adv-x="468" 
d="M251 135l111 332h90l-168 -489q-39 -113 -73 -144q-40 -39 -111 -39q-27 0 -51 6l-8 75q21 -6 42 -6q43 0 69 26q23 23 42 85l12 38l-190 448h96zM272 700h102l-112 -163h-66z" />
    <glyph glyph-name="dollar.fitted" unicode="&#xf5f5;" horiz-adv-x="535" 
d="M489 635l-52 -67q-61 52 -131 58v-230l41 -14q84 -29 124 -70q46 -48 46 -123q0 -85 -52 -139q-60 -62 -159 -65v-75h-72v76q-58 3 -112 25q-60 24 -105 67l59 68q73 -65 158 -73v248l-13 5q-95 37 -132 73q-49 48 -49 120q0 82 51 134q57 59 143 62v73h72v-74
q46 -3 92 -23q47 -20 91 -56zM306 296v-225q51 5 81 34q32 32 32 79q0 44 -29 70q-26 24 -84 42zM234 422v207q-45 -5 -72 -29q-30 -28 -30 -71q0 -46 38 -75q20 -15 64 -32z" />
    <glyph glyph-name="Euro.fitted" unicode="&#xf5f6;" horiz-adv-x="686" 
d="M646 635l-53 -66q-29 24 -64 40q-50 24 -100 24q-80 0 -138 -55q-62 -58 -76 -147h303l-33 -62h-272v-43h251l-32 -62h-211q14 -87 66 -140q55 -57 146 -57q89 0 168 67l54 -69q-92 -81 -224 -81q-135 0 -217 79q-83 81 -99 201h-99l31 62h62v43h-93l31 62h66
q26 122 98 197q83 88 220 88q69 0 129 -25q47 -19 86 -56z" />
    <glyph glyph-name="cent.fitted" unicode="&#xf5f7;" horiz-adv-x="448" 
d="M379 109l56 -49q-53 -64 -148 -69v-81h-72v80q-76 2 -132 58q-65 65 -65 183q0 110 66 180q53 56 131 65v81h72v-81q81 -6 139 -56l-47 -56q-44 32 -93 38v-337q52 3 93 44zM216 66v334q-53 -11 -82 -60q-26 -45 -26 -111q0 -75 31 -117q28 -38 77 -46z" />
    <glyph glyph-name="sterling.fitted" unicode="&#xf5f8;" horiz-adv-x="551" 
d="M91 -7l-53 81q40 26 63 58q28 40 28 89q0 45 -14 83h-89v73h66q-23 65 -23 122q0 101 57 158q59 59 163 59q66 0 121 -28q43 -21 76 -60l-68 -58q-28 30 -50 43q-34 21 -73 21q-61 0 -93 -34q-33 -33 -33 -99q0 -47 25 -124h148v-73h-128q8 -42 8 -70q0 -72 -49 -128
l2 -5q28 10 53 10q32 0 83 -19q50 -18 76 -18q44 0 77 46l61 -59q-32 -38 -58 -53q-37 -22 -87 -22q-45 0 -105 20q-59 21 -90 21q-50 0 -94 -34z" />
    <glyph glyph-name="yen.fitted" unicode="&#xf5f9;" 
d="M260 363l154 337h103l-212 -432h154v-62h-153v-43h153v-62h-153v-101h-92v101h-153v62h153v43h-153v62h154l-212 432h103z" />
    <glyph glyph-name="florin.fitted" unicode="&#xf5fa;" horiz-adv-x="590" 
d="M299 467l16 68q24 102 57 136q38 39 110 39q30 0 60 -9q23 -6 42 -17l-32 -66q-30 18 -63 18q-39 0 -60 -23q-20 -20 -31 -73l-16 -73h124l-15 -72h-124l-94 -441q-20 -89 -53 -122q-37 -37 -105 -37t-109 27l33 67q27 -20 66 -20q32 0 53 22q22 22 35 82l91 422h-80
l15 72h80z" />
    <glyph glyph-name="uni20B4.fitted" unicode="&#xf5fb;" horiz-adv-x="537" 
d="M82 568l-52 63q42 35 89 56q64 29 131 29q107 0 170 -59q53 -49 53 -116q0 -32 -16 -64q-15 -28 -35 -46h80v-62h-141l-66 -43h207v-62h-276q-27 -17 -44 -44q-18 -26 -18 -56q0 -44 31 -70q30 -26 89 -26q51 0 97 23q43 21 75 53l59 -68q-41 -41 -97 -65
q-71 -29 -147 -29q-100 0 -157 57q-52 51 -52 125q0 55 40 100h-80v62h141l63 43h-204v62h284q25 15 45 42q22 30 22 61q0 48 -43 75q-33 21 -82 21q-53 0 -98 -21q-30 -14 -68 -41z" />
    <glyph glyph-name="uni20B6.fitted" unicode="&#xf5fc;" horiz-adv-x="597" 
d="M323 700q137 0 202 -63q62 -59 62 -157q0 -94 -55 -149q-66 -66 -225 -66h-108v-48h214v-62h-214v-155h-96v155h-82v62h82v48h-82v78h82v357h220zM199 343h113q91 0 133 38q39 35 39 100q0 61 -38 97q-41 39 -133 39h-114v-274z" />
    <glyph glyph-name="numbersign.fitted" unicode="&#xf5ff;" horiz-adv-x="792" 
d="M511 0h-88l32 172h-185l-33 -172h-88l33 172h-166l15 78h166l37 201h-166l15 78h166l32 171h88l-32 -171h185l32 171h88l-32 -171h166l-15 -78h-166l-37 -201h166l-15 -78h-166zM285 250h185l37 201h-185z" />
    <glyph glyph-name="uniF639" unicode="&#xf639;" horiz-adv-x="506" 
d="M253 634q-58 0 -88 -54q-38 -65 -38 -230q0 -164 38 -230q30 -54 88 -54t88 54q38 67 38 230q0 161 -38 230q-30 54 -88 54zM475 350q0 -231 -87 -316q-51 -50 -135 -50t-135 50q-87 85 -87 316q0 230 87 314q54 52 137 52q79 0 133 -51q87 -83 87 -315z" />
    <glyph glyph-name="uniF63A" unicode="&#xf63a;" horiz-adv-x="475" 
d="M146 82h297v-82h-412v81q62 64 130 130q103 103 138 159q50 77 50 151q0 50 -27 81q-28 32 -81 32q-51 0 -82 -31q-23 -23 -39 -64l-80 36q25 65 72 102q49 39 133 39q99 0 153 -56q49 -52 49 -134q0 -77 -35 -139.5t-93 -127.5t-173 -177z" />
    <glyph glyph-name="uniF63B" unicode="&#xf63b;" horiz-adv-x="486" 
d="M117 543l-77 33q19 51 54 86q54 54 146 54q95 0 145 -48q51 -49 51 -138q0 -70 -40 -112q-31 -34 -79 -45v-3q57 -9 94 -46q46 -48 46 -122q0 -104 -62 -164q-55 -54 -153 -54q-92 0 -145 37q-47 33 -72 97l78 42q16 -42 41 -64q32 -29 91 -29q55 0 87 32q37 37 37 106
q0 60 -38 95q-36 31 -119 31h-22v78h21q74 0 108 28q37 31 37 86q0 54 -29 83q-28 28 -81 28q-51 0 -82 -31q-21 -21 -37 -60z" />
    <glyph glyph-name="uniF63C" unicode="&#xf63c;" horiz-adv-x="486" 
d="M306 149h-301v80l309 471h84v-471h63v-80h-63v-149h-92v149zM306 552l-213 -323h213v323z" />
    <glyph glyph-name="uniF63D" unicode="&#xf63d;" horiz-adv-x="472" 
d="M91 700h319v-80h-238l-17 -189q38 32 98 32q81 0 130 -48q63 -61 63 -178q0 -131 -70 -200q-53 -53 -148 -53q-88 0 -136 39q-40 33 -66 95l77 42q13 -41 39 -66q31 -30 86 -30q47 0 74 27q46 45 46 146q0 84 -39 123q-29 29 -79 29q-62 0 -99 -45h-70z" />
    <glyph glyph-name="uniF63E" unicode="&#xf63e;" horiz-adv-x="480" 
d="M439 602l-77 -40q-14 34 -35 52q-26 22 -61 22q-47 0 -74 -27q-55 -55 -60 -218q19 28 53 48q36 20 81 20q71 0 118 -46q67 -64 67 -179q0 -57 -17.5 -110.5t-51.5 -87.5q-52 -52 -142 -52q-85 0 -135 48q-43 41 -58.5 107.5t-15.5 162.5q0 108 19 198q23 110 76 165
q51 51 135 51q72 0 118 -33q40 -29 60 -81zM355 226q0 73 -26 114q-29 45 -84 45q-56 0 -85 -44q-29 -43 -29 -119q0 -81 31 -121q30 -37 82 -37q51 0 79 37q32 41 32 125z" />
    <glyph glyph-name="uniF63F" unicode="&#xf63f;" horiz-adv-x="397" 
d="M301 618h-284v82h368v-80q-76 -127 -129 -300q-51 -168 -65 -320h-96q25 181 83 345q57 159 123 273z" />
    <glyph glyph-name="uniF640" unicode="&#xf640;" horiz-adv-x="478" 
d="M239 640q-47 0 -72 -30q-27 -30 -27 -91q0 -60 31 -91q26 -26 68 -26q43 0 67 26q32 32 32 94q0 59 -27 90q-24 28 -72 28zM239 328q-50 0 -80 -30q-33 -33 -33 -104q0 -70 33 -103q29 -31 82 -31q48 0 78 30q33 33 33 104t-33 104q-30 30 -80 30zM239 -16q-96 0 -148 48
q-61 56 -61 166q0 62 29 109q30 47 84 65q-40 14 -66 54q-27 41 -27 105q0 87 50 137q49 48 139 48t139 -48q50 -50 50 -137q0 -64 -27 -105q-26 -40 -66 -54q54 -18 84 -65q29 -47 29 -109q0 -49 -16 -94.5t-45 -71.5q-54 -48 -148 -48z" />
    <glyph glyph-name="uniF641" unicode="&#xf641;" horiz-adv-x="480" 
d="M41 101l77 40q15 -34 35 -53q26 -24 69 -24q49 0 80 32q48 51 55 213q-22 -35 -56 -52q-31 -16 -77 -16q-78 0 -128 47q-67 63 -67 179q0 129 69 197q52 52 141 52q83 0 136 -49q33 -31 50.5 -84t20.5 -93.5t3 -101.5q0 -98 -16 -185q-21 -114 -75 -168q-51 -51 -136 -51
q-76 0 -121 34q-40 31 -60 83zM125 471q0 -72 26 -112q29 -44 86 -44q54 0 83 44q29 43 29 119q0 89 -39 129q-29 29 -74 29q-51 0 -79 -37q-32 -41 -32 -128z" />
    <glyph glyph-name="uniF643" unicode="&#xf643;" 
d="M260 437q-117 0 -117 -190t117 -190t117 190t-117 190zM47 247q0 134 65 203q58 60 148 60t148 -60q65 -69 65 -203t-65 -203q-58 -60 -148 -60t-148 60q-65 69 -65 203z" />
    <glyph glyph-name="uniF644" unicode="&#xf644;" 
d="M235 0v349q-48 -42 -102 -67l-40 55q51 31 92 68q47 42 72 95h70v-500h-92z" />
    <glyph glyph-name="uniF645" unicode="&#xf645;" 
d="M183 80h259v-80h-393v81q21 11 69 35t72.5 37t56.5 34t52 41q49 49 49 107q0 37 -26.5 65.5t-82.5 28.5q-81 0 -116 -92l-74 36q21 56 71 96.5t135 40.5q87 0 137 -48t50 -125q0 -83 -65 -142.5t-194 -114.5z" />
    <glyph glyph-name="uniF646" unicode="&#xf646;" 
d="M122 341l-71 36q24 61 75 97q50 36 126 36q73 0 120 -37q63 -50 63 -136q0 -62 -40 -102q-30 -31 -81 -46q59 -8 97 -50q41 -47 41 -126q0 -93 -61 -157q-59 -61 -154 -61q-79 0 -123 28q-44 27 -72 90l74 45q19 -44 46 -65q30 -25 77 -25q58 0 90 45q27 38 27 100
q0 78 -48 110q-33 22 -107 22h-14v76q70 0 107 21q49 27 49 93q0 41 -29 69q-27 27 -73 27q-45 0 -77 -27q-19 -16 -42 -63z" />
    <glyph glyph-name="uniF647" unicode="&#xf647;" 
d="M300 0h-283v80l291 420h84v-420h61v-80h-61v-205h-92v205zM300 80v281l-197 -281h197z" />
    <glyph glyph-name="uniF648" unicode="&#xf648;" 
d="M124 500h307v-80h-226l-18 -189q32 32 94 32q92 0 139 -73q41 -65 41 -160q0 -53 -21 -102.5t-52 -78.5q-57 -54 -144 -54q-135 0 -185 125l73 42q23 -48 49 -69t70 -21q57 0 85.5 43t28.5 114q0 42 -8.5 75.5t-33.5 58.5t-65 25q-63 0 -91 -44h-73z" />
    <glyph glyph-name="uniF649" unicode="&#xf649;" 
d="M456 602l-77 -40q-14 34 -35 52q-26 22 -61 22q-47 0 -74 -27q-55 -55 -60 -218q19 28 53 48q36 20 81 20q71 0 118 -46q67 -64 67 -179q0 -57 -17.5 -110.5t-51.5 -87.5q-52 -52 -142 -52q-79 0 -129 48q-76 72 -76 270q0 108 19 198q23 114 73 165q51 51 134 51
q72 0 118 -33q40 -29 60 -81zM372 226q0 73 -26 114q-29 45 -84 45q-56 0 -85 -44q-29 -43 -29 -119q0 -81 31 -121q30 -37 82 -37q51 0 79 37q32 41 32 125z" />
    <glyph glyph-name="uniF64A" unicode="&#xf64a;" 
d="M349 418h-278v82h362v-80q-75 -134 -129 -305q-20 -63 -39 -157.5t-25 -162.5h-96q23 174 84 345q65 182 121 278z" />
    <glyph glyph-name="uniF64B" unicode="&#xf64b;" 
d="M260 640q-47 0 -72 -30q-27 -30 -27 -91q0 -60 31 -91q26 -26 68 -26q43 0 67 26q32 32 32 94q0 59 -27 90q-24 28 -72 28zM260 328q-50 0 -80 -30q-33 -33 -33 -104q0 -70 33 -103q29 -31 82 -31q48 0 78 30q33 33 33 104t-33 104q-30 30 -80 30zM260 -16q-96 0 -148 48
q-61 56 -61 166q0 62 29 109q30 47 84 65q-40 14 -66 54q-27 41 -27 105q0 87 50 137q49 48 139 48t139 -48q50 -50 50 -137q0 -64 -27 -105q-26 -40 -66 -54q54 -18 84 -65q29 -47 29 -109q0 -49 -16 -94.5t-45 -71.5q-54 -48 -148 -48z" />
    <glyph glyph-name="uniF64C" unicode="&#xf64c;" 
d="M62 -88l77 40q15 -34 35 -53q26 -24 69 -24q49 0 80 32q48 51 55 204q-22 -35 -56 -52q-31 -16 -77 -16q-78 0 -128 47q-67 63 -67 175q0 125 69 193q52 52 141 52q83 0 136 -49q33 -31 50.5 -82t20.5 -90t3 -99q0 -98 -16 -185q-19 -103 -75 -159q-51 -51 -136 -51
q-76 0 -121 34q-40 31 -60 83zM146 269q0 -68 26 -108q29 -44 86 -44q54 0 83 44t29 115q0 85 -39 125q-29 29 -74 29q-51 0 -79 -37q-32 -41 -32 -124z" />
    <glyph glyph-name="uniF6BA" unicode="&#xf6ba;" horiz-adv-x="330" 
d="M29 317v82h272v-82h-272z" />
    <glyph glyph-name="uniF6BB" unicode="&#xf6bb;" horiz-adv-x="726" 
d="M48 317v82h630v-82h-630z" />
    <glyph glyph-name="uniF6BC" unicode="&#xf6bc;" horiz-adv-x="1021" 
d="M80 399h861v-82h-861v82z" />
    <glyph glyph-name="uniF6C3" unicode="&#xf6c3;" horiz-adv-x="463" 
d="M165 -51h91q2 -54 -13 -95q-22 -60 -73 -104l-54 21q26 38 37 65q14 35 14 82q0 11 -2 31z" />
    <glyph glyph-name="uniF6C9" unicode="&#xf6c9;" horiz-adv-x="378" 
d="M172 910h106l-112 -141h-70z" />
    <glyph glyph-name="uniF6CA" unicode="&#xf6ca;" horiz-adv-x="350" 
d="M114 910l61 -81l61 81h84l-106 -141h-78l-106 141h84z" />
    <glyph glyph-name="uniF6CB" unicode="&#xf6cb;" horiz-adv-x="521" 
d="M100 830q0 25 17 42t42 17t42 -17t17 -42t-17 -42t-42 -17t-42 17t-17 42zM303 830q0 25 17 42t42 17t42 -17t17 -42t-17 -42t-42 -17t-42 17t-17 42z" />
    <glyph glyph-name="uniF6CE" unicode="&#xf6ce;" horiz-adv-x="378" 
d="M202 910l76 -141h-70l-112 141h106z" />
    <glyph glyph-name="uniF6CF" unicode="&#xf6cf;" horiz-adv-x="412" 
d="M127 910h88l-108 -141h-57zM274 910h88l-107 -141h-57z" />
    <glyph glyph-name="uniF6D0" unicode="&#xf6d0;" horiz-adv-x="518" 
d="M409 784h-298v67h298v-67z" />
    <glyph glyph-name="uniF6D1" unicode="&#xf6d1;" horiz-adv-x="480" 
d="M334 908l66 -14q-8 -78 -46 -116q-40 -41 -114 -41t-114 41q-37 38 -46 116l66 14q11 -57 33 -77q21 -20 61 -20t61 20q23 23 33 77z" />
    <glyph glyph-name="uniF6D4" unicode="&#xf6d4;" horiz-adv-x="420" 
d="M289 701l63 -14q-5 -77 -50 -111q-34 -27 -93 -27q-60 0 -92 27q-42 35 -49 111l63 14q6 -54 29 -74q18 -16 50 -16t50 16q23 20 29 74z" />
    <glyph glyph-name="uniF6DC" unicode="&#xf6dc;" horiz-adv-x="276" 
d="M142 0v547q-48 -42 -102 -67l-40 57q51 31 92 68q47 42 72 95h70v-700h-92z" />
    <glyph glyph-name="uniF6DE" unicode="&#xf6de;" horiz-adv-x="765" 
d="M60 326h646v-82h-646v82z" />
    <glyph glyph-name="uniF730" unicode="&#xf730;" 
d="M260 437q-117 0 -117 -190t117 -190t117 190t-117 190zM47 247q0 134 65 203q58 60 148 60t148 -60q65 -69 65 -203t-65 -203q-58 -60 -148 -60t-148 60q-65 69 -65 203z" />
    <glyph glyph-name="uniF731" unicode="&#xf731;" horiz-adv-x="391" 
d="M185 0v349q-48 -42 -102 -67l-40 55q51 31 92 68q47 42 72 95h70v-500h-92z" />
    <glyph glyph-name="uniF732" unicode="&#xf732;" horiz-adv-x="484" 
d="M183 80h259v-80h-393v81q21 11 69 35t72.5 37t56.5 34t52 41q49 49 49 107q0 37 -26.5 65.5t-82.5 28.5q-81 0 -116 -92l-74 36q21 56 71 96.5t135 40.5q87 0 137 -48t50 -125q0 -83 -65 -142.5t-194 -114.5z" />
    <glyph glyph-name="uniF733" unicode="&#xf733;" 
d="M122 341l-71 36q24 61 75 97q50 36 126 36q73 0 120 -37q63 -50 63 -136q0 -62 -40 -102q-30 -31 -81 -46q59 -8 97 -50q41 -47 41 -126q0 -93 -61 -157q-59 -61 -154 -61q-79 0 -123 28q-44 27 -72 90l74 45q19 -44 46 -65q30 -25 77 -25q58 0 90 45q27 38 27 100
q0 78 -48 110q-33 22 -107 22h-14v76q70 0 107 21q49 27 49 93q0 41 -29 69q-27 27 -73 27q-45 0 -77 -27q-19 -16 -42 -63z" />
    <glyph glyph-name="uniF734" unicode="&#xf734;" horiz-adv-x="516" 
d="M308 0h-283v80l291 420h84v-420h61v-80h-61v-205h-92v205zM308 80v281l-197 -281h197z" />
    <glyph glyph-name="uniF735" unicode="&#xf735;" 
d="M124 500h307v-80h-226l-18 -189q32 32 94 32q92 0 139 -73q41 -65 41 -160q0 -53 -21 -102.5t-52 -78.5q-57 -54 -144 -54q-135 0 -185 125l73 42q23 -48 49 -69t70 -21q57 0 85.5 43t28.5 114q0 42 -8.5 75.5t-33.5 58.5t-65 25q-63 0 -91 -44h-73z" />
    <glyph glyph-name="uniF736" unicode="&#xf736;" 
d="M456 602l-77 -40q-14 34 -35 52q-26 22 -61 22q-47 0 -74 -27q-55 -55 -60 -218q19 28 53 48q36 20 81 20q71 0 118 -46q67 -64 67 -179q0 -57 -17.5 -110.5t-51.5 -87.5q-52 -52 -142 -52q-79 0 -129 48q-76 72 -76 270q0 108 19 198q23 114 73 165q51 51 134 51
q72 0 118 -33q40 -29 60 -81zM372 226q0 73 -26 114q-29 45 -84 45q-56 0 -85 -44q-29 -43 -29 -119q0 -81 31 -121q30 -37 82 -37q51 0 79 37q32 41 32 125z" />
    <glyph glyph-name="uniF737" unicode="&#xf737;" horiz-adv-x="461" 
d="M325 418h-278v82h362v-80q-75 -134 -129 -305q-20 -63 -39 -157.5t-25 -162.5h-96q23 174 84 345q65 182 121 278z" />
    <glyph glyph-name="uniF738" unicode="&#xf738;" 
d="M260 640q-47 0 -72 -30q-27 -30 -27 -91q0 -60 31 -91q26 -26 68 -26q43 0 67 26q32 32 32 94q0 59 -27 90q-24 28 -72 28zM260 328q-50 0 -80 -30q-33 -33 -33 -104q0 -70 33 -103q29 -31 82 -31q48 0 78 30q33 33 33 104t-33 104q-30 30 -80 30zM260 -16q-96 0 -148 48
q-61 56 -61 166q0 62 29 109q30 47 84 65q-40 14 -66 54q-27 41 -27 105q0 87 50 137q49 48 139 48t139 -48q50 -50 50 -137q0 -64 -27 -105q-26 -40 -66 -54q54 -18 84 -65q29 -47 29 -109q0 -49 -16 -94.5t-45 -71.5q-54 -48 -148 -48z" />
    <glyph glyph-name="uniF739" unicode="&#xf739;" 
d="M62 -88l77 40q15 -34 35 -53q26 -24 69 -24q49 0 80 32q48 51 55 204q-22 -35 -56 -52q-31 -16 -77 -16q-78 0 -128 47q-67 63 -67 175q0 125 69 193q52 52 141 52q83 0 136 -49q33 -31 50.5 -82t20.5 -90t3 -99q0 -98 -16 -185q-19 -103 -75 -159q-51 -51 -136 -51
q-76 0 -121 34q-40 31 -60 83zM146 269q0 -68 26 -108q29 -44 86 -44q54 0 83 44t29 115q0 85 -39 125q-29 29 -74 29q-51 0 -79 -37q-32 -41 -32 -124z" />
    <glyph glyph-name="nbspace" horiz-adv-x="233" 
 />
    <glyph glyph-name="dotlessi1" horiz-adv-x="219" 
d="M68 0v467h83v-467h-83z" />
    <glyph glyph-name="mu1" horiz-adv-x="525" 
d="M457 467v-467h-83v61q-21 -35 -47 -53q-29 -19 -64 -19q-37 0 -67 19q-7 5 -14 11.5t-12.5 13t-9.5 12t-6 9.5l-3 4v-250h-83v659h83v-303q13 -45 44 -76q28 -27 68 -27t68 27q29 27 43 76v303h83z" />
    <glyph glyph-name="hyphenminus" horiz-adv-x="330" 
d="M29 244v82h272v-82h-272z" />
    </font>
</defs>
</svg>
